<svg xmlns="http://www.w3.org/2000/svg" xmlns:xlink="http://www.w3.org/1999/xlink" width="940" zoomAndPan="magnify" viewBox="0 0 705 591.000005" height="788" preserveAspectRatio="xMidYMid meet" version="1.0"><defs><g/><clipPath id="aed87d850a"><path d="M 0.59375 0 L 704.402344 0 L 704.402344 590 L 0.59375 590 Z M 0.59375 0 " clip-rule="nonzero"/></clipPath></defs><g clip-path="url(#aed87d850a)"><path fill="#ffffff" d="M 0.59375 0 L 704.40625 0 L 704.40625 590 L 0.59375 590 Z M 0.59375 0 " fill-opacity="1" fill-rule="nonzero"/><path fill="#ffffff" d="M 0.59375 0 L 704.40625 0 L 704.40625 590 L 0.59375 590 Z M 0.59375 0 " fill-opacity="1" fill-rule="nonzero"/></g><g fill="#49cdcf" fill-opacity="0.302"><g transform="translate(154.625889, 200.874701)"><g><path d="M 57.390625 -88.15625 L 57.390625 -70.53125 L 26.5 -70.53125 L 26.5 -53 L 55.03125 -53 L 55.03125 -35.375 L 26.5 -35.375 L 26.5 0 L 6.40625 0 L 6.40625 -88.15625 Z M 57.390625 -88.15625 "/></g></g></g><g fill="#49cdcf" fill-opacity="0.302"><g transform="translate(215.214534, 200.874701)"><g><path d="M 6.40625 0 L 6.40625 -54.8125 L 25.328125 -54.8125 L 25.328125 -46.90625 L 25.546875 -46.90625 C 25.679688 -47.195312 25.910156 -47.554688 26.234375 -47.984375 C 26.554688 -48.410156 27.25 -49.15625 28.3125 -50.21875 C 29.382812 -51.289062 30.523438 -52.253906 31.734375 -53.109375 C 32.941406 -53.960938 34.507812 -54.726562 36.4375 -55.40625 C 38.363281 -56.082031 40.320312 -56.421875 42.3125 -56.421875 C 44.382812 -56.421875 46.414062 -56.132812 48.40625 -55.5625 C 50.40625 -55 51.863281 -54.429688 52.78125 -53.859375 L 54.28125 -53 L 46.375 -36.96875 C 44.019531 -38.96875 40.742188 -39.96875 36.546875 -39.96875 C 34.265625 -39.96875 32.300781 -39.46875 30.65625 -38.46875 C 29.019531 -37.46875 27.863281 -36.253906 27.1875 -34.828125 C 26.519531 -33.410156 26.039062 -32.203125 25.75 -31.203125 C 25.46875 -30.203125 25.328125 -29.421875 25.328125 -28.859375 L 25.328125 0 Z M 6.40625 0 "/></g></g></g><g fill="#49cdcf" fill-opacity="0.302"><g transform="translate(268.429959, 200.874701)"><g><path d="M 61.875 -24.796875 L 22.125 -24.796875 C 22.125 -20.941406 23.367188 -18.085938 25.859375 -16.234375 C 28.347656 -14.390625 31.054688 -13.46875 33.984375 -13.46875 C 37.046875 -13.46875 39.46875 -13.875 41.25 -14.6875 C 43.03125 -15.507812 45.0625 -17.132812 47.34375 -19.5625 L 61.015625 -12.71875 C 55.316406 -3.164062 45.84375 1.609375 32.59375 1.609375 C 24.332031 1.609375 17.242188 -1.222656 11.328125 -6.890625 C 5.410156 -12.554688 2.453125 -19.378906 2.453125 -27.359375 C 2.453125 -35.335938 5.410156 -42.175781 11.328125 -47.875 C 17.242188 -53.570312 24.332031 -56.421875 32.59375 -56.421875 C 41.28125 -56.421875 48.347656 -53.910156 53.796875 -48.890625 C 59.253906 -43.867188 61.984375 -36.691406 61.984375 -27.359375 C 61.984375 -26.078125 61.945312 -25.222656 61.875 -24.796875 Z M 22.65625 -35.265625 L 43.484375 -35.265625 C 43.054688 -38.109375 41.9375 -40.296875 40.125 -41.828125 C 38.3125 -43.367188 35.976562 -44.140625 33.125 -44.140625 C 29.988281 -44.140625 27.492188 -43.316406 25.640625 -41.671875 C 23.796875 -40.035156 22.800781 -37.898438 22.65625 -35.265625 Z M 22.65625 -35.265625 "/></g></g></g><g fill="#49cdcf" fill-opacity="0.302"><g transform="translate(332.865503, 200.874701)"><g><path d="M 6.40625 0 L 6.40625 -54.8125 L 25.328125 -54.8125 L 25.328125 -49.046875 L 25.546875 -49.046875 C 30.453125 -53.960938 35.6875 -56.421875 41.25 -56.421875 C 43.957031 -56.421875 46.644531 -56.0625 49.3125 -55.34375 C 51.988281 -54.632812 54.554688 -53.53125 57.015625 -52.03125 C 59.472656 -50.539062 61.46875 -48.421875 63 -45.671875 C 64.53125 -42.929688 65.296875 -39.75 65.296875 -36.125 L 65.296875 0 L 46.375 0 L 46.375 -30.984375 C 46.375 -33.835938 45.460938 -36.332031 43.640625 -38.46875 C 41.828125 -40.601562 39.460938 -41.671875 36.546875 -41.671875 C 33.691406 -41.671875 31.109375 -40.566406 28.796875 -38.359375 C 26.484375 -36.148438 25.328125 -33.691406 25.328125 -30.984375 L 25.328125 0 Z M 6.40625 0 "/></g></g></g><g fill="#49cdcf" fill-opacity="0.302"><g transform="translate(403.498843, 200.874701)"><g><path d="M 59.40625 -54.8125 L 32.265625 -14.421875 L 57.28125 -14.421875 L 57.28125 0 L 0.53125 0 L 27.671875 -40.390625 L 5.015625 -40.390625 L 5.015625 -54.8125 Z M 59.40625 -54.8125 "/></g></g></g><g fill="#49cdcf" fill-opacity="0.302"><g transform="translate(463.446343, 200.874701)"><g><path d="M 61.875 -24.796875 L 22.125 -24.796875 C 22.125 -20.941406 23.367188 -18.085938 25.859375 -16.234375 C 28.347656 -14.390625 31.054688 -13.46875 33.984375 -13.46875 C 37.046875 -13.46875 39.46875 -13.875 41.25 -14.6875 C 43.03125 -15.507812 45.0625 -17.132812 47.34375 -19.5625 L 61.015625 -12.71875 C 55.316406 -3.164062 45.84375 1.609375 32.59375 1.609375 C 24.332031 1.609375 17.242188 -1.222656 11.328125 -6.890625 C 5.410156 -12.554688 2.453125 -19.378906 2.453125 -27.359375 C 2.453125 -35.335938 5.410156 -42.175781 11.328125 -47.875 C 17.242188 -53.570312 24.332031 -56.421875 32.59375 -56.421875 C 41.28125 -56.421875 48.347656 -53.910156 53.796875 -48.890625 C 59.253906 -43.867188 61.984375 -36.691406 61.984375 -27.359375 C 61.984375 -26.078125 61.945312 -25.222656 61.875 -24.796875 Z M 22.65625 -35.265625 L 43.484375 -35.265625 C 43.054688 -38.109375 41.9375 -40.296875 40.125 -41.828125 C 38.3125 -43.367188 35.976562 -44.140625 33.125 -44.140625 C 29.988281 -44.140625 27.492188 -43.316406 25.640625 -41.671875 C 23.796875 -40.035156 22.800781 -37.898438 22.65625 -35.265625 Z M 22.65625 -35.265625 "/></g></g></g><g fill="#49cdcf" fill-opacity="0.302"><g transform="translate(527.881898, 200.874701)"><g><path d="M 6.40625 0 L 6.40625 -91.90625 L 25.328125 -91.90625 L 25.328125 0 Z M 6.40625 0 "/></g></g></g><g fill="#49cdcf" fill-opacity="0.502"><g transform="translate(145.017113, 191.595617)"><g><path d="M 57.390625 -88.15625 L 57.390625 -70.53125 L 26.5 -70.53125 L 26.5 -53 L 55.03125 -53 L 55.03125 -35.375 L 26.5 -35.375 L 26.5 0 L 6.40625 0 L 6.40625 -88.15625 Z M 57.390625 -88.15625 "/></g></g></g><g fill="#49cdcf" fill-opacity="0.502"><g transform="translate(205.605759, 191.595617)"><g><path d="M 6.40625 0 L 6.40625 -54.8125 L 25.328125 -54.8125 L 25.328125 -46.90625 L 25.546875 -46.90625 C 25.679688 -47.195312 25.910156 -47.554688 26.234375 -47.984375 C 26.554688 -48.410156 27.25 -49.15625 28.3125 -50.21875 C 29.382812 -51.289062 30.523438 -52.253906 31.734375 -53.109375 C 32.941406 -53.960938 34.507812 -54.726562 36.4375 -55.40625 C 38.363281 -56.082031 40.320312 -56.421875 42.3125 -56.421875 C 44.382812 -56.421875 46.414062 -56.132812 48.40625 -55.5625 C 50.40625 -55 51.863281 -54.429688 52.78125 -53.859375 L 54.28125 -53 L 46.375 -36.96875 C 44.019531 -38.96875 40.742188 -39.96875 36.546875 -39.96875 C 34.265625 -39.96875 32.300781 -39.46875 30.65625 -38.46875 C 29.019531 -37.46875 27.863281 -36.253906 27.1875 -34.828125 C 26.519531 -33.410156 26.039062 -32.203125 25.75 -31.203125 C 25.46875 -30.203125 25.328125 -29.421875 25.328125 -28.859375 L 25.328125 0 Z M 6.40625 0 "/></g></g></g><g fill="#49cdcf" fill-opacity="0.502"><g transform="translate(258.821183, 191.595617)"><g><path d="M 61.875 -24.796875 L 22.125 -24.796875 C 22.125 -20.941406 23.367188 -18.085938 25.859375 -16.234375 C 28.347656 -14.390625 31.054688 -13.46875 33.984375 -13.46875 C 37.046875 -13.46875 39.46875 -13.875 41.25 -14.6875 C 43.03125 -15.507812 45.0625 -17.132812 47.34375 -19.5625 L 61.015625 -12.71875 C 55.316406 -3.164062 45.84375 1.609375 32.59375 1.609375 C 24.332031 1.609375 17.242188 -1.222656 11.328125 -6.890625 C 5.410156 -12.554688 2.453125 -19.378906 2.453125 -27.359375 C 2.453125 -35.335938 5.410156 -42.175781 11.328125 -47.875 C 17.242188 -53.570312 24.332031 -56.421875 32.59375 -56.421875 C 41.28125 -56.421875 48.347656 -53.910156 53.796875 -48.890625 C 59.253906 -43.867188 61.984375 -36.691406 61.984375 -27.359375 C 61.984375 -26.078125 61.945312 -25.222656 61.875 -24.796875 Z M 22.65625 -35.265625 L 43.484375 -35.265625 C 43.054688 -38.109375 41.9375 -40.296875 40.125 -41.828125 C 38.3125 -43.367188 35.976562 -44.140625 33.125 -44.140625 C 29.988281 -44.140625 27.492188 -43.316406 25.640625 -41.671875 C 23.796875 -40.035156 22.800781 -37.898438 22.65625 -35.265625 Z M 22.65625 -35.265625 "/></g></g></g><g fill="#49cdcf" fill-opacity="0.502"><g transform="translate(323.256728, 191.595617)"><g><path d="M 6.40625 0 L 6.40625 -54.8125 L 25.328125 -54.8125 L 25.328125 -49.046875 L 25.546875 -49.046875 C 30.453125 -53.960938 35.6875 -56.421875 41.25 -56.421875 C 43.957031 -56.421875 46.644531 -56.0625 49.3125 -55.34375 C 51.988281 -54.632812 54.554688 -53.53125 57.015625 -52.03125 C 59.472656 -50.539062 61.46875 -48.421875 63 -45.671875 C 64.53125 -42.929688 65.296875 -39.75 65.296875 -36.125 L 65.296875 0 L 46.375 0 L 46.375 -30.984375 C 46.375 -33.835938 45.460938 -36.332031 43.640625 -38.46875 C 41.828125 -40.601562 39.460938 -41.671875 36.546875 -41.671875 C 33.691406 -41.671875 31.109375 -40.566406 28.796875 -38.359375 C 26.484375 -36.148438 25.328125 -33.691406 25.328125 -30.984375 L 25.328125 0 Z M 6.40625 0 "/></g></g></g><g fill="#49cdcf" fill-opacity="0.502"><g transform="translate(393.890068, 191.595617)"><g><path d="M 59.40625 -54.8125 L 32.265625 -14.421875 L 57.28125 -14.421875 L 57.28125 0 L 0.53125 0 L 27.671875 -40.390625 L 5.015625 -40.390625 L 5.015625 -54.8125 Z M 59.40625 -54.8125 "/></g></g></g><g fill="#49cdcf" fill-opacity="0.502"><g transform="translate(453.837567, 191.595617)"><g><path d="M 61.875 -24.796875 L 22.125 -24.796875 C 22.125 -20.941406 23.367188 -18.085938 25.859375 -16.234375 C 28.347656 -14.390625 31.054688 -13.46875 33.984375 -13.46875 C 37.046875 -13.46875 39.46875 -13.875 41.25 -14.6875 C 43.03125 -15.507812 45.0625 -17.132812 47.34375 -19.5625 L 61.015625 -12.71875 C 55.316406 -3.164062 45.84375 1.609375 32.59375 1.609375 C 24.332031 1.609375 17.242188 -1.222656 11.328125 -6.890625 C 5.410156 -12.554688 2.453125 -19.378906 2.453125 -27.359375 C 2.453125 -35.335938 5.410156 -42.175781 11.328125 -47.875 C 17.242188 -53.570312 24.332031 -56.421875 32.59375 -56.421875 C 41.28125 -56.421875 48.347656 -53.910156 53.796875 -48.890625 C 59.253906 -43.867188 61.984375 -36.691406 61.984375 -27.359375 C 61.984375 -26.078125 61.945312 -25.222656 61.875 -24.796875 Z M 22.65625 -35.265625 L 43.484375 -35.265625 C 43.054688 -38.109375 41.9375 -40.296875 40.125 -41.828125 C 38.3125 -43.367188 35.976562 -44.140625 33.125 -44.140625 C 29.988281 -44.140625 27.492188 -43.316406 25.640625 -41.671875 C 23.796875 -40.035156 22.800781 -37.898438 22.65625 -35.265625 Z M 22.65625 -35.265625 "/></g></g></g><g fill="#49cdcf" fill-opacity="0.502"><g transform="translate(518.273123, 191.595617)"><g><path d="M 6.40625 0 L 6.40625 -91.90625 L 25.328125 -91.90625 L 25.328125 0 Z M 6.40625 0 "/></g></g></g><g fill="#145da0" fill-opacity="1"><g transform="translate(135.408338, 182.316526)"><g><path d="M 57.390625 -88.15625 L 57.390625 -70.53125 L 26.5 -70.53125 L 26.5 -53 L 55.03125 -53 L 55.03125 -35.375 L 26.5 -35.375 L 26.5 0 L 6.40625 0 L 6.40625 -88.15625 Z M 57.390625 -88.15625 "/></g></g></g><g fill="#145da0" fill-opacity="1"><g transform="translate(195.996983, 182.316526)"><g><path d="M 6.40625 0 L 6.40625 -54.8125 L 25.328125 -54.8125 L 25.328125 -46.90625 L 25.546875 -46.90625 C 25.679688 -47.195312 25.910156 -47.554688 26.234375 -47.984375 C 26.554688 -48.410156 27.25 -49.15625 28.3125 -50.21875 C 29.382812 -51.289062 30.523438 -52.253906 31.734375 -53.109375 C 32.941406 -53.960938 34.507812 -54.726562 36.4375 -55.40625 C 38.363281 -56.082031 40.320312 -56.421875 42.3125 -56.421875 C 44.382812 -56.421875 46.414062 -56.132812 48.40625 -55.5625 C 50.40625 -55 51.863281 -54.429688 52.78125 -53.859375 L 54.28125 -53 L 46.375 -36.96875 C 44.019531 -38.96875 40.742188 -39.96875 36.546875 -39.96875 C 34.265625 -39.96875 32.300781 -39.46875 30.65625 -38.46875 C 29.019531 -37.46875 27.863281 -36.253906 27.1875 -34.828125 C 26.519531 -33.410156 26.039062 -32.203125 25.75 -31.203125 C 25.46875 -30.203125 25.328125 -29.421875 25.328125 -28.859375 L 25.328125 0 Z M 6.40625 0 "/></g></g></g><g fill="#145da0" fill-opacity="1"><g transform="translate(249.212408, 182.316526)"><g><path d="M 61.875 -24.796875 L 22.125 -24.796875 C 22.125 -20.941406 23.367188 -18.085938 25.859375 -16.234375 C 28.347656 -14.390625 31.054688 -13.46875 33.984375 -13.46875 C 37.046875 -13.46875 39.46875 -13.875 41.25 -14.6875 C 43.03125 -15.507812 45.0625 -17.132812 47.34375 -19.5625 L 61.015625 -12.71875 C 55.316406 -3.164062 45.84375 1.609375 32.59375 1.609375 C 24.332031 1.609375 17.242188 -1.222656 11.328125 -6.890625 C 5.410156 -12.554688 2.453125 -19.378906 2.453125 -27.359375 C 2.453125 -35.335938 5.410156 -42.175781 11.328125 -47.875 C 17.242188 -53.570312 24.332031 -56.421875 32.59375 -56.421875 C 41.28125 -56.421875 48.347656 -53.910156 53.796875 -48.890625 C 59.253906 -43.867188 61.984375 -36.691406 61.984375 -27.359375 C 61.984375 -26.078125 61.945312 -25.222656 61.875 -24.796875 Z M 22.65625 -35.265625 L 43.484375 -35.265625 C 43.054688 -38.109375 41.9375 -40.296875 40.125 -41.828125 C 38.3125 -43.367188 35.976562 -44.140625 33.125 -44.140625 C 29.988281 -44.140625 27.492188 -43.316406 25.640625 -41.671875 C 23.796875 -40.035156 22.800781 -37.898438 22.65625 -35.265625 Z M 22.65625 -35.265625 "/></g></g></g><g fill="#145da0" fill-opacity="1"><g transform="translate(313.647952, 182.316526)"><g><path d="M 6.40625 0 L 6.40625 -54.8125 L 25.328125 -54.8125 L 25.328125 -49.046875 L 25.546875 -49.046875 C 30.453125 -53.960938 35.6875 -56.421875 41.25 -56.421875 C 43.957031 -56.421875 46.644531 -56.0625 49.3125 -55.34375 C 51.988281 -54.632812 54.554688 -53.53125 57.015625 -52.03125 C 59.472656 -50.539062 61.46875 -48.421875 63 -45.671875 C 64.53125 -42.929688 65.296875 -39.75 65.296875 -36.125 L 65.296875 0 L 46.375 0 L 46.375 -30.984375 C 46.375 -33.835938 45.460938 -36.332031 43.640625 -38.46875 C 41.828125 -40.601562 39.460938 -41.671875 36.546875 -41.671875 C 33.691406 -41.671875 31.109375 -40.566406 28.796875 -38.359375 C 26.484375 -36.148438 25.328125 -33.691406 25.328125 -30.984375 L 25.328125 0 Z M 6.40625 0 "/></g></g></g><g fill="#145da0" fill-opacity="1"><g transform="translate(384.281292, 182.316526)"><g><path d="M 59.40625 -54.8125 L 32.265625 -14.421875 L 57.28125 -14.421875 L 57.28125 0 L 0.53125 0 L 27.671875 -40.390625 L 5.015625 -40.390625 L 5.015625 -54.8125 Z M 59.40625 -54.8125 "/></g></g></g><g fill="#145da0" fill-opacity="1"><g transform="translate(444.228791, 182.316526)"><g><path d="M 61.875 -24.796875 L 22.125 -24.796875 C 22.125 -20.941406 23.367188 -18.085938 25.859375 -16.234375 C 28.347656 -14.390625 31.054688 -13.46875 33.984375 -13.46875 C 37.046875 -13.46875 39.46875 -13.875 41.25 -14.6875 C 43.03125 -15.507812 45.0625 -17.132812 47.34375 -19.5625 L 61.015625 -12.71875 C 55.316406 -3.164062 45.84375 1.609375 32.59375 1.609375 C 24.332031 1.609375 17.242188 -1.222656 11.328125 -6.890625 C 5.410156 -12.554688 2.453125 -19.378906 2.453125 -27.359375 C 2.453125 -35.335938 5.410156 -42.175781 11.328125 -47.875 C 17.242188 -53.570312 24.332031 -56.421875 32.59375 -56.421875 C 41.28125 -56.421875 48.347656 -53.910156 53.796875 -48.890625 C 59.253906 -43.867188 61.984375 -36.691406 61.984375 -27.359375 C 61.984375 -26.078125 61.945312 -25.222656 61.875 -24.796875 Z M 22.65625 -35.265625 L 43.484375 -35.265625 C 43.054688 -38.109375 41.9375 -40.296875 40.125 -41.828125 C 38.3125 -43.367188 35.976562 -44.140625 33.125 -44.140625 C 29.988281 -44.140625 27.492188 -43.316406 25.640625 -41.671875 C 23.796875 -40.035156 22.800781 -37.898438 22.65625 -35.265625 Z M 22.65625 -35.265625 "/></g></g></g><g fill="#145da0" fill-opacity="1"><g transform="translate(508.664347, 182.316526)"><g><path d="M 6.40625 0 L 6.40625 -91.90625 L 25.328125 -91.90625 L 25.328125 0 Z M 6.40625 0 "/></g></g></g><g fill="#49cdcf" fill-opacity="0.302"><g transform="translate(559.620297, 200.874701)"><g/></g></g><g fill="#49cdcf" fill-opacity="0.502"><g transform="translate(550.011521, 191.595617)"><g/></g></g><g fill="#6109a3" fill-opacity="1"><g transform="translate(540.402746, 182.316526)"><g/></g></g><g fill="#49cdcf" fill-opacity="0.302"><g transform="translate(288.824595, 339.390321)"><g><path d="M 30.484375 0 L -2.6875 -79.09375 L 17.640625 -79.09375 L 37.578125 -27.125 L 57.53125 -79.09375 L 77.84375 -79.09375 L 44.671875 0 Z M 30.484375 0 "/></g></g></g><g fill="#49cdcf" fill-opacity="0.302"><g transform="translate(363.989041, 339.390321)"><g><path d="M 34.90625 -80.53125 C 39.1875 -80.53125 43.367188 -79.90625 47.453125 -78.65625 C 51.546875 -77.414062 54.582031 -76.1875 56.5625 -74.96875 L 59.4375 -73.0625 L 52.15625 -58.671875 C 51.582031 -59.054688 50.78125 -59.550781 49.75 -60.15625 C 48.726562 -60.769531 46.8125 -61.585938 44 -62.609375 C 41.1875 -63.628906 38.566406 -64.140625 36.140625 -64.140625 C 33.140625 -64.140625 30.820312 -63.5 29.1875 -62.21875 C 27.5625 -60.945312 26.75 -59.222656 26.75 -57.046875 C 26.75 -55.960938 27.128906 -54.957031 27.890625 -54.03125 C 28.660156 -53.101562 29.972656 -52.109375 31.828125 -51.046875 C 33.679688 -49.992188 35.3125 -49.144531 36.71875 -48.5 C 38.125 -47.863281 40.296875 -46.910156 43.234375 -45.640625 C 48.347656 -43.460938 52.710938 -40.503906 56.328125 -36.765625 C 59.941406 -33.023438 61.75 -28.789062 61.75 -24.0625 C 61.75 -19.519531 60.929688 -15.554688 59.296875 -12.171875 C 57.671875 -8.785156 55.4375 -6.132812 52.59375 -4.21875 C 49.75 -2.300781 46.597656 -0.878906 43.140625 0.046875 C 39.691406 0.972656 35.953125 1.4375 31.921875 1.4375 C 28.472656 1.4375 25.085938 1.082031 21.765625 0.375 C 18.441406 -0.320312 15.660156 -1.195312 13.421875 -2.25 C 11.179688 -3.300781 9.164062 -4.335938 7.375 -5.359375 C 5.59375 -6.390625 4.285156 -7.253906 3.453125 -7.953125 L 2.203125 -9.015625 L 11.21875 -24.15625 C 11.988281 -23.519531 13.039062 -22.707031 14.375 -21.71875 C 15.71875 -20.726562 18.097656 -19.398438 21.515625 -17.734375 C 24.941406 -16.078125 27.960938 -15.25 30.578125 -15.25 C 38.191406 -15.25 42 -17.835938 42 -23.015625 C 42 -24.097656 41.722656 -25.101562 41.171875 -26.03125 C 40.628906 -26.957031 39.671875 -27.882812 38.296875 -28.8125 C 36.921875 -29.738281 35.707031 -30.472656 34.65625 -31.015625 C 33.601562 -31.554688 31.878906 -32.382812 29.484375 -33.5 C 27.085938 -34.625 25.3125 -35.472656 24.15625 -36.046875 C 19.363281 -38.410156 15.65625 -41.363281 13.03125 -44.90625 C 10.414062 -48.457031 9.109375 -52.28125 9.109375 -56.375 C 9.109375 -63.46875 11.726562 -69.265625 16.96875 -73.765625 C 22.207031 -78.273438 28.1875 -80.53125 34.90625 -80.53125 Z M 34.90625 -80.53125 "/></g></g></g><g fill="#49cdcf" fill-opacity="0.502"><g transform="translate(279.21582, 330.111237)"><g><path d="M 30.484375 0 L -2.6875 -79.09375 L 17.640625 -79.09375 L 37.578125 -27.125 L 57.53125 -79.09375 L 77.84375 -79.09375 L 44.671875 0 Z M 30.484375 0 "/></g></g></g><g fill="#49cdcf" fill-opacity="0.502"><g transform="translate(354.380265, 330.111237)"><g><path d="M 34.90625 -80.53125 C 39.1875 -80.53125 43.367188 -79.90625 47.453125 -78.65625 C 51.546875 -77.414062 54.582031 -76.1875 56.5625 -74.96875 L 59.4375 -73.0625 L 52.15625 -58.671875 C 51.582031 -59.054688 50.78125 -59.550781 49.75 -60.15625 C 48.726562 -60.769531 46.8125 -61.585938 44 -62.609375 C 41.1875 -63.628906 38.566406 -64.140625 36.140625 -64.140625 C 33.140625 -64.140625 30.820312 -63.5 29.1875 -62.21875 C 27.5625 -60.945312 26.75 -59.222656 26.75 -57.046875 C 26.75 -55.960938 27.128906 -54.957031 27.890625 -54.03125 C 28.660156 -53.101562 29.972656 -52.109375 31.828125 -51.046875 C 33.679688 -49.992188 35.3125 -49.144531 36.71875 -48.5 C 38.125 -47.863281 40.296875 -46.910156 43.234375 -45.640625 C 48.347656 -43.460938 52.710938 -40.503906 56.328125 -36.765625 C 59.941406 -33.023438 61.75 -28.789062 61.75 -24.0625 C 61.75 -19.519531 60.929688 -15.554688 59.296875 -12.171875 C 57.671875 -8.785156 55.4375 -6.132812 52.59375 -4.21875 C 49.75 -2.300781 46.597656 -0.878906 43.140625 0.046875 C 39.691406 0.972656 35.953125 1.4375 31.921875 1.4375 C 28.472656 1.4375 25.085938 1.082031 21.765625 0.375 C 18.441406 -0.320312 15.660156 -1.195312 13.421875 -2.25 C 11.179688 -3.300781 9.164062 -4.335938 7.375 -5.359375 C 5.59375 -6.390625 4.285156 -7.253906 3.453125 -7.953125 L 2.203125 -9.015625 L 11.21875 -24.15625 C 11.988281 -23.519531 13.039062 -22.707031 14.375 -21.71875 C 15.71875 -20.726562 18.097656 -19.398438 21.515625 -17.734375 C 24.941406 -16.078125 27.960938 -15.25 30.578125 -15.25 C 38.191406 -15.25 42 -17.835938 42 -23.015625 C 42 -24.097656 41.722656 -25.101562 41.171875 -26.03125 C 40.628906 -26.957031 39.671875 -27.882812 38.296875 -28.8125 C 36.921875 -29.738281 35.707031 -30.472656 34.65625 -31.015625 C 33.601562 -31.554688 31.878906 -32.382812 29.484375 -33.5 C 27.085938 -34.625 25.3125 -35.472656 24.15625 -36.046875 C 19.363281 -38.410156 15.65625 -41.363281 13.03125 -44.90625 C 10.414062 -48.457031 9.109375 -52.28125 9.109375 -56.375 C 9.109375 -63.46875 11.726562 -69.265625 16.96875 -73.765625 C 22.207031 -78.273438 28.1875 -80.53125 34.90625 -80.53125 Z M 34.90625 -80.53125 "/></g></g></g><g fill="#6109a3" fill-opacity="1"><g transform="translate(269.607044, 320.832146)"><g><path d="M 30.484375 0 L -2.6875 -79.09375 L 17.640625 -79.09375 L 37.578125 -27.125 L 57.53125 -79.09375 L 77.84375 -79.09375 L 44.671875 0 Z M 30.484375 0 "/></g></g></g><g fill="#6109a3" fill-opacity="1"><g transform="translate(344.77149, 320.832146)"><g><path d="M 34.90625 -80.53125 C 39.1875 -80.53125 43.367188 -79.90625 47.453125 -78.65625 C 51.546875 -77.414062 54.582031 -76.1875 56.5625 -74.96875 L 59.4375 -73.0625 L 52.15625 -58.671875 C 51.582031 -59.054688 50.78125 -59.550781 49.75 -60.15625 C 48.726562 -60.769531 46.8125 -61.585938 44 -62.609375 C 41.1875 -63.628906 38.566406 -64.140625 36.140625 -64.140625 C 33.140625 -64.140625 30.820312 -63.5 29.1875 -62.21875 C 27.5625 -60.945312 26.75 -59.222656 26.75 -57.046875 C 26.75 -55.960938 27.128906 -54.957031 27.890625 -54.03125 C 28.660156 -53.101562 29.972656 -52.109375 31.828125 -51.046875 C 33.679688 -49.992188 35.3125 -49.144531 36.71875 -48.5 C 38.125 -47.863281 40.296875 -46.910156 43.234375 -45.640625 C 48.347656 -43.460938 52.710938 -40.503906 56.328125 -36.765625 C 59.941406 -33.023438 61.75 -28.789062 61.75 -24.0625 C 61.75 -19.519531 60.929688 -15.554688 59.296875 -12.171875 C 57.671875 -8.785156 55.4375 -6.132812 52.59375 -4.21875 C 49.75 -2.300781 46.597656 -0.878906 43.140625 0.046875 C 39.691406 0.972656 35.953125 1.4375 31.921875 1.4375 C 28.472656 1.4375 25.085938 1.082031 21.765625 0.375 C 18.441406 -0.320312 15.660156 -1.195312 13.421875 -2.25 C 11.179688 -3.300781 9.164062 -4.335938 7.375 -5.359375 C 5.59375 -6.390625 4.285156 -7.253906 3.453125 -7.953125 L 2.203125 -9.015625 L 11.21875 -24.15625 C 11.988281 -23.519531 13.039062 -22.707031 14.375 -21.71875 C 15.71875 -20.726562 18.097656 -19.398438 21.515625 -17.734375 C 24.941406 -16.078125 27.960938 -15.25 30.578125 -15.25 C 38.191406 -15.25 42 -17.835938 42 -23.015625 C 42 -24.097656 41.722656 -25.101562 41.171875 -26.03125 C 40.628906 -26.957031 39.671875 -27.882812 38.296875 -28.8125 C 36.921875 -29.738281 35.707031 -30.472656 34.65625 -31.015625 C 33.601562 -31.554688 31.878906 -32.382812 29.484375 -33.5 C 27.085938 -34.625 25.3125 -35.472656 24.15625 -36.046875 C 19.363281 -38.410156 15.65625 -41.363281 13.03125 -44.90625 C 10.414062 -48.457031 9.109375 -52.28125 9.109375 -56.375 C 9.109375 -63.46875 11.726562 -69.265625 16.96875 -73.765625 C 22.207031 -78.273438 28.1875 -80.53125 34.90625 -80.53125 Z M 34.90625 -80.53125 "/></g></g></g><g fill="#49cdcf" fill-opacity="0.302"><g transform="translate(428.416519, 339.390321)"><g/></g></g><g fill="#49cdcf" fill-opacity="0.502"><g transform="translate(418.807744, 330.111237)"><g/></g></g><g fill="#6109a3" fill-opacity="1"><g transform="translate(409.198968, 320.832146)"><g/></g></g><g fill="#49cdcf" fill-opacity="0.302"><g transform="translate(128.665909, 483.895806)"><g><path d="M 33.984375 0 L -2.984375 -88.15625 L 19.65625 -88.15625 L 41.890625 -30.234375 L 64.109375 -88.15625 L 86.765625 -88.15625 L 49.796875 0 Z M 33.984375 0 "/></g></g></g><g fill="#49cdcf" fill-opacity="0.302"><g transform="translate(212.442808, 483.895806)"><g><path d="M 10.140625 -6.78125 C 5.015625 -12.375 2.453125 -19.226562 2.453125 -27.34375 C 2.453125 -35.46875 5.015625 -42.34375 10.140625 -47.96875 C 15.273438 -53.601562 21.796875 -56.421875 29.703125 -56.421875 C 36.972656 -56.421875 42.957031 -54.140625 47.65625 -49.578125 L 47.65625 -54.8125 L 66.578125 -54.8125 L 66.578125 0 L 47.875 0 L 47.875 -6.203125 L 47.65625 -6.203125 C 42.957031 -0.992188 36.972656 1.609375 29.703125 1.609375 C 21.796875 1.609375 15.273438 -1.1875 10.140625 -6.78125 Z M 26.234375 -36.640625 C 23.773438 -34.222656 22.546875 -31.125 22.546875 -27.34375 C 22.546875 -23.570312 23.71875 -20.492188 26.0625 -18.109375 C 28.414062 -15.722656 31.519531 -14.53125 35.375 -14.53125 C 39.070312 -14.53125 42.113281 -15.738281 44.5 -18.15625 C 46.894531 -20.582031 48.09375 -23.648438 48.09375 -27.359375 C 48.09375 -31.128906 46.863281 -34.222656 44.40625 -36.640625 C 41.945312 -39.066406 38.9375 -40.28125 35.375 -40.28125 C 31.738281 -40.28125 28.691406 -39.066406 26.234375 -36.640625 Z M 26.234375 -36.640625 "/></g></g></g><g fill="#49cdcf" fill-opacity="0.302"><g transform="translate(285.427009, 483.895806)"><g><path d="M 6.40625 0 L 6.40625 -91.90625 L 25.328125 -91.90625 L 25.328125 0 Z M 6.40625 0 "/></g></g></g><g fill="#49cdcf" fill-opacity="0.302"><g transform="translate(317.163919, 483.895806)"><g><path d="M 30.234375 -56.421875 C 33.367188 -56.421875 36.46875 -56.0625 39.53125 -55.34375 C 42.601562 -54.632812 44.882812 -53.925781 46.375 -53.21875 L 48.625 -52.140625 L 42.421875 -39.75 C 38.148438 -42.03125 34.085938 -43.171875 30.234375 -43.171875 C 28.097656 -43.171875 26.582031 -42.9375 25.6875 -42.46875 C 24.800781 -42.007812 24.359375 -41.140625 24.359375 -39.859375 C 24.359375 -39.578125 24.394531 -39.289062 24.46875 -39 C 24.539062 -38.71875 24.679688 -38.453125 24.890625 -38.203125 C 25.109375 -37.953125 25.304688 -37.738281 25.484375 -37.5625 C 25.660156 -37.382812 25.960938 -37.1875 26.390625 -36.96875 C 26.816406 -36.757812 27.15625 -36.597656 27.40625 -36.484375 C 27.65625 -36.378906 28.066406 -36.21875 28.640625 -36 C 29.210938 -35.789062 29.640625 -35.632812 29.921875 -35.53125 C 30.203125 -35.425781 30.679688 -35.265625 31.359375 -35.046875 C 32.035156 -34.835938 32.550781 -34.695312 32.90625 -34.625 C 35.113281 -33.976562 37.035156 -33.265625 38.671875 -32.484375 C 40.316406 -31.703125 42.046875 -30.632812 43.859375 -29.28125 C 45.679688 -27.925781 47.085938 -26.210938 48.078125 -24.140625 C 49.078125 -22.078125 49.578125 -19.726562 49.578125 -17.09375 C 49.578125 -4.625 40.921875 1.609375 23.609375 1.609375 C 19.691406 1.609375 15.96875 1.003906 12.4375 -0.203125 C 8.914062 -1.421875 6.375 -2.632812 4.8125 -3.84375 L 2.453125 -5.765625 L 10.15625 -18.703125 C 10.71875 -18.203125 11.460938 -17.613281 12.390625 -16.9375 C 13.316406 -16.257812 14.988281 -15.332031 17.40625 -14.15625 C 19.832031 -12.976562 21.9375 -12.390625 23.71875 -12.390625 C 27.632812 -12.390625 29.59375 -13.707031 29.59375 -16.34375 C 29.59375 -17.5625 29.09375 -18.507812 28.09375 -19.1875 C 27.101562 -19.863281 25.414062 -20.628906 23.03125 -21.484375 C 20.644531 -22.335938 18.773438 -23.117188 17.421875 -23.828125 C 13.992188 -25.609375 11.285156 -27.617188 9.296875 -29.859375 C 7.304688 -32.109375 6.3125 -35.085938 6.3125 -38.796875 C 6.3125 -44.347656 8.460938 -48.671875 12.765625 -51.765625 C 17.078125 -54.867188 22.898438 -56.421875 30.234375 -56.421875 Z M 30.234375 -56.421875 "/></g></g></g><g fill="#49cdcf" fill-opacity="0.302"><g transform="translate(369.738198, 483.895806)"><g><path d="M 10.140625 -6.78125 C 5.015625 -12.375 2.453125 -19.226562 2.453125 -27.34375 C 2.453125 -35.46875 5.015625 -42.34375 10.140625 -47.96875 C 15.273438 -53.601562 21.796875 -56.421875 29.703125 -56.421875 C 36.972656 -56.421875 42.957031 -54.140625 47.65625 -49.578125 L 47.65625 -54.8125 L 66.578125 -54.8125 L 66.578125 0 L 47.875 0 L 47.875 -6.203125 L 47.65625 -6.203125 C 42.957031 -0.992188 36.972656 1.609375 29.703125 1.609375 C 21.796875 1.609375 15.273438 -1.1875 10.140625 -6.78125 Z M 26.234375 -36.640625 C 23.773438 -34.222656 22.546875 -31.125 22.546875 -27.34375 C 22.546875 -23.570312 23.71875 -20.492188 26.0625 -18.109375 C 28.414062 -15.722656 31.519531 -14.53125 35.375 -14.53125 C 39.070312 -14.53125 42.113281 -15.738281 44.5 -18.15625 C 46.894531 -20.582031 48.09375 -23.648438 48.09375 -27.359375 C 48.09375 -31.128906 46.863281 -34.222656 44.40625 -36.640625 C 41.945312 -39.066406 38.9375 -40.28125 35.375 -40.28125 C 31.738281 -40.28125 28.691406 -39.066406 26.234375 -36.640625 Z M 26.234375 -36.640625 "/></g></g></g><g fill="#49cdcf" fill-opacity="0.302"><g transform="translate(442.722399, 483.895806)"><g><path d="M 6.40625 0 L 6.40625 -91.90625 L 25.328125 -91.90625 L 25.328125 0 Z M 6.40625 0 "/></g></g></g><g fill="#49cdcf" fill-opacity="0.302"><g transform="translate(474.459309, 483.895806)"><g><path d="M 20.296875 -54.8125 L 33.65625 -25 L 47.015625 -54.8125 L 69.453125 -54.8125 L 40.078125 0 L 27.25 0 L -2.140625 -54.8125 Z M 20.296875 -54.8125 "/></g></g></g><g fill="#49cdcf" fill-opacity="0.302"><g transform="translate(541.780029, 483.895806)"><g><path d="M 10.140625 -6.78125 C 5.015625 -12.375 2.453125 -19.226562 2.453125 -27.34375 C 2.453125 -35.46875 5.015625 -42.34375 10.140625 -47.96875 C 15.273438 -53.601562 21.796875 -56.421875 29.703125 -56.421875 C 36.972656 -56.421875 42.957031 -54.140625 47.65625 -49.578125 L 47.65625 -54.8125 L 66.578125 -54.8125 L 66.578125 0 L 47.875 0 L 47.875 -6.203125 L 47.65625 -6.203125 C 42.957031 -0.992188 36.972656 1.609375 29.703125 1.609375 C 21.796875 1.609375 15.273438 -1.1875 10.140625 -6.78125 Z M 26.234375 -36.640625 C 23.773438 -34.222656 22.546875 -31.125 22.546875 -27.34375 C 22.546875 -23.570312 23.71875 -20.492188 26.0625 -18.109375 C 28.414062 -15.722656 31.519531 -14.53125 35.375 -14.53125 C 39.070312 -14.53125 42.113281 -15.738281 44.5 -18.15625 C 46.894531 -20.582031 48.09375 -23.648438 48.09375 -27.359375 C 48.09375 -31.128906 46.863281 -34.222656 44.40625 -36.640625 C 41.945312 -39.066406 38.9375 -40.28125 35.375 -40.28125 C 31.738281 -40.28125 28.691406 -39.066406 26.234375 -36.640625 Z M 26.234375 -36.640625 "/></g></g></g><g fill="#49cdcf" fill-opacity="0.502"><g transform="translate(119.057133, 474.616722)"><g><path d="M 33.984375 0 L -2.984375 -88.15625 L 19.65625 -88.15625 L 41.890625 -30.234375 L 64.109375 -88.15625 L 86.765625 -88.15625 L 49.796875 0 Z M 33.984375 0 "/></g></g></g><g fill="#49cdcf" fill-opacity="0.502"><g transform="translate(202.834032, 474.616722)"><g><path d="M 10.140625 -6.78125 C 5.015625 -12.375 2.453125 -19.226562 2.453125 -27.34375 C 2.453125 -35.46875 5.015625 -42.34375 10.140625 -47.96875 C 15.273438 -53.601562 21.796875 -56.421875 29.703125 -56.421875 C 36.972656 -56.421875 42.957031 -54.140625 47.65625 -49.578125 L 47.65625 -54.8125 L 66.578125 -54.8125 L 66.578125 0 L 47.875 0 L 47.875 -6.203125 L 47.65625 -6.203125 C 42.957031 -0.992188 36.972656 1.609375 29.703125 1.609375 C 21.796875 1.609375 15.273438 -1.1875 10.140625 -6.78125 Z M 26.234375 -36.640625 C 23.773438 -34.222656 22.546875 -31.125 22.546875 -27.34375 C 22.546875 -23.570312 23.71875 -20.492188 26.0625 -18.109375 C 28.414062 -15.722656 31.519531 -14.53125 35.375 -14.53125 C 39.070312 -14.53125 42.113281 -15.738281 44.5 -18.15625 C 46.894531 -20.582031 48.09375 -23.648438 48.09375 -27.359375 C 48.09375 -31.128906 46.863281 -34.222656 44.40625 -36.640625 C 41.945312 -39.066406 38.9375 -40.28125 35.375 -40.28125 C 31.738281 -40.28125 28.691406 -39.066406 26.234375 -36.640625 Z M 26.234375 -36.640625 "/></g></g></g><g fill="#49cdcf" fill-opacity="0.502"><g transform="translate(275.818234, 474.616722)"><g><path d="M 6.40625 0 L 6.40625 -91.90625 L 25.328125 -91.90625 L 25.328125 0 Z M 6.40625 0 "/></g></g></g><g fill="#49cdcf" fill-opacity="0.502"><g transform="translate(307.555144, 474.616722)"><g><path d="M 30.234375 -56.421875 C 33.367188 -56.421875 36.46875 -56.0625 39.53125 -55.34375 C 42.601562 -54.632812 44.882812 -53.925781 46.375 -53.21875 L 48.625 -52.140625 L 42.421875 -39.75 C 38.148438 -42.03125 34.085938 -43.171875 30.234375 -43.171875 C 28.097656 -43.171875 26.582031 -42.9375 25.6875 -42.46875 C 24.800781 -42.007812 24.359375 -41.140625 24.359375 -39.859375 C 24.359375 -39.578125 24.394531 -39.289062 24.46875 -39 C 24.539062 -38.71875 24.679688 -38.453125 24.890625 -38.203125 C 25.109375 -37.953125 25.304688 -37.738281 25.484375 -37.5625 C 25.660156 -37.382812 25.960938 -37.1875 26.390625 -36.96875 C 26.816406 -36.757812 27.15625 -36.597656 27.40625 -36.484375 C 27.65625 -36.378906 28.066406 -36.21875 28.640625 -36 C 29.210938 -35.789062 29.640625 -35.632812 29.921875 -35.53125 C 30.203125 -35.425781 30.679688 -35.265625 31.359375 -35.046875 C 32.035156 -34.835938 32.550781 -34.695312 32.90625 -34.625 C 35.113281 -33.976562 37.035156 -33.265625 38.671875 -32.484375 C 40.316406 -31.703125 42.046875 -30.632812 43.859375 -29.28125 C 45.679688 -27.925781 47.085938 -26.210938 48.078125 -24.140625 C 49.078125 -22.078125 49.578125 -19.726562 49.578125 -17.09375 C 49.578125 -4.625 40.921875 1.609375 23.609375 1.609375 C 19.691406 1.609375 15.96875 1.003906 12.4375 -0.203125 C 8.914062 -1.421875 6.375 -2.632812 4.8125 -3.84375 L 2.453125 -5.765625 L 10.15625 -18.703125 C 10.71875 -18.203125 11.460938 -17.613281 12.390625 -16.9375 C 13.316406 -16.257812 14.988281 -15.332031 17.40625 -14.15625 C 19.832031 -12.976562 21.9375 -12.390625 23.71875 -12.390625 C 27.632812 -12.390625 29.59375 -13.707031 29.59375 -16.34375 C 29.59375 -17.5625 29.09375 -18.507812 28.09375 -19.1875 C 27.101562 -19.863281 25.414062 -20.628906 23.03125 -21.484375 C 20.644531 -22.335938 18.773438 -23.117188 17.421875 -23.828125 C 13.992188 -25.609375 11.285156 -27.617188 9.296875 -29.859375 C 7.304688 -32.109375 6.3125 -35.085938 6.3125 -38.796875 C 6.3125 -44.347656 8.460938 -48.671875 12.765625 -51.765625 C 17.078125 -54.867188 22.898438 -56.421875 30.234375 -56.421875 Z M 30.234375 -56.421875 "/></g></g></g><g fill="#49cdcf" fill-opacity="0.502"><g transform="translate(360.129422, 474.616722)"><g><path d="M 10.140625 -6.78125 C 5.015625 -12.375 2.453125 -19.226562 2.453125 -27.34375 C 2.453125 -35.46875 5.015625 -42.34375 10.140625 -47.96875 C 15.273438 -53.601562 21.796875 -56.421875 29.703125 -56.421875 C 36.972656 -56.421875 42.957031 -54.140625 47.65625 -49.578125 L 47.65625 -54.8125 L 66.578125 -54.8125 L 66.578125 0 L 47.875 0 L 47.875 -6.203125 L 47.65625 -6.203125 C 42.957031 -0.992188 36.972656 1.609375 29.703125 1.609375 C 21.796875 1.609375 15.273438 -1.1875 10.140625 -6.78125 Z M 26.234375 -36.640625 C 23.773438 -34.222656 22.546875 -31.125 22.546875 -27.34375 C 22.546875 -23.570312 23.71875 -20.492188 26.0625 -18.109375 C 28.414062 -15.722656 31.519531 -14.53125 35.375 -14.53125 C 39.070312 -14.53125 42.113281 -15.738281 44.5 -18.15625 C 46.894531 -20.582031 48.09375 -23.648438 48.09375 -27.359375 C 48.09375 -31.128906 46.863281 -34.222656 44.40625 -36.640625 C 41.945312 -39.066406 38.9375 -40.28125 35.375 -40.28125 C 31.738281 -40.28125 28.691406 -39.066406 26.234375 -36.640625 Z M 26.234375 -36.640625 "/></g></g></g><g fill="#49cdcf" fill-opacity="0.502"><g transform="translate(433.113624, 474.616722)"><g><path d="M 6.40625 0 L 6.40625 -91.90625 L 25.328125 -91.90625 L 25.328125 0 Z M 6.40625 0 "/></g></g></g><g fill="#49cdcf" fill-opacity="0.502"><g transform="translate(464.850534, 474.616722)"><g><path d="M 20.296875 -54.8125 L 33.65625 -25 L 47.015625 -54.8125 L 69.453125 -54.8125 L 40.078125 0 L 27.25 0 L -2.140625 -54.8125 Z M 20.296875 -54.8125 "/></g></g></g><g fill="#49cdcf" fill-opacity="0.502"><g transform="translate(532.171253, 474.616722)"><g><path d="M 10.140625 -6.78125 C 5.015625 -12.375 2.453125 -19.226562 2.453125 -27.34375 C 2.453125 -35.46875 5.015625 -42.34375 10.140625 -47.96875 C 15.273438 -53.601562 21.796875 -56.421875 29.703125 -56.421875 C 36.972656 -56.421875 42.957031 -54.140625 47.65625 -49.578125 L 47.65625 -54.8125 L 66.578125 -54.8125 L 66.578125 0 L 47.875 0 L 47.875 -6.203125 L 47.65625 -6.203125 C 42.957031 -0.992188 36.972656 1.609375 29.703125 1.609375 C 21.796875 1.609375 15.273438 -1.1875 10.140625 -6.78125 Z M 26.234375 -36.640625 C 23.773438 -34.222656 22.546875 -31.125 22.546875 -27.34375 C 22.546875 -23.570312 23.71875 -20.492188 26.0625 -18.109375 C 28.414062 -15.722656 31.519531 -14.53125 35.375 -14.53125 C 39.070312 -14.53125 42.113281 -15.738281 44.5 -18.15625 C 46.894531 -20.582031 48.09375 -23.648438 48.09375 -27.359375 C 48.09375 -31.128906 46.863281 -34.222656 44.40625 -36.640625 C 41.945312 -39.066406 38.9375 -40.28125 35.375 -40.28125 C 31.738281 -40.28125 28.691406 -39.066406 26.234375 -36.640625 Z M 26.234375 -36.640625 "/></g></g></g><g fill="#d231a9" fill-opacity="1"><g transform="translate(109.448358, 465.337631)"><g><path d="M 33.984375 0 L -2.984375 -88.15625 L 19.65625 -88.15625 L 41.890625 -30.234375 L 64.109375 -88.15625 L 86.765625 -88.15625 L 49.796875 0 Z M 33.984375 0 "/></g></g></g><g fill="#d231a9" fill-opacity="1"><g transform="translate(193.225256, 465.337631)"><g><path d="M 10.140625 -6.78125 C 5.015625 -12.375 2.453125 -19.226562 2.453125 -27.34375 C 2.453125 -35.46875 5.015625 -42.34375 10.140625 -47.96875 C 15.273438 -53.601562 21.796875 -56.421875 29.703125 -56.421875 C 36.972656 -56.421875 42.957031 -54.140625 47.65625 -49.578125 L 47.65625 -54.8125 L 66.578125 -54.8125 L 66.578125 0 L 47.875 0 L 47.875 -6.203125 L 47.65625 -6.203125 C 42.957031 -0.992188 36.972656 1.609375 29.703125 1.609375 C 21.796875 1.609375 15.273438 -1.1875 10.140625 -6.78125 Z M 26.234375 -36.640625 C 23.773438 -34.222656 22.546875 -31.125 22.546875 -27.34375 C 22.546875 -23.570312 23.71875 -20.492188 26.0625 -18.109375 C 28.414062 -15.722656 31.519531 -14.53125 35.375 -14.53125 C 39.070312 -14.53125 42.113281 -15.738281 44.5 -18.15625 C 46.894531 -20.582031 48.09375 -23.648438 48.09375 -27.359375 C 48.09375 -31.128906 46.863281 -34.222656 44.40625 -36.640625 C 41.945312 -39.066406 38.9375 -40.28125 35.375 -40.28125 C 31.738281 -40.28125 28.691406 -39.066406 26.234375 -36.640625 Z M 26.234375 -36.640625 "/></g></g></g><g fill="#d231a9" fill-opacity="1"><g transform="translate(266.209458, 465.337631)"><g><path d="M 6.40625 0 L 6.40625 -91.90625 L 25.328125 -91.90625 L 25.328125 0 Z M 6.40625 0 "/></g></g></g><g fill="#d231a9" fill-opacity="1"><g transform="translate(297.946368, 465.337631)"><g><path d="M 30.234375 -56.421875 C 33.367188 -56.421875 36.46875 -56.0625 39.53125 -55.34375 C 42.601562 -54.632812 44.882812 -53.925781 46.375 -53.21875 L 48.625 -52.140625 L 42.421875 -39.75 C 38.148438 -42.03125 34.085938 -43.171875 30.234375 -43.171875 C 28.097656 -43.171875 26.582031 -42.9375 25.6875 -42.46875 C 24.800781 -42.007812 24.359375 -41.140625 24.359375 -39.859375 C 24.359375 -39.578125 24.394531 -39.289062 24.46875 -39 C 24.539062 -38.71875 24.679688 -38.453125 24.890625 -38.203125 C 25.109375 -37.953125 25.304688 -37.738281 25.484375 -37.5625 C 25.660156 -37.382812 25.960938 -37.1875 26.390625 -36.96875 C 26.816406 -36.757812 27.15625 -36.597656 27.40625 -36.484375 C 27.65625 -36.378906 28.066406 -36.21875 28.640625 -36 C 29.210938 -35.789062 29.640625 -35.632812 29.921875 -35.53125 C 30.203125 -35.425781 30.679688 -35.265625 31.359375 -35.046875 C 32.035156 -34.835938 32.550781 -34.695312 32.90625 -34.625 C 35.113281 -33.976562 37.035156 -33.265625 38.671875 -32.484375 C 40.316406 -31.703125 42.046875 -30.632812 43.859375 -29.28125 C 45.679688 -27.925781 47.085938 -26.210938 48.078125 -24.140625 C 49.078125 -22.078125 49.578125 -19.726562 49.578125 -17.09375 C 49.578125 -4.625 40.921875 1.609375 23.609375 1.609375 C 19.691406 1.609375 15.96875 1.003906 12.4375 -0.203125 C 8.914062 -1.421875 6.375 -2.632812 4.8125 -3.84375 L 2.453125 -5.765625 L 10.15625 -18.703125 C 10.71875 -18.203125 11.460938 -17.613281 12.390625 -16.9375 C 13.316406 -16.257812 14.988281 -15.332031 17.40625 -14.15625 C 19.832031 -12.976562 21.9375 -12.390625 23.71875 -12.390625 C 27.632812 -12.390625 29.59375 -13.707031 29.59375 -16.34375 C 29.59375 -17.5625 29.09375 -18.507812 28.09375 -19.1875 C 27.101562 -19.863281 25.414062 -20.628906 23.03125 -21.484375 C 20.644531 -22.335938 18.773438 -23.117188 17.421875 -23.828125 C 13.992188 -25.609375 11.285156 -27.617188 9.296875 -29.859375 C 7.304688 -32.109375 6.3125 -35.085938 6.3125 -38.796875 C 6.3125 -44.347656 8.460938 -48.671875 12.765625 -51.765625 C 17.078125 -54.867188 22.898438 -56.421875 30.234375 -56.421875 Z M 30.234375 -56.421875 "/></g></g></g><g fill="#d231a9" fill-opacity="1"><g transform="translate(350.520646, 465.337631)"><g><path d="M 10.140625 -6.78125 C 5.015625 -12.375 2.453125 -19.226562 2.453125 -27.34375 C 2.453125 -35.46875 5.015625 -42.34375 10.140625 -47.96875 C 15.273438 -53.601562 21.796875 -56.421875 29.703125 -56.421875 C 36.972656 -56.421875 42.957031 -54.140625 47.65625 -49.578125 L 47.65625 -54.8125 L 66.578125 -54.8125 L 66.578125 0 L 47.875 0 L 47.875 -6.203125 L 47.65625 -6.203125 C 42.957031 -0.992188 36.972656 1.609375 29.703125 1.609375 C 21.796875 1.609375 15.273438 -1.1875 10.140625 -6.78125 Z M 26.234375 -36.640625 C 23.773438 -34.222656 22.546875 -31.125 22.546875 -27.34375 C 22.546875 -23.570312 23.71875 -20.492188 26.0625 -18.109375 C 28.414062 -15.722656 31.519531 -14.53125 35.375 -14.53125 C 39.070312 -14.53125 42.113281 -15.738281 44.5 -18.15625 C 46.894531 -20.582031 48.09375 -23.648438 48.09375 -27.359375 C 48.09375 -31.128906 46.863281 -34.222656 44.40625 -36.640625 C 41.945312 -39.066406 38.9375 -40.28125 35.375 -40.28125 C 31.738281 -40.28125 28.691406 -39.066406 26.234375 -36.640625 Z M 26.234375 -36.640625 "/></g></g></g><g fill="#d231a9" fill-opacity="1"><g transform="translate(423.504848, 465.337631)"><g><path d="M 6.40625 0 L 6.40625 -91.90625 L 25.328125 -91.90625 L 25.328125 0 Z M 6.40625 0 "/></g></g></g><g fill="#d231a9" fill-opacity="1"><g transform="translate(455.241758, 465.337631)"><g><path d="M 20.296875 -54.8125 L 33.65625 -25 L 47.015625 -54.8125 L 69.453125 -54.8125 L 40.078125 0 L 27.25 0 L -2.140625 -54.8125 Z M 20.296875 -54.8125 "/></g></g></g><g fill="#d231a9" fill-opacity="1"><g transform="translate(522.562477, 465.337631)"><g><path d="M 10.140625 -6.78125 C 5.015625 -12.375 2.453125 -19.226562 2.453125 -27.34375 C 2.453125 -35.46875 5.015625 -42.34375 10.140625 -47.96875 C 15.273438 -53.601562 21.796875 -56.421875 29.703125 -56.421875 C 36.972656 -56.421875 42.957031 -54.140625 47.65625 -49.578125 L 47.65625 -54.8125 L 66.578125 -54.8125 L 66.578125 0 L 47.875 0 L 47.875 -6.203125 L 47.65625 -6.203125 C 42.957031 -0.992188 36.972656 1.609375 29.703125 1.609375 C 21.796875 1.609375 15.273438 -1.1875 10.140625 -6.78125 Z M 26.234375 -36.640625 C 23.773438 -34.222656 22.546875 -31.125 22.546875 -27.34375 C 22.546875 -23.570312 23.71875 -20.492188 26.0625 -18.109375 C 28.414062 -15.722656 31.519531 -14.53125 35.375 -14.53125 C 39.070312 -14.53125 42.113281 -15.738281 44.5 -18.15625 C 46.894531 -20.582031 48.09375 -23.648438 48.09375 -27.359375 C 48.09375 -31.128906 46.863281 -34.222656 44.40625 -36.640625 C 41.945312 -39.066406 38.9375 -40.28125 35.375 -40.28125 C 31.738281 -40.28125 28.691406 -39.066406 26.234375 -36.640625 Z M 26.234375 -36.640625 "/></g></g></g></svg>