<?xml version="1.0" encoding="UTF-8" standalone="no"?>
<!DOCTYPE svg PUBLIC "-//W3C//DTD SVG 1.1//EN" "http://www.w3.org/Graphics/SVG/1.1/DTD/svg11.dtd">
<svg xmlns="http://www.w3.org/2000/svg" version="1.1" viewBox="0.00 0.00 350.00 394.00">
<g stroke-width="0" fill="none" stroke-linecap="butt">
<path stroke="#075163" vector-effect="non-scaling-stroke" d="
  M 21.53 94.23
  C 14.20 98.47 9.26 106.42 9.27 114.95
  Q 9.30 193.26 9.22 276.60
  C 9.21 284.22 10.35 290.00 15.34 295.80
  Q 17.88 298.75 25.99 303.42
  Q 94.17 342.59 161.61 381.69
  C 171.02 387.15 179.21 387.96 188.86 382.37
  Q 260.49 340.95 329.96 300.87
  C 334.95 297.99 338.89 293.55 340.89 288.14
  Q 342.44 283.92 342.41 276.25
  Q 342.13 198.97 342.39 118.76
  Q 342.41 112.87 341.53 109.07
  C 340.08 102.83 335.82 97.59 330.03 94.23
  Q 258.21 52.59 187.40 11.80
  C 179.91 7.49 170.90 7.95 163.27 12.36
  Q 92.67 53.14 21.53 94.23"
/>
<path stroke="#0a8baf" vector-effect="non-scaling-stroke" d="
  M 173.31 358.91
  C 177.22 360.04 179.98 358.26 183.52 356.22
  Q 246.98 319.59 310.42 282.93
  C 314.49 280.59 317.09 278.30 317.08 273.64
  Q 316.92 235.95 316.58 198.39
  C 316.50 188.70 316.77 178.08 316.67 168.00
  C 316.53 153.15 316.98 139.02 317.07 123.81
  C 317.10 118.87 316.34 115.46 312.02 112.96
  Q 246.39 75.03 182.83 38.31
  C 178.62 35.88 175.19 34.68 171.03 37.08
  Q 106.61 74.26 39.78 112.87
  C 35.49 115.35 34.52 118.36 34.56 123.51
  Q 34.64 137.86 34.83 153.00
  C 35.29 190.52 35.06 227.49 34.86 258.75
  Q 34.82 265.15 34.56 273.01
  Q 34.35 278.97 39.06 281.69
  Q 103.51 318.96 168.01 356.15
  Q 172.28 358.61 173.31 358.91"
/>
<path stroke="#0a8baf" vector-effect="non-scaling-stroke" d="
  M 312.92 174.71
  C 312.86 166.94 313.16 159.09 312.91 151.38
  Q 312.47 137.43 312.43 123.86
  C 312.42 120.93 312.54 118.80 309.66 117.14
  Q 246.08 80.52 177.37 40.79
  C 176.24 40.13 174.26 40.76 173.20 41.37
  Q 107.90 79.13 42.20 117.04
  C 40.18 118.21 39.42 119.23 39.42 121.79
  Q 39.39 137.90 39.10 154.00
  Q 39.05 156.73 38.91 244.08
  C 38.89 253.37 39.25 263.28 39.37 272.77
  C 39.42 276.59 41.31 277.37 44.16 279.02
  Q 111.06 317.69 173.70 353.84
  C 175.86 355.09 178.02 353.84 179.94 352.74
  Q 308.49 278.51 309.98 277.59
  Q 312.68 275.94 312.47 272.29
  Q 312.30 269.39 312.64 249.00
  Q 313.21 214.08 312.92 174.71"
/>
<path stroke="#0a8baf" vector-effect="non-scaling-stroke" d="
  M 112.71 133.13
  Q 112.94 132.64 113.44 132.82
  C 122.27 135.86 131.54 138.33 140.66 139.97
  Q 149.10 141.50 154.65 144.02
  C 164.01 148.27 171.08 156.37 175.30 166.04
  A 0.56 0.56 0.0 0 0 176.32 166.04
  Q 183.52 150.04 197.24 143.94
  Q 202.25 141.71 214.29 139.29
  Q 226.34 136.86 238.17 132.90
  A 0.63 0.62 81.0 0 1 238.99 133.50
  C 238.85 153.72 239.16 174.79 223.85 190.36
  C 216.99 197.34 208.80 202.18 200.85 207.85
  Q 200.23 208.30 200.69 209.27
  A 1.00 0.99 66.5 0 0 201.95 209.77
  Q 212.15 205.74 222.18 199.68
  C 233.03 193.13 239.85 184.95 243.80 173.32
  Q 248.36 159.90 248.72 145.70
  Q 249.09 131.45 249.01 116.64
  Q 249.01 116.22 248.72 115.92
  A 0.41 0.41 0.0 0 0 248.20 115.85
  Q 237.50 122.32 225.16 126.62
  C 217.89 129.16 210.22 130.26 202.59 131.82
  Q 186.13 135.19 176.31 147.65
  A 0.61 0.60 -45.1 0 1 175.36 147.66
  Q 165.05 134.80 148.48 131.77
  Q 136.19 129.53 129.73 127.65
  Q 115.91 123.64 103.38 115.72
  A 0.47 0.47 0.0 0 0 102.66 116.12
  Q 102.68 131.31 103.03 146.49
  Q 103.31 158.60 106.95 170.65
  C 110.80 183.43 117.50 192.31 128.98 199.34
  Q 138.50 205.17 149.04 209.36
  Q 149.62 209.58 150.04 209.61
  A 1.06 1.06 0.0 0 0 150.70 207.69
  C 137.51 198.47 123.62 190.69 117.61 174.57
  Q 114.42 166.04 113.68 158.53
  Q 112.66 148.24 112.62 133.52
  Q 112.62 133.31 112.71 133.13"
/>
<path stroke="#0a8baf" vector-effect="non-scaling-stroke" d="
  M 175.85 176.54
  A 0.26 0.26 0.0 0 1 175.45 176.45
  C 171.50 167.52 163.38 157.28 154.60 152.64
  Q 147.84 149.06 142.05 148.16
  Q 130.34 146.34 120.33 143.61
  A 0.41 0.41 0.0 0 0 119.81 144.01
  C 119.48 162.00 124.50 178.21 138.17 190.16
  C 146.93 197.82 157.96 203.84 168.31 208.93
  A 1.10 1.10 0.0 0 0 169.89 207.86
  Q 169.83 207.04 169.09 206.52
  Q 161.81 201.40 154.77 196.32
  Q 146.72 190.51 141.51 184.53
  C 135.08 177.13 132.22 167.36 130.22 157.27
  A 0.96 0.96 0.0 0 1 131.27 156.13
  Q 137.15 156.76 143.23 157.84
  C 158.49 160.56 169.30 170.15 175.24 184.19
  Q 175.83 185.57 176.41 184.19
  C 181.48 172.03 191.41 161.68 204.68 158.68
  Q 212.22 156.98 220.92 156.09
  A 0.43 0.42 1.0 0 1 221.39 156.57
  C 219.71 168.14 216.11 178.69 208.03 186.76
  C 200.38 194.41 191.14 200.60 182.61 206.44
  Q 181.44 207.25 181.79 208.41
  Q 182.14 209.54 184.39 208.54
  A 4.47 0.18 -28.8 0 0 186.12 207.68
  C 205.15 197.69 224.03 186.42 229.58 164.28
  Q 231.99 154.68 231.92 144.35
  A 0.81 0.81 0.0 0 0 230.86 143.59
  C 217.46 148.09 203.03 146.84 191.70 156.25
  C 185.71 161.22 179.98 168.17 176.67 175.46
  Q 176.38 176.09 175.85 176.54"
/>
<path stroke="#87d1e3" vector-effect="non-scaling-stroke" d="
  M 204.12 279.54
  Q 202.13 279.55 203.61 278.21
  C 212.91 269.80 228.42 259.51 219.43 244.75
  C 214.85 237.23 204.48 234.69 196.98 239.37
  Q 189.08 244.29 188.82 254.83
  Q 188.82 254.98 188.96 255.00
  Q 193.01 255.48 198.04 255.08
  Q 198.10 255.07 198.10 255.01
  Q 198.02 247.43 203.36 246.01
  Q 209.00 244.50 211.87 248.96
  C 214.74 253.41 211.49 259.23 208.15 262.31
  Q 199.60 270.18 190.64 278.64
  A 2.98 2.97 68.6 0 0 189.71 280.78
  L 189.66 287.65
  A 0.36 0.36 0.0 0 0 190.02 288.02
  L 221.54 288.01
  A 0.55 0.54 -0.5 0 0 222.09 287.46
  L 222.01 280.00
  Q 222.01 279.49 221.50 279.49
  L 204.12 279.54"
/>
<path stroke="#87d1e3" vector-effect="non-scaling-stroke" d="
  M 166.29 271.85
  Q 165.85 271.31 165.68 270.63
  Q 161.80 255.04 158.08 238.99
  A 1.09 1.09 0.0 0 0 157.02 238.15
  L 151.68 238.17
  A 0.87 0.87 0.0 0 0 150.83 238.84
  L 142.90 271.53
  A 0.33 0.32 30.3 0 1 142.35 271.67
  Q 141.93 271.23 141.78 270.64
  Q 137.64 254.51 133.84 238.48
  A 0.35 0.34 -6.2 0 0 133.50 238.21
  L 124.44 238.15
  A 0.18 0.18 0.0 0 0 124.26 238.38
  L 138.60 287.39
  A 0.76 0.76 0.0 0 0 139.29 287.94
  Q 141.88 288.08 144.34 288.21
  Q 146.10 288.29 146.53 286.59
  Q 150.11 272.18 153.79 257.06
  Q 153.93 256.50 154.40 256.15
  A 0.34 0.34 0.0 0 1 154.93 256.34
  L 162.43 287.53
  Q 162.54 288.01 163.03 288.02
  L 169.20 288.07
  A 1.11 1.10 8.2 0 0 170.28 287.27
  Q 177.15 263.58 184.43 238.44
  A 0.23 0.22 -83.2 0 0 184.21 238.15
  L 175.24 238.23
  Q 174.99 238.24 174.93 238.48
  L 166.73 271.75
  A 0.25 0.25 0.0 0 1 166.29 271.85"
/>
</g>

<path fill="#0ea2c6" d="
  M 9.27 114.95
  C 9.26 106.42 14.20 98.47 21.53 94.23
  Q 92.67 53.14 163.27 12.36
  C 170.90 7.95 179.91 7.49 187.40 11.80
  Q 258.21 52.59 330.03 94.23
  C 335.82 97.59 340.08 102.83 341.53 109.07
  Q 342.41 112.87 342.39 118.76
  Q 342.13 198.97 342.41 276.25
  Q 342.44 283.92 340.89 288.14
  C 338.89 293.55 334.95 297.99 329.96 300.87
  Q 260.49 340.95 188.86 382.37
  C 179.21 387.96 171.02 387.15 161.61 381.69
  Q 94.17 342.59 25.99 303.42
  Q 17.88 298.75 15.34 295.80
  C 10.35 290.00 9.21 284.22 9.22 276.60
  Q 9.30 193.26 9.27 114.95
  Z
  M 173.31 358.91
  C 177.22 360.04 179.98 358.26 183.52 356.22
  Q 246.98 319.59 310.42 282.93
  C 314.49 280.59 317.09 278.30 317.08 273.64
  Q 316.92 235.95 316.58 198.39
  C 316.50 188.70 316.77 178.08 316.67 168.00
  C 316.53 153.15 316.98 139.02 317.07 123.81
  C 317.10 118.87 316.34 115.46 312.02 112.96
  Q 246.39 75.03 182.83 38.31
  C 178.62 35.88 175.19 34.68 171.03 37.08
  Q 106.61 74.26 39.78 112.87
  C 35.49 115.35 34.52 118.36 34.56 123.51
  Q 34.64 137.86 34.83 153.00
  C 35.29 190.52 35.06 227.49 34.86 258.75
  Q 34.82 265.15 34.56 273.01
  Q 34.35 278.97 39.06 281.69
  Q 103.51 318.96 168.01 356.15
  Q 172.28 358.61 173.31 358.91
  Z"
/>
<path fill="#067397" d="
  M 183.52 356.22
  C 179.98 358.26 177.22 360.04 173.31 358.91
  Q 172.28 358.61 168.01 356.15
  Q 103.51 318.96 39.06 281.69
  Q 34.35 278.97 34.56 273.01
  Q 34.82 265.15 34.86 258.75
  C 35.06 227.49 35.29 190.52 34.83 153.00
  Q 34.64 137.86 34.56 123.51
  C 34.52 118.36 35.49 115.35 39.78 112.87
  Q 106.61 74.26 171.03 37.08
  C 175.19 34.68 178.62 35.88 182.83 38.31
  Q 246.39 75.03 312.02 112.96
  C 316.34 115.46 317.10 118.87 317.07 123.81
  C 316.98 139.02 316.53 153.15 316.67 168.00
  C 316.77 178.08 316.50 188.70 316.58 198.39
  Q 316.92 235.95 317.08 273.64
  C 317.09 278.30 314.49 280.59 310.42 282.93
  Q 246.98 319.59 183.52 356.22
  Z
  M 312.92 174.71
  C 312.86 166.94 313.16 159.09 312.91 151.38
  Q 312.47 137.43 312.43 123.86
  C 312.42 120.93 312.54 118.80 309.66 117.14
  Q 246.08 80.52 177.37 40.79
  C 176.24 40.13 174.26 40.76 173.20 41.37
  Q 107.90 79.13 42.20 117.04
  C 40.18 118.21 39.42 119.23 39.42 121.79
  Q 39.39 137.90 39.10 154.00
  Q 39.05 156.73 38.91 244.08
  C 38.89 253.37 39.25 263.28 39.37 272.77
  C 39.42 276.59 41.31 277.37 44.16 279.02
  Q 111.06 317.69 173.70 353.84
  C 175.86 355.09 178.02 353.84 179.94 352.74
  Q 308.49 278.51 309.98 277.59
  Q 312.68 275.94 312.47 272.29
  Q 312.30 269.39 312.64 249.00
  Q 313.21 214.08 312.92 174.71
  Z"
/>
<path fill="#0ea2c6" d="
  M 312.92 174.71
  Q 313.21 214.08 312.64 249.00
  Q 312.30 269.39 312.47 272.29
  Q 312.68 275.94 309.98 277.59
  Q 308.49 278.51 179.94 352.74
  C 178.02 353.84 175.86 355.09 173.70 353.84
  Q 111.06 317.69 44.16 279.02
  C 41.31 277.37 39.42 276.59 39.37 272.77
  C 39.25 263.28 38.89 253.37 38.91 244.08
  Q 39.05 156.73 39.10 154.00
  Q 39.39 137.90 39.42 121.79
  C 39.42 119.23 40.18 118.21 42.20 117.04
  Q 107.90 79.13 173.20 41.37
  C 174.26 40.76 176.24 40.13 177.37 40.79
  Q 246.08 80.52 309.66 117.14
  C 312.54 118.80 312.42 120.93 312.43 123.86
  Q 312.47 137.43 312.91 151.38
  C 313.16 159.09 312.86 166.94 312.92 174.71
  Z
  M 112.71 133.13
  Q 112.94 132.64 113.44 132.82
  C 122.27 135.86 131.54 138.33 140.66 139.97
  Q 149.10 141.50 154.65 144.02
  C 164.01 148.27 171.08 156.37 175.30 166.04
  A 0.56 0.56 0.0 0 0 176.32 166.04
  Q 183.52 150.04 197.24 143.94
  Q 202.25 141.71 214.29 139.29
  Q 226.34 136.86 238.17 132.90
  A 0.63 0.62 81.0 0 1 238.99 133.50
  C 238.85 153.72 239.16 174.79 223.85 190.36
  C 216.99 197.34 208.80 202.18 200.85 207.85
  Q 200.23 208.30 200.69 209.27
  A 1.00 0.99 66.5 0 0 201.95 209.77
  Q 212.15 205.74 222.18 199.68
  C 233.03 193.13 239.85 184.95 243.80 173.32
  Q 248.36 159.90 248.72 145.70
  Q 249.09 131.45 249.01 116.64
  Q 249.01 116.22 248.72 115.92
  A 0.41 0.41 0.0 0 0 248.20 115.85
  Q 237.50 122.32 225.16 126.62
  C 217.89 129.16 210.22 130.26 202.59 131.82
  Q 186.13 135.19 176.31 147.65
  A 0.61 0.60 -45.1 0 1 175.36 147.66
  Q 165.05 134.80 148.48 131.77
  Q 136.19 129.53 129.73 127.65
  Q 115.91 123.64 103.38 115.72
  A 0.47 0.47 0.0 0 0 102.66 116.12
  Q 102.68 131.31 103.03 146.49
  Q 103.31 158.60 106.95 170.65
  C 110.80 183.43 117.50 192.31 128.98 199.34
  Q 138.50 205.17 149.04 209.36
  Q 149.62 209.58 150.04 209.61
  A 1.06 1.06 0.0 0 0 150.70 207.69
  C 137.51 198.47 123.62 190.69 117.61 174.57
  Q 114.42 166.04 113.68 158.53
  Q 112.66 148.24 112.62 133.52
  Q 112.62 133.31 112.71 133.13
  Z
  M 175.85 176.54
  A 0.26 0.26 0.0 0 1 175.45 176.45
  C 171.50 167.52 163.38 157.28 154.60 152.64
  Q 147.84 149.06 142.05 148.16
  Q 130.34 146.34 120.33 143.61
  A 0.41 0.41 0.0 0 0 119.81 144.01
  C 119.48 162.00 124.50 178.21 138.17 190.16
  C 146.93 197.82 157.96 203.84 168.31 208.93
  A 1.10 1.10 0.0 0 0 169.89 207.86
  Q 169.83 207.04 169.09 206.52
  Q 161.81 201.40 154.77 196.32
  Q 146.72 190.51 141.51 184.53
  C 135.08 177.13 132.22 167.36 130.22 157.27
  A 0.96 0.96 0.0 0 1 131.27 156.13
  Q 137.15 156.76 143.23 157.84
  C 158.49 160.56 169.30 170.15 175.24 184.19
  Q 175.83 185.57 176.41 184.19
  C 181.48 172.03 191.41 161.68 204.68 158.68
  Q 212.22 156.98 220.92 156.09
  A 0.43 0.42 1.0 0 1 221.39 156.57
  C 219.71 168.14 216.11 178.69 208.03 186.76
  C 200.38 194.41 191.14 200.60 182.61 206.44
  Q 181.44 207.25 181.79 208.41
  Q 182.14 209.54 184.39 208.54
  A 4.47 0.18 -28.8 0 0 186.12 207.68
  C 205.15 197.69 224.03 186.42 229.58 164.28
  Q 231.99 154.68 231.92 144.35
  A 0.81 0.81 0.0 0 0 230.86 143.59
  C 217.46 148.09 203.03 146.84 191.70 156.25
  C 185.71 161.22 179.98 168.17 176.67 175.46
  Q 176.38 176.09 175.85 176.54
  Z
  M 204.12 279.54
  Q 202.13 279.55 203.61 278.21
  C 212.91 269.80 228.42 259.51 219.43 244.75
  C 214.85 237.23 204.48 234.69 196.98 239.37
  Q 189.08 244.29 188.82 254.83
  Q 188.82 254.98 188.96 255.00
  Q 193.01 255.48 198.04 255.08
  Q 198.10 255.07 198.10 255.01
  Q 198.02 247.43 203.36 246.01
  Q 209.00 244.50 211.87 248.96
  C 214.74 253.41 211.49 259.23 208.15 262.31
  Q 199.60 270.18 190.64 278.64
  A 2.98 2.97 68.6 0 0 189.71 280.78
  L 189.66 287.65
  A 0.36 0.36 0.0 0 0 190.02 288.02
  L 221.54 288.01
  A 0.55 0.54 -0.5 0 0 222.09 287.46
  L 222.01 280.00
  Q 222.01 279.49 221.50 279.49
  L 204.12 279.54
  Z
  M 166.29 271.85
  Q 165.85 271.31 165.68 270.63
  Q 161.80 255.04 158.08 238.99
  A 1.09 1.09 0.0 0 0 157.02 238.15
  L 151.68 238.17
  A 0.87 0.87 0.0 0 0 150.83 238.84
  L 142.90 271.53
  A 0.33 0.32 30.3 0 1 142.35 271.67
  Q 141.93 271.23 141.78 270.64
  Q 137.64 254.51 133.84 238.48
  A 0.35 0.34 -6.2 0 0 133.50 238.21
  L 124.44 238.15
  A 0.18 0.18 0.0 0 0 124.26 238.38
  L 138.60 287.39
  A 0.76 0.76 0.0 0 0 139.29 287.94
  Q 141.88 288.08 144.34 288.21
  Q 146.10 288.29 146.53 286.59
  Q 150.11 272.18 153.79 257.06
  Q 153.93 256.50 154.40 256.15
  A 0.34 0.34 0.0 0 1 154.93 256.34
  L 162.43 287.53
  Q 162.54 288.01 163.03 288.02
  L 169.20 288.07
  A 1.11 1.10 8.2 0 0 170.28 287.27
  Q 177.15 263.58 184.43 238.44
  A 0.23 0.22 -83.2 0 0 184.21 238.15
  L 175.24 238.23
  Q 174.99 238.24 174.93 238.48
  L 166.73 271.75
  A 0.25 0.25 0.0 0 1 166.29 271.85
  Z"
/>
<path fill="#067397" d="
  M 112.71 133.13
  Q 112.62 133.31 112.62 133.52
  Q 112.66 148.24 113.68 158.53
  Q 114.42 166.04 117.61 174.57
  C 123.62 190.69 137.51 198.47 150.70 207.69
  A 1.06 1.06 0.0 0 1 150.04 209.61
  Q 149.62 209.58 149.04 209.36
  Q 138.50 205.17 128.98 199.34
  C 117.50 192.31 110.80 183.43 106.95 170.65
  Q 103.31 158.60 103.03 146.49
  Q 102.68 131.31 102.66 116.12
  A 0.47 0.47 0.0 0 1 103.38 115.72
  Q 115.91 123.64 129.73 127.65
  Q 136.19 129.53 148.48 131.77
  Q 165.05 134.80 175.36 147.66
  A 0.61 0.60 -45.1 0 0 176.31 147.65
  Q 186.13 135.19 202.59 131.82
  C 210.22 130.26 217.89 129.16 225.16 126.62
  Q 237.50 122.32 248.20 115.85
  A 0.41 0.41 0.0 0 1 248.72 115.92
  Q 249.01 116.22 249.01 116.64
  Q 249.09 131.45 248.72 145.70
  Q 248.36 159.90 243.80 173.32
  C 239.85 184.95 233.03 193.13 222.18 199.68
  Q 212.15 205.74 201.95 209.77
  A 1.00 0.99 66.5 0 1 200.69 209.27
  Q 200.23 208.30 200.85 207.85
  C 208.80 202.18 216.99 197.34 223.85 190.36
  C 239.16 174.79 238.85 153.72 238.99 133.50
  A 0.63 0.62 81.0 0 0 238.17 132.90
  Q 226.34 136.86 214.29 139.29
  Q 202.25 141.71 197.24 143.94
  Q 183.52 150.04 176.32 166.04
  A 0.56 0.56 0.0 0 1 175.30 166.04
  C 171.08 156.37 164.01 148.27 154.65 144.02
  Q 149.10 141.50 140.66 139.97
  C 131.54 138.33 122.27 135.86 113.44 132.82
  Q 112.94 132.64 112.71 133.13
  Z"
/>
<path fill="#067397" d="
  M 175.85 176.54
  Q 176.38 176.09 176.67 175.46
  C 179.98 168.17 185.71 161.22 191.70 156.25
  C 203.03 146.84 217.46 148.09 230.86 143.59
  A 0.81 0.81 0.0 0 1 231.92 144.35
  Q 231.99 154.68 229.58 164.28
  C 224.03 186.42 205.15 197.69 186.12 207.68
  A 4.47 0.18 -28.8 0 1 184.39 208.54
  Q 182.14 209.54 181.79 208.41
  Q 181.44 207.25 182.61 206.44
  C 191.14 200.60 200.38 194.41 208.03 186.76
  C 216.11 178.69 219.71 168.14 221.39 156.57
  A 0.43 0.42 1.0 0 0 220.92 156.09
  Q 212.22 156.98 204.68 158.68
  C 191.41 161.68 181.48 172.03 176.41 184.19
  Q 175.83 185.57 175.24 184.19
  C 169.30 170.15 158.49 160.56 143.23 157.84
  Q 137.15 156.76 131.27 156.13
  A 0.96 0.96 0.0 0 0 130.22 157.27
  C 132.22 167.36 135.08 177.13 141.51 184.53
  Q 146.72 190.51 154.77 196.32
  Q 161.81 201.40 169.09 206.52
  Q 169.83 207.04 169.89 207.86
  A 1.10 1.10 0.0 0 1 168.31 208.93
  C 157.96 203.84 146.93 197.82 138.17 190.16
  C 124.50 178.21 119.48 162.00 119.81 144.01
  A 0.41 0.41 0.0 0 1 120.33 143.61
  Q 130.34 146.34 142.05 148.16
  Q 147.84 149.06 154.60 152.64
  C 163.38 157.28 171.50 167.52 175.45 176.45
  A 0.26 0.26 0.0 0 0 175.85 176.54
  Z"
/>
<path fill="#ffffff" d="
  M 204.12 279.54
  L 221.50 279.49
  Q 222.01 279.49 222.01 280.00
  L 222.09 287.46
  A 0.55 0.54 -0.5 0 1 221.54 288.01
  L 190.02 288.02
  A 0.36 0.36 0.0 0 1 189.66 287.65
  L 189.71 280.78
  A 2.98 2.97 68.6 0 1 190.64 278.64
  Q 199.60 270.18 208.15 262.31
  C 211.49 259.23 214.74 253.41 211.87 248.96
  Q 209.00 244.50 203.36 246.01
  Q 198.02 247.43 198.10 255.01
  Q 198.10 255.07 198.04 255.08
  Q 193.01 255.48 188.96 255.00
  Q 188.82 254.98 188.82 254.83
  Q 189.08 244.29 196.98 239.37
  C 204.48 234.69 214.85 237.23 219.43 244.75
  C 228.42 259.51 212.91 269.80 203.61 278.21
  Q 202.13 279.55 204.12 279.54
  Z"
/>
<path fill="#ffffff" d="
  M 166.29 271.85
  A 0.25 0.25 0.0 0 0 166.73 271.75
  L 174.93 238.48
  Q 174.99 238.24 175.24 238.23
  L 184.21 238.15
  A 0.23 0.22 -83.2 0 1 184.43 238.44
  Q 177.15 263.58 170.28 287.27
  A 1.11 1.10 8.2 0 1 169.20 288.07
  L 163.03 288.02
  Q 162.54 288.01 162.43 287.53
  L 154.93 256.34
  A 0.34 0.34 0.0 0 0 154.40 256.15
  Q 153.93 256.50 153.79 257.06
  Q 150.11 272.18 146.53 286.59
  Q 146.10 288.29 144.34 288.21
  Q 141.88 288.08 139.29 287.94
  A 0.76 0.76 0.0 0 1 138.60 287.39
  L 124.26 238.38
  A 0.18 0.18 0.0 0 1 124.44 238.15
  L 133.50 238.21
  A 0.35 0.34 -6.2 0 1 133.84 238.48
  Q 137.64 254.51 141.78 270.64
  Q 141.93 271.23 142.35 271.67
  A 0.33 0.32 30.3 0 0 142.90 271.53
  L 150.83 238.84
  A 0.87 0.87 0.0 0 1 151.68 238.17
  L 157.02 238.15
  A 1.09 1.09 0.0 0 1 158.08 238.99
  Q 161.80 255.04 165.68 270.63
  Q 165.85 271.31 166.29 271.85
  Z"
/>
</svg>
