<?xml version="1.0" encoding="UTF-8" standalone="no"?>
<!DOCTYPE svg PUBLIC "-//W3C//DTD SVG 1.1//EN" "http://www.w3.org/Graphics/SVG/1.1/DTD/svg11.dtd">
<svg xmlns="http://www.w3.org/2000/svg" version="1.1" viewBox="0.00 0.00 350.00 394.00">
<g stroke-width="0" fill="none" stroke-linecap="butt">
<path stroke="#532744" vector-effect="non-scaling-stroke" d="
  M 16.24 98.06
  C 11.77 102.26 8.93 108.86 8.93 115.02
  Q 9.03 197.32 8.94 279.03
  Q 8.93 288.65 14.36 295.04
  Q 17.28 298.47 26.21 303.62
  Q 91.72 341.42 157.25 379.20
  C 161.12 381.43 165.05 383.97 169.04 385.20
  C 175.70 387.25 182.01 386.20 187.97 382.77
  Q 260.76 340.96 330.01 300.88
  C 335.14 297.91 339.08 293.48 341.20 287.70
  Q 342.63 283.81 342.60 275.18
  Q 342.38 195.66 342.59 121.52
  Q 342.62 111.32 340.95 106.70
  Q 338.08 98.75 329.78 93.96
  Q 258.88 53.09 188.68 12.60
  Q 175.71 5.12 163.21 12.34
  Q 93.89 52.41 24.00 92.56
  Q 19.13 95.36 16.24 98.06"
/>
<path stroke="#90346e" vector-effect="non-scaling-stroke" d="
  M 39.11 281.90
  C 82.64 307.08 126.25 332.14 169.82 357.24
  C 173.83 359.55 176.87 360.16 181.06 357.72
  Q 243.30 321.57 308.86 284.10
  C 314.26 281.01 317.22 279.04 317.22 272.50
  Q 317.19 199.77 317.21 127.04
  C 317.21 120.47 317.64 116.14 312.26 113.04
  Q 247.04 75.43 181.83 37.82
  C 178.18 35.72 174.88 34.89 171.26 36.97
  Q 105.46 74.85 39.59 112.82
  C 36.66 114.51 34.43 117.07 34.39 120.50
  Q 34.21 135.41 34.20 151.27
  Q 34.18 215.55 34.31 273.50
  Q 34.32 279.13 39.11 281.90"
/>
<path stroke="#90346e" vector-effect="non-scaling-stroke" d="
  M 39.09 121.50
  L 39.05 273.34
  A 5.10 5.09 -75.0 0 0 41.59 277.75
  L 173.60 353.87
  A 4.38 4.37 -44.9 0 0 177.97 353.87
  Q 243.24 316.22 310.06 277.69
  C 311.71 276.73 312.50 275.11 312.50 273.21
  Q 312.60 197.88 312.48 121.14
  A 4.19 4.19 0.0 0 0 310.38 117.51
  Q 244.73 79.61 178.29 41.32
  C 176.14 40.09 174.77 40.42 172.76 41.58
  Q 107.04 79.56 41.46 117.33
  A 4.86 4.71 75.5 0 0 39.09 121.50"
/>
<path stroke="#90346e" vector-effect="non-scaling-stroke" d="
  M 175.30 147.69
  Q 165.13 135.02 148.62 131.82
  C 142.03 130.54 135.36 129.50 129.00 127.54
  Q 115.29 123.31 103.20 115.77
  A 0.51 0.50 -74.1 0 0 102.43 116.20
  Q 102.52 131.88 102.93 147.43
  Q 103.30 161.20 108.17 174.67
  Q 113.81 190.30 128.67 199.18
  Q 139.72 205.78 148.64 209.54
  A 1.74 1.73 55.7 0 0 149.37 209.68
  Q 151.21 209.63 151.08 208.91
  Q 150.82 207.45 149.51 206.65
  Q 139.28 200.40 132.56 194.92
  C 123.27 187.33 117.69 178.64 114.85 166.31
  C 112.41 155.69 112.54 144.51 112.46 133.51
  A 0.70 0.70 0.0 0 1 113.38 132.84
  Q 120.57 135.26 126.96 136.95
  C 135.61 139.23 146.56 140.40 154.57 144.03
  C 163.68 148.16 171.07 156.30 175.31 166.16
  A 0.52 0.52 0.0 0 0 176.27 166.15
  Q 182.79 150.52 197.11 144.00
  Q 202.76 141.42 213.23 139.48
  Q 224.47 137.40 237.93 132.95
  A 0.91 0.90 -8.7 0 1 239.12 133.82
  C 238.88 148.04 238.90 162.02 233.80 175.41
  C 228.26 189.94 215.39 197.96 201.99 206.84
  Q 201.15 207.39 200.65 208.34
  A 0.90 0.90 0.0 0 0 201.47 209.66
  Q 202.80 209.63 204.11 209.04
  C 215.69 203.84 228.49 197.65 235.98 188.03
  Q 244.12 177.61 247.10 160.66
  Q 248.54 152.48 248.72 146.09
  Q 249.15 131.31 249.24 116.27
  A 0.61 0.61 0.0 0 0 248.31 115.75
  Q 236.94 122.79 223.78 127.15
  C 216.88 129.44 209.63 130.45 202.45 131.94
  Q 186.18 135.31 176.19 147.69
  A 0.58 0.57 -44.7 0 1 175.30 147.69"
/>
<path stroke="#90346e" vector-effect="non-scaling-stroke" d="
  M 175.34 176.45
  C 171.32 167.35 162.76 156.66 153.68 152.20
  Q 146.65 148.75 139.34 147.70
  Q 129.92 146.35 120.28 143.66
  Q 119.71 143.50 119.70 144.08
  C 119.18 164.55 126.14 182.15 143.08 194.17
  Q 154.09 202.00 167.26 208.48
  Q 167.88 208.79 168.57 208.85
  Q 170.79 209.06 168.90 206.44
  A 1.46 1.38 87.7 0 0 168.51 206.06
  C 158.93 199.54 149.53 193.45 141.85 185.15
  C 134.97 177.72 131.57 166.92 130.02 156.93
  A 0.77 0.77 0.0 0 1 130.86 156.05
  Q 139.34 156.91 146.12 158.47
  C 159.99 161.65 169.79 171.47 175.30 184.43
  A 0.50 0.50 0.0 0 0 176.23 184.42
  C 181.30 171.74 192.20 160.99 206.07 158.31
  Q 212.81 157.01 220.57 156.00
  A 0.71 0.71 0.0 0 1 221.36 156.80
  C 219.88 168.01 216.00 178.67 208.01 186.78
  C 200.47 194.44 191.42 200.24 182.71 206.19
  Q 181.70 206.88 181.57 208.19
  Q 181.51 208.83 183.31 208.95
  A 1.30 1.30 0.0 0 0 184.01 208.81
  C 199.02 201.09 215.19 192.22 224.14 177.35
  C 229.90 167.79 232.03 155.70 231.86 144.39
  A 0.77 0.77 0.0 0 0 230.82 143.67
  Q 228.03 144.71 225.07 145.32
  Q 217.93 146.80 209.92 148.14
  C 194.18 150.79 182.86 162.37 176.05 176.46
  A 0.39 0.39 0.0 0 1 175.34 176.45"
/>
<path stroke="#d2a6c3" vector-effect="non-scaling-stroke" d="
  M 206.53 260.00
  A 0.91 0.91 0.0 0 1 206.47 258.59
  Q 210.46 255.06 209.60 248.59
  C 208.52 240.39 199.80 235.23 192.08 237.67
  Q 183.68 240.32 182.81 250.01
  A 0.17 0.17 0.0 0 0 182.98 250.20
  L 191.44 250.19
  Q 191.66 250.19 191.72 249.98
  Q 193.22 244.50 197.96 245.95
  C 199.47 246.42 200.37 247.50 200.55 249.06
  C 201.13 253.83 198.01 255.73 193.85 255.57
  Q 192.63 255.52 192.64 256.74
  L 192.71 263.30
  Q 192.72 264.41 193.83 264.33
  C 199.05 263.97 204.19 266.61 204.23 272.36
  C 204.25 276.43 201.08 280.20 196.89 280.36
  Q 190.35 280.62 188.36 273.70
  A 1.13 1.13 0.0 0 0 187.30 272.88
  L 180.18 272.77
  A 1.15 1.14 -3.8 0 0 179.03 274.08
  Q 180.12 281.56 186.04 286.05
  C 191.20 289.95 198.81 290.47 204.37 287.34
  Q 214.59 281.60 213.19 269.53
  C 212.82 266.38 210.96 262.65 208.03 260.99
  Q 207.24 260.54 206.53 260.00"
/>
<path stroke="#d2a6c3" vector-effect="non-scaling-stroke" d="
  M 164.37 260.42
  C 165.23 259.46 166.29 258.75 167.05 257.70
  Q 169.33 254.57 168.87 250.19
  C 168.01 242.15 161.26 238.20 153.63 238.19
  Q 146.69 238.18 140.10 238.16
  Q 139.50 238.16 139.50 238.76
  L 139.49 287.70
  A 0.37 0.37 0.0 0 0 139.86 288.07
  Q 148.95 288.17 156.94 287.93
  C 166.58 287.63 173.34 280.32 171.79 270.51
  Q 170.72 263.66 164.61 261.38
  A 0.60 0.60 0.0 0 1 164.37 260.42"
/>
<path stroke="#d2a6c3" vector-effect="non-scaling-stroke" d="
  M 148.71 247.43
  L 148.61 256.81
  A 0.80 0.80 0.0 0 0 149.40 257.62
  L 153.01 257.66
  A 6.59 4.86 0.6 0 0 159.65 252.87
  L 159.67 251.61
  A 6.59 4.86 0.6 0 0 153.13 246.68
  L 149.52 246.64
  A 0.80 0.80 0.0 0 0 148.71 247.43"
/>
<path stroke="#d2a6c3" vector-effect="non-scaling-stroke" d="
  M 148.79 266.84
  L 148.65 278.76
  A 0.63 0.63 0.0 0 0 149.27 279.39
  L 154.21 279.45
  A 8.23 5.87 0.7 0 0 162.51 273.68
  L 162.53 272.24
  A 8.23 5.87 0.7 0 0 154.37 266.27
  L 149.43 266.21
  A 0.63 0.63 0.0 0 0 148.79 266.84"
/>
</g>

<path fill="#a54d87" d="
  M 8.93 115.02
  C 8.93 108.86 11.77 102.26 16.24 98.06
  Q 19.13 95.36 24.00 92.56
  Q 93.89 52.41 163.21 12.34
  Q 175.71 5.12 188.68 12.60
  Q 258.88 53.09 329.78 93.96
  Q 338.08 98.75 340.95 106.70
  Q 342.62 111.32 342.59 121.52
  Q 342.38 195.66 342.60 275.18
  Q 342.63 283.81 341.20 287.70
  C 339.08 293.48 335.14 297.91 330.01 300.88
  Q 260.76 340.96 187.97 382.77
  C 182.01 386.20 175.70 387.25 169.04 385.20
  C 165.05 383.97 161.12 381.43 157.25 379.20
  Q 91.72 341.42 26.21 303.62
  Q 17.28 298.47 14.36 295.04
  Q 8.93 288.65 8.94 279.03
  Q 9.03 197.32 8.93 115.02
  Z
  M 39.11 281.90
  C 82.64 307.08 126.25 332.14 169.82 357.24
  C 173.83 359.55 176.87 360.16 181.06 357.72
  Q 243.30 321.57 308.86 284.10
  C 314.26 281.01 317.22 279.04 317.22 272.50
  Q 317.19 199.77 317.21 127.04
  C 317.21 120.47 317.64 116.14 312.26 113.04
  Q 247.04 75.43 181.83 37.82
  C 178.18 35.72 174.88 34.89 171.26 36.97
  Q 105.46 74.85 39.59 112.82
  C 36.66 114.51 34.43 117.07 34.39 120.50
  Q 34.21 135.41 34.20 151.27
  Q 34.18 215.55 34.31 273.50
  Q 34.32 279.13 39.11 281.90
  Z"
/>
<path fill="#7b1a54" d="
  M 169.82 357.24
  C 126.25 332.14 82.64 307.08 39.11 281.90
  Q 34.32 279.13 34.31 273.50
  Q 34.18 215.55 34.20 151.27
  Q 34.21 135.41 34.39 120.50
  C 34.43 117.07 36.66 114.51 39.59 112.82
  Q 105.46 74.85 171.26 36.97
  C 174.88 34.89 178.18 35.72 181.83 37.82
  Q 247.04 75.43 312.26 113.04
  C 317.64 116.14 317.21 120.47 317.21 127.04
  Q 317.19 199.77 317.22 272.50
  C 317.22 279.04 314.26 281.01 308.86 284.10
  Q 243.30 321.57 181.06 357.72
  C 176.87 360.16 173.83 359.55 169.82 357.24
  Z
  M 39.09 121.50
  L 39.05 273.34
  A 5.10 5.09 -75.0 0 0 41.59 277.75
  L 173.60 353.87
  A 4.38 4.37 -44.9 0 0 177.97 353.87
  Q 243.24 316.22 310.06 277.69
  C 311.71 276.73 312.50 275.11 312.50 273.21
  Q 312.60 197.88 312.48 121.14
  A 4.19 4.19 0.0 0 0 310.38 117.51
  Q 244.73 79.61 178.29 41.32
  C 176.14 40.09 174.77 40.42 172.76 41.58
  Q 107.04 79.56 41.46 117.33
  A 4.86 4.71 75.5 0 0 39.09 121.50
  Z"
/>
<path fill="#a54d87" d="
  M 39.05 273.34
  L 39.09 121.50
  A 4.86 4.71 75.5 0 1 41.46 117.33
  Q 107.04 79.56 172.76 41.58
  C 174.77 40.42 176.14 40.09 178.29 41.32
  Q 244.73 79.61 310.38 117.51
  A 4.19 4.19 0.0 0 1 312.48 121.14
  Q 312.60 197.88 312.50 273.21
  C 312.50 275.11 311.71 276.73 310.06 277.69
  Q 243.24 316.22 177.97 353.87
  A 4.38 4.37 -44.9 0 1 173.60 353.87
  L 41.59 277.75
  A 5.10 5.09 -75.0 0 1 39.05 273.34
  Z
  M 175.30 147.69
  Q 165.13 135.02 148.62 131.82
  C 142.03 130.54 135.36 129.50 129.00 127.54
  Q 115.29 123.31 103.20 115.77
  A 0.51 0.50 -74.1 0 0 102.43 116.20
  Q 102.52 131.88 102.93 147.43
  Q 103.30 161.20 108.17 174.67
  Q 113.81 190.30 128.67 199.18
  Q 139.72 205.78 148.64 209.54
  A 1.74 1.73 55.7 0 0 149.37 209.68
  Q 151.21 209.63 151.08 208.91
  Q 150.82 207.45 149.51 206.65
  Q 139.28 200.40 132.56 194.92
  C 123.27 187.33 117.69 178.64 114.85 166.31
  C 112.41 155.69 112.54 144.51 112.46 133.51
  A 0.70 0.70 0.0 0 1 113.38 132.84
  Q 120.57 135.26 126.96 136.95
  C 135.61 139.23 146.56 140.40 154.57 144.03
  C 163.68 148.16 171.07 156.30 175.31 166.16
  A 0.52 0.52 0.0 0 0 176.27 166.15
  Q 182.79 150.52 197.11 144.00
  Q 202.76 141.42 213.23 139.48
  Q 224.47 137.40 237.93 132.95
  A 0.91 0.90 -8.7 0 1 239.12 133.82
  C 238.88 148.04 238.90 162.02 233.80 175.41
  C 228.26 189.94 215.39 197.96 201.99 206.84
  Q 201.15 207.39 200.65 208.34
  A 0.90 0.90 0.0 0 0 201.47 209.66
  Q 202.80 209.63 204.11 209.04
  C 215.69 203.84 228.49 197.65 235.98 188.03
  Q 244.12 177.61 247.10 160.66
  Q 248.54 152.48 248.72 146.09
  Q 249.15 131.31 249.24 116.27
  A 0.61 0.61 0.0 0 0 248.31 115.75
  Q 236.94 122.79 223.78 127.15
  C 216.88 129.44 209.63 130.45 202.45 131.94
  Q 186.18 135.31 176.19 147.69
  A 0.58 0.57 -44.7 0 1 175.30 147.69
  Z
  M 175.34 176.45
  C 171.32 167.35 162.76 156.66 153.68 152.20
  Q 146.65 148.75 139.34 147.70
  Q 129.92 146.35 120.28 143.66
  Q 119.71 143.50 119.70 144.08
  C 119.18 164.55 126.14 182.15 143.08 194.17
  Q 154.09 202.00 167.26 208.48
  Q 167.88 208.79 168.57 208.85
  Q 170.79 209.06 168.90 206.44
  A 1.46 1.38 87.7 0 0 168.51 206.06
  C 158.93 199.54 149.53 193.45 141.85 185.15
  C 134.97 177.72 131.57 166.92 130.02 156.93
  A 0.77 0.77 0.0 0 1 130.86 156.05
  Q 139.34 156.91 146.12 158.47
  C 159.99 161.65 169.79 171.47 175.30 184.43
  A 0.50 0.50 0.0 0 0 176.23 184.42
  C 181.30 171.74 192.20 160.99 206.07 158.31
  Q 212.81 157.01 220.57 156.00
  A 0.71 0.71 0.0 0 1 221.36 156.80
  C 219.88 168.01 216.00 178.67 208.01 186.78
  C 200.47 194.44 191.42 200.24 182.71 206.19
  Q 181.70 206.88 181.57 208.19
  Q 181.51 208.83 183.31 208.95
  A 1.30 1.30 0.0 0 0 184.01 208.81
  C 199.02 201.09 215.19 192.22 224.14 177.35
  C 229.90 167.79 232.03 155.70 231.86 144.39
  A 0.77 0.77 0.0 0 0 230.82 143.67
  Q 228.03 144.71 225.07 145.32
  Q 217.93 146.80 209.92 148.14
  C 194.18 150.79 182.86 162.37 176.05 176.46
  A 0.39 0.39 0.0 0 1 175.34 176.45
  Z
  M 206.53 260.00
  A 0.91 0.91 0.0 0 1 206.47 258.59
  Q 210.46 255.06 209.60 248.59
  C 208.52 240.39 199.80 235.23 192.08 237.67
  Q 183.68 240.32 182.81 250.01
  A 0.17 0.17 0.0 0 0 182.98 250.20
  L 191.44 250.19
  Q 191.66 250.19 191.72 249.98
  Q 193.22 244.50 197.96 245.95
  C 199.47 246.42 200.37 247.50 200.55 249.06
  C 201.13 253.83 198.01 255.73 193.85 255.57
  Q 192.63 255.52 192.64 256.74
  L 192.71 263.30
  Q 192.72 264.41 193.83 264.33
  C 199.05 263.97 204.19 266.61 204.23 272.36
  C 204.25 276.43 201.08 280.20 196.89 280.36
  Q 190.35 280.62 188.36 273.70
  A 1.13 1.13 0.0 0 0 187.30 272.88
  L 180.18 272.77
  A 1.15 1.14 -3.8 0 0 179.03 274.08
  Q 180.12 281.56 186.04 286.05
  C 191.20 289.95 198.81 290.47 204.37 287.34
  Q 214.59 281.60 213.19 269.53
  C 212.82 266.38 210.96 262.65 208.03 260.99
  Q 207.24 260.54 206.53 260.00
  Z
  M 164.37 260.42
  C 165.23 259.46 166.29 258.75 167.05 257.70
  Q 169.33 254.57 168.87 250.19
  C 168.01 242.15 161.26 238.20 153.63 238.19
  Q 146.69 238.18 140.10 238.16
  Q 139.50 238.16 139.50 238.76
  L 139.49 287.70
  A 0.37 0.37 0.0 0 0 139.86 288.07
  Q 148.95 288.17 156.94 287.93
  C 166.58 287.63 173.34 280.32 171.79 270.51
  Q 170.72 263.66 164.61 261.38
  A 0.60 0.60 0.0 0 1 164.37 260.42
  Z"
/>
<path fill="#7b1a54" d="
  M 175.30 147.69
  A 0.58 0.57 -44.7 0 0 176.19 147.69
  Q 186.18 135.31 202.45 131.94
  C 209.63 130.45 216.88 129.44 223.78 127.15
  Q 236.94 122.79 248.31 115.75
  A 0.61 0.61 0.0 0 1 249.24 116.27
  Q 249.15 131.31 248.72 146.09
  Q 248.54 152.48 247.10 160.66
  Q 244.12 177.61 235.98 188.03
  C 228.49 197.65 215.69 203.84 204.11 209.04
  Q 202.80 209.63 201.47 209.66
  A 0.90 0.90 0.0 0 1 200.65 208.34
  Q 201.15 207.39 201.99 206.84
  C 215.39 197.96 228.26 189.94 233.80 175.41
  C 238.90 162.02 238.88 148.04 239.12 133.82
  A 0.91 0.90 -8.7 0 0 237.93 132.95
  Q 224.47 137.40 213.23 139.48
  Q 202.76 141.42 197.11 144.00
  Q 182.79 150.52 176.27 166.15
  A 0.52 0.52 0.0 0 1 175.31 166.16
  C 171.07 156.30 163.68 148.16 154.57 144.03
  C 146.56 140.40 135.61 139.23 126.96 136.95
  Q 120.57 135.26 113.38 132.84
  A 0.70 0.70 0.0 0 0 112.46 133.51
  C 112.54 144.51 112.41 155.69 114.85 166.31
  C 117.69 178.64 123.27 187.33 132.56 194.92
  Q 139.28 200.40 149.51 206.65
  Q 150.82 207.45 151.08 208.91
  Q 151.21 209.63 149.37 209.68
  A 1.74 1.73 55.7 0 1 148.64 209.54
  Q 139.72 205.78 128.67 199.18
  Q 113.81 190.30 108.17 174.67
  Q 103.30 161.20 102.93 147.43
  Q 102.52 131.88 102.43 116.20
  A 0.51 0.50 -74.1 0 1 103.20 115.77
  Q 115.29 123.31 129.00 127.54
  C 135.36 129.50 142.03 130.54 148.62 131.82
  Q 165.13 135.02 175.30 147.69
  Z"
/>
<path fill="#7b1a54" d="
  M 175.34 176.45
  A 0.39 0.39 0.0 0 0 176.05 176.46
  C 182.86 162.37 194.18 150.79 209.92 148.14
  Q 217.93 146.80 225.07 145.32
  Q 228.03 144.71 230.82 143.67
  A 0.77 0.77 0.0 0 1 231.86 144.39
  C 232.03 155.70 229.90 167.79 224.14 177.35
  C 215.19 192.22 199.02 201.09 184.01 208.81
  A 1.30 1.30 0.0 0 1 183.31 208.95
  Q 181.51 208.83 181.57 208.19
  Q 181.70 206.88 182.71 206.19
  C 191.42 200.24 200.47 194.44 208.01 186.78
  C 216.00 178.67 219.88 168.01 221.36 156.80
  A 0.71 0.71 0.0 0 0 220.57 156.00
  Q 212.81 157.01 206.07 158.31
  C 192.20 160.99 181.30 171.74 176.23 184.42
  A 0.50 0.50 0.0 0 1 175.30 184.43
  C 169.79 171.47 159.99 161.65 146.12 158.47
  Q 139.34 156.91 130.86 156.05
  A 0.77 0.77 0.0 0 0 130.02 156.93
  C 131.57 166.92 134.97 177.72 141.85 185.15
  C 149.53 193.45 158.93 199.54 168.51 206.06
  A 1.46 1.38 87.7 0 1 168.90 206.44
  Q 170.79 209.06 168.57 208.85
  Q 167.88 208.79 167.26 208.48
  Q 154.09 202.00 143.08 194.17
  C 126.14 182.15 119.18 164.55 119.70 144.08
  Q 119.71 143.50 120.28 143.66
  Q 129.92 146.35 139.34 147.70
  Q 146.65 148.75 153.68 152.20
  C 162.76 156.66 171.32 167.35 175.34 176.45
  Z"
/>
<path fill="#ffffff" d="
  M 206.53 260.00
  Q 207.24 260.54 208.03 260.99
  C 210.96 262.65 212.82 266.38 213.19 269.53
  Q 214.59 281.60 204.37 287.34
  C 198.81 290.47 191.20 289.95 186.04 286.05
  Q 180.12 281.56 179.03 274.08
  A 1.15 1.14 -3.8 0 1 180.18 272.77
  L 187.30 272.88
  A 1.13 1.13 0.0 0 1 188.36 273.70
  Q 190.35 280.62 196.89 280.36
  C 201.08 280.20 204.25 276.43 204.23 272.36
  C 204.19 266.61 199.05 263.97 193.83 264.33
  Q 192.72 264.41 192.71 263.30
  L 192.64 256.74
  Q 192.63 255.52 193.85 255.57
  C 198.01 255.73 201.13 253.83 200.55 249.06
  C 200.37 247.50 199.47 246.42 197.96 245.95
  Q 193.22 244.50 191.72 249.98
  Q 191.66 250.19 191.44 250.19
  L 182.98 250.20
  A 0.17 0.17 0.0 0 1 182.81 250.01
  Q 183.68 240.32 192.08 237.67
  C 199.80 235.23 208.52 240.39 209.60 248.59
  Q 210.46 255.06 206.47 258.59
  A 0.91 0.91 0.0 0 0 206.53 260.00
  Z"
/>
<path fill="#ffffff" d="
  M 164.37 260.42
  A 0.60 0.60 0.0 0 0 164.61 261.38
  Q 170.72 263.66 171.79 270.51
  C 173.34 280.32 166.58 287.63 156.94 287.93
  Q 148.95 288.17 139.86 288.07
  A 0.37 0.37 0.0 0 1 139.49 287.70
  L 139.50 238.76
  Q 139.50 238.16 140.10 238.16
  Q 146.69 238.18 153.63 238.19
  C 161.26 238.20 168.01 242.15 168.87 250.19
  Q 169.33 254.57 167.05 257.70
  C 166.29 258.75 165.23 259.46 164.37 260.42
  Z
  M 148.71 247.43
  L 148.61 256.81
  A 0.80 0.80 0.0 0 0 149.40 257.62
  L 153.01 257.66
  A 6.59 4.86 0.6 0 0 159.65 252.87
  L 159.67 251.61
  A 6.59 4.86 0.6 0 0 153.13 246.68
  L 149.52 246.64
  A 0.80 0.80 0.0 0 0 148.71 247.43
  Z
  M 148.79 266.84
  L 148.65 278.76
  A 0.63 0.63 0.0 0 0 149.27 279.39
  L 154.21 279.45
  A 8.23 5.87 0.7 0 0 162.51 273.68
  L 162.53 272.24
  A 8.23 5.87 0.7 0 0 154.37 266.27
  L 149.43 266.21
  A 0.63 0.63 0.0 0 0 148.79 266.84
  Z"
/>
<path fill="#a54d87" d="
  M 148.71 247.43
  A 0.80 0.80 0.0 0 1 149.52 246.64
  L 153.13 246.68
  A 6.59 4.86 0.6 0 1 159.67 251.61
  L 159.65 252.87
  A 6.59 4.86 0.6 0 1 153.01 257.66
  L 149.40 257.62
  A 0.80 0.80 0.0 0 1 148.61 256.81
  L 148.71 247.43
  Z"
/>
<path fill="#a54d87" d="
  M 148.79 266.84
  A 0.63 0.63 0.0 0 1 149.43 266.21
  L 154.37 266.27
  A 8.23 5.87 0.7 0 1 162.53 272.24
  L 162.51 273.68
  A 8.23 5.87 0.7 0 1 154.21 279.45
  L 149.27 279.39
  A 0.63 0.63 0.0 0 1 148.65 278.76
  L 148.79 266.84
  Z"
/>
</svg>
