<?xml version="1.0" encoding="UTF-8" standalone="no"?>
<!DOCTYPE svg PUBLIC "-//W3C//DTD SVG 1.1//EN" "http://www.w3.org/Graphics/SVG/1.1/DTD/svg11.dtd">
<svg xmlns="http://www.w3.org/2000/svg" version="1.1" viewBox="0 0 1000 1000">
<path fill="rgb(5,136,117)" fill-opacity="0.000" d="M 0.00 0.00 Q 127.41 0.00 254.81 0.00 Q 254.78 0.05 254.75 0.09 A 0.19 0.18 -71.2 0 1 254.58 0.18 Q 216.33 -0.35 181.06 5.81 Q 90.55 21.62 38.60 97.34 Q 26.36 115.19 17.94 137.44 Q 7.70 164.47 4.17 190.99 Q 0.65 217.48 0.00 244.19 Q 0.00 122.09 0.00 0.00 Z"/>
<path fill="rgb(255,255,255)" fill-opacity="1.000" d="M 254.81 0.00 Q 502.69 0.00 750.56 0.00 Q 788.63 0.28 819.00 5.75 Q 847.99 10.97 873.25 22.25 Q 905.17 36.50 930.77 61.10 Q 937.87 67.92 944.64 75.49 Q 963.82 96.94 974.81 120.44 Q 989.08 150.93 994.25 181.00 Q 999.70 212.69 1000.00 250.06 Q 1000.00 502.94 1000.00 755.81 Q 999.41 781.04 995.75 808.50 Q 991.80 838.18 981.07 865.23 Q 977.34 874.63 972.76 883.39 Q 951.75 923.55 915.83 951.84 Q 896.34 967.18 874.94 976.94 Q 849.01 988.76 819.75 994.00 Q 787.84 999.72 750.19 1000.00 Q 496.19 1000.00 242.19 1000.00 Q 231.48 999.65 206.75 997.50 Q 168.87 994.21 135.31 981.23 Q 125.77 977.54 117.07 973.05 Q 81.92 954.87 55.54 924.94 Q 35.36 902.04 22.83 874.21 Q 11.24 848.48 6.50 822.75 Q -0.26 786.04 0.19 746.18 A 0.21 0.21 -75.0 0 0 0.09 746.00 Q 0.05 745.97 0.00 745.94 Q 0.00 501.06 0.00 256.19 Q 0.63 250.31 0.00 244.44 Q 0.00 244.31 0.00 244.19 Q 0.65 217.48 4.17 190.99 Q 7.70 164.47 17.94 137.44 Q 26.36 115.19 38.60 97.34 Q 90.55 21.62 181.06 5.81 Q 216.33 -0.35 254.58 0.18 A 0.19 0.18 -71.2 0 0 254.75 0.09 Q 254.78 0.05 254.81 0.00 Z M 744.21 0.38 A 0.13 0.13 0 0 0 744.08 0.25 L 258.68 0.25 A 0.13 0.13 0 0 0 258.55 0.38 L 258.55 0.38 A 0.13 0.13 0 0 0 258.68 0.51 L 744.08 0.51 A 0.13 0.13 0 0 0 744.21 0.38 L 744.21 0.38 Z M 181.23 286.60 Q 193.51 295.07 206.67 302.10 Q 234.56 317.02 265.98 317.75 Q 278.98 318.05 279.01 318.06 Q 304.77 319.98 326.79 333.12 Q 333.76 337.28 338.60 341.68 Q 344.25 346.83 348.19 352.81 Q 352.89 359.97 353.62 368.82 Q 354.14 375.14 354.68 376.56 Q 357.24 383.24 365.22 382.14 Q 367.42 381.83 369.03 380.70 Q 370.84 379.43 371.94 377.69 Q 385.00 357.05 397.86 339.88 Q 413.86 318.51 434.66 302.07 Q 438.21 299.27 450.29 291.04 Q 458.21 285.65 465.81 279.81 Q 478.78 270.73 487.16 257.70 Q 492.58 249.27 494.44 240.91 Q 496.53 231.56 495.00 222.25 Q 492.65 207.99 485.04 194.00 Q 484.99 193.90 483.74 191.31 Q 482.08 187.89 478.94 186.31 Q 473.15 183.41 468.04 187.80 Q 463.43 191.76 465.16 197.70 Q 465.98 200.51 467.39 203.09 Q 471.82 211.18 474.40 220.03 Q 477.12 229.41 474.71 238.12 Q 472.77 245.12 466.21 252.62 Q 460.60 259.04 453.61 264.13 Q 442.92 271.92 434.56 277.31 Q 414.46 290.28 398.89 307.39 Q 382.35 325.56 368.54 346.47 A 0.40 0.39 46.1 0 1 367.87 346.45 Q 355.98 326.61 336.41 315.29 Q 328.64 310.79 318.35 306.75 Q 295.38 297.72 270.25 297.90 Q 245.30 298.07 222.80 287.47 Q 200.39 276.92 183.94 263.06 Q 180.98 260.57 178.68 259.06 Q 175.67 257.09 172.53 257.26 Q 167.63 257.52 165.08 261.34 Q 163.59 263.59 162.89 268.86 Q 159.86 291.62 160.70 314.53 Q 161.09 325.02 162.51 334.42 Q 165.37 353.28 171.50 369.75 Q 185.26 406.72 216.91 432.07 Q 240.35 450.84 268.65 460.91 Q 288.14 467.85 308.68 471.53 A 0.74 0.73 -79.8 0 1 309.27 472.39 Q 298.13 534.35 318.58 592.82 Q 321.79 602.01 326.09 611.35 Q 339.63 640.78 359.53 666.49 Q 373.28 684.24 389.49 701.69 A 1.81 1.80 30.7 0 1 389.92 703.36 Q 388.88 707.60 387.26 711.39 Q 385.88 714.63 383.14 718.73 Q 373.21 733.60 359.31 747.31 Q 340.72 765.66 322.22 779.57 Q 320.31 781.01 319.00 782.16 Q 316.32 784.51 316.06 785.06 Q 313.10 791.43 316.35 795.85 Q 318.14 798.28 324.28 801.19 Q 350.27 813.52 378.98 817.15 Q 385.88 818.03 396.25 817.75 Q 437.31 816.65 471.77 797.04 Q 498.50 781.83 518.92 758.87 A 0.93 0.90 25.0 0 1 519.75 758.58 Q 554.70 763.99 586.50 764.00 Q 633.25 764.02 679.02 750.45 A 1.26 1.25 65.6 0 1 680.45 750.99 Q 683.44 755.76 684.68 761.76 Q 686.75 771.73 686.20 781.82 Q 685.72 790.80 686.00 792.18 Q 687.42 799.13 695.22 799.38 Q 697.86 799.46 700.97 797.92 Q 712.47 792.22 718.44 787.94 Q 736.45 775.01 747.94 753.19 Q 759.34 731.51 762.97 709.54 Q 764.07 702.87 764.19 701.19 Q 764.42 697.71 766.84 695.41 Q 768.41 693.91 768.45 693.87 Q 796.22 663.93 812.69 626.78 Q 816.26 618.73 820.26 608.28 Q 827.85 588.45 831.25 572.25 Q 839.66 532.19 833.18 489.35 Q 831.54 478.53 829.67 469.67 Q 824.57 445.52 813.50 421.50 Q 784.84 359.31 724.16 331.95 Q 715.43 328.01 705.47 324.83 Q 668.44 313.01 629.49 313.24 Q 618.91 313.31 609.51 313.91 Q 591.41 315.07 573.70 319.25 Q 514.45 333.24 473.31 377.81 Q 452.51 400.34 437.56 429.69 Q 433.07 438.50 428.98 447.75 Q 417.22 474.33 411.31 502.91 Q 409.74 510.53 415.81 514.19 Q 423.06 518.55 428.69 511.94 Q 429.83 510.59 431.00 506.50 Q 433.30 497.26 435.84 488.08 Q 438.74 477.60 441.54 469.93 Q 454.71 433.81 477.06 405.06 Q 497.47 378.82 523.06 362.31 Q 558.73 339.31 602.03 334.79 Q 612.87 333.66 621.98 333.33 Q 635.11 332.87 651.25 334.25 Q 687.84 337.39 718.96 351.66 Q 728.30 355.94 736.49 361.22 Q 766.19 380.39 785.76 411.14 A 0.44 0.44 62.4 0 1 785.56 411.78 Q 779.73 414.12 774.42 416.15 Q 712.44 439.91 664.98 486.23 Q 646.97 503.81 634.81 520.81 Q 621.13 539.95 615.31 549.81 Q 580.11 609.47 548.07 670.87 Q 537.89 690.38 527.00 709.50 Q 518.47 725.26 508.00 739.76 Q 501.66 748.52 495.14 755.03 Q 476.92 773.22 453.80 784.56 Q 444.69 789.03 435.23 791.94 Q 390.01 805.88 344.93 788.31 A 0.46 0.46 -53.8 0 1 344.81 787.52 Q 362.86 772.68 378.92 756.17 Q 394.58 740.08 404.81 720.12 Q 409.16 711.64 410.25 701.75 Q 410.77 696.98 408.19 693.31 Q 407.27 692.01 395.14 678.35 Q 380.00 661.30 366.84 642.69 Q 353.29 623.54 343.79 602.09 Q 315.15 537.41 330.44 467.94 Q 332.85 456.99 323.25 453.50 Q 291.97 449.75 263.38 437.18 Q 253.45 432.81 245.60 428.03 Q 227.42 416.95 213.14 400.87 Q 195.69 381.22 188.06 356.69 Q 178.74 326.68 180.80 294.50 Q 181.05 290.65 180.84 286.81 Q 180.81 286.32 181.23 286.60 Z M 556.22 584.00 A 13.75 13.75 0 0 0 542.47 570.25 A 13.75 13.75 0 0 0 528.72 584.00 A 13.75 13.75 0 0 0 542.47 597.75 A 13.75 13.75 0 0 0 556.22 584.00 Z"/>
<path fill="rgb(5,136,117)" fill-opacity="0.000" d="M 750.56 0.00 Q 875.28 0.00 1000.00 0.00 Q 1000.00 125.03 1000.00 250.06 Q 999.70 212.69 994.25 181.00 Q 989.08 150.93 974.81 120.44 Q 963.82 96.94 944.64 75.49 Q 937.87 67.92 930.77 61.10 Q 905.17 36.50 873.25 22.25 Q 847.99 10.97 819.00 5.75 Q 788.63 0.28 750.56 0.00 Z"/>
<rect fill="rgb(255,255,255)" fill-opacity="0.980" x="-242.83" y="-0.13" width="485.66" height="0.26" rx="0.13" transform="translate(501.38,0.38) rotate(0.0)"/>
<path fill="rgb(73,205,207)" fill-opacity="1.000" d="M 478.94 186.31 Q 482.08 187.89 483.74 191.31 Q 484.99 193.90 485.04 194.00 Q 492.65 207.99 495.00 222.25 Q 496.53 231.56 494.44 240.91 Q 492.58 249.27 487.16 257.70 Q 478.78 270.73 465.81 279.81 Q 458.21 285.65 450.29 291.04 Q 438.21 299.27 434.66 302.07 Q 413.86 318.51 397.86 339.88 Q 385.00 357.05 371.94 377.69 Q 370.84 379.43 369.03 380.70 Q 367.42 381.83 365.22 382.14 Q 357.24 383.24 354.68 376.56 Q 354.14 375.14 353.62 368.82 Q 352.89 359.97 348.19 352.81 Q 344.25 346.83 338.60 341.68 Q 333.76 337.28 326.79 333.12 Q 304.77 319.98 279.01 318.06 Q 278.98 318.05 265.98 317.75 Q 234.56 317.02 206.67 302.10 Q 193.51 295.07 181.23 286.60 Q 180.81 286.32 180.84 286.81 Q 181.05 290.65 180.80 294.50 Q 178.74 326.68 188.06 356.69 Q 195.69 381.22 213.14 400.87 Q 227.42 416.95 245.60 428.03 Q 253.45 432.81 263.38 437.18 Q 291.97 449.75 323.25 453.50 Q 332.85 456.99 330.44 467.94 Q 315.15 537.41 343.79 602.09 Q 353.29 623.54 366.84 642.69 Q 380.00 661.30 395.14 678.35 Q 407.27 692.01 408.19 693.31 Q 410.77 696.98 410.25 701.75 Q 409.16 711.64 404.81 720.12 Q 394.58 740.08 378.92 756.17 Q 362.86 772.68 344.81 787.52 A 0.46 0.46 -53.8 0 0 344.93 788.31 Q 390.01 805.88 435.23 791.94 Q 444.69 789.03 453.80 784.56 Q 476.92 773.22 495.14 755.03 Q 501.66 748.52 508.00 739.76 Q 518.47 725.26 527.00 709.50 Q 537.89 690.38 548.07 670.87 Q 580.11 609.47 615.31 549.81 Q 621.13 539.95 634.81 520.81 Q 646.97 503.81 664.98 486.23 Q 712.44 439.91 774.42 416.15 Q 779.73 414.12 785.56 411.78 A 0.44 0.44 62.4 0 0 785.76 411.14 Q 766.19 380.39 736.49 361.22 Q 728.30 355.94 718.96 351.66 Q 687.84 337.39 651.25 334.25 Q 635.11 332.87 621.98 333.33 Q 612.87 333.66 602.03 334.79 Q 558.73 339.31 523.06 362.31 Q 497.47 378.82 477.06 405.06 Q 454.71 433.81 441.54 469.93 Q 438.74 477.60 435.84 488.08 Q 433.30 497.26 431.00 506.50 Q 429.83 510.59 428.69 511.94 Q 423.06 518.55 415.81 514.19 Q 409.74 510.53 411.31 502.91 Q 417.22 474.33 428.98 447.75 Q 433.07 438.50 437.56 429.69 Q 452.51 400.34 473.31 377.81 Q 514.45 333.24 573.70 319.25 Q 591.41 315.07 609.51 313.91 Q 618.91 313.31 629.49 313.24 Q 668.44 313.01 705.47 324.83 Q 715.43 328.01 724.16 331.95 Q 784.84 359.31 813.50 421.50 Q 824.57 445.52 829.67 469.67 Q 831.54 478.53 833.18 489.35 Q 839.66 532.19 831.25 572.25 Q 827.85 588.45 820.26 608.28 Q 816.26 618.73 812.69 626.78 Q 796.22 663.93 768.45 693.87 Q 768.41 693.91 766.84 695.41 Q 764.42 697.71 764.19 701.19 Q 764.07 702.87 762.97 709.54 Q 759.34 731.51 747.94 753.19 Q 736.45 775.01 718.44 787.94 Q 712.47 792.22 700.97 797.92 Q 697.86 799.46 695.22 799.38 Q 687.42 799.13 686.00 792.18 Q 685.72 790.80 686.20 781.82 Q 686.75 771.73 684.68 761.76 Q 683.44 755.76 680.45 750.99 A 1.26 1.25 65.6 0 0 679.02 750.45 Q 633.25 764.02 586.50 764.00 Q 554.70 763.99 519.75 758.58 A 0.93 0.90 25.0 0 0 518.92 758.87 Q 498.50 781.83 471.77 797.04 Q 437.31 816.65 396.25 817.75 Q 385.88 818.03 378.98 817.15 Q 350.27 813.52 324.28 801.19 Q 318.14 798.28 316.35 795.85 Q 313.10 791.43 316.06 785.06 Q 316.32 784.51 319.00 782.16 Q 320.31 781.01 322.22 779.57 Q 340.72 765.66 359.31 747.31 Q 373.21 733.60 383.14 718.73 Q 385.88 714.63 387.26 711.39 Q 388.88 707.60 389.92 703.36 A 1.81 1.80 30.7 0 0 389.49 701.69 Q 373.28 684.24 359.53 666.49 Q 339.63 640.78 326.09 611.35 Q 321.79 602.01 318.58 592.82 Q 298.13 534.35 309.27 472.39 A 0.74 0.73 -79.8 0 0 308.68 471.53 Q 288.14 467.85 268.65 460.91 Q 240.35 450.84 216.91 432.07 Q 185.26 406.72 171.50 369.75 Q 165.37 353.28 162.51 334.42 Q 161.09 325.02 160.70 314.53 Q 159.86 291.62 162.89 268.86 Q 163.59 263.59 165.08 261.34 Q 167.63 257.52 172.53 257.26 Q 175.67 257.09 178.68 259.06 Q 180.98 260.57 183.94 263.06 Q 200.39 276.92 222.80 287.47 Q 245.30 298.07 270.25 297.90 Q 295.38 297.72 318.35 306.75 Q 328.64 310.79 336.41 315.29 Q 355.98 326.61 367.87 346.45 A 0.40 0.39 46.1 0 0 368.54 346.47 Q 382.35 325.56 398.89 307.39 Q 414.46 290.28 434.56 277.31 Q 442.92 271.92 453.61 264.13 Q 460.60 259.04 466.21 252.62 Q 472.77 245.12 474.71 238.12 Q 477.12 229.41 474.40 220.03 Q 471.82 211.18 467.39 203.09 Q 465.98 200.51 465.16 197.70 Q 463.43 191.76 468.04 187.80 Q 473.15 183.41 478.94 186.31 Z M 662.44 518.44 Q 657.97 522.57 654.69 527.69 Q 640.91 546.10 629.06 565.81 Q 612.65 593.11 587.34 640.08 Q 569.73 672.76 552.21 705.48 Q 542.93 722.81 532.46 739.40 A 0.40 0.39 20.2 0 0 532.74 740.00 Q 574.10 745.99 615.76 742.59 Q 647.45 739.99 676.94 729.94 Q 729.86 711.89 764.72 667.99 Q 779.28 649.66 789.68 628.68 Q 799.99 607.91 806.92 585.84 Q 810.11 575.65 811.96 566.49 Q 817.31 539.98 815.61 512.95 Q 814.98 502.93 813.78 493.05 Q 809.82 460.55 795.74 430.40 A 0.64 0.64 68.4 0 0 794.96 430.06 Q 741.41 447.98 697.56 484.07 Q 678.52 499.75 662.44 518.44 Z M 740.08 718.51 Q 738.09 720.98 735.64 722.61 Q 718.40 734.03 699.13 742.76 A 0.51 0.51 65.4 0 0 698.88 743.44 Q 705.56 757.14 705.99 771.54 Q 706.03 772.64 706.88 771.95 Q 724.16 758.24 733.11 738.30 Q 737.43 728.68 740.23 718.58 Q 740.34 718.19 740.08 718.51 Z"/>
<path fill="rgb(5,136,117)" fill-opacity="0.000" d="M 0.00 244.44 Q 0.63 250.31 0.00 256.19 Q 0.00 250.31 0.00 244.44 Z"/>
<path fill="rgb(255,255,255)" fill-opacity="1.000" d="M 794.96 430.06 A 0.64 0.64 68.4 0 1 795.74 430.40 Q 809.82 460.55 813.78 493.05 Q 814.98 502.93 815.61 512.95 Q 817.31 539.98 811.96 566.49 Q 810.11 575.65 806.92 585.84 Q 799.99 607.91 789.68 628.68 Q 779.28 649.66 764.72 667.99 Q 729.86 711.89 676.94 729.94 Q 647.45 739.99 615.76 742.59 Q 574.10 745.99 532.74 740.00 A 0.40 0.39 20.2 0 1 532.46 739.40 Q 542.93 722.81 552.21 705.48 Q 569.73 672.76 587.34 640.08 Q 612.65 593.11 629.06 565.81 Q 640.91 546.10 654.69 527.69 Q 657.97 522.57 662.44 518.44 Q 678.52 499.75 697.56 484.07 Q 741.41 447.98 794.96 430.06 Z"/>
<circle fill="rgb(73,205,207)" fill-opacity="1.000" cx="542.47" cy="584.00" r="13.75"/>
<path fill="rgb(255,255,255)" fill-opacity="1.000" d="M 740.23 718.58 Q 737.43 728.68 733.11 738.30 Q 724.16 758.24 706.88 771.95 Q 706.03 772.64 705.99 771.54 Q 705.56 757.14 698.88 743.44 A 0.51 0.51 65.4 0 1 699.13 742.76 Q 718.40 734.03 735.64 722.61 Q 738.09 720.98 740.08 718.51 Q 740.34 718.19 740.23 718.58 Z"/>
<path fill="rgb(5,136,117)" fill-opacity="0.000" d="M 0.00 745.94 Q 0.05 745.97 0.09 746.00 A 0.21 0.21 -75.0 0 1 0.19 746.18 Q -0.26 786.04 6.50 822.75 Q 11.24 848.48 22.83 874.21 Q 35.36 902.04 55.54 924.94 Q 81.92 954.87 117.07 973.05 Q 125.77 977.54 135.31 981.23 Q 168.87 994.21 206.75 997.50 Q 231.48 999.65 242.19 1000.00 Q 121.09 1000.00 0.00 1000.00 Q 0.00 872.97 0.00 745.94 Z"/>
<path fill="rgb(5,136,117)" fill-opacity="0.000" d="M 1000.00 755.81 Q 1000.00 877.91 1000.00 1000.00 Q 875.09 1000.00 750.19 1000.00 Q 787.84 999.72 819.75 994.00 Q 849.01 988.76 874.94 976.94 Q 896.34 967.18 915.83 951.84 Q 951.75 923.55 972.76 883.39 Q 977.34 874.63 981.07 865.23 Q 991.80 838.18 995.75 808.50 Q 999.41 781.04 1000.00 755.81 Z"/>
</svg>