<?xml version="1.0" encoding="UTF-8" standalone="no"?>
<!DOCTYPE svg PUBLIC "-//W3C//DTD SVG 1.1//EN" "http://www.w3.org/Graphics/SVG/1.1/DTD/svg11.dtd">
<svg xmlns="http://www.w3.org/2000/svg" version="1.1" viewBox="0.00 0.00 350.00 394.00">
<g stroke-width="0" fill="none" stroke-linecap="butt">
<path stroke="#29665b" vector-effect="non-scaling-stroke" d="
  M 330.82 94.91
  C 281.89 67.25 232.92 39.67 184.01 11.98
  Q 172.01 5.19 158.48 12.83
  Q 84.40 54.65 14.30 94.23
  Q 6.10 98.86 3.15 107.03
  Q 1.64 111.23 1.65 117.80
  Q 1.82 197.36 1.67 277.21
  Q 1.66 283.84 3.12 287.84
  Q 6.11 296.06 14.29 300.68
  Q 83.55 339.86 152.84 378.99
  Q 163.36 384.93 167.71 385.74
  Q 176.24 387.31 184.63 382.58
  Q 257.27 341.63 329.89 300.64
  Q 337.84 296.16 340.73 288.16
  Q 342.26 283.94 342.26 273.67
  Q 342.25 197.33 342.25 120.99
  Q 342.25 110.92 340.74 106.67
  Q 338.01 98.97 330.82 94.91"
/>
<path stroke="#38ab98" vector-effect="non-scaling-stroke" d="
  M 162.29 355.16
  C 168.36 358.58 171.49 360.98 177.39 357.65
  Q 242.43 320.89 307.49 284.16
  C 312.82 281.15 316.53 279.31 316.46 273.35
  Q 315.57 198.32 316.35 122.04
  Q 316.41 115.88 311.21 112.94
  Q 242.20 73.95 177.01 37.16
  C 174.18 35.57 170.43 35.20 167.52 36.85
  Q 98.54 75.76 32.29 113.20
  Q 27.52 115.89 27.51 121.72
  Q 27.44 177.79 27.72 233.62
  C 27.78 246.44 27.42 259.29 27.43 272.20
  C 27.43 276.90 28.51 279.64 32.54 281.92
  Q 97.74 318.78 162.29 355.16"
/>
<path stroke="#38ab98" vector-effect="non-scaling-stroke" d="
  M 311.69 269.79
  C 312.08 220.02 311.95 170.76 311.77 121.40
  A 4.60 4.59 -75.5 0 0 309.43 117.41
  Q 242.71 79.82 174.58 41.31
  Q 172.02 39.86 169.33 41.38
  Q 103.31 78.66 35.18 117.10
  Q 32.25 118.75 32.24 122.51
  Q 32.11 172.10 31.90 221.50
  C 31.82 238.94 32.21 256.28 32.38 273.75
  Q 32.41 276.35 34.74 277.66
  Q 103.85 316.63 169.71 353.88
  A 4.60 4.58 44.9 0 0 174.20 353.88
  Q 241.03 316.17 309.06 277.74
  C 312.16 275.99 311.66 273.68 311.69 269.79"
/>
<path stroke="#a9e6da" vector-effect="non-scaling-stroke" d="
  M 131.69 180.33
  A 0.65 0.65 0.0 0 0 132.36 179.69
  L 132.66 146.29
  A 0.65 0.65 0.0 0 1 133.31 145.65
  L 143.76 145.57
  A 0.65 0.65 0.0 0 0 144.40 144.96
  L 144.64 140.48
  A 0.65 0.65 0.0 0 0 143.99 139.79
  L 113.99 139.91
  A 0.65 0.65 0.0 0 0 113.34 140.54
  L 113.25 144.90
  A 0.65 0.65 0.0 0 0 113.89 145.56
  L 124.56 145.80
  A 0.65 0.65 0.0 0 1 125.20 146.44
  L 125.47 179.54
  A 0.65 0.65 0.0 0 0 126.11 180.19
  L 131.69 180.33"
/>
<path stroke="#a9e6da" vector-effect="non-scaling-stroke" d="
  M 171.34 164.36
  Q 180.90 159.47 178.27 148.36
  C 176.73 141.87 170.97 139.59 164.75 139.68
  Q 156.45 139.80 148.80 139.74
  Q 148.27 139.73 148.27 140.26
  L 148.24 179.49
  Q 148.24 180.24 148.99 180.24
  L 154.96 180.28
  Q 155.71 180.28 155.72 179.53
  L 155.74 166.02
  Q 155.75 165.29 156.48 165.29
  L 162.01 165.32
  A 2.38 2.36 77.0 0 1 164.12 166.65
  L 170.69 179.97
  A 0.47 0.47 0.0 0 0 171.07 180.22
  Q 177.43 180.56 178.55 180.32
  Q 178.61 180.31 178.58 180.25
  Q 174.73 173.05 171.02 165.34
  A 0.74 0.73 63.3 0 1 171.34 164.36"
/>
<path stroke="#a9e6da" vector-effect="non-scaling-stroke" d="
  M 198.45 157.28
  A 0.48 0.47 45.5 0 1 197.62 157.27
  L 188.02 140.01
  A 0.44 0.44 0.0 0 0 187.65 139.78
  Q 184.23 139.64 180.06 139.89
  A 0.05 0.04 72.8 0 0 180.03 139.96
  Q 186.06 150.19 191.87 160.63
  C 193.35 163.30 194.52 165.04 194.53 168.25
  Q 194.54 174.41 194.31 179.63
  Q 194.29 180.31 194.96 180.31
  L 200.62 180.29
  Q 201.29 180.29 201.29 179.63
  L 201.38 166.54
  A 4.77 4.71 60.4 0 1 202.00 164.23
  Q 208.76 152.48 216.23 139.93
  A 0.05 0.05 0.0 0 0 216.21 139.85
  Q 215.87 139.70 208.72 139.79
  Q 208.41 139.79 208.25 140.06
  L 198.45 157.28"
/>
<path stroke="#a9e6da" vector-effect="non-scaling-stroke" d="
  M 202.60 246.73
  L 202.70 247.78
  Q 202.80 248.75 203.78 248.75
  L 208.75 248.74
  Q 209.74 248.74 209.74 247.75
  L 209.77 205.81
  Q 209.77 205.48 209.44 205.48
  L 202.69 205.44
  A 0.44 0.44 0.0 0 0 202.25 205.89
  L 202.37 223.03
  A 0.38 0.38 0.0 0 1 201.79 223.35
  C 193.03 217.63 179.60 220.21 177.68 231.89
  C 175.24 246.76 190.17 254.26 201.72 246.32
  Q 202.50 245.79 202.60 246.73"
/>
<path stroke="#a9e6da" vector-effect="non-scaling-stroke" d="
  M 66.27 214.65
  A 0.63 0.63 0.0 0 1 66.90 214.01
  L 85.25 213.86
  A 0.63 0.63 0.0 0 0 85.87 213.27
  L 86.14 208.66
  A 0.63 0.63 0.0 0 0 85.51 207.99
  L 59.59 208.01
  A 0.63 0.63 0.0 0 0 58.96 208.64
  L 59.08 248.07
  A 0.63 0.63 0.0 0 0 59.71 248.70
  L 65.73 248.73
  A 0.63 0.63 0.0 0 0 66.36 248.10
  L 66.37 231.57
  A 0.63 0.63 0.0 0 1 67.01 230.94
  L 80.30 231.06
  A 0.63 0.63 0.0 0 0 80.94 230.48
  L 81.26 225.72
  A 0.63 0.63 0.0 0 0 80.63 225.05
  L 67.07 225.00
  A 0.63 0.63 0.0 0 1 66.44 224.38
  L 66.27 214.65"
/>
<path stroke="#a9e6da" vector-effect="non-scaling-stroke" d="
  M 224.87 211.96
  A 4.13 4.13 0.0 0 0 220.74 207.83
  A 4.13 4.13 0.0 0 0 216.61 211.96
  A 4.13 4.13 0.0 0 0 220.74 216.09
  A 4.13 4.13 0.0 0 0 224.87 211.96"
/>
<path stroke="#a9e6da" vector-effect="non-scaling-stroke" d="
  M 116.77 236.81
  L 138.28 236.86
  Q 139.22 236.86 139.30 235.92
  Q 139.89 228.38 135.39 224.16
  C 130.92 219.98 122.69 219.35 117.20 221.70
  Q 110.39 224.60 109.37 231.97
  Q 107.44 245.88 121.02 249.02
  Q 127.46 250.50 136.02 247.76
  Q 136.98 247.45 136.98 246.43
  L 136.99 242.79
  Q 137.00 241.61 135.88 242.00
  C 130.09 244.00 118.22 245.55 116.10 237.67
  A 0.69 0.68 -7.4 0 1 116.77 236.81"
/>
<path stroke="#a9e6da" vector-effect="non-scaling-stroke" d="
  M 152.01 236.86
  L 172.50 236.87
  A 0.98 0.97 -87.8 0 0 173.47 235.97
  C 174.10 227.10 169.38 221.49 160.73 220.51
  C 152.55 219.58 144.67 223.22 143.52 231.99
  Q 141.64 246.22 155.75 249.13
  Q 161.85 250.39 170.26 247.79
  Q 171.03 247.55 171.05 246.73
  L 171.10 242.73
  A 0.81 0.81 0.0 0 0 170.00 241.96
  Q 163.66 244.30 156.85 243.22
  Q 153.57 242.69 151.51 240.09
  Q 151.17 239.66 150.85 239.25
  Q 148.96 236.86 152.01 236.86"
/>
<path stroke="#a9e6da" vector-effect="non-scaling-stroke" d="
  M 271.72 236.88
  L 292.21 236.90
  Q 292.94 236.90 292.98 236.17
  Q 293.59 225.27 285.30 221.79
  C 277.11 218.35 265.39 220.84 263.30 230.58
  C 261.13 240.71 265.93 247.54 275.55 249.21
  C 280.16 250.01 284.61 249.23 289.18 248.04
  Q 290.55 247.68 290.55 246.26
  L 290.55 242.99
  Q 290.56 241.57 289.22 242.06
  Q 282.53 244.51 275.08 242.99
  A 6.61 6.59 -8.7 0 1 270.66 239.76
  L 270.35 239.21
  Q 269.04 236.88 271.72 236.88"
/>
<path stroke="#a9e6da" vector-effect="non-scaling-stroke" d="
  M 245.96 239.28
  A 0.22 0.22 0.0 0 1 245.58 239.22
  L 239.01 222.15
  Q 238.59 221.06 237.43 221.06
  L 232.37 221.08
  Q 231.19 221.09 231.63 222.18
  L 242.19 247.98
  A 1.26 1.25 78.8 0 0 243.35 248.76
  L 248.15 248.75
  A 1.76 1.76 0.0 0 0 249.78 247.66
  L 260.56 221.36
  A 0.10 0.10 0.0 0 0 260.47 221.22
  Q 256.93 220.99 253.45 221.24
  A 0.31 0.31 0.0 0 0 253.17 221.45
  Q 249.84 229.78 246.84 237.74
  Q 246.53 238.58 245.96 239.28"
/>
<path stroke="#a9e6da" vector-effect="non-scaling-stroke" d="
  M 94.97 224.51
  L 95.03 222.00
  Q 95.05 221.19 94.25 221.20
  L 88.67 221.25
  Q 87.86 221.26 87.86 222.08
  L 87.84 247.80
  Q 87.84 248.75 88.79 248.75
  L 94.49 248.73
  Q 95.28 248.73 95.27 247.94
  Q 95.20 239.69 95.34 233.05
  C 95.43 228.52 102.40 227.06 105.92 227.05
  Q 106.65 227.05 106.67 226.31
  L 106.78 222.04
  Q 106.80 221.27 106.03 221.22
  Q 99.95 220.82 95.59 224.79
  A 0.37 0.37 0.0 0 1 94.97 224.51"
/>
<path stroke="#a9e6da" vector-effect="non-scaling-stroke" d="
  M 224.52 221.90
  A 0.71 0.71 0.0 0 0 223.81 221.19
  L 217.67 221.19
  A 0.71 0.71 0.0 0 0 216.96 221.90
  L 216.96 248.04
  A 0.71 0.71 0.0 0 0 217.67 248.75
  L 223.81 248.75
  A 0.71 0.71 0.0 0 0 224.52 248.04
  L 224.52 221.90"
/>
<path stroke="#a9e6da" vector-effect="non-scaling-stroke" d="
  M 155.74 146.27
  L 155.64 158.65
  A 0.72 0.72 0.0 0 0 156.35 159.38
  L 164.69 159.45
  A 6.78 6.54 0.5 0 0 171.53 152.97
  L 171.53 152.23
  A 6.78 6.54 0.5 0 0 164.81 145.63
  L 156.47 145.56
  A 0.72 0.72 0.0 0 0 155.74 146.27"
/>
<path stroke="#a9e6da" vector-effect="non-scaling-stroke" d="
  M 202.48 234.95
  A 8.83 8.83 0.0 0 0 193.65 226.12
  A 8.83 8.83 0.0 0 0 184.82 234.95
  A 8.83 8.83 0.0 0 0 193.65 243.78
  A 8.83 8.83 0.0 0 0 202.48 234.95"
/>
<path stroke="#a9e6da" vector-effect="non-scaling-stroke" d="
  M 132.29 230.11
  C 130.04 224.92 118.70 225.02 116.27 229.81
  A 0.80 0.80 0.0 0 0 116.99 230.97
  L 131.80 230.86
  A 0.54 0.54 0.0 0 0 132.29 230.11"
/>
<path stroke="#a9e6da" vector-effect="non-scaling-stroke" d="
  M 155.18 226.27
  A 0.93 0.93 0.0 0 0 154.60 226.43
  L 150.56 229.20
  A 0.93 0.93 0.0 0 0 151.09 230.90
  L 165.64 230.93
  A 0.93 0.93 0.0 0 0 166.23 229.28
  L 163.34 226.93
  A 0.93 0.93 0.0 0 0 162.81 226.72
  L 155.18 226.27"
/>
<path stroke="#a9e6da" vector-effect="non-scaling-stroke" d="
  M 269.82 230.92
  L 286.00 230.90
  A 0.01 0.01 0.0 0 0 286.01 230.89
  L 286.01 230.85
  A 7.45 4.55 -0.1 0 0 278.56 226.31
  L 277.26 226.31
  A 7.45 4.55 -0.1 0 0 269.81 230.87
  L 269.81 230.91
  A 0.01 0.01 0.0 0 0 269.82 230.92"
/>
</g>

<path fill="#52ccb5" d="
  M 184.01 11.98
  C 232.92 39.67 281.89 67.25 330.82 94.91
  Q 338.01 98.97 340.74 106.67
  Q 342.25 110.92 342.25 120.99
  Q 342.25 197.33 342.26 273.67
  Q 342.26 283.94 340.73 288.16
  Q 337.84 296.16 329.89 300.64
  Q 257.27 341.63 184.63 382.58
  Q 176.24 387.31 167.71 385.74
  Q 163.36 384.93 152.84 378.99
  Q 83.55 339.86 14.29 300.68
  Q 6.11 296.06 3.12 287.84
  Q 1.66 283.84 1.67 277.21
  Q 1.82 197.36 1.65 117.80
  Q 1.64 111.23 3.15 107.03
  Q 6.10 98.86 14.30 94.23
  Q 84.40 54.65 158.48 12.83
  Q 172.01 5.19 184.01 11.98
  Z
  M 162.29 355.16
  C 168.36 358.58 171.49 360.98 177.39 357.65
  Q 242.43 320.89 307.49 284.16
  C 312.82 281.15 316.53 279.31 316.46 273.35
  Q 315.57 198.32 316.35 122.04
  Q 316.41 115.88 311.21 112.94
  Q 242.20 73.95 177.01 37.16
  C 174.18 35.57 170.43 35.20 167.52 36.85
  Q 98.54 75.76 32.29 113.20
  Q 27.52 115.89 27.51 121.72
  Q 27.44 177.79 27.72 233.62
  C 27.78 246.44 27.42 259.29 27.43 272.20
  C 27.43 276.90 28.51 279.64 32.54 281.92
  Q 97.74 318.78 162.29 355.16
  Z"
/>
<path fill="#1e897a" d="
  M 162.29 355.16
  Q 97.74 318.78 32.54 281.92
  C 28.51 279.64 27.43 276.90 27.43 272.20
  C 27.42 259.29 27.78 246.44 27.72 233.62
  Q 27.44 177.79 27.51 121.72
  Q 27.52 115.89 32.29 113.20
  Q 98.54 75.76 167.52 36.85
  C 170.43 35.20 174.18 35.57 177.01 37.16
  Q 242.20 73.95 311.21 112.94
  Q 316.41 115.88 316.35 122.04
  Q 315.57 198.32 316.46 273.35
  C 316.53 279.31 312.82 281.15 307.49 284.16
  Q 242.43 320.89 177.39 357.65
  C 171.49 360.98 168.36 358.58 162.29 355.16
  Z
  M 311.69 269.79
  C 312.08 220.02 311.95 170.76 311.77 121.40
  A 4.60 4.59 -75.5 0 0 309.43 117.41
  Q 242.71 79.82 174.58 41.31
  Q 172.02 39.86 169.33 41.38
  Q 103.31 78.66 35.18 117.10
  Q 32.25 118.75 32.24 122.51
  Q 32.11 172.10 31.90 221.50
  C 31.82 238.94 32.21 256.28 32.38 273.75
  Q 32.41 276.35 34.74 277.66
  Q 103.85 316.63 169.71 353.88
  A 4.60 4.58 44.9 0 0 174.20 353.88
  Q 241.03 316.17 309.06 277.74
  C 312.16 275.99 311.66 273.68 311.69 269.79
  Z"
/>
<path fill="#52ccb5" d="
  M 311.77 121.40
  C 311.95 170.76 312.08 220.02 311.69 269.79
  C 311.66 273.68 312.16 275.99 309.06 277.74
  Q 241.03 316.17 174.20 353.88
  A 4.60 4.58 44.9 0 1 169.71 353.88
  Q 103.85 316.63 34.74 277.66
  Q 32.41 276.35 32.38 273.75
  C 32.21 256.28 31.82 238.94 31.90 221.50
  Q 32.11 172.10 32.24 122.51
  Q 32.25 118.75 35.18 117.10
  Q 103.31 78.66 169.33 41.38
  Q 172.02 39.86 174.58 41.31
  Q 242.71 79.82 309.43 117.41
  A 4.60 4.59 -75.5 0 1 311.77 121.40
  Z
  M 131.69 180.33
  A 0.65 0.65 0.0 0 0 132.36 179.69
  L 132.66 146.29
  A 0.65 0.65 0.0 0 1 133.31 145.65
  L 143.76 145.57
  A 0.65 0.65 0.0 0 0 144.40 144.96
  L 144.64 140.48
  A 0.65 0.65 0.0 0 0 143.99 139.79
  L 113.99 139.91
  A 0.65 0.65 0.0 0 0 113.34 140.54
  L 113.25 144.90
  A 0.65 0.65 0.0 0 0 113.89 145.56
  L 124.56 145.80
  A 0.65 0.65 0.0 0 1 125.20 146.44
  L 125.47 179.54
  A 0.65 0.65 0.0 0 0 126.11 180.19
  L 131.69 180.33
  Z
  M 171.34 164.36
  Q 180.90 159.47 178.27 148.36
  C 176.73 141.87 170.97 139.59 164.75 139.68
  Q 156.45 139.80 148.80 139.74
  Q 148.27 139.73 148.27 140.26
  L 148.24 179.49
  Q 148.24 180.24 148.99 180.24
  L 154.96 180.28
  Q 155.71 180.28 155.72 179.53
  L 155.74 166.02
  Q 155.75 165.29 156.48 165.29
  L 162.01 165.32
  A 2.38 2.36 77.0 0 1 164.12 166.65
  L 170.69 179.97
  A 0.47 0.47 0.0 0 0 171.07 180.22
  Q 177.43 180.56 178.55 180.32
  Q 178.61 180.31 178.58 180.25
  Q 174.73 173.05 171.02 165.34
  A 0.74 0.73 63.3 0 1 171.34 164.36
  Z
  M 198.45 157.28
  A 0.48 0.47 45.5 0 1 197.62 157.27
  L 188.02 140.01
  A 0.44 0.44 0.0 0 0 187.65 139.78
  Q 184.23 139.64 180.06 139.89
  A 0.05 0.04 72.8 0 0 180.03 139.96
  Q 186.06 150.19 191.87 160.63
  C 193.35 163.30 194.52 165.04 194.53 168.25
  Q 194.54 174.41 194.31 179.63
  Q 194.29 180.31 194.96 180.31
  L 200.62 180.29
  Q 201.29 180.29 201.29 179.63
  L 201.38 166.54
  A 4.77 4.71 60.4 0 1 202.00 164.23
  Q 208.76 152.48 216.23 139.93
  A 0.05 0.05 0.0 0 0 216.21 139.85
  Q 215.87 139.70 208.72 139.79
  Q 208.41 139.79 208.25 140.06
  L 198.45 157.28
  Z
  M 202.60 246.73
  L 202.70 247.78
  Q 202.80 248.75 203.78 248.75
  L 208.75 248.74
  Q 209.74 248.74 209.74 247.75
  L 209.77 205.81
  Q 209.77 205.48 209.44 205.48
  L 202.69 205.44
  A 0.44 0.44 0.0 0 0 202.25 205.89
  L 202.37 223.03
  A 0.38 0.38 0.0 0 1 201.79 223.35
  C 193.03 217.63 179.60 220.21 177.68 231.89
  C 175.24 246.76 190.17 254.26 201.72 246.32
  Q 202.50 245.79 202.60 246.73
  Z
  M 66.27 214.65
  A 0.63 0.63 0.0 0 1 66.90 214.01
  L 85.25 213.86
  A 0.63 0.63 0.0 0 0 85.87 213.27
  L 86.14 208.66
  A 0.63 0.63 0.0 0 0 85.51 207.99
  L 59.59 208.01
  A 0.63 0.63 0.0 0 0 58.96 208.64
  L 59.08 248.07
  A 0.63 0.63 0.0 0 0 59.71 248.70
  L 65.73 248.73
  A 0.63 0.63 0.0 0 0 66.36 248.10
  L 66.37 231.57
  A 0.63 0.63 0.0 0 1 67.01 230.94
  L 80.30 231.06
  A 0.63 0.63 0.0 0 0 80.94 230.48
  L 81.26 225.72
  A 0.63 0.63 0.0 0 0 80.63 225.05
  L 67.07 225.00
  A 0.63 0.63 0.0 0 1 66.44 224.38
  L 66.27 214.65
  Z
  M 224.87 211.96
  A 4.13 4.13 0.0 0 0 220.74 207.83
  A 4.13 4.13 0.0 0 0 216.61 211.96
  A 4.13 4.13 0.0 0 0 220.74 216.09
  A 4.13 4.13 0.0 0 0 224.87 211.96
  Z
  M 116.77 236.81
  L 138.28 236.86
  Q 139.22 236.86 139.30 235.92
  Q 139.89 228.38 135.39 224.16
  C 130.92 219.98 122.69 219.35 117.20 221.70
  Q 110.39 224.60 109.37 231.97
  Q 107.44 245.88 121.02 249.02
  Q 127.46 250.50 136.02 247.76
  Q 136.98 247.45 136.98 246.43
  L 136.99 242.79
  Q 137.00 241.61 135.88 242.00
  C 130.09 244.00 118.22 245.55 116.10 237.67
  A 0.69 0.68 -7.4 0 1 116.77 236.81
  Z
  M 152.01 236.86
  L 172.50 236.87
  A 0.98 0.97 -87.8 0 0 173.47 235.97
  C 174.10 227.10 169.38 221.49 160.73 220.51
  C 152.55 219.58 144.67 223.22 143.52 231.99
  Q 141.64 246.22 155.75 249.13
  Q 161.85 250.39 170.26 247.79
  Q 171.03 247.55 171.05 246.73
  L 171.10 242.73
  A 0.81 0.81 0.0 0 0 170.00 241.96
  Q 163.66 244.30 156.85 243.22
  Q 153.57 242.69 151.51 240.09
  Q 151.17 239.66 150.85 239.25
  Q 148.96 236.86 152.01 236.86
  Z
  M 271.72 236.88
  L 292.21 236.90
  Q 292.94 236.90 292.98 236.17
  Q 293.59 225.27 285.30 221.79
  C 277.11 218.35 265.39 220.84 263.30 230.58
  C 261.13 240.71 265.93 247.54 275.55 249.21
  C 280.16 250.01 284.61 249.23 289.18 248.04
  Q 290.55 247.68 290.55 246.26
  L 290.55 242.99
  Q 290.56 241.57 289.22 242.06
  Q 282.53 244.51 275.08 242.99
  A 6.61 6.59 -8.7 0 1 270.66 239.76
  L 270.35 239.21
  Q 269.04 236.88 271.72 236.88
  Z
  M 245.96 239.28
  A 0.22 0.22 0.0 0 1 245.58 239.22
  L 239.01 222.15
  Q 238.59 221.06 237.43 221.06
  L 232.37 221.08
  Q 231.19 221.09 231.63 222.18
  L 242.19 247.98
  A 1.26 1.25 78.8 0 0 243.35 248.76
  L 248.15 248.75
  A 1.76 1.76 0.0 0 0 249.78 247.66
  L 260.56 221.36
  A 0.10 0.10 0.0 0 0 260.47 221.22
  Q 256.93 220.99 253.45 221.24
  A 0.31 0.31 0.0 0 0 253.17 221.45
  Q 249.84 229.78 246.84 237.74
  Q 246.53 238.58 245.96 239.28
  Z
  M 94.97 224.51
  L 95.03 222.00
  Q 95.05 221.19 94.25 221.20
  L 88.67 221.25
  Q 87.86 221.26 87.86 222.08
  L 87.84 247.80
  Q 87.84 248.75 88.79 248.75
  L 94.49 248.73
  Q 95.28 248.73 95.27 247.94
  Q 95.20 239.69 95.34 233.05
  C 95.43 228.52 102.40 227.06 105.92 227.05
  Q 106.65 227.05 106.67 226.31
  L 106.78 222.04
  Q 106.80 221.27 106.03 221.22
  Q 99.95 220.82 95.59 224.79
  A 0.37 0.37 0.0 0 1 94.97 224.51
  Z
  M 224.52 221.90
  A 0.71 0.71 0.0 0 0 223.81 221.19
  L 217.67 221.19
  A 0.71 0.71 0.0 0 0 216.96 221.90
  L 216.96 248.04
  A 0.71 0.71 0.0 0 0 217.67 248.75
  L 223.81 248.75
  A 0.71 0.71 0.0 0 0 224.52 248.04
  L 224.52 221.90
  Z"
/>
<path fill="#ffffff" d="
  M 131.69 180.33
  L 126.11 180.19
  A 0.65 0.65 0.0 0 1 125.47 179.54
  L 125.20 146.44
  A 0.65 0.65 0.0 0 0 124.56 145.80
  L 113.89 145.56
  A 0.65 0.65 0.0 0 1 113.25 144.90
  L 113.34 140.54
  A 0.65 0.65 0.0 0 1 113.99 139.91
  L 143.99 139.79
  A 0.65 0.65 0.0 0 1 144.64 140.48
  L 144.40 144.96
  A 0.65 0.65 0.0 0 1 143.76 145.57
  L 133.31 145.65
  A 0.65 0.65 0.0 0 0 132.66 146.29
  L 132.36 179.69
  A 0.65 0.65 0.0 0 1 131.69 180.33
  Z"
/>
<path fill="#ffffff" d="
  M 171.34 164.36
  A 0.74 0.73 63.3 0 0 171.02 165.34
  Q 174.73 173.05 178.58 180.25
  Q 178.61 180.31 178.55 180.32
  Q 177.43 180.56 171.07 180.22
  A 0.47 0.47 0.0 0 1 170.69 179.97
  L 164.12 166.65
  A 2.38 2.36 77.0 0 0 162.01 165.32
  L 156.48 165.29
  Q 155.75 165.29 155.74 166.02
  L 155.72 179.53
  Q 155.71 180.28 154.96 180.28
  L 148.99 180.24
  Q 148.24 180.24 148.24 179.49
  L 148.27 140.26
  Q 148.27 139.73 148.80 139.74
  Q 156.45 139.80 164.75 139.68
  C 170.97 139.59 176.73 141.87 178.27 148.36
  Q 180.90 159.47 171.34 164.36
  Z
  M 155.74 146.27
  L 155.64 158.65
  A 0.72 0.72 0.0 0 0 156.35 159.38
  L 164.69 159.45
  A 6.78 6.54 0.5 0 0 171.53 152.97
  L 171.53 152.23
  A 6.78 6.54 0.5 0 0 164.81 145.63
  L 156.47 145.56
  A 0.72 0.72 0.0 0 0 155.74 146.27
  Z"
/>
<path fill="#ffffff" d="
  M 198.45 157.28
  L 208.25 140.06
  Q 208.41 139.79 208.72 139.79
  Q 215.87 139.70 216.21 139.85
  A 0.05 0.05 0.0 0 1 216.23 139.93
  Q 208.76 152.48 202.00 164.23
  A 4.77 4.71 60.4 0 0 201.38 166.54
  L 201.29 179.63
  Q 201.29 180.29 200.62 180.29
  L 194.96 180.31
  Q 194.29 180.31 194.31 179.63
  Q 194.54 174.41 194.53 168.25
  C 194.52 165.04 193.35 163.30 191.87 160.63
  Q 186.06 150.19 180.03 139.96
  A 0.05 0.04 72.8 0 1 180.06 139.89
  Q 184.23 139.64 187.65 139.78
  A 0.44 0.44 0.0 0 1 188.02 140.01
  L 197.62 157.27
  A 0.48 0.47 45.5 0 0 198.45 157.28
  Z"
/>
<path fill="#52ccb5" d="
  M 155.74 146.27
  A 0.72 0.72 0.0 0 1 156.47 145.56
  L 164.81 145.63
  A 6.78 6.54 0.5 0 1 171.53 152.23
  L 171.53 152.97
  A 6.78 6.54 0.5 0 1 164.69 159.45
  L 156.35 159.38
  A 0.72 0.72 0.0 0 1 155.64 158.65
  L 155.74 146.27
  Z"
/>
<path fill="#ffffff" d="
  M 201.72 246.32
  C 190.17 254.26 175.24 246.76 177.68 231.89
  C 179.60 220.21 193.03 217.63 201.79 223.35
  A 0.38 0.38 0.0 0 0 202.37 223.03
  L 202.25 205.89
  A 0.44 0.44 0.0 0 1 202.69 205.44
  L 209.44 205.48
  Q 209.77 205.48 209.77 205.81
  L 209.74 247.75
  Q 209.74 248.74 208.75 248.74
  L 203.78 248.75
  Q 202.80 248.75 202.70 247.78
  L 202.60 246.73
  Q 202.50 245.79 201.72 246.32
  Z
  M 202.48 234.95
  A 8.83 8.83 0.0 0 0 193.65 226.12
  A 8.83 8.83 0.0 0 0 184.82 234.95
  A 8.83 8.83 0.0 0 0 193.65 243.78
  A 8.83 8.83 0.0 0 0 202.48 234.95
  Z"
/>
<path fill="#ffffff" d="
  M 66.27 214.65
  L 66.44 224.38
  A 0.63 0.63 0.0 0 0 67.07 225.00
  L 80.63 225.05
  A 0.63 0.63 0.0 0 1 81.26 225.72
  L 80.94 230.48
  A 0.63 0.63 0.0 0 1 80.30 231.06
  L 67.01 230.94
  A 0.63 0.63 0.0 0 0 66.37 231.57
  L 66.36 248.10
  A 0.63 0.63 0.0 0 1 65.73 248.73
  L 59.71 248.70
  A 0.63 0.63 0.0 0 1 59.08 248.07
  L 58.96 208.64
  A 0.63 0.63 0.0 0 1 59.59 208.01
  L 85.51 207.99
  A 0.63 0.63 0.0 0 1 86.14 208.66
  L 85.87 213.27
  A 0.63 0.63 0.0 0 1 85.25 213.86
  L 66.90 214.01
  A 0.63 0.63 0.0 0 0 66.27 214.65
  Z"
/>
<circle fill="#ffffff" cx="220.74" cy="211.96" r="4.13"/>
<path fill="#ffffff" d="
  M 116.77 236.81
  A 0.69 0.68 -7.4 0 0 116.10 237.67
  C 118.22 245.55 130.09 244.00 135.88 242.00
  Q 137.00 241.61 136.99 242.79
  L 136.98 246.43
  Q 136.98 247.45 136.02 247.76
  Q 127.46 250.50 121.02 249.02
  Q 107.44 245.88 109.37 231.97
  Q 110.39 224.60 117.20 221.70
  C 122.69 219.35 130.92 219.98 135.39 224.16
  Q 139.89 228.38 139.30 235.92
  Q 139.22 236.86 138.28 236.86
  L 116.77 236.81
  Z
  M 132.29 230.11
  C 130.04 224.92 118.70 225.02 116.27 229.81
  A 0.80 0.80 0.0 0 0 116.99 230.97
  L 131.80 230.86
  A 0.54 0.54 0.0 0 0 132.29 230.11
  Z"
/>
<path fill="#ffffff" d="
  M 152.01 236.86
  Q 148.96 236.86 150.85 239.25
  Q 151.17 239.66 151.51 240.09
  Q 153.57 242.69 156.85 243.22
  Q 163.66 244.30 170.00 241.96
  A 0.81 0.81 0.0 0 1 171.10 242.73
  L 171.05 246.73
  Q 171.03 247.55 170.26 247.79
  Q 161.85 250.39 155.75 249.13
  Q 141.64 246.22 143.52 231.99
  C 144.67 223.22 152.55 219.58 160.73 220.51
  C 169.38 221.49 174.10 227.10 173.47 235.97
  A 0.98 0.97 -87.8 0 1 172.50 236.87
  L 152.01 236.86
  Z
  M 155.18 226.27
  A 0.93 0.93 0.0 0 0 154.60 226.43
  L 150.56 229.20
  A 0.93 0.93 0.0 0 0 151.09 230.90
  L 165.64 230.93
  A 0.93 0.93 0.0 0 0 166.23 229.28
  L 163.34 226.93
  A 0.93 0.93 0.0 0 0 162.81 226.72
  L 155.18 226.27
  Z"
/>
<path fill="#ffffff" d="
  M 271.72 236.88
  Q 269.04 236.88 270.35 239.21
  L 270.66 239.76
  A 6.61 6.59 -8.7 0 0 275.08 242.99
  Q 282.53 244.51 289.22 242.06
  Q 290.56 241.57 290.55 242.99
  L 290.55 246.26
  Q 290.55 247.68 289.18 248.04
  C 284.61 249.23 280.16 250.01 275.55 249.21
  C 265.93 247.54 261.13 240.71 263.30 230.58
  C 265.39 220.84 277.11 218.35 285.30 221.79
  Q 293.59 225.27 292.98 236.17
  Q 292.94 236.90 292.21 236.90
  L 271.72 236.88
  Z
  M 269.82 230.92
  L 286.00 230.90
  A 0.01 0.01 0.0 0 0 286.01 230.89
  L 286.01 230.85
  A 7.45 4.55 -0.1 0 0 278.56 226.31
  L 277.26 226.31
  A 7.45 4.55 -0.1 0 0 269.81 230.87
  L 269.81 230.91
  A 0.01 0.01 0.0 0 0 269.82 230.92
  Z"
/>
<path fill="#ffffff" d="
  M 245.96 239.28
  Q 246.53 238.58 246.84 237.74
  Q 249.84 229.78 253.17 221.45
  A 0.31 0.31 0.0 0 1 253.45 221.24
  Q 256.93 220.99 260.47 221.22
  A 0.10 0.10 0.0 0 1 260.56 221.36
  L 249.78 247.66
  A 1.76 1.76 0.0 0 1 248.15 248.75
  L 243.35 248.76
  A 1.26 1.25 78.8 0 1 242.19 247.98
  L 231.63 222.18
  Q 231.19 221.09 232.37 221.08
  L 237.43 221.06
  Q 238.59 221.06 239.01 222.15
  L 245.58 239.22
  A 0.22 0.22 0.0 0 0 245.96 239.28
  Z"
/>
<path fill="#ffffff" d="
  M 94.97 224.51
  A 0.37 0.37 0.0 0 0 95.59 224.79
  Q 99.95 220.82 106.03 221.22
  Q 106.80 221.27 106.78 222.04
  L 106.67 226.31
  Q 106.65 227.05 105.92 227.05
  C 102.40 227.06 95.43 228.52 95.34 233.05
  Q 95.20 239.69 95.27 247.94
  Q 95.28 248.73 94.49 248.73
  L 88.79 248.75
  Q 87.84 248.75 87.84 247.80
  L 87.86 222.08
  Q 87.86 221.26 88.67 221.25
  L 94.25 221.20
  Q 95.05 221.19 95.03 222.00
  L 94.97 224.51
  Z"
/>
<rect fill="#ffffff" x="216.96" y="221.19" width="7.56" height="27.56" rx="0.71"/>
<path fill="#52ccb5" d="
  M 116.27 229.81
  C 118.70 225.02 130.04 224.92 132.29 230.11
  A 0.54 0.54 0.0 0 1 131.80 230.86
  L 116.99 230.97
  A 0.80 0.80 0.0 0 1 116.27 229.81
  Z"
/>
<path fill="#52ccb5" d="
  M 155.18 226.27
  L 162.81 226.72
  A 0.93 0.93 0.0 0 1 163.34 226.93
  L 166.23 229.28
  A 0.93 0.93 0.0 0 1 165.64 230.93
  L 151.09 230.90
  A 0.93 0.93 0.0 0 1 150.56 229.20
  L 154.60 226.43
  A 0.93 0.93 0.0 0 1 155.18 226.27
  Z"
/>
<circle fill="#52ccb5" cx="193.65" cy="234.95" r="8.83"/>
<path fill="#52ccb5" d="
  M 269.82 230.92
  A 0.01 0.01 0.0 0 1 269.81 230.91
  L 269.81 230.87
  A 7.45 4.55 -0.1 0 1 277.26 226.31
  L 278.56 226.31
  A 7.45 4.55 -0.1 0 1 286.01 230.85
  L 286.01 230.89
  A 0.01 0.01 0.0 0 1 286.00 230.90
  L 269.82 230.92
  Z"
/>
</svg>
