<?xml version="1.0" encoding="UTF-8" standalone="no"?>
<!DOCTYPE svg PUBLIC "-//W3C//DTD SVG 1.1//EN" "http://www.w3.org/Graphics/SVG/1.1/DTD/svg11.dtd">
<svg xmlns="http://www.w3.org/2000/svg" version="1.1" viewBox="0.00 0.00 350.00 394.00">
<g stroke-width="0.00" fill="none" stroke-linecap="butt">
<path stroke="#29665b" vector-effect="non-scaling-stroke" d="
  M 332.39 299.26
  C 338.70 294.47 342.31 287.62 342.30 279.48
  Q 342.20 199.78 342.32 116.73
  C 342.34 104.97 337.36 98.37 327.21 92.55
  Q 258.78 53.31 191.36 14.17
  Q 184.11 9.97 179.42 9.13
  Q 171.33 7.70 163.64 12.14
  Q 96.22 51.04 26.38 91.30
  C 22.81 93.36 18.91 95.49 16.27 98.02
  Q 9.32 104.68 9.06 114.75
  Q 8.97 118.28 9.00 276.52
  Q 9.00 284.07 10.47 287.99
  Q 13.58 296.27 21.59 300.89
  Q 92.85 342.01 164.11 383.15
  Q 171.54 387.43 179.59 385.88
  Q 183.89 385.06 193.22 379.68
  Q 257.07 342.85 322.14 305.28
  Q 331.82 299.69 332.39 299.26"
/>
<path stroke="#36ad99" vector-effect="non-scaling-stroke" d="
  M 38.33 281.38
  C 80.57 305.85 122.90 330.17 165.12 354.69
  C 170.59 357.86 175.10 361.16 181.11 357.67
  C 252.63 316.21 294.80 291.68 310.66 282.83
  C 314.86 280.48 316.98 278.00 316.98 273.25
  Q 316.95 198.42 316.96 123.60
  C 316.96 119.14 316.41 115.52 312.65 113.34
  Q 246.85 75.38 181.03 37.44
  C 177.74 35.54 174.37 35.11 171.07 37.01
  Q 104.79 75.24 38.77 113.29
  C 35.54 115.15 34.27 118.52 34.26 122.25
  Q 34.13 198.15 34.29 271.50
  C 34.30 275.73 34.77 279.32 38.33 281.38"
/>
<path stroke="#36ad99" vector-effect="non-scaling-stroke" d="
  M 307.27 115.68
  Q 244.92 79.88 178.10 41.20
  Q 175.73 39.83 173.29 41.24
  Q 106.58 79.73 41.16 117.48
  A 4.33 4.32 -15.0 0 0 38.99 121.23
  Q 38.95 197.14 38.99 273.46
  Q 38.99 276.27 41.24 277.57
  Q 107.33 315.70 173.57 353.94
  A 4.16 4.16 0.0 0 0 177.73 353.94
  Q 242.45 316.66 307.33 279.18
  C 310.06 277.60 312.36 277.01 312.35 273.27
  Q 312.18 201.05 312.38 128.61
  Q 312.39 124.66 312.24 120.88
  C 312.13 118.10 309.36 116.88 307.27 115.68"
/>
<path stroke="#36ad99" vector-effect="non-scaling-stroke" d="
  M 112.56 132.81
  A 0.27 0.26 32.7 0 1 112.84 132.75
  Q 125.51 136.98 139.87 139.83
  Q 149.39 141.73 153.51 143.55
  Q 168.12 150.03 175.29 166.20
  A 0.45 0.45 0.0 0 0 176.11 166.20
  C 182.18 151.97 192.88 143.52 207.72 140.64
  C 217.88 138.67 228.04 136.31 237.74 132.86
  A 0.89 0.89 0.0 0 1 238.93 133.71
  C 238.71 144.22 238.87 154.23 236.83 164.99
  Q 233.16 184.45 216.54 196.76
  Q 209.05 202.31 201.01 207.43
  A 1.16 1.16 0.0 0 0 201.05 209.42
  Q 201.86 209.89 202.80 209.48
  C 217.13 203.27 232.59 195.66 239.92 181.77
  C 245.70 170.81 248.19 158.41 248.53 145.96
  Q 248.94 131.29 248.96 116.33
  A 0.58 0.58 0.0 0 0 248.07 115.84
  Q 237.56 122.43 224.48 126.89
  C 217.34 129.33 209.87 130.40 202.32 131.95
  Q 185.97 135.29 176.08 147.75
  A 0.54 0.53 -44.7 0 1 175.23 147.75
  Q 167.16 137.41 154.24 133.33
  C 147.34 131.16 139.90 130.50 132.91 128.67
  Q 117.46 124.63 103.13 115.81
  A 0.50 0.50 0.0 0 0 102.37 116.25
  Q 102.49 131.60 102.91 147.39
  C 103.34 163.81 108.41 183.60 121.64 194.17
  C 129.29 200.30 138.42 204.84 147.29 208.87
  Q 148.10 209.24 148.82 209.48
  Q 150.64 210.11 150.88 208.61
  A 1.02 1.01 22.2 0 0 150.45 207.60
  C 135.62 197.69 121.12 189.01 115.92 170.60
  Q 113.08 160.52 112.72 150.63
  Q 112.39 141.65 112.40 133.18
  Q 112.40 132.97 112.56 132.81"
/>
<path stroke="#36ad99" vector-effect="non-scaling-stroke" d="
  M 220.51 155.94
  A 0.72 0.72 0.0 0 1 221.33 156.76
  C 219.82 166.27 216.79 176.61 210.69 183.75
  C 203.10 192.63 192.44 199.68 182.65 206.25
  Q 181.55 206.99 181.70 208.34
  Q 181.78 208.99 183.25 208.92
  A 1.56 1.55 29.2 0 0 183.89 208.74
  C 201.37 199.47 220.59 189.37 227.74 169.52
  Q 232.04 157.61 231.71 144.30
  A 0.70 0.70 0.0 0 0 230.77 143.66
  Q 225.91 145.44 220.62 146.23
  C 209.90 147.83 199.18 149.69 190.91 156.85
  Q 180.92 165.49 176.08 176.53
  A 0.44 0.43 -45.4 0 1 175.28 176.54
  C 171.15 167.28 162.61 156.51 153.18 152.00
  Q 146.48 148.80 139.41 147.75
  Q 129.54 146.30 120.08 143.62
  A 0.35 0.34 8.6 0 0 119.64 143.94
  C 119.30 155.72 121.65 168.63 127.98 178.47
  C 133.55 187.15 141.51 193.82 150.24 199.02
  Q 159.22 204.38 167.78 208.85
  Q 168.71 209.33 169.52 208.66
  Q 169.64 208.55 169.68 208.40
  Q 169.97 207.19 169.07 206.58
  C 159.04 199.79 148.55 193.05 140.88 184.12
  C 134.64 176.85 131.59 166.57 129.96 156.77
  A 0.56 0.56 0.0 0 1 130.55 156.12
  C 142.99 157.14 154.88 159.28 164.13 168.09
  Q 170.93 174.56 175.10 184.04
  Q 175.68 185.37 176.27 184.04
  Q 183.61 167.31 197.92 160.92
  C 204.94 157.78 212.92 157.11 220.51 155.94"
/>
<path stroke="#a9e6da" vector-effect="non-scaling-stroke" d="
  M 145.04 270.35
  Q 144.22 273.82 143.22 270.39
  C 140.22 260.11 138.05 249.45 135.59 239.23
  A 1.59 1.57 82.5 0 0 134.02 238.01
  L 126.81 238.17
  Q 125.88 238.19 126.14 239.08
  L 140.26 287.44
  A 0.93 0.91 -7.9 0 0 141.15 288.10
  L 146.91 288.08
  Q 147.73 288.08 147.93 287.28
  L 155.36 256.58
  Q 155.47 256.14 155.92 256.07
  Q 156.18 256.03 156.40 256.18
  Q 156.69 256.37 156.82 256.93
  Q 160.10 270.69 163.48 285.25
  Q 163.77 286.50 164.23 287.55
  Q 164.46 288.07 165.03 288.07
  L 170.63 288.12
  A 1.27 1.27 0.0 0 0 171.86 287.21
  L 185.85 239.06
  A 0.82 0.81 7.6 0 0 185.05 238.02
  L 177.60 238.14
  Q 176.71 238.16 176.49 239.03
  L 168.51 271.72
  A 0.57 0.57 0.0 0 1 167.93 272.16
  Q 167.42 272.13 167.27 271.48
  Q 163.64 255.66 159.68 239.10
  Q 159.42 237.99 158.27 238.01
  L 153.81 238.07
  Q 152.63 238.08 152.36 239.23
  L 145.04 270.35"
/>
<path stroke="#a9e6da" vector-effect="non-scaling-stroke" d="
  M 199.69 246.51
  A 0.54 0.54 0.0 0 1 200.25 247.05
  L 200.25 287.50
  A 0.54 0.54 0.0 0 0 200.79 288.04
  L 208.44 288.01
  A 0.54 0.54 0.0 0 0 208.98 287.47
  L 208.99 238.70
  A 0.54 0.54 0.0 0 0 208.45 238.16
  L 194.53 238.20
  A 0.54 0.54 0.0 0 0 193.99 238.74
  L 194.02 246.14
  A 0.54 0.54 0.0 0 0 194.58 246.68
  L 199.69 246.51"
/>
</g>

<path fill="#52ccb5" d="
  M 342.30 279.48
  C 342.31 287.62 338.70 294.47 332.39 299.26
  Q 331.82 299.69 322.14 305.28
  Q 257.07 342.85 193.22 379.68
  Q 183.89 385.06 179.59 385.88
  Q 171.54 387.43 164.11 383.15
  Q 92.85 342.01 21.59 300.89
  Q 13.58 296.27 10.47 287.99
  Q 9.00 284.07 9.00 276.52
  Q 8.97 118.28 9.06 114.75
  Q 9.32 104.68 16.27 98.02
  C 18.91 95.49 22.81 93.36 26.38 91.30
  Q 96.22 51.04 163.64 12.14
  Q 171.33 7.70 179.42 9.13
  Q 184.11 9.97 191.36 14.17
  Q 258.78 53.31 327.21 92.55
  C 337.36 98.37 342.34 104.97 342.32 116.73
  Q 342.20 199.78 342.30 279.48
  Z
  M 38.33 281.38
  C 80.57 305.85 122.90 330.17 165.12 354.69
  C 170.59 357.86 175.10 361.16 181.11 357.67
  C 252.63 316.21 294.80 291.68 310.66 282.83
  C 314.86 280.48 316.98 278.00 316.98 273.25
  Q 316.95 198.42 316.96 123.60
  C 316.96 119.14 316.41 115.52 312.65 113.34
  Q 246.85 75.38 181.03 37.44
  C 177.74 35.54 174.37 35.11 171.07 37.01
  Q 104.79 75.24 38.77 113.29
  C 35.54 115.15 34.27 118.52 34.26 122.25
  Q 34.13 198.15 34.29 271.50
  C 34.30 275.73 34.77 279.32 38.33 281.38
  Z"
/>
<path fill="#1a8d7d" d="
  M 165.12 354.69
  C 122.90 330.17 80.57 305.85 38.33 281.38
  C 34.77 279.32 34.30 275.73 34.29 271.50
  Q 34.13 198.15 34.26 122.25
  C 34.27 118.52 35.54 115.15 38.77 113.29
  Q 104.79 75.24 171.07 37.01
  C 174.37 35.11 177.74 35.54 181.03 37.44
  Q 246.85 75.38 312.65 113.34
  C 316.41 115.52 316.96 119.14 316.96 123.60
  Q 316.95 198.42 316.98 273.25
  C 316.98 278.00 314.86 280.48 310.66 282.83
  C 294.80 291.68 252.63 316.21 181.11 357.67
  C 175.10 361.16 170.59 357.86 165.12 354.69
  Z
  M 307.27 115.68
  Q 244.92 79.88 178.10 41.20
  Q 175.73 39.83 173.29 41.24
  Q 106.58 79.73 41.16 117.48
  A 4.33 4.32 -15.0 0 0 38.99 121.23
  Q 38.95 197.14 38.99 273.46
  Q 38.99 276.27 41.24 277.57
  Q 107.33 315.70 173.57 353.94
  A 4.16 4.16 0.0 0 0 177.73 353.94
  Q 242.45 316.66 307.33 279.18
  C 310.06 277.60 312.36 277.01 312.35 273.27
  Q 312.18 201.05 312.38 128.61
  Q 312.39 124.66 312.24 120.88
  C 312.13 118.10 309.36 116.88 307.27 115.68
  Z"
/>
<path fill="#52ccb5" d="
  M 307.27 115.68
  C 309.36 116.88 312.13 118.10 312.24 120.88
  Q 312.39 124.66 312.38 128.61
  Q 312.18 201.05 312.35 273.27
  C 312.36 277.01 310.06 277.60 307.33 279.18
  Q 242.45 316.66 177.73 353.94
  A 4.16 4.16 0.0 0 1 173.57 353.94
  Q 107.33 315.70 41.24 277.57
  Q 38.99 276.27 38.99 273.46
  Q 38.95 197.14 38.99 121.23
  A 4.33 4.32 -15.0 0 1 41.16 117.48
  Q 106.58 79.73 173.29 41.24
  Q 175.73 39.83 178.10 41.20
  Q 244.92 79.88 307.27 115.68
  Z
  M 112.56 132.81
  A 0.27 0.26 32.7 0 1 112.84 132.75
  Q 125.51 136.98 139.87 139.83
  Q 149.39 141.73 153.51 143.55
  Q 168.12 150.03 175.29 166.20
  A 0.45 0.45 0.0 0 0 176.11 166.20
  C 182.18 151.97 192.88 143.52 207.72 140.64
  C 217.88 138.67 228.04 136.31 237.74 132.86
  A 0.89 0.89 0.0 0 1 238.93 133.71
  C 238.71 144.22 238.87 154.23 236.83 164.99
  Q 233.16 184.45 216.54 196.76
  Q 209.05 202.31 201.01 207.43
  A 1.16 1.16 0.0 0 0 201.05 209.42
  Q 201.86 209.89 202.80 209.48
  C 217.13 203.27 232.59 195.66 239.92 181.77
  C 245.70 170.81 248.19 158.41 248.53 145.96
  Q 248.94 131.29 248.96 116.33
  A 0.58 0.58 0.0 0 0 248.07 115.84
  Q 237.56 122.43 224.48 126.89
  C 217.34 129.33 209.87 130.40 202.32 131.95
  Q 185.97 135.29 176.08 147.75
  A 0.54 0.53 -44.7 0 1 175.23 147.75
  Q 167.16 137.41 154.24 133.33
  C 147.34 131.16 139.90 130.50 132.91 128.67
  Q 117.46 124.63 103.13 115.81
  A 0.50 0.50 0.0 0 0 102.37 116.25
  Q 102.49 131.60 102.91 147.39
  C 103.34 163.81 108.41 183.60 121.64 194.17
  C 129.29 200.30 138.42 204.84 147.29 208.87
  Q 148.10 209.24 148.82 209.48
  Q 150.64 210.11 150.88 208.61
  A 1.02 1.01 22.2 0 0 150.45 207.60
  C 135.62 197.69 121.12 189.01 115.92 170.60
  Q 113.08 160.52 112.72 150.63
  Q 112.39 141.65 112.40 133.18
  Q 112.40 132.97 112.56 132.81
  Z
  M 220.51 155.94
  A 0.72 0.72 0.0 0 1 221.33 156.76
  C 219.82 166.27 216.79 176.61 210.69 183.75
  C 203.10 192.63 192.44 199.68 182.65 206.25
  Q 181.55 206.99 181.70 208.34
  Q 181.78 208.99 183.25 208.92
  A 1.56 1.55 29.2 0 0 183.89 208.74
  C 201.37 199.47 220.59 189.37 227.74 169.52
  Q 232.04 157.61 231.71 144.30
  A 0.70 0.70 0.0 0 0 230.77 143.66
  Q 225.91 145.44 220.62 146.23
  C 209.90 147.83 199.18 149.69 190.91 156.85
  Q 180.92 165.49 176.08 176.53
  A 0.44 0.43 -45.4 0 1 175.28 176.54
  C 171.15 167.28 162.61 156.51 153.18 152.00
  Q 146.48 148.80 139.41 147.75
  Q 129.54 146.30 120.08 143.62
  A 0.35 0.34 8.6 0 0 119.64 143.94
  C 119.30 155.72 121.65 168.63 127.98 178.47
  C 133.55 187.15 141.51 193.82 150.24 199.02
  Q 159.22 204.38 167.78 208.85
  Q 168.71 209.33 169.52 208.66
  Q 169.64 208.55 169.68 208.40
  Q 169.97 207.19 169.07 206.58
  C 159.04 199.79 148.55 193.05 140.88 184.12
  C 134.64 176.85 131.59 166.57 129.96 156.77
  A 0.56 0.56 0.0 0 1 130.55 156.12
  C 142.99 157.14 154.88 159.28 164.13 168.09
  Q 170.93 174.56 175.10 184.04
  Q 175.68 185.37 176.27 184.04
  Q 183.61 167.31 197.92 160.92
  C 204.94 157.78 212.92 157.11 220.51 155.94
  Z
  M 145.04 270.35
  Q 144.22 273.82 143.22 270.39
  C 140.22 260.11 138.05 249.45 135.59 239.23
  A 1.59 1.57 82.5 0 0 134.02 238.01
  L 126.81 238.17
  Q 125.88 238.19 126.14 239.08
  L 140.26 287.44
  A 0.93 0.91 -7.9 0 0 141.15 288.10
  L 146.91 288.08
  Q 147.73 288.08 147.93 287.28
  L 155.36 256.58
  Q 155.47 256.14 155.92 256.07
  Q 156.18 256.03 156.40 256.18
  Q 156.69 256.37 156.82 256.93
  Q 160.10 270.69 163.48 285.25
  Q 163.77 286.50 164.23 287.55
  Q 164.46 288.07 165.03 288.07
  L 170.63 288.12
  A 1.27 1.27 0.0 0 0 171.86 287.21
  L 185.85 239.06
  A 0.82 0.81 7.6 0 0 185.05 238.02
  L 177.60 238.14
  Q 176.71 238.16 176.49 239.03
  L 168.51 271.72
  A 0.57 0.57 0.0 0 1 167.93 272.16
  Q 167.42 272.13 167.27 271.48
  Q 163.64 255.66 159.68 239.10
  Q 159.42 237.99 158.27 238.01
  L 153.81 238.07
  Q 152.63 238.08 152.36 239.23
  L 145.04 270.35
  Z
  M 199.69 246.51
  A 0.54 0.54 0.0 0 1 200.25 247.05
  L 200.25 287.50
  A 0.54 0.54 0.0 0 0 200.79 288.04
  L 208.44 288.01
  A 0.54 0.54 0.0 0 0 208.98 287.47
  L 208.99 238.70
  A 0.54 0.54 0.0 0 0 208.45 238.16
  L 194.53 238.20
  A 0.54 0.54 0.0 0 0 193.99 238.74
  L 194.02 246.14
  A 0.54 0.54 0.0 0 0 194.58 246.68
  L 199.69 246.51
  Z"
/>
<path fill="#1a8d7d" d="
  M 112.56 132.81
  Q 112.40 132.97 112.40 133.18
  Q 112.39 141.65 112.72 150.63
  Q 113.08 160.52 115.92 170.60
  C 121.12 189.01 135.62 197.69 150.45 207.60
  A 1.02 1.01 22.2 0 1 150.88 208.61
  Q 150.64 210.11 148.82 209.48
  Q 148.10 209.24 147.29 208.87
  C 138.42 204.84 129.29 200.30 121.64 194.17
  C 108.41 183.60 103.34 163.81 102.91 147.39
  Q 102.49 131.60 102.37 116.25
  A 0.50 0.50 0.0 0 1 103.13 115.81
  Q 117.46 124.63 132.91 128.67
  C 139.90 130.50 147.34 131.16 154.24 133.33
  Q 167.16 137.41 175.23 147.75
  A 0.54 0.53 -44.7 0 0 176.08 147.75
  Q 185.97 135.29 202.32 131.95
  C 209.87 130.40 217.34 129.33 224.48 126.89
  Q 237.56 122.43 248.07 115.84
  A 0.58 0.58 0.0 0 1 248.96 116.33
  Q 248.94 131.29 248.53 145.96
  C 248.19 158.41 245.70 170.81 239.92 181.77
  C 232.59 195.66 217.13 203.27 202.80 209.48
  Q 201.86 209.89 201.05 209.42
  A 1.16 1.16 0.0 0 1 201.01 207.43
  Q 209.05 202.31 216.54 196.76
  Q 233.16 184.45 236.83 164.99
  C 238.87 154.23 238.71 144.22 238.93 133.71
  A 0.89 0.89 0.0 0 0 237.74 132.86
  C 228.04 136.31 217.88 138.67 207.72 140.64
  C 192.88 143.52 182.18 151.97 176.11 166.20
  A 0.45 0.45 0.0 0 1 175.29 166.20
  Q 168.12 150.03 153.51 143.55
  Q 149.39 141.73 139.87 139.83
  Q 125.51 136.98 112.84 132.75
  A 0.27 0.26 32.7 0 0 112.56 132.81
  Z"
/>
<path fill="#1a8d7d" d="
  M 220.51 155.94
  C 212.92 157.11 204.94 157.78 197.92 160.92
  Q 183.61 167.31 176.27 184.04
  Q 175.68 185.37 175.10 184.04
  Q 170.93 174.56 164.13 168.09
  C 154.88 159.28 142.99 157.14 130.55 156.12
  A 0.56 0.56 0.0 0 0 129.96 156.77
  C 131.59 166.57 134.64 176.85 140.88 184.12
  C 148.55 193.05 159.04 199.79 169.07 206.58
  Q 169.97 207.19 169.68 208.40
  Q 169.64 208.55 169.52 208.66
  Q 168.71 209.33 167.78 208.85
  Q 159.22 204.38 150.24 199.02
  C 141.51 193.82 133.55 187.15 127.98 178.47
  C 121.65 168.63 119.30 155.72 119.64 143.94
  A 0.35 0.34 8.6 0 1 120.08 143.62
  Q 129.54 146.30 139.41 147.75
  Q 146.48 148.80 153.18 152.00
  C 162.61 156.51 171.15 167.28 175.28 176.54
  A 0.44 0.43 -45.4 0 0 176.08 176.53
  Q 180.92 165.49 190.91 156.85
  C 199.18 149.69 209.90 147.83 220.62 146.23
  Q 225.91 145.44 230.77 143.66
  A 0.70 0.70 0.0 0 1 231.71 144.30
  Q 232.04 157.61 227.74 169.52
  C 220.59 189.37 201.37 199.47 183.89 208.74
  A 1.56 1.55 29.2 0 1 183.25 208.92
  Q 181.78 208.99 181.70 208.34
  Q 181.55 206.99 182.65 206.25
  C 192.44 199.68 203.10 192.63 210.69 183.75
  C 216.79 176.61 219.82 166.27 221.33 156.76
  A 0.72 0.72 0.0 0 0 220.51 155.94
  Z"
/>
<path fill="#ffffff" d="
  M 145.04 270.35
  L 152.36 239.23
  Q 152.63 238.08 153.81 238.07
  L 158.27 238.01
  Q 159.42 237.99 159.68 239.10
  Q 163.64 255.66 167.27 271.48
  Q 167.42 272.13 167.93 272.16
  A 0.57 0.57 0.0 0 0 168.51 271.72
  L 176.49 239.03
  Q 176.71 238.16 177.60 238.14
  L 185.05 238.02
  A 0.82 0.81 7.6 0 1 185.85 239.06
  L 171.86 287.21
  A 1.27 1.27 0.0 0 1 170.63 288.12
  L 165.03 288.07
  Q 164.46 288.07 164.23 287.55
  Q 163.77 286.50 163.48 285.25
  Q 160.10 270.69 156.82 256.93
  Q 156.69 256.37 156.40 256.18
  Q 156.18 256.03 155.92 256.07
  Q 155.47 256.14 155.36 256.58
  L 147.93 287.28
  Q 147.73 288.08 146.91 288.08
  L 141.15 288.10
  A 0.93 0.91 -7.9 0 1 140.26 287.44
  L 126.14 239.08
  Q 125.88 238.19 126.81 238.17
  L 134.02 238.01
  A 1.59 1.57 82.5 0 1 135.59 239.23
  C 138.05 249.45 140.22 260.11 143.22 270.39
  Q 144.22 273.82 145.04 270.35
  Z"
/>
<path fill="#ffffff" d="
  M 199.69 246.51
  L 194.58 246.68
  A 0.54 0.54 0.0 0 1 194.02 246.14
  L 193.99 238.74
  A 0.54 0.54 0.0 0 1 194.53 238.20
  L 208.45 238.16
  A 0.54 0.54 0.0 0 1 208.99 238.70
  L 208.98 287.47
  A 0.54 0.54 0.0 0 1 208.44 288.01
  L 200.79 288.04
  A 0.54 0.54 0.0 0 1 200.25 287.50
  L 200.25 247.05
  A 0.54 0.54 0.0 0 0 199.69 246.51
  Z"
/>
</svg>
