<svg xmlns="http://www.w3.org/2000/svg" xmlns:xlink="http://www.w3.org/1999/xlink" width="2560" height="1440" viewBox="0 0 1920 1080"><clipPath id="a"><path transform="matrix(1 0 0 -1 0 1080)" d="M0 0h1920v1080H0z"/></clipPath><g clip-path="url(#a)"><path d="M0 0h1920v1080H0z" fill="#fff"/><g data-name="P"><symbol id="b"><path d="M.574.653H.042L0 .498.018.494c.048.108.08.124.238.124L.113.091C.098.037.075.022.006.016V0h.288v.016L.259.019C.218.023.206.031.206.062c0 .022.008.045.014.066l.137.49h.058C.48.618.516.59.516.537A.407.407 0 0 0 .513.491L.53.489l.044.164z"/></symbol><use xlink:href="#b" transform="matrix(48 0 0 -48 366.579 165.473)"/><symbol id="c"><path d="M.441.312C.441.4.381.452.3.452a.248.248 0 0 1-.12-.03A.338.338 0 0 1 0 .139C0 .052.053 0 .147 0a.26.26 0 0 1 .188.083.34.34 0 0 1 .106.229M.357.337A.426.426 0 0 0 .283.104C.244.05.206.021.162.021.115.021.084.052.084.112A.42.42 0 0 0 .158.34c.04.06.084.091.128.091.043 0 .071-.033.071-.094z"/></symbol><use xlink:href="#c" transform="matrix(48 0 0 -48 391.73 166)"/><symbol id="d"><path d="M.258.439h-.08l.028.103a.023.023 0 0 1 .001.007c0 .005-.003.008-.009.008C.194.557.188.554.184.548a.295.295 0 0 0-.133-.11C.027.433.018.424.018.413L.019.407h.075L.016.111C.008.079 0 .048 0 .037 0 .012.019 0 .046 0c.052 0 .083.029.143.121L.176.128C.127.065.111.049.095.049.086.049.08.052.08.065l.002.014.087.328h.084l.005.032z"/></symbol><use xlink:href="#d" transform="matrix(48 0 0 -48 416.259 166)"/><symbol id="e"><path d="M.446.122.419.093C.389.06.376.052.367.052.359.052.353.058.353.065c0 .02.042.192.089.363l.006.021-.007.003L.38.445.377.442.366.394C.358.431.329.452.286.452.153.452 0 .271 0 .116 0 .04.044 0 .1 0c.07 0 .128.044.203.157A.418.418 0 0 1 .28.042C.28.013.292.001.32.001c.04 0 .064.019.139.11L.446.122m-.098.25A.423.423 0 0 0 .271.147C.241.104.194.049.144.049c-.036 0-.06.019-.06.074 0 .063.035.152.077.215C.203.399.247.43.292.43.327.43.348.407.348.372z"/></symbol><use xlink:href="#e" transform="matrix(48 0 0 -48 428.595 166)"/><symbol id="f"><path d="M.238.689.232.694A1.397 1.397 0 0 0 .077.667V.651h.018c.032 0 .049-.01.049-.022C.144.626.144.62.141.61L.004.086A.113.113 0 0 1 0 .056C0 .019.017 0 .049 0 .103 0 .14.03.2.125l-.014.01L.161.1C.132.059.109.043.094.043c-.01 0-.017.006-.017.018a.2.2 0 0 0 .008.043l.153.585z"/></symbol><use xlink:href="#f" transform="matrix(48 0 0 -48 453.795 166)"/><symbol id="g"><path d="M.635.653H.138V.637C.2.631.215.623.215.596A.306.306 0 0 0 .204.532L.081.09C.065.032.056.026 0 .016V0h.507l.062.162L.553.17A.294.294 0 0 0 .459.072.4.4 0 0 0 .256.033C.2.033.177.043.177.067c0 .012.011.058.036.146l.032.112h.078C.363.325.39.32.401.31.406.305.408.296.408.279A.207.207 0 0 0 .401.227l.02-.005.068.232-.018.004C.433.373.422.361.332.361H.254L.32.594C.326.616.336.62.393.62.55.62.585.607.585.547A.407.407 0 0 0 .582.501L.604.499l.031.154z"/></symbol><use xlink:href="#g" transform="matrix(48 0 0 -48 465.123 165.473)"/><symbol id="h"><path d="M.446.126.425.1C.396.063.378.047.364.047.352.047.348.056.348.065c0 .008.004.025.014.061l.056.203c.006.021.01.042.01.06C.428.425.406.45.363.45.299.45.232.39.132.23l.067.218L.195.45.033.419V.403C.084.402.098.396.098.376A.088.088 0 0 0 .096.359L0 .009h.075c.047.158.055.181.1.248.063.093.108.142.148.142C.338.399.347.388.347.37A.455.455 0 0 0 .333.291L.289.129A.325.325 0 0 1 .273.054C.273.016.295 0 .32 0c.047 0 .072.02.14.113L.446.126z"/></symbol><use xlink:href="#h" transform="matrix(48 0 0 -48 495.17 165.905)"/><symbol id="i"><path d="M.327.12C.255.061.224.045.18.045.124.045.087.081.087.136c0 .015 0 .041.01.061.179.023.284.101.284.187 0 .042-.029.068-.082.068C.149.452 0 .292 0 .137 0 .054.054 0 .135 0c.083 0 .147.038.204.108L.327.12M.121.263C.155.352.223.429.28.429.308.429.315.414.315.39.315.359.296.323.265.293.228.258.19.24.104.219l.017.044z"/></symbol><use xlink:href="#i" transform="matrix(48 0 0 -48 519.987 166)"/><symbol id="j"><path d="m.131.223.055.216-.003.002L.028.414V.397A.239.239 0 0 0 .059.4C.079.4.097.395.097.374A.274.274 0 0 0 .081.292L0 0h.076c.05.168.068.208.111.282.036.061.064.094.082.094.007 0 .01-.004.016-.014C.294.347.302.336.32.336.35.336.367.36.367.39S.348.441.32.441C.297.441.267.423.241.396A.529.529 0 0 1 .147.258L.131.223z"/></symbol><use xlink:href="#j" transform="matrix(48 0 0 -48 541.97 165.473)"/><symbol id="k"><path d="M.463.572v.039h-.06C.4.611.395.613.387.619a.166.166 0 0 1-.098.028C.188.647.088.578.088.476c0-.052.023-.088.079-.108C.113.343.09.313.09.284.09.271.099.256.117.245.019.186 0 .159 0 .108 0 .036.065 0 .167 0c.133 0 .21.064.21.151 0 .06-.046.104-.142.127C.191.289.164.302.164.32c0 .021.019.041.036.041L.207.36A.148.148 0 0 1 .238.357c.093 0 .185.08.185.164 0 .017 0 .033-.009.051h.049M.344.554A.234.234 0 0 0 .311.437C.287.396.26.378.226.378c-.038 0-.06.028-.06.075 0 .099.06.172.122.172.037 0 .056-.018.056-.071M.317.116C.317.065.263.022.182.022c-.08 0-.127.032-.127.102 0 .023.005.039.02.058A.21.21 0 0 0 .14.234L.174.223C.281.19.317.162.317.116z"/></symbol><use xlink:href="#k" transform="matrix(48 0 0 -48 558.867 175.36)"/><symbol id="l"><path d="M.267.392C.25.481.197.647.182.647H.178A2.185 2.185 0 0 1 .071.629L.039.623V.606A.11.11 0 0 0 .07.61C.11.61.128.595.147.546.174.478.229.254.229.214a.081.081 0 0 0-.01-.035A1.054 1.054 0 0 0 .148.088C.125.063.113.055.1.055.074.055.074.083.039.083A.04.04 0 0 1 0 .043C0 .017.021 0 .051 0c.057 0 .164.115.268.287C.402.425.45.535.45.592c0 .03-.022.055-.052.055C.375.647.358.632.358.61c0-.016.006-.026.026-.039C.403.559.41.553.41.539.41.495.373.423.288.282l-.021.11z"/></symbol><use xlink:href="#l" transform="matrix(48 0 0 -48 581.331 175.36)"/><symbol id="m"><path d="M.663.671H.465V.655C.518.65.535.639.535.609A.68.68 0 0 0 .512.506L.448.273C.403.109.341.041.228.041.15.041.09.088.09.159a.97.97 0 0 0 .04.179l.063.226c.019.069.036.084.104.091v.016H.025V.655C.087.653.105.64.105.614A.187.187 0 0 0 .096.569L.044.38A.918.918 0 0 1 0 .164C0 .069.09 0 .221 0c.065 0 .115.015.158.052a.34.34 0 0 1 .097.169l.083.285c.038.13.042.135.104.149v.016z"/></symbol><use xlink:href="#m" transform="matrix(48 0 0 -48 608.69 166.337)"/><symbol id="n"><path d="M.35.455H.336C.328.441.321.437.306.437A.112.112 0 0 0 .27.444a.195.195 0 0 1-.056.01C.14.454.093.412.093.346c0-.032.02-.077.063-.131C.195.166.212.132.212.1.212.051.183.023.136.023c-.052 0-.086.041-.1.136H.02L0 0h.016c.007.016.018.021.029.021A.106.106 0 0 0 .089.012a.134.134 0 0 1 .055-.01c.083 0 .144.051.144.134C.288.175.27.214.22.272.181.318.166.347.166.374c0 .037.024.057.059.057.049 0 .079-.033.089-.116H.33l.02.14z"/></symbol><use xlink:href="#n" transform="matrix(48 0 0 -48 639.219 166.097)"/><use xlink:href="#i" transform="matrix(48 0 0 -48 658.61 166)"/><symbol id="o"><path d="M.506.696A1.211 1.211 0 0 0 .353.673V.656C.408.654.417.651.417.63.417.616.418.612.403.559L.358.396H.357C.351.435.334.454.292.454.162.454 0 .281 0 .119 0 .043.042.002.107.002c.068 0 .119.033.178.132A.366.366 0 0 1 .272.045C.272.018.287 0 .313 0c.05 0 .098.041.147.114l-.012.01C.394.062.383.053.366.053c-.013 0-.018.008-.018.02 0 .016.034.132.065.246l.06.219.039.152-.006.006M.341.374C.341.222.237.05.145.05.11.05.087.077.087.123c0 .083.05.192.116.262a.138.138 0 0 0 .091.046C.317.431.341.41.341.374z"/></symbol><use xlink:href="#o" transform="matrix(48 0 0 -48 679.155 166.097)"/><symbol id="p"><path d="M.589.2v.066H0V.2h.589m0-.2v.066H0V0h.589z"/></symbol><use xlink:href="#p" transform="matrix(48 0 0 -48 718.072 159.713)"/><symbol id="q"><path d="M.138.653V.637C.201.632.215.625.215.596A.267.267 0 0 0 .204.532L.083.096C.066.034.055.024 0 .016V0h.272c.162 0 .275.066.275.2 0 .071-.04.124-.126.15v.001C.464.36.501.369.532.39a.13.13 0 0 1 .064.113c0 .099-.069.15-.208.15h-.25m.118-.29.063.224c.01.036.02.036.059.036.081 0 .117-.034.117-.108C.495.416.425.363.294.363H.256M.246.331A.456.456 0 0 0 .372.319C.41.306.439.262.439.2.439.089.361.03.246.03.204.03.179.044.179.072c0 .013.015.064.035.14l.032.119z"/></symbol><use xlink:href="#q" transform="matrix(48 0 0 -48 761.598 165.473)"/><use xlink:href="#e" transform="matrix(48 0 0 -48 792.126 166)"/><use xlink:href="#n" transform="matrix(48 0 0 -48 816.126 166.097)"/><use xlink:href="#e" transform="matrix(48 0 0 -48 834.846 166)"/><use xlink:href="#f" transform="matrix(48 0 0 -48 860.046 166)"/><symbol id="r"><path d="M.89.653H.724L.389.161.333.653H.152V.637C.202.634.226.622.226.603A.248.248 0 0 0 .214.551L.1.15C.068.038.052.022 0 .016V0h.197v.016C.146.02.127.036.127.064c0 .011.004.036.009.054l.118.428L.316 0h.017l.376.561L.583.102C.566.04.546.023.481.016V0h.271l.001.016C.69.018.672.032.672.058c0 .016.007.037.014.062l.123.443C.823.614.833.628.89.637v.016z"/></symbol><use xlink:href="#r" transform="matrix(48 0 0 -48 870.558 165.473)"/><use xlink:href="#i" transform="matrix(48 0 0 -48 912.894 166)"/><use xlink:href="#d" transform="matrix(48 0 0 -48 934.542 166)"/><use xlink:href="#e" transform="matrix(48 0 0 -48 946.878 166)"/><symbol id="s"><path d="m.14.301.084.306.021.082L.24.694A2.255 2.255 0 0 0 .087.671V.654C.146.652.151.651.151.629A.234.234 0 0 0 .142.582L0 .059V.053C0 .023.073 0 .13 0c.155 0 .32.174.32.332 0 .077-.049.12-.116.12C.264.452.209.414.141.301H.14m.225.016a.388.388 0 0 0-.11-.235.175.175 0 0 0-.123-.059C.101.023.086.034.086.057c0 .06.028.157.072.231.043.073.089.115.137.115.044 0 .07-.025.07-.086z"/></symbol><use xlink:href="#s" transform="matrix(48 0 0 -48 971.214 166)"/><use xlink:href="#c" transform="matrix(48 0 0 -48 995.406 166)"/><use xlink:href="#f" transform="matrix(48 0 0 -48 1020.078 166)"/><symbol id="t"><path d="M.215.61c0 .029-.023.055-.05.055C.138.665.118.643.118.612.118.58.137.559.166.559A.05.05 0 0 1 .215.61M.173.125C.13.068.106.047.089.047.081.047.075.052.075.062c0 .014.005.027.01.044l.094.343-.004.003a1.28 1.28 0 0 0-.16-.025V.411C.069.41.079.407.079.387A.225.225 0 0 0 .07.343L.022.166A.52.52 0 0 1 0 .055C0 .018.016 0 .049 0c.05 0 .082.03.137.114L.173.125z"/></symbol><use xlink:href="#t" transform="matrix(48 0 0 -48 1033.806 166)"/><symbol id="u"><path d="M.32.118C.266.061.228.036.175.036.118.036.086.078.086.15c0 .089.035.174.091.233.029.03.069.048.109.048.023 0 .037-.008.037-.02C.323.392.308.381.308.363c0-.02.011-.04.039-.04.026 0 .048.021.048.048C.395.418.351.452.29.452A.266.266 0 0 1 .123.391.313.313 0 0 1 0 .154C0 .052.054 0 .147 0c.075 0 .128.031.189.108L.32.118z"/></symbol><use xlink:href="#u" transform="matrix(48 0 0 -48 1046.238 166)"/><symbol id="v"><path d="M.145.653V.637C.187.631.191.63.202.623A.038.038 0 0 0 .216.595C.216.578.211.559.204.532L.085.101C.069.042.055.023 0 .016V0h.243v.016C.186.022.176.033.176.063c0 .01.002.024.013.063l.055.203L.31.324.433 0H.58v.016C.535.016.515.039.493.098L.404.333c.067.015.1.027.131.051.041.031.066.08.066.128 0 .085-.072.141-.204.141H.145m.174-.06c.005.019.026.03.057.03.078 0 .12-.043.12-.112 0-.093-.07-.15-.189-.15a.263.263 0 0 0-.051.005l.063.227z"/></symbol><use xlink:href="#v" transform="matrix(48 0 0 -48 1065.486 165.473)"/><use xlink:href="#e" transform="matrix(48 0 0 -48 1096.254 166)"/><use xlink:href="#d" transform="matrix(48 0 0 -48 1121.31 166)"/><use xlink:href="#i" transform="matrix(48 0 0 -48 1134.318 166)"/><symbol id="w"><path d="m.554.047-.23.23.23.232-.046.045-.231-.23-.23.23L0 .508.23.277 0 .046.046 0l.231.23L.508 0l.046.047z"/></symbol><use xlink:href="#w" transform="matrix(48 0 0 -48 1166.872 166.673)"/><use xlink:href="#d" transform="matrix(48 0 0 -48 1208.019 166)"/><symbol id="x"><path d="M.588.261v.066H.327v.261H.261V.327H0V.261h.261V0h.066v.261h.261z"/></symbol><use xlink:href="#x" transform="matrix(48 0 0 -48 1232.51 167.44)"/><symbol id="y"><path d="M.637.653H.14V.637C.206.631.216.625.216.597a.231.231 0 0 0-.01-.061L.083.094C.068.042.058.02 0 .016V0h.251v.016C.192.02.174.031.174.055c0 .015.007.035.014.06l.059.213A1.55 1.55 0 0 1 .33.325C.377.325.405.321.405.281A.305.305 0 0 0 .397.22L.414.215.49.45.472.455C.427.365.424.363.256.361L.32.588C.327.614.342.62.388.62.564.62.587.607.587.534L.584.501.605.499l.032.154z"/></symbol><use xlink:href="#y" transform="matrix(48 0 0 -48 1274.136 165.473)"/><use xlink:href="#w" transform="matrix(48 0 0 -48 1316 166.673)"/><use xlink:href="#n" transform="matrix(48 0 0 -48 1356.091 166.097)"/></g><g data-name="P"><use xlink:href="#b" transform="matrix(32 0 0 -32 109.375 843.877)"/><use xlink:href="#c" transform="matrix(32 0 0 -32 126.143 844.23)"/><use xlink:href="#d" transform="matrix(32 0 0 -32 142.495 844.23)"/><use xlink:href="#e" transform="matrix(32 0 0 -32 150.719 844.23)"/><use xlink:href="#f" transform="matrix(32 0 0 -32 167.519 844.23)"/><use xlink:href="#g" transform="matrix(32 0 0 -32 175.071 843.877)"/><use xlink:href="#h" transform="matrix(32 0 0 -32 195.103 844.165)"/><use xlink:href="#i" transform="matrix(32 0 0 -32 211.817 844.23)"/><use xlink:href="#j" transform="matrix(32 0 0 -32 226.474 843.877)"/><use xlink:href="#k" transform="matrix(32 0 0 -32 237.738 850.47)"/><use xlink:href="#l" transform="matrix(32 0 0 -32 253.305 850.47)"/><use xlink:href="#m" transform="matrix(32 0 0 -32 271.546 844.453)"/><use xlink:href="#n" transform="matrix(32 0 0 -32 291.897 844.293)"/><use xlink:href="#i" transform="matrix(32 0 0 -32 304.825 844.23)"/><use xlink:href="#o" transform="matrix(32 0 0 -32 318.522 844.293)"/><use xlink:href="#p" transform="matrix(32 0 0 -32 344.466 840.037)"/><use xlink:href="#b" transform="matrix(32 0 0 -32 375.627 843.877)"/><use xlink:href="#c" transform="matrix(32 0 0 -32 392.395 844.23)"/><use xlink:href="#d" transform="matrix(32 0 0 -32 408.747 844.23)"/><use xlink:href="#e" transform="matrix(32 0 0 -32 416.971 844.23)"/><use xlink:href="#f" transform="matrix(32 0 0 -32 433.771 844.23)"/><symbol id="z"><path d="M.615 0v.016C.562.02.551.031.537.115L.445.668H.419L.134.172C.059.042.046.025 0 .016V0h.186v.016C.139.018.124.03.124.049c0 .016.008.04.022.066l.059.111h.22l.02-.131.002-.026C.447.035.433.019.37.016V0h.245M.42.262H.226l.149.263L.42.262z"/></symbol><use xlink:href="#z" transform="matrix(32 0 0 -32 440.947 843.877)"/><symbol id="A"><path d="M.187.088a1.58 1.58 0 0 1-.025.257C.141.453.141.459.132.459A1.794 1.794 0 0 0 0 .434V.421l.031.001C.068.422.079.405.092.329.105.253.116.12.116.051V.027C.116.01.119 0 .125 0c.017 0 .044.033.099.092.018.019.074.083.119.153A.332.332 0 0 1 .406.4C.406.427.383.459.35.459.329.459.312.446.312.425.312.409.319.396.337.38.35.368.355.361.355.351.355.304.29.194.218.12L.187.088z"/></symbol><use xlink:href="#A" transform="matrix(32 0 0 -32 462.77 844.453)"/><use xlink:href="#e" transform="matrix(32 0 0 -32 476.883 844.23)"/><use xlink:href="#t" transform="matrix(32 0 0 -32 493.939 844.23)"/><use xlink:href="#f" transform="matrix(32 0 0 -32 502.579 844.23)"/><use xlink:href="#e" transform="matrix(32 0 0 -32 510.757 844.23)"/><use xlink:href="#s" transform="matrix(32 0 0 -32 527.331 844.23)"/><use xlink:href="#f" transform="matrix(32 0 0 -32 543.907 844.23)"/><use xlink:href="#i" transform="matrix(32 0 0 -32 552.483 844.23)"/><use xlink:href="#g" transform="matrix(32 0 0 -32 565.667 843.877)"/><use xlink:href="#h" transform="matrix(32 0 0 -32 585.699 844.165)"/><use xlink:href="#i" transform="matrix(32 0 0 -32 602.413 844.23)"/><use xlink:href="#j" transform="matrix(32 0 0 -32 617.07 843.877)"/><use xlink:href="#k" transform="matrix(32 0 0 -32 628.333 850.47)"/><use xlink:href="#l" transform="matrix(32 0 0 -32 643.901 850.47)"/><symbol id="B"><path d="M.256.016c-.14.117-.17.23-.17.416 0 .193.031.286.17.405L.247.853A.472.472 0 0 1 0 .429C0 .259.086.09.244 0l.012.016z"/></symbol><use xlink:href="#B" transform="matrix(32 0 0 -32 671.07 849.541)"/><use xlink:href="#r" transform="matrix(32 0 0 -32 679.613 843.877)"/><use xlink:href="#e" transform="matrix(32 0 0 -32 707.39 844.23)"/><symbol id="C"><path d="M.27.366C.256.434.244.452.219.452A.372.372 0 0 1 .102.423L.091.419.094.403l.018.005a.168.168 0 0 0 .039.007C.176.415.183.407.197.347L.225.223.143.107C.122.077.103.058.092.058a.057.057 0 0 0-.026.009.071.071 0 0 1-.032.011C.014.078 0 .062 0 .042 0 .016.019 0 .05 0c.031 0 .051.009.095.068l.088.119.029-.119C.274.018.289 0 .321 0c.038 0 .064.024.122.114L.428.123.407.095C.384.065.373.055.36.055.346.055.337.068.33.096L.298.23A.218.218 0 0 0 .29.275c.044.077.08.121.098.121C.412.396.421.379.44.379c.02 0 .034.015.034.036 0 .022-.017.037-.041.037C.389.452.352.416.282.309L.27.366z"/></symbol><use xlink:href="#C" transform="matrix(32 0 0 -32 723.836 844.23)"/><use xlink:href="#t" transform="matrix(32 0 0 -32 740.524 844.23)"/><symbol id="D"><path d="M.692.114.677.126.656.1C.626.063.608.047.591.047.583.047.579.052.579.063l.01.045.068.251A.219.219 0 0 1 .66.387C.66.423.639.45.602.45A.113.113 0 0 1 .539.43C.49.399.449.349.379.238c.027.077.04.133.04.152 0 .036-.02.06-.06.06C.298.45.228.384.139.239l.058.209L.194.45.032.419V.403h.025C.084.403.098.396.098.381A1.46 1.46 0 0 0 .043.153L0 .009h.075c.048.158.062.194.096.246C.227.34.286.398.32.398.333.398.342.389.342.373.342.36.318.254.274.102L.247.009h.075C.361.163.381.212.43.281c.05.07.101.117.131.117a.02.02 0 0 0 .02-.021.206.206 0 0 0-.007-.038L.516.112A.318.318 0 0 1 .503.046C.503.016.517 0 .543 0 .59 0 .634.033.687.107l.005.007z"/></symbol><use xlink:href="#D" transform="matrix(32 0 0 -32 748.236 844.165)"/><symbol id="E"><path d="M.419.13C.368.063.352.049.336.049.329.049.325.055.325.066c0 .012.014.059.019.078l.079.299H.349A.96.96 0 0 0 .239.2C.177.106.131.053.097.053c-.015 0-.02.01-.02.025L.08.094l.089.355-.004.003a1.312 1.312 0 0 0-.15-.027V.411C.053.411.056.41.065.405A.022.022 0 0 0 .076.387.528.528 0 0 0 .062.32L.027.181C.009.108 0 .072 0 .053 0 .016.018 0 .053 0c.071 0 .121.053.239.247A1.004 1.004 0 0 1 .247.05c0-.031.018-.048.048-.048.047 0 .073.02.138.119L.419.13z"/></symbol><use xlink:href="#E" transform="matrix(32 0 0 -32 772.3 844.23)"/><use xlink:href="#D" transform="matrix(32 0 0 -32 787.497 844.165)"/><symbol id="F"><path d="M.139.653V.637C.2.635.215.623.215.596A.234.234 0 0 0 .204.537L.082.092C.066.033.056.026 0 .016V0h.257c.117 0 .218.026.291.083.098.076.16.177.16.301 0 .175-.117.269-.292.269H.139M.318.584c.01.035.032.039.07.039.058 0 .1-.012.131-.035.049-.037.078-.1.078-.18A.422.422 0 0 0 .487.12.328.328 0 0 0 .246.03C.2.03.178.041.178.067.178.08.183.1.2.162l.118.422z"/></symbol><use xlink:href="#F" transform="matrix(32 0 0 -32 821.327 843.877)"/><use xlink:href="#t" transform="matrix(32 0 0 -32 846.255 844.23)"/><use xlink:href="#A" transform="matrix(32 0 0 -32 854.223 844.453)"/><use xlink:href="#i" transform="matrix(32 0 0 -32 868.783 844.23)"/><symbol id="G"><path d="M0 .837C.145.723.17.608.17.421.17.227.142.133 0 .016L.009 0a.476.476 0 0 1 .247.424c0 .17-.091.337-.244.429L0 .837z"/></symbol><use xlink:href="#G" transform="matrix(32 0 0 -32 882.927 849.541)"/></g><g data-name="P"><use xlink:href="#b" transform="matrix(32 0 0 -32 100.84 467.31)"/><use xlink:href="#c" transform="matrix(32 0 0 -32 117.607 467.662)"/><use xlink:href="#d" transform="matrix(32 0 0 -32 133.96 467.662)"/><use xlink:href="#e" transform="matrix(32 0 0 -32 142.183 467.662)"/><use xlink:href="#f" transform="matrix(32 0 0 -32 158.983 467.662)"/><use xlink:href="#g" transform="matrix(32 0 0 -32 166.535 467.31)"/><use xlink:href="#h" transform="matrix(32 0 0 -32 186.567 467.598)"/><use xlink:href="#i" transform="matrix(32 0 0 -32 203.282 467.662)"/><use xlink:href="#j" transform="matrix(32 0 0 -32 217.938 467.31)"/><use xlink:href="#k" transform="matrix(32 0 0 -32 229.202 473.902)"/><use xlink:href="#l" transform="matrix(32 0 0 -32 244.77 473.902)"/><use xlink:href="#m" transform="matrix(32 0 0 -32 263.01 467.886)"/><use xlink:href="#n" transform="matrix(32 0 0 -32 283.362 467.726)"/><use xlink:href="#i" transform="matrix(32 0 0 -32 296.29 467.662)"/><use xlink:href="#o" transform="matrix(32 0 0 -32 309.986 467.726)"/><use xlink:href="#p" transform="matrix(32 0 0 -32 335.93 463.47)"/><use xlink:href="#q" transform="matrix(32 0 0 -32 364.947 467.31)"/><use xlink:href="#r" transform="matrix(32 0 0 -32 384.18 467.31)"/><use xlink:href="#v" transform="matrix(32 0 0 -32 410.995 467.31)"/><use xlink:href="#w" transform="matrix(32 0 0 -32 439.45 468.11)"/><use xlink:href="#d" transform="matrix(32 0 0 -32 466.882 467.662)"/><use xlink:href="#x" transform="matrix(32 0 0 -32 483.209 468.622)"/><use xlink:href="#y" transform="matrix(32 0 0 -32 510.96 467.31)"/><use xlink:href="#w" transform="matrix(32 0 0 -32 539.6 468.11)"/><use xlink:href="#n" transform="matrix(32 0 0 -32 566.327 467.726)"/><use xlink:href="#w" transform="matrix(32 0 0 -32 586.75 468.11)"/><symbol id="H"><path d="M.283 0v.015C.208.015.188.033.188.076v.597L.179.676 0 .585V.571l.027.01a.151.151 0 0 0 .045.012c.021 0 .03-.015.03-.049V.095C.102.04.081.019.007.015V0h.276z"/></symbol><use xlink:href="#H" transform="matrix(32 0 0 -32 675.198 444.75)"/><path d="M612.966 458.158h133.36v2.112h-133.36z"/><use xlink:href="#i" transform="matrix(32 0 0 -32 617.158 491.662)"/><symbol id="I"><path d="M.188.635.181.603h.091L.184.183C.161.075.129.021.087.021c-.012 0-.02.007-.02.016 0 .011.009.016.009.029 0 .021-.015.037-.038.037C.017.103 0 .084 0 .061 0 .026.034 0 .079 0c.091 0 .158.098.2.283l.072.32h.108l.006.032H.358C.387.793.424.863.48.863.494.863.502.858.502.85c0-.009-.01-.014-.01-.031C.492.795.511.78.529.78c.023 0 .042.021.042.043 0 .036-.037.062-.086.062C.424.885.383.851.353.808.32.761.303.706.281.635H.188z"/></symbol><use xlink:href="#I" transform="matrix(32 0 0 -32 625.67 497.934)"/><use xlink:href="#I" transform="matrix(32 0 0 -32 636.69 497.934)"/><use xlink:href="#t" transform="matrix(32 0 0 -32 653.15 491.662)"/><use xlink:href="#u" transform="matrix(32 0 0 -32 661.438 491.662)"/><use xlink:href="#t" transform="matrix(32 0 0 -32 676.254 491.662)"/><use xlink:href="#i" transform="matrix(32 0 0 -32 684.574 491.662)"/><use xlink:href="#h" transform="matrix(32 0 0 -32 698.238 491.598)"/><use xlink:href="#u" transform="matrix(32 0 0 -32 714.873 491.662)"/><use xlink:href="#l" transform="matrix(32 0 0 -32 728.15 497.902)"/></g><g data-name="P"><use xlink:href="#b" transform="matrix(32 0 0 -32 100.844 538.713)"/><use xlink:href="#c" transform="matrix(32 0 0 -32 117.612 539.065)"/><use xlink:href="#d" transform="matrix(32 0 0 -32 133.964 539.065)"/><use xlink:href="#e" transform="matrix(32 0 0 -32 142.188 539.065)"/><use xlink:href="#f" transform="matrix(32 0 0 -32 158.988 539.065)"/><use xlink:href="#g" transform="matrix(32 0 0 -32 166.54 538.713)"/><use xlink:href="#h" transform="matrix(32 0 0 -32 186.572 539.001)"/><use xlink:href="#i" transform="matrix(32 0 0 -32 203.286 539.065)"/><use xlink:href="#j" transform="matrix(32 0 0 -32 217.942 538.713)"/><use xlink:href="#k" transform="matrix(32 0 0 -32 229.207 545.305)"/><use xlink:href="#l" transform="matrix(32 0 0 -32 244.774 545.305)"/><use xlink:href="#m" transform="matrix(32 0 0 -32 263.014 539.29)"/><use xlink:href="#n" transform="matrix(32 0 0 -32 283.366 539.13)"/><use xlink:href="#i" transform="matrix(32 0 0 -32 296.295 539.065)"/><use xlink:href="#o" transform="matrix(32 0 0 -32 309.99 539.13)"/><use xlink:href="#p" transform="matrix(32 0 0 -32 335.935 534.873)"/><use xlink:href="#q" transform="matrix(32 0 0 -32 364.952 538.713)"/><use xlink:href="#r" transform="matrix(32 0 0 -32 384.184 538.713)"/><use xlink:href="#v" transform="matrix(32 0 0 -32 411 538.713)"/><use xlink:href="#w" transform="matrix(32 0 0 -32 439.455 539.513)"/><use xlink:href="#d" transform="matrix(32 0 0 -32 466.887 539.065)"/><use xlink:href="#x" transform="matrix(32 0 0 -32 483.214 540.025)"/><use xlink:href="#B" transform="matrix(32 0 0 -32 512.245 544.377)"/><use xlink:href="#H" transform="matrix(32 0 0 -32 524.917 538.713)"/><symbol id="J"><path d="M.296.69H.229L0 0h.068l.228.69z"/></symbol><use xlink:href="#J" transform="matrix(32 0 0 -32 538.854 539.161)"/><symbol id="K"><path d="M.445.137.431.143C.398.087.377.076.335.076H.101l.165.176C.355.346.394.421.394.5c0 .099-.072.176-.185.176C.086.676.022.594.001.477L.022.472c.04.098.075.13.147.13.085 0 .139-.05.139-.141C.308.376.272.3.178.201L0 .012V0h.391l.054.137z"/></symbol><use xlink:href="#K" transform="matrix(32 0 0 -32 550.744 538.713)"/><symbol id="L"><path d="M.031.07A.233.233 0 0 0 0 0h.078a.209.209 0 0 1 .031.07l.036.141A.132.132 0 0 1 .213.194c.142 0 .298.161.298.315 0 .137-.099.137-.152.137C.252.646.152.533.106.356L.031.07m.391.447C.422.399.341.215.208.213.18.213.159.229.159.25c0 .025.028.129.046.194.03.107.095.181.151.181.043 0 .066-.049.066-.108z"/></symbol><use xlink:href="#L" transform="matrix(32 0 0 -32 564.536 545.273)"/><symbol id="M"><path d="M.623.682H.602C.594.666.584.66.564.66a.11.11 0 0 0-.041.007.376.376 0 0 1-.336-.056A.438.438 0 0 1 0 .261C0 .096.108 0 .261 0c.103 0 .183.043.273.149L.516.164C.429.074.369.045.287.045.176.045.112.11.112.25c0 .11.036.224.108.301a.278.278 0 0 0 .199.097C.507.648.556.592.568.485L.586.482l.037.2z"/></symbol><use xlink:href="#M" transform="matrix(32 0 0 -32 584.056 539.29)"/><use xlink:href="#o" transform="matrix(22.72 0 0 -22.72 602.505 547.009)"/><use xlink:href="#A" transform="matrix(32 0 0 -32 615.137 539.29)"/><use xlink:href="#K" transform="matrix(22.72 0 0 -22.72 631.028 526.873)"/><use xlink:href="#z" transform="matrix(32 0 0 -32 642.139 538.713)"/><use xlink:href="#G" transform="matrix(32 0 0 -32 664.25 544.377)"/><use xlink:href="#w" transform="matrix(32 0 0 -32 682.466 539.513)"/><use xlink:href="#n" transform="matrix(32 0 0 -32 709.193 539.13)"/><use xlink:href="#w" transform="matrix(32 0 0 -32 729.616 539.513)"/><use xlink:href="#B" transform="matrix(32 0 0 -32 757.367 544.377)"/><use xlink:href="#H" transform="matrix(32 0 0 -32 770.04 538.713)"/><use xlink:href="#J" transform="matrix(32 0 0 -32 783.977 539.161)"/><use xlink:href="#i" transform="matrix(32 0 0 -32 795.93 539.065)"/><use xlink:href="#G" transform="matrix(32 0 0 -32 810.075 544.377)"/></g><g data-name="P"><symbol id="N"><path d="M.414 0c.144 0 .262.06.313.147H.65A.328.328 0 0 0 .414.066C.191.066.077.227.077.409c0 .212.148.36.35.36.206 0 .326-.123.326-.302C.753.331.695.274.638.274.6.274.583.3.59.353l.03.252H.537L.53.545C.516.579.48.613.409.613.3.613.212.515.212.381c0-.108.064-.174.161-.174.062 0 .12.041.149.093C.53.248.556.214.637.214c.08 0 .188.067.188.255 0 .206-.159.366-.398.366A.425.425 0 0 1 0 .407C0 .194.147 0 .414 0M.391.271C.337.271.297.312.297.382c0 .105.055.165.118.165C.48.547.519.51.519.434.519.328.453.271.391.271z"/></symbol><symbol id="O"><path d="M.334 0c.16 0 .274.081.299.246H.552C.534.13.453.071.336.071.182.071.09.181.09.363v.008c0 .18.099.295.247.295C.459.666.522.61.54.501h.086C.611.656.485.735.336.735.142.735 0 .582 0 .37V.362C0 .142.127 0 .334 0z"/></symbol><symbol id="P"><path d="M.256 0c.149 0 .258.109.258.267v.008c0 .157-.109.266-.257.266C.109.541 0 .431 0 .274V.266C0 .113.107 0 .256 0m.001.069C.151.069.086.147.086.266v.008c0 .12.066.198.171.198.104 0 .171-.078.171-.199V.266C.428.148.362.069.257.069z"/></symbol><symbol id="Q"><path d="M0 0h.083v.317c0 .094.069.143.146.143C.313.46.352.419.352.327V0h.083v.321c0 .152-.076.211-.184.211C.165.532.107.489.083.44v.083H0V0z"/></symbol><symbol id="R"><path d="M.205 0c.127 0 .192.064.192.159C.397.27.321.294.213.314.117.331.091.35.091.397c0 .045.039.075.099.075C.256.472.288.447.3.39h.08C.366.503.285.541.191.541.109.541.014.491.014.394.014.303.06.265.196.24.277.225.318.207.318.152.318.096.283.069.204.069.12.069.087.108.081.17H0C.005.063.08 0 .205 0z"/></symbol><symbol id="S"><path d="M.216 0C.25 0 .27.005.287.011v.07A.17.17 0 0 0 .223.07C.181.07.158.095.158.146V.46H.28v.07H.158v.119H.075V.53H0V.46h.075V.138C.075.056.121 0 .216 0z"/></symbol><symbol id="T"><path d="M.174 0c.077 0 .124.026.163.075V.009H.42v.345C.42.5.329.541.229.541.128.541.033.497.022.378h.083c.008.064.048.094.12.094.08 0 .112-.035.112-.118V.316H.262C.128.316 0 .275 0 .154 0 .047.077 0 .174 0m.008.066C.109.066.083.1.083.154c0 .077.077.103.182.103h.072V.192C.337.111.27.066.182.066z"/></symbol><symbol id="U"><path d="M0 0z"/></symbol><symbol id="V"><path d="M0 0h.187c.25 0 .364.157.364.355v.009c0 .199-.116.351-.362.351H0V0m.087.071v.574h.097C.381.645.461.529.461.364V.356C.461.181.369.071.185.071H.087z"/></symbol><symbol id="W"><path d="M.055.632c.03 0 .055.025.055.055S.085.742.055.742A.055.055 0 0 1 0 .687C0 .657.025.632.055.632M.015 0h.083v.523H.015V0z"/></symbol><symbol id="X"><path d="M.19 0h.106l.188.523H.398L.245.084.09.523H0L.19 0z"/></symbol><symbol id="Y"><path d="M.253 0c.118 0 .205.055.223.16H.393C.382.099.335.069.254.069.147.069.09.135.086.254H.48v.027c0 .187-.114.26-.235.26C.101.541 0 .431 0 .273V.265C0 .104.105 0 .253 0M.089.321C.103.414.16.472.245.472c.086 0 .142-.043.15-.151H.089z"/></symbol><symbol id="Z"><path d="M.273 0C.415 0 .52.091.52.211.52.346.436.394.277.419.131.441.105.477.105.547c0 .067.051.116.149.116.099 0 .151-.037.168-.127H.5C.486.663.397.733.254.733.119.733.024.649.024.539c0-.127.089-.174.239-.197C.399.32.436.286.436.205.436.124.365.07.273.07.129.07.095.142.084.227H0C.013.105.082 0 .273 0z"/></symbol><symbol id="aa"><path d="M0 0h.083v.268A.198.198 0 0 1 .26.173c.144 0 .238.11.238.27v.008C.498.614.397.714.26.714A.215.215 0 0 1 .083.617v.088H0V0m.252.242C.15.242.08.305.08.439v.008c0 .134.074.198.171.198.088 0 .161-.066.161-.198V.439C.412.312.356.242.252.242z"/></symbol><symbol id="ab"><path d="M.236 0a.22.22 0 0 1 .179.099v-.09h.083v.773H.415V.448a.187.187 0 0 1-.171.093C.1.541 0 .428 0 .268V.26C0 .097.099 0 .236 0m.009.069C.157.069.086.132.086.264v.008c0 .127.062.2.166.2.102 0 .166-.063.166-.197V.267C.418.133.342.069.245.069z"/></symbol><use xlink:href="#N" transform="matrix(48 0 0 -48 361.504 248.105)"/><use xlink:href="#O" transform="matrix(48 0 0 -48 405.904 241.481)"/><use xlink:href="#P" transform="matrix(48 0 0 -48 440.464 241.481)"/><use xlink:href="#Q" transform="matrix(48 0 0 -48 471.328 241.05)"/><use xlink:href="#R" transform="matrix(48 0 0 -48 497.968 241.481)"/><use xlink:href="#S" transform="matrix(48 0 0 -48 520.336 241.385)"/><use xlink:href="#T" transform="matrix(48 0 0 -48 538.288 241.481)"/><use xlink:href="#Q" transform="matrix(48 0 0 -48 566.272 241.05)"/><use xlink:href="#S" transform="matrix(48 0 0 -48 592.24 241.385)"/><use xlink:href="#U" transform="matrix(48 0 0 -48 607.984 241.05)"/><use xlink:href="#V" transform="matrix(48 0 0 -48 625.024 241.05)"/><use xlink:href="#W" transform="matrix(48 0 0 -48 657.52 241.05)"/><use xlink:href="#X" transform="matrix(48 0 0 -48 667.552 241.05)"/><use xlink:href="#Y" transform="matrix(48 0 0 -48 693.424 241.481)"/><use xlink:href="#U" transform="matrix(48 0 0 -48 718.528 241.05)"/><use xlink:href="#Z" transform="matrix(48 0 0 -48 733.552 241.481)"/><use xlink:href="#aa" transform="matrix(48 0 0 -48 765.376 249.785)"/><use xlink:href="#Y" transform="matrix(48 0 0 -48 793.6 241.481)"/><use xlink:href="#Y" transform="matrix(48 0 0 -48 820.864 241.481)"/><use xlink:href="#ab" transform="matrix(48 0 0 -48 848.128 241.481)"/></g><path d="M732.74 294.746h76.936c6.715 0 10.743 0 13.43 1.108a14.043 14.043 0 0 1 8.392 8.393c1.071 2.506 1.108 6.766 1.108 12.86 0 6.093-.037 10.353-1.108 12.859a14.043 14.043 0 0 1-8.393 8.393c-2.686 1.108-6.714 1.108-13.429 1.108h-76.935c-6.715 0-10.744 0-13.43-1.108a14.043 14.043 0 0 1-8.392-8.393c-1.072-2.506-1.108-6.766-1.108-12.86 0-6.093.036-10.353 1.108-12.859a14.043 14.043 0 0 1 8.393-8.393c2.685-1.108 6.714-1.108 13.429-1.108zm0 0" data-name="P"/><g data-name="P"><path stroke-width="2" fill="none" stroke="#000" d="M1151.061 317.106h-145.832"/><path d="m1150.061 321.907 9.6-4.8-9.6-4.8z"/></g><g data-name="P"><path stroke-width="2" fill="none" stroke="#000" d="M650.08 316.882H504.248"/><path d="m505.248 312.082-9.6 4.8 9.6 4.8z"/></g><path d="M859.443 299.381h118.95c6.593 0 10.548 0 13.186.974a14.674 14.674 0 0 1 8.77 8.77c.717 1.615.974 5.336.974 7.757 0 2.42-.257 6.141-.974 7.756a14.674 14.674 0 0 1-8.77 8.771c-2.637.974-6.593.974-13.186.974h-118.95c-6.593 0-10.549 0-13.186-.974a14.675 14.675 0 0 1-8.77-8.77c-.717-1.616-.974-5.336-.974-7.757 0-2.421.256-6.142.973-7.757a14.675 14.675 0 0 1 8.771-8.77c2.637-.974 6.593-.974 13.186-.974zM699.53 301.062c8.499 8.42 8.499 22.07 0 30.49-8.5 8.42-22.28 8.42-30.78 0a21.418 21.418 0 0 1 0-30.49c8.5-8.42 22.28-8.42 30.78 0zm0 0" data-name="P"/><g data-name="P"><use xlink:href="#F" transform="matrix(32 0 0 -32 1024.636 296.895)"/><use xlink:href="#j" transform="matrix(32 0 0 -32 1049.436 296.895)"/><use xlink:href="#e" transform="matrix(32 0 0 -32 1060.988 297.247)"/><use xlink:href="#k" transform="matrix(32 0 0 -32 1076.732 303.487)"/><use xlink:href="#p" transform="matrix(32 0 0 -32 1102.9 293.055)"/><use xlink:href="#H" transform="matrix(32 0 0 -32 1135.726 296.895)"/><use xlink:href="#J" transform="matrix(32 0 0 -32 1149.664 297.343)"/><use xlink:href="#K" transform="matrix(32 0 0 -32 1161.553 296.895)"/><use xlink:href="#L" transform="matrix(32 0 0 -32 1175.345 303.455)"/><use xlink:href="#M" transform="matrix(32 0 0 -32 1194.865 297.47)"/><use xlink:href="#o" transform="matrix(22.72 0 0 -22.72 1213.314 305.19)"/><use xlink:href="#A" transform="matrix(32 0 0 -32 1225.946 297.47)"/><use xlink:href="#K" transform="matrix(22.72 0 0 -22.72 1241.837 285.055)"/><use xlink:href="#z" transform="matrix(32 0 0 -32 1252.948 296.895)"/></g><g data-name="P"><symbol id="ac"><path d="M.208 0h.087v.644h.208v.071H0V.644h.208V0z"/></symbol><symbol id="ad"><path d="M0 0h.083v.317c0 .094.069.143.146.143C.313.46.352.419.352.327V0h.083v.321c0 .152-.076.211-.184.211C.165.532.107.489.083.44v.333H0V0z"/></symbol><symbol id="ae"><path d="M0 0h.083v.287c0 .129.067.162.172.167v.078C.161.529.116.488.083.429v.094H0V0z"/></symbol><symbol id="af"><path d="M.182 0c.084 0 .142.043.166.092V.009h.083v.523H.348V.215C.348.121.278.072.204.072.122.072.083.113.083.205v.327H0V.201C0 .057.078 0 .182 0z"/></symbol><symbol id="ag"><path d="M0 .18h.404v.072H0V.18M0 0h.404v.072H0V0z"/></symbol><symbol id="ah"><path d="M.248 0c.146 0 .249.074.25.226v.488H.415V.63a.187.187 0 0 1-.171.093C.1.723 0 .605 0 .463V.456C0 .312.101.208.238.208c.076 0 .147.048.177.099V.231C.415.119.35.07.247.07.158.07.108.101.096.161H.011C.025.073.093 0 .248 0M.247.277C.159.277.086.345.086.459v.008c0 .11.062.187.166.187.102 0 .166-.068.166-.185V.462C.418.345.344.277.247.277z"/></symbol><use xlink:href="#ac" transform="matrix(28 0 0 -28 919.277 235.7)"/><use xlink:href="#ad" transform="matrix(28 0 0 -28 936.524 235.7)"/><use xlink:href="#ae" transform="matrix(28 0 0 -28 953.269 235.7)"/><use xlink:href="#af" transform="matrix(28 0 0 -28 963.656 235.953)"/><use xlink:href="#R" transform="matrix(28 0 0 -28 979.225 235.953)"/><use xlink:href="#S" transform="matrix(28 0 0 -28 992.272 235.897)"/><use xlink:href="#U" transform="matrix(28 0 0 -28 1001.457 235.7)"/><use xlink:href="#ag" transform="matrix(28 0 0 -28 1009.996 230.213)"/><use xlink:href="#U" transform="matrix(28 0 0 -28 1022.428 235.7)"/><use xlink:href="#V" transform="matrix(28 0 0 -28 1032.369 235.7)"/><use xlink:href="#ae" transform="matrix(28 0 0 -28 1051.688 235.7)"/><use xlink:href="#T" transform="matrix(28 0 0 -28 1060.872 235.953)"/><use xlink:href="#ah" transform="matrix(28 0 0 -28 1076.104 241.049)"/></g><g data-name="P"><use xlink:href="#b" transform="matrix(33 0 0 -33 461.706 294.462)"/><symbol id="ai"><path d="M.446.127C.392.059.38.047.364.047.355.047.348.055.348.065c0 .011.016.073.033.125.03.094.048.168.048.193C.429.42.41.45.364.45.302.45.224.385.134.239l.121.447-.007.006A1.354 1.354 0 0 0 .091.665V.65h.027C.136.65.159.642.159.625.159.611.154.594.146.563L0 .009h.075c.04.154.056.189.096.25.052.079.116.14.152.14.023 0 .028-.01.028-.025A.246.246 0 0 0 .344.341L.289.134a.553.553 0 0 1-.02-.092C.269.016.286 0 .313 0c.051 0 .085.027.146.114L.446.127z"/></symbol><use xlink:href="#ai" transform="matrix(33 0 0 -33 479.645 294.759)"/><use xlink:href="#j" transform="matrix(33 0 0 -33 497.003 294.462)"/><use xlink:href="#E" transform="matrix(33 0 0 -33 510.619 294.825)"/><use xlink:href="#n" transform="matrix(33 0 0 -33 526.421 294.89)"/><use xlink:href="#d" transform="matrix(33 0 0 -33 539.984 294.825)"/><use xlink:href="#p" transform="matrix(33 0 0 -33 559.543 290.502)"/><use xlink:href="#F" transform="matrix(33 0 0 -33 589.467 294.462)"/><use xlink:href="#j" transform="matrix(33 0 0 -33 615.042 294.462)"/><use xlink:href="#e" transform="matrix(33 0 0 -33 626.955 294.825)"/><use xlink:href="#k" transform="matrix(33 0 0 -33 643.19 301.26)"/></g><g data-name="P"><use xlink:href="#n" transform="matrix(35 0 0 -35 764.454 464.032)"/><use xlink:href="#p" transform="matrix(35 0 0 -35 788.912 459.377)"/><use xlink:href="#A" transform="matrix(35 0 0 -35 821.629 464.207)"/><use xlink:href="#d" transform="matrix(35 0 0 -35 837.799 463.962)"/></g><g data-name="P"><use xlink:href="#d" transform="matrix(35 0 0 -35 858.086 465.709)"/><use xlink:href="#p" transform="matrix(35 0 0 -35 878.7 461.123)"/><use xlink:href="#n" transform="matrix(35 0 0 -35 915.74 441.104)"/><path d="M910.718 455.313h22.54v2.31h-22.54z"/><use xlink:href="#A" transform="matrix(35 0 0 -35 914.918 492.204)"/></g><g data-name="P"><use xlink:href="#b" transform="matrix(32 0 0 -32 107.953 615.737)"/><use xlink:href="#c" transform="matrix(32 0 0 -32 124.72 616.09)"/><use xlink:href="#d" transform="matrix(32 0 0 -32 141.073 616.09)"/><use xlink:href="#e" transform="matrix(32 0 0 -32 149.297 616.09)"/><use xlink:href="#f" transform="matrix(32 0 0 -32 166.097 616.09)"/><use xlink:href="#g" transform="matrix(32 0 0 -32 173.649 615.737)"/><use xlink:href="#h" transform="matrix(32 0 0 -32 193.68 616.025)"/><use xlink:href="#i" transform="matrix(32 0 0 -32 210.395 616.09)"/><use xlink:href="#j" transform="matrix(32 0 0 -32 225.051 615.737)"/><use xlink:href="#k" transform="matrix(32 0 0 -32 236.315 622.33)"/><use xlink:href="#l" transform="matrix(32 0 0 -32 251.883 622.33)"/><use xlink:href="#m" transform="matrix(32 0 0 -32 270.123 616.313)"/><use xlink:href="#n" transform="matrix(32 0 0 -32 290.475 616.153)"/><use xlink:href="#i" transform="matrix(32 0 0 -32 303.403 616.09)"/><use xlink:href="#o" transform="matrix(32 0 0 -32 317.1 616.153)"/><use xlink:href="#p" transform="matrix(32 0 0 -32 343.044 611.897)"/><use xlink:href="#q" transform="matrix(32 0 0 -32 372.06 615.737)"/><use xlink:href="#r" transform="matrix(32 0 0 -32 391.293 615.737)"/><use xlink:href="#v" transform="matrix(32 0 0 -32 418.109 615.737)"/><use xlink:href="#w" transform="matrix(32 0 0 -32 446.564 616.537)"/><use xlink:href="#n" transform="matrix(32 0 0 -32 477.371 593.593)"/><path d="M472.78 606.585h20.607v2.112H472.78z"/><use xlink:href="#A" transform="matrix(32 0 0 -32 476.62 640.313)"/><use xlink:href="#x" transform="matrix(32 0 0 -32 503.634 617.05)"/><use xlink:href="#B" transform="matrix(32 0 0 -32 532.665 621.401)"/><use xlink:href="#H" transform="matrix(32 0 0 -32 545.337 615.737)"/><use xlink:href="#J" transform="matrix(32 0 0 -32 559.275 616.185)"/><use xlink:href="#K" transform="matrix(32 0 0 -32 571.165 615.737)"/><use xlink:href="#L" transform="matrix(32 0 0 -32 584.957 622.297)"/><use xlink:href="#M" transform="matrix(32 0 0 -32 604.477 616.313)"/><use xlink:href="#o" transform="matrix(22.72 0 0 -22.72 622.925 624.032)"/><use xlink:href="#A" transform="matrix(32 0 0 -32 635.558 616.313)"/><use xlink:href="#K" transform="matrix(22.72 0 0 -22.72 651.449 603.897)"/><use xlink:href="#z" transform="matrix(32 0 0 -32 662.56 615.737)"/><use xlink:href="#G" transform="matrix(32 0 0 -32 684.671 621.401)"/><use xlink:href="#w" transform="matrix(32 0 0 -32 702.886 616.537)"/><use xlink:href="#n" transform="matrix(32 0 0 -32 729.614 616.153)"/><use xlink:href="#w" transform="matrix(32 0 0 -32 750.037 616.537)"/><use xlink:href="#B" transform="matrix(32 0 0 -32 777.788 621.401)"/><use xlink:href="#H" transform="matrix(32 0 0 -32 790.46 615.737)"/><use xlink:href="#J" transform="matrix(32 0 0 -32 804.397 616.185)"/><use xlink:href="#i" transform="matrix(32 0 0 -32 816.351 616.09)"/><use xlink:href="#G" transform="matrix(32 0 0 -32 830.495 621.401)"/></g><g data-name="P"><use xlink:href="#b" transform="matrix(32 0 0 -32 109.375 684.082)"/><use xlink:href="#c" transform="matrix(32 0 0 -32 126.143 684.434)"/><use xlink:href="#d" transform="matrix(32 0 0 -32 142.495 684.434)"/><use xlink:href="#e" transform="matrix(32 0 0 -32 150.719 684.434)"/><use xlink:href="#f" transform="matrix(32 0 0 -32 167.519 684.434)"/><use xlink:href="#g" transform="matrix(32 0 0 -32 175.071 684.082)"/><use xlink:href="#h" transform="matrix(32 0 0 -32 195.103 684.37)"/><use xlink:href="#i" transform="matrix(32 0 0 -32 211.817 684.434)"/><use xlink:href="#j" transform="matrix(32 0 0 -32 226.474 684.082)"/><use xlink:href="#k" transform="matrix(32 0 0 -32 237.738 690.674)"/><use xlink:href="#l" transform="matrix(32 0 0 -32 253.305 690.674)"/><use xlink:href="#m" transform="matrix(32 0 0 -32 271.546 684.658)"/><use xlink:href="#n" transform="matrix(32 0 0 -32 291.897 684.498)"/><use xlink:href="#i" transform="matrix(32 0 0 -32 304.825 684.434)"/><use xlink:href="#o" transform="matrix(32 0 0 -32 318.522 684.498)"/><use xlink:href="#p" transform="matrix(32 0 0 -32 344.466 680.242)"/><use xlink:href="#n" transform="matrix(32 0 0 -32 374.251 684.498)"/><use xlink:href="#B" transform="matrix(32 0 0 -32 387.723 689.746)"/><use xlink:href="#q" transform="matrix(32 0 0 -32 401.46 661.522)"/><use xlink:href="#r" transform="matrix(32 0 0 -32 420.691 661.522)"/><use xlink:href="#v" transform="matrix(32 0 0 -32 447.507 661.522)"/><path d="M398.515 674.93h72.16v2.112h-72.16z"/><use xlink:href="#A" transform="matrix(32 0 0 -32 428.131 708.658)"/><use xlink:href="#x" transform="matrix(32 0 0 -32 480.922 685.394)"/><use xlink:href="#B" transform="matrix(32 0 0 -32 509.954 689.746)"/><use xlink:href="#H" transform="matrix(32 0 0 -32 522.625 684.082)"/><use xlink:href="#J" transform="matrix(32 0 0 -32 536.563 684.53)"/><use xlink:href="#K" transform="matrix(32 0 0 -32 548.453 684.082)"/><use xlink:href="#L" transform="matrix(32 0 0 -32 562.245 690.642)"/><use xlink:href="#M" transform="matrix(32 0 0 -32 581.765 684.658)"/><use xlink:href="#o" transform="matrix(22.72 0 0 -22.72 600.213 692.377)"/><use xlink:href="#A" transform="matrix(32 0 0 -32 612.846 684.658)"/><use xlink:href="#K" transform="matrix(22.72 0 0 -22.72 628.737 672.242)"/><use xlink:href="#z" transform="matrix(32 0 0 -32 639.847 684.082)"/><use xlink:href="#G" transform="matrix(32 0 0 -32 661.96 689.746)"/><use xlink:href="#w" transform="matrix(32 0 0 -32 680.175 684.882)"/><use xlink:href="#B" transform="matrix(32 0 0 -32 707.926 689.746)"/><use xlink:href="#H" transform="matrix(32 0 0 -32 720.598 684.082)"/><use xlink:href="#J" transform="matrix(32 0 0 -32 734.535 684.53)"/><use xlink:href="#i" transform="matrix(32 0 0 -32 746.49 684.434)"/><use xlink:href="#G" transform="matrix(32 0 0 -32 760.633 689.746)"/><use xlink:href="#G" transform="matrix(32 0 0 -32 771.29 689.746)"/></g><g data-name="P"><use xlink:href="#b" transform="matrix(32 0 0 -32 109.375 763.956)"/><use xlink:href="#c" transform="matrix(32 0 0 -32 126.143 764.308)"/><use xlink:href="#d" transform="matrix(32 0 0 -32 142.495 764.308)"/><use xlink:href="#e" transform="matrix(32 0 0 -32 150.719 764.308)"/><use xlink:href="#f" transform="matrix(32 0 0 -32 167.519 764.308)"/><use xlink:href="#g" transform="matrix(32 0 0 -32 175.071 763.956)"/><use xlink:href="#h" transform="matrix(32 0 0 -32 195.103 764.244)"/><use xlink:href="#i" transform="matrix(32 0 0 -32 211.817 764.308)"/><use xlink:href="#j" transform="matrix(32 0 0 -32 226.474 763.956)"/><use xlink:href="#k" transform="matrix(32 0 0 -32 237.738 770.548)"/><use xlink:href="#l" transform="matrix(32 0 0 -32 253.305 770.548)"/><use xlink:href="#m" transform="matrix(32 0 0 -32 271.546 764.532)"/><use xlink:href="#n" transform="matrix(32 0 0 -32 291.897 764.372)"/><use xlink:href="#i" transform="matrix(32 0 0 -32 304.825 764.308)"/><use xlink:href="#o" transform="matrix(32 0 0 -32 318.522 764.372)"/><use xlink:href="#p" transform="matrix(32 0 0 -32 344.466 760.116)"/><use xlink:href="#n" transform="matrix(32 0 0 -32 374.251 764.372)"/><use xlink:href="#B" transform="matrix(32 0 0 -32 387.723 769.62)"/><use xlink:href="#q" transform="matrix(32 0 0 -32 401.46 741.396)"/><use xlink:href="#r" transform="matrix(32 0 0 -32 420.691 741.396)"/><use xlink:href="#v" transform="matrix(32 0 0 -32 447.507 741.396)"/><path d="M398.515 754.804h72.16v2.112h-72.16z"/><use xlink:href="#A" transform="matrix(32 0 0 -32 428.131 788.532)"/><use xlink:href="#x" transform="matrix(32 0 0 -32 480.922 765.268)"/><use xlink:href="#B" transform="matrix(32 0 0 -32 509.954 769.62)"/><use xlink:href="#H" transform="matrix(32 0 0 -32 522.625 763.956)"/><use xlink:href="#J" transform="matrix(32 0 0 -32 536.563 764.404)"/><use xlink:href="#K" transform="matrix(32 0 0 -32 548.453 763.956)"/><use xlink:href="#L" transform="matrix(32 0 0 -32 562.245 770.516)"/><use xlink:href="#M" transform="matrix(32 0 0 -32 581.765 764.532)"/><use xlink:href="#o" transform="matrix(22.72 0 0 -22.72 600.213 772.251)"/><use xlink:href="#A" transform="matrix(32 0 0 -32 612.846 764.532)"/><use xlink:href="#K" transform="matrix(22.72 0 0 -22.72 628.737 752.116)"/><use xlink:href="#z" transform="matrix(32 0 0 -32 639.847 763.956)"/><use xlink:href="#G" transform="matrix(32 0 0 -32 661.96 769.62)"/><use xlink:href="#w" transform="matrix(32 0 0 -32 680.175 764.756)"/><use xlink:href="#B" transform="matrix(32 0 0 -32 707.926 769.62)"/><use xlink:href="#H" transform="matrix(32 0 0 -32 720.598 763.956)"/><use xlink:href="#J" transform="matrix(32 0 0 -32 734.535 764.404)"/><use xlink:href="#i" transform="matrix(32 0 0 -32 746.49 764.308)"/><use xlink:href="#G" transform="matrix(32 0 0 -32 760.633 769.62)"/><use xlink:href="#G" transform="matrix(32 0 0 -32 771.29 769.62)"/></g><g data-name="P"><use xlink:href="#b" transform="matrix(32 0 0 -32 109.375 923.704)"/><use xlink:href="#c" transform="matrix(32 0 0 -32 126.143 924.056)"/><use xlink:href="#d" transform="matrix(32 0 0 -32 142.495 924.056)"/><use xlink:href="#e" transform="matrix(32 0 0 -32 150.719 924.056)"/><use xlink:href="#f" transform="matrix(32 0 0 -32 167.519 924.056)"/><use xlink:href="#z" transform="matrix(32 0 0 -32 174.694 923.704)"/><use xlink:href="#A" transform="matrix(32 0 0 -32 196.518 924.28)"/><use xlink:href="#e" transform="matrix(32 0 0 -32 210.63 924.056)"/><use xlink:href="#t" transform="matrix(32 0 0 -32 227.686 924.056)"/><use xlink:href="#f" transform="matrix(32 0 0 -32 236.326 924.056)"/><use xlink:href="#e" transform="matrix(32 0 0 -32 244.505 924.056)"/><use xlink:href="#s" transform="matrix(32 0 0 -32 261.079 924.056)"/><use xlink:href="#f" transform="matrix(32 0 0 -32 277.655 924.056)"/><use xlink:href="#i" transform="matrix(32 0 0 -32 286.23 924.056)"/><use xlink:href="#g" transform="matrix(32 0 0 -32 299.415 923.704)"/><use xlink:href="#h" transform="matrix(32 0 0 -32 319.447 923.992)"/><use xlink:href="#i" transform="matrix(32 0 0 -32 336.161 924.056)"/><use xlink:href="#j" transform="matrix(32 0 0 -32 350.817 923.704)"/><use xlink:href="#k" transform="matrix(32 0 0 -32 362.081 930.296)"/><use xlink:href="#l" transform="matrix(32 0 0 -32 377.65 930.296)"/><use xlink:href="#p" transform="matrix(32 0 0 -32 403.05 919.864)"/><use xlink:href="#n" transform="matrix(32 0 0 -32 432.835 924.12)"/><use xlink:href="#B" transform="matrix(32 0 0 -32 446.307 929.368)"/><use xlink:href="#q" transform="matrix(32 0 0 -32 460.043 901.144)"/><use xlink:href="#r" transform="matrix(32 0 0 -32 479.275 901.144)"/><use xlink:href="#v" transform="matrix(32 0 0 -32 506.09 901.144)"/><path d="M457.099 914.552h72.16v2.112h-72.16z"/><use xlink:href="#A" transform="matrix(32 0 0 -32 486.715 948.28)"/><use xlink:href="#x" transform="matrix(32 0 0 -32 539.506 925.016)"/><use xlink:href="#B" transform="matrix(32 0 0 -32 568.537 929.368)"/><use xlink:href="#H" transform="matrix(32 0 0 -32 581.21 923.704)"/><use xlink:href="#J" transform="matrix(32 0 0 -32 595.147 924.152)"/><use xlink:href="#K" transform="matrix(32 0 0 -32 607.037 923.704)"/><use xlink:href="#L" transform="matrix(32 0 0 -32 620.829 930.264)"/><use xlink:href="#M" transform="matrix(32 0 0 -32 640.349 924.28)"/><use xlink:href="#o" transform="matrix(22.72 0 0 -22.72 658.797 932)"/><use xlink:href="#A" transform="matrix(32 0 0 -32 671.43 924.28)"/><use xlink:href="#K" transform="matrix(22.72 0 0 -22.72 687.32 911.864)"/><use xlink:href="#z" transform="matrix(32 0 0 -32 698.431 923.704)"/><use xlink:href="#G" transform="matrix(32 0 0 -32 720.543 929.368)"/><use xlink:href="#w" transform="matrix(32 0 0 -32 738.758 924.504)"/><use xlink:href="#B" transform="matrix(32 0 0 -32 766.51 929.368)"/><use xlink:href="#H" transform="matrix(32 0 0 -32 779.181 923.704)"/><use xlink:href="#J" transform="matrix(32 0 0 -32 793.119 924.152)"/><use xlink:href="#i" transform="matrix(32 0 0 -32 805.073 924.056)"/><use xlink:href="#G" transform="matrix(32 0 0 -32 819.217 929.368)"/><use xlink:href="#G" transform="matrix(32 0 0 -32 829.873 929.368)"/></g><g data-name="P"><use xlink:href="#n" transform="matrix(32 0 0 -32 108.042 1007.995)"/><use xlink:href="#p" transform="matrix(32 0 0 -32 130.403 1003.739)"/><use xlink:href="#b" transform="matrix(32 0 0 -32 209.894 985.019)"/><use xlink:href="#c" transform="matrix(32 0 0 -32 226.662 985.37)"/><use xlink:href="#d" transform="matrix(32 0 0 -32 243.014 985.37)"/><use xlink:href="#e" transform="matrix(32 0 0 -32 251.238 985.37)"/><use xlink:href="#f" transform="matrix(32 0 0 -32 268.038 985.37)"/><use xlink:href="#z" transform="matrix(32 0 0 -32 275.214 985.019)"/><use xlink:href="#A" transform="matrix(32 0 0 -32 297.038 985.595)"/><use xlink:href="#e" transform="matrix(32 0 0 -32 311.15 985.37)"/><use xlink:href="#t" transform="matrix(32 0 0 -32 328.206 985.37)"/><use xlink:href="#f" transform="matrix(32 0 0 -32 336.846 985.37)"/><use xlink:href="#e" transform="matrix(32 0 0 -32 345.024 985.37)"/><use xlink:href="#s" transform="matrix(32 0 0 -32 361.598 985.37)"/><use xlink:href="#f" transform="matrix(32 0 0 -32 378.174 985.37)"/><use xlink:href="#i" transform="matrix(32 0 0 -32 386.75 985.37)"/><use xlink:href="#g" transform="matrix(32 0 0 -32 399.934 985.019)"/><use xlink:href="#h" transform="matrix(32 0 0 -32 419.966 985.307)"/><use xlink:href="#i" transform="matrix(32 0 0 -32 436.68 985.37)"/><use xlink:href="#j" transform="matrix(32 0 0 -32 451.336 985.019)"/><use xlink:href="#k" transform="matrix(32 0 0 -32 462.6 991.61)"/><use xlink:href="#l" transform="matrix(32 0 0 -32 478.168 991.61)"/><path d="M159.675 998.427h381.8v2.112h-381.8z"/><use xlink:href="#B" transform="matrix(32 0 0 -32 164.411 1043.375)"/><use xlink:href="#q" transform="matrix(22.72 0 0 -22.72 178.222 1021.711)"/><use xlink:href="#r" transform="matrix(22.72 0 0 -22.72 191.876 1021.711)"/><use xlink:href="#v" transform="matrix(22.72 0 0 -22.72 210.916 1021.711)"/><path d="M175.203 1028.559h53.09v2.112h-53.09z"/><use xlink:href="#A" transform="matrix(22.72 0 0 -22.72 197.159 1052.52)"/><use xlink:href="#x" transform="matrix(32 0 0 -32 238.54 1039.023)"/><use xlink:href="#B" transform="matrix(32 0 0 -32 267.571 1043.375)"/><use xlink:href="#H" transform="matrix(32 0 0 -32 280.243 1037.71)"/><use xlink:href="#J" transform="matrix(32 0 0 -32 294.181 1038.159)"/><use xlink:href="#K" transform="matrix(32 0 0 -32 306.07 1037.71)"/><use xlink:href="#L" transform="matrix(32 0 0 -32 319.863 1044.271)"/><use xlink:href="#M" transform="matrix(32 0 0 -32 339.383 1038.287)"/><use xlink:href="#o" transform="matrix(22.72 0 0 -22.72 357.966 1045.046)"/><use xlink:href="#A" transform="matrix(32 0 0 -32 370.599 1038.287)"/><use xlink:href="#K" transform="matrix(22.72 0 0 -22.72 385.995 1029.39)"/><use xlink:href="#z" transform="matrix(32 0 0 -32 397.106 1037.71)"/><use xlink:href="#G" transform="matrix(32 0 0 -32 419.217 1043.375)"/><use xlink:href="#G" transform="matrix(32 0 0 -32 429.873 1043.375)"/><use xlink:href="#w" transform="matrix(32 0 0 -32 448.089 1038.511)"/><use xlink:href="#B" transform="matrix(32 0 0 -32 475.84 1043.375)"/><use xlink:href="#H" transform="matrix(32 0 0 -32 488.512 1037.71)"/><use xlink:href="#J" transform="matrix(32 0 0 -32 502.45 1038.159)"/><use xlink:href="#i" transform="matrix(32 0 0 -32 514.403 1038.063)"/><use xlink:href="#G" transform="matrix(32 0 0 -32 528.547 1043.375)"/></g><g data-name="P"><use xlink:href="#n" transform="matrix(32 0 0 -32 1072.647 471.28)"/><use xlink:href="#p" transform="matrix(32 0 0 -32 1095.008 467.025)"/><use xlink:href="#b" transform="matrix(32 0 0 -32 1142.923 448.305)"/><use xlink:href="#c" transform="matrix(32 0 0 -32 1159.69 448.657)"/><use xlink:href="#d" transform="matrix(32 0 0 -32 1176.043 448.657)"/><use xlink:href="#e" transform="matrix(32 0 0 -32 1184.267 448.657)"/><use xlink:href="#f" transform="matrix(32 0 0 -32 1201.067 448.657)"/><use xlink:href="#z" transform="matrix(32 0 0 -32 1208.242 448.305)"/><use xlink:href="#A" transform="matrix(32 0 0 -32 1230.066 448.88)"/><use xlink:href="#e" transform="matrix(32 0 0 -32 1244.178 448.657)"/><use xlink:href="#t" transform="matrix(32 0 0 -32 1261.234 448.657)"/><use xlink:href="#f" transform="matrix(32 0 0 -32 1269.874 448.657)"/><use xlink:href="#e" transform="matrix(32 0 0 -32 1278.053 448.657)"/><use xlink:href="#s" transform="matrix(32 0 0 -32 1294.626 448.657)"/><use xlink:href="#f" transform="matrix(32 0 0 -32 1311.202 448.657)"/><use xlink:href="#i" transform="matrix(32 0 0 -32 1319.778 448.657)"/><use xlink:href="#g" transform="matrix(32 0 0 -32 1332.962 448.305)"/><use xlink:href="#h" transform="matrix(32 0 0 -32 1352.994 448.593)"/><use xlink:href="#i" transform="matrix(32 0 0 -32 1369.709 448.657)"/><use xlink:href="#j" transform="matrix(32 0 0 -32 1384.365 448.305)"/><use xlink:href="#k" transform="matrix(32 0 0 -32 1395.629 454.897)"/><use xlink:href="#l" transform="matrix(32 0 0 -32 1411.197 454.897)"/><path d="M1124.281 461.713h318.646v2.112h-318.646z"/><use xlink:href="#B" transform="matrix(32 0 0 -32 1129.017 506.66)"/><use xlink:href="#q" transform="matrix(22.72 0 0 -22.72 1142.827 484.997)"/><use xlink:href="#r" transform="matrix(22.72 0 0 -22.72 1156.482 484.997)"/><use xlink:href="#v" transform="matrix(22.72 0 0 -22.72 1175.521 484.997)"/><path d="M1139.809 491.845h53.089v2.112h-53.089z"/><use xlink:href="#A" transform="matrix(22.72 0 0 -22.72 1161.764 515.806)"/><use xlink:href="#x" transform="matrix(32 0 0 -32 1203.146 502.309)"/><use xlink:href="#B" transform="matrix(32 0 0 -32 1232.177 506.66)"/><use xlink:href="#B" transform="matrix(32 0 0 -32 1242.833 506.66)"/><use xlink:href="#H" transform="matrix(32 0 0 -32 1255.505 500.997)"/><use xlink:href="#J" transform="matrix(32 0 0 -32 1269.443 501.445)"/><use xlink:href="#K" transform="matrix(32 0 0 -32 1281.332 500.997)"/><use xlink:href="#i" transform="matrix(32 0 0 -32 1297.396 501.349)"/><use xlink:href="#G" transform="matrix(32 0 0 -32 1311.54 506.66)"/><use xlink:href="#L" transform="matrix(32 0 0 -32 1319.988 507.557)"/><use xlink:href="#M" transform="matrix(32 0 0 -32 1339.508 501.573)"/><use xlink:href="#o" transform="matrix(22.72 0 0 -22.72 1358.092 508.332)"/><use xlink:href="#A" transform="matrix(32 0 0 -32 1370.724 501.573)"/><use xlink:href="#K" transform="matrix(22.72 0 0 -22.72 1386.12 492.677)"/><use xlink:href="#z" transform="matrix(32 0 0 -32 1397.23 500.997)"/><use xlink:href="#G" transform="matrix(32 0 0 -32 1419.343 506.66)"/><use xlink:href="#G" transform="matrix(32 0 0 -32 1429.999 506.66)"/></g><g data-name="P"><use xlink:href="#r" transform="matrix(32 0 0 -32 1072.647 638.28)"/><use xlink:href="#t" transform="matrix(32 0 0 -32 1101.447 638.633)"/><use xlink:href="#h" transform="matrix(32 0 0 -32 1109.223 638.569)"/><use xlink:href="#t" transform="matrix(32 0 0 -32 1126.343 638.633)"/><use xlink:href="#D" transform="matrix(32 0 0 -32 1134.055 638.569)"/><use xlink:href="#t" transform="matrix(32 0 0 -32 1158.343 638.633)"/><symbol id="aj"><path d="M.382.498v.011H.099L.067.393.083.389c.02.051.039.06.091.06H.31L0 .077.009.068a.067.067 0 0 0 .045.018C.08.086.112.073.159.044.209.013.243 0 .272 0c.056 0 .093.036.093.076C.365.098.351.113.33.113.314.113.298.096.297.079A.06.06 0 0 1 .305.051.037.037 0 0 0 .31.036C.31.027.299.021.283.021c-.025 0-.044.012-.07.05-.04.059-.062.07-.12.083l.289.344z"/></symbol><use xlink:href="#aj" transform="matrix(32 0 0 -32 1165.607 640.873)"/><use xlink:href="#i" transform="matrix(32 0 0 -32 1179.111 638.633)"/><use xlink:href="#B" transform="matrix(32 0 0 -32 1204.519 643.945)"/><use xlink:href="#q" transform="matrix(32 0 0 -32 1227.311 615.72)"/><use xlink:href="#r" transform="matrix(32 0 0 -32 1246.543 615.72)"/><use xlink:href="#v" transform="matrix(32 0 0 -32 1273.359 615.72)"/><path d="M1224.367 629.129h72.16v2.112h-72.16z"/><use xlink:href="#A" transform="matrix(32 0 0 -32 1253.983 662.857)"/><use xlink:href="#x" transform="matrix(32 0 0 -32 1306.774 639.593)"/><use xlink:href="#B" transform="matrix(32 0 0 -32 1335.805 643.945)"/><use xlink:href="#B" transform="matrix(32 0 0 -32 1346.461 643.945)"/><use xlink:href="#H" transform="matrix(32 0 0 -32 1359.133 638.28)"/><use xlink:href="#J" transform="matrix(32 0 0 -32 1373.071 638.729)"/><use xlink:href="#K" transform="matrix(32 0 0 -32 1384.96 638.28)"/><use xlink:href="#i" transform="matrix(32 0 0 -32 1401.025 638.633)"/><use xlink:href="#G" transform="matrix(32 0 0 -32 1415.169 643.945)"/><use xlink:href="#L" transform="matrix(32 0 0 -32 1423.617 644.84)"/><use xlink:href="#M" transform="matrix(32 0 0 -32 1443.137 638.857)"/><use xlink:href="#o" transform="matrix(22.72 0 0 -22.72 1461.585 646.576)"/><use xlink:href="#A" transform="matrix(32 0 0 -32 1474.218 638.857)"/><use xlink:href="#K" transform="matrix(22.72 0 0 -22.72 1490.109 626.44)"/><use xlink:href="#z" transform="matrix(32 0 0 -32 1501.22 638.28)"/><use xlink:href="#G" transform="matrix(32 0 0 -32 1523.331 643.945)"/><use xlink:href="#G" transform="matrix(32 0 0 -32 1533.987 643.945)"/></g><g data-name="P"><symbol id="ak"><path d="M0 0h.08v.602L.325 0h.027l.237.602V0h.087v.715h-.12L.342.158.121.715H0V0z"/></symbol><symbol id="al"><path d="M0 0h.089l.144.211L.374 0h.098L.281.275l.173.248h-.09L.237.333l-.128.19H.012L.187.269 0 0z"/></symbol><symbol id="am"><path d="M0 0h.083v.32c0 .094.07.14.138.14C.293.46.332.422.332.33V0h.083v.32c0 .094.07.14.138.14C.625.46.664.422.664.33V0h.083v.324c0 .152-.082.208-.176.208C.506.532.428.502.392.434.365.504.306.532.239.532A.17.17 0 0 1 .083.443v.08H0V0z"/></symbol><symbol id="an"><path d="M0 0h.433v.073H.135l.302.435v.015H.03v-.07h.279L0 .012V0z"/></symbol><symbol id="ao"><path d="M.256 0c.126 0 .217.084.228.197H.407C.398.112.331.069.257.069.156.069.086.137.086.265v.008c0 .123.073.199.168.199.072 0 .132-.031.145-.114h.082C.465.491.363.541.254.541.114.541 0 .433 0 .273V.265C0 .103.11 0 .256 0z"/></symbol><symbol id="ap"><path d="M.161 0h.091l.122.392L.483 0h.092l.163.523H.653L.53.102.411.523H.339L.212.102.09.523H0L.161 0z"/></symbol><use xlink:href="#ac" transform="matrix(24 0 0 -24 1077.343 565.634)"/><use xlink:href="#P" transform="matrix(24 0 0 -24 1089.39 565.85)"/><use xlink:href="#U" transform="matrix(24 0 0 -24 1102.807 565.634)"/><use xlink:href="#ak" transform="matrix(24 0 0 -24 1111.327 565.634)"/><use xlink:href="#T" transform="matrix(24 0 0 -24 1130.695 565.85)"/><use xlink:href="#al" transform="matrix(24 0 0 -24 1143.343 565.634)"/><use xlink:href="#W" transform="matrix(24 0 0 -24 1157.047 565.634)"/><use xlink:href="#am" transform="matrix(24 0 0 -24 1163.479 565.634)"/><use xlink:href="#W" transform="matrix(24 0 0 -24 1185.007 565.634)"/><use xlink:href="#an" transform="matrix(24 0 0 -24 1189.927 565.634)"/><use xlink:href="#Y" transform="matrix(24 0 0 -24 1201.975 565.85)"/><use xlink:href="#U" transform="matrix(24 0 0 -24 1214.527 565.634)"/><use xlink:href="#V" transform="matrix(24 0 0 -24 1223.047 565.634)"/><use xlink:href="#W" transform="matrix(24 0 0 -24 1239.295 565.634)"/><use xlink:href="#R" transform="matrix(24 0 0 -24 1244.695 565.85)"/><use xlink:href="#S" transform="matrix(24 0 0 -24 1255.879 565.802)"/><use xlink:href="#T" transform="matrix(24 0 0 -24 1264.855 565.85)"/><use xlink:href="#Q" transform="matrix(24 0 0 -24 1278.847 565.634)"/><use xlink:href="#ao" transform="matrix(24 0 0 -24 1292.263 565.85)"/><use xlink:href="#Y" transform="matrix(24 0 0 -24 1305.943 565.85)"/><use xlink:href="#U" transform="matrix(24 0 0 -24 1318.495 565.634)"/><use xlink:href="#ap" transform="matrix(24 0 0 -24 1325.527 565.634)"/><use xlink:href="#Y" transform="matrix(24 0 0 -24 1344.751 565.85)"/><use xlink:href="#U" transform="matrix(24 0 0 -24 1357.303 565.634)"/><use xlink:href="#Q" transform="matrix(24 0 0 -24 1365.68 565.634)"/><use xlink:href="#Y" transform="matrix(24 0 0 -24 1379.095 565.85)"/><use xlink:href="#Y" transform="matrix(24 0 0 -24 1392.727 565.85)"/><use xlink:href="#ab" transform="matrix(24 0 0 -24 1406.359 565.85)"/><use xlink:href="#U" transform="matrix(24 0 0 -24 1420.327 565.634)"/><use xlink:href="#S" transform="matrix(24 0 0 -24 1427.335 565.802)"/><use xlink:href="#P" transform="matrix(24 0 0 -24 1436.287 565.85)"/><use xlink:href="#U" transform="matrix(24 0 0 -24 1449.703 565.634)"/><use xlink:href="#am" transform="matrix(24 0 0 -24 1458.079 565.634)"/><use xlink:href="#W" transform="matrix(24 0 0 -24 1479.607 565.634)"/><use xlink:href="#Q" transform="matrix(24 0 0 -24 1486.039 565.634)"/><use xlink:href="#W" transform="matrix(24 0 0 -24 1500.079 565.634)"/><use xlink:href="#am" transform="matrix(24 0 0 -24 1506.511 565.634)"/><use xlink:href="#W" transform="matrix(24 0 0 -24 1528.039 565.634)"/><use xlink:href="#an" transform="matrix(24 0 0 -24 1532.959 565.634)"/><use xlink:href="#Y" transform="matrix(24 0 0 -24 1545.007 565.85)"/><use xlink:href="#U" transform="matrix(24 0 0 -24 1557.559 565.634)"/><use xlink:href="#S" transform="matrix(24 0 0 -24 1564.567 565.802)"/><use xlink:href="#ad" transform="matrix(24 0 0 -24 1574.455 565.634)"/><use xlink:href="#W" transform="matrix(24 0 0 -24 1588.495 565.634)"/><use xlink:href="#R" transform="matrix(24 0 0 -24 1593.895 565.85)"/><use xlink:href="#U" transform="matrix(24 0 0 -24 1604.43 565.634)"/><use xlink:href="#S" transform="matrix(24 0 0 -24 1611.439 565.802)"/><use xlink:href="#Y" transform="matrix(24 0 0 -24 1620.391 565.85)"/><use xlink:href="#ae" transform="matrix(24 0 0 -24 1634.959 565.634)"/><use xlink:href="#am" transform="matrix(24 0 0 -24 1643.983 565.634)"/></g><g data-name="P"><use xlink:href="#o" transform="matrix(32 0 0 -32 1076.327 703.935)"/><use xlink:href="#q" transform="matrix(22.72 0 0 -22.72 1099.33 687.52)"/><use xlink:href="#r" transform="matrix(22.72 0 0 -22.72 1112.984 687.52)"/><use xlink:href="#v" transform="matrix(22.72 0 0 -22.72 1132.023 687.52)"/><path d="M1096.311 694.367h53.09v2.112h-53.09z"/><use xlink:href="#A" transform="matrix(22.72 0 0 -22.72 1118.266 718.328)"/><use xlink:href="#x" transform="matrix(32 0 0 -32 1159.648 704.831)"/><use xlink:href="#B" transform="matrix(32 0 0 -32 1188.679 709.183)"/><use xlink:href="#B" transform="matrix(32 0 0 -32 1199.335 709.183)"/><use xlink:href="#H" transform="matrix(32 0 0 -32 1212.007 703.52)"/><use xlink:href="#J" transform="matrix(32 0 0 -32 1225.945 703.967)"/><use xlink:href="#K" transform="matrix(32 0 0 -32 1237.834 703.52)"/><use xlink:href="#i" transform="matrix(32 0 0 -32 1253.898 703.871)"/><use xlink:href="#G" transform="matrix(32 0 0 -32 1268.042 709.183)"/><use xlink:href="#L" transform="matrix(32 0 0 -32 1276.49 710.08)"/><use xlink:href="#M" transform="matrix(32 0 0 -32 1296.01 704.095)"/><use xlink:href="#o" transform="matrix(22.72 0 0 -22.72 1314.459 711.815)"/><use xlink:href="#A" transform="matrix(32 0 0 -32 1327.092 704.095)"/><use xlink:href="#K" transform="matrix(22.72 0 0 -22.72 1342.982 691.68)"/><use xlink:href="#z" transform="matrix(32 0 0 -32 1354.093 703.52)"/><use xlink:href="#G" transform="matrix(32 0 0 -32 1376.205 709.183)"/><path d="M1072.647 724.664h316.486v2.112h-316.486z"/><use xlink:href="#o" transform="matrix(32 0 0 -32 1216.093 758.232)"/><use xlink:href="#A" transform="matrix(32 0 0 -32 1232.599 758.392)"/><use xlink:href="#p" transform="matrix(32 0 0 -32 1401.158 729.976)"/><symbol id="aq"><path d="M.452.344C.452.549.361.69.23.69.069.69 0 .527 0 .35 0 .186.055 0 .226 0c.163 0 .226.172.226.344M.356.339C.356.141.311.026.226.026.14.026.096.14.096.343s.045.321.128.321C.312.664.356.547.356.339z"/></symbol><use xlink:href="#aq" transform="matrix(32 0 0 -32 1431.199 734.264)"/></g><g data-name="P"><symbol id="ar"><path d="M.557 0v.066H0V0h.557z"/></symbol><use xlink:href="#ar" transform="matrix(32 0 0 -32 1077.895 783.158)"/><use xlink:href="#q" transform="matrix(32 0 0 -32 1099.289 790.197)"/><use xlink:href="#r" transform="matrix(32 0 0 -32 1118.52 790.197)"/><use xlink:href="#v" transform="matrix(32 0 0 -32 1145.337 790.197)"/><path d="M1072.647 803.606h95.858v2.111h-95.858z"/><use xlink:href="#A" transform="matrix(32 0 0 -32 1107.847 837.334)"/><use xlink:href="#K" transform="matrix(22.72 0 0 -22.72 1123.244 828.438)"/><use xlink:href="#x" transform="matrix(32 0 0 -32 1178.752 814.07)"/><use xlink:href="#K" transform="matrix(32 0 0 -32 1207.175 812.758)"/><use xlink:href="#w" transform="matrix(32 0 0 -32 1230.734 813.558)"/><use xlink:href="#B" transform="matrix(32 0 0 -32 1258.485 818.422)"/><use xlink:href="#B" transform="matrix(32 0 0 -32 1269.141 818.422)"/><use xlink:href="#H" transform="matrix(32 0 0 -32 1281.813 812.758)"/><use xlink:href="#J" transform="matrix(32 0 0 -32 1295.751 813.206)"/><use xlink:href="#K" transform="matrix(32 0 0 -32 1307.64 812.758)"/><use xlink:href="#i" transform="matrix(32 0 0 -32 1323.705 813.11)"/><use xlink:href="#G" transform="matrix(32 0 0 -32 1337.849 818.422)"/><use xlink:href="#L" transform="matrix(32 0 0 -32 1346.297 819.317)"/><use xlink:href="#M" transform="matrix(32 0 0 -32 1365.817 813.333)"/><use xlink:href="#o" transform="matrix(22.72 0 0 -22.72 1384.265 821.053)"/><use xlink:href="#z" transform="matrix(32 0 0 -32 1396.898 812.758)"/><use xlink:href="#A" transform="matrix(32 0 0 -32 1418.722 813.333)"/><use xlink:href="#G" transform="matrix(32 0 0 -32 1433.218 818.422)"/><use xlink:href="#p" transform="matrix(32 0 0 -32 1453.37 808.918)"/><use xlink:href="#aq" transform="matrix(32 0 0 -32 1483.412 813.206)"/></g><g data-name="P"><use xlink:href="#ar" transform="matrix(32 0 0 -32 1078.42 870.017)"/><use xlink:href="#q" transform="matrix(32 0 0 -32 1099.813 877.057)"/><use xlink:href="#r" transform="matrix(32 0 0 -32 1119.045 877.057)"/><use xlink:href="#v" transform="matrix(32 0 0 -32 1145.86 877.057)"/><path d="M1073.171 890.465h95.858v2.112h-95.858z"/><use xlink:href="#A" transform="matrix(32 0 0 -32 1108.371 924.193)"/><use xlink:href="#K" transform="matrix(22.72 0 0 -22.72 1123.768 915.297)"/><use xlink:href="#x" transform="matrix(32 0 0 -32 1179.276 900.93)"/><use xlink:href="#B" transform="matrix(32 0 0 -32 1208.307 905.281)"/><use xlink:href="#H" transform="matrix(32 0 0 -32 1220.979 899.617)"/><use xlink:href="#J" transform="matrix(32 0 0 -32 1234.917 900.065)"/><use xlink:href="#i" transform="matrix(32 0 0 -32 1246.87 899.97)"/><use xlink:href="#G" transform="matrix(32 0 0 -32 1261.015 905.281)"/><use xlink:href="#L" transform="matrix(32 0 0 -32 1269.463 906.177)"/><use xlink:href="#M" transform="matrix(32 0 0 -32 1288.983 900.193)"/><use xlink:href="#o" transform="matrix(22.72 0 0 -22.72 1307.431 907.912)"/><use xlink:href="#z" transform="matrix(32 0 0 -32 1320.064 899.617)"/><use xlink:href="#A" transform="matrix(32 0 0 -32 1341.888 900.193)"/><use xlink:href="#p" transform="matrix(32 0 0 -32 1365.88 895.777)"/><use xlink:href="#aq" transform="matrix(32 0 0 -32 1395.921 900.065)"/></g><g data-name="P"><use xlink:href="#ar" transform="matrix(32 0 0 -32 1487.314 892.589)"/><use xlink:href="#q" transform="matrix(32 0 0 -32 1508.708 899.629)"/><use xlink:href="#r" transform="matrix(32 0 0 -32 1527.94 899.629)"/><use xlink:href="#v" transform="matrix(32 0 0 -32 1554.756 899.629)"/><use xlink:href="#x" transform="matrix(32 0 0 -32 1583.37 900.94)"/><use xlink:href="#B" transform="matrix(32 0 0 -32 1612.402 905.293)"/><use xlink:href="#H" transform="matrix(32 0 0 -32 1625.074 899.629)"/><use xlink:href="#J" transform="matrix(32 0 0 -32 1639.012 900.077)"/><use xlink:href="#i" transform="matrix(32 0 0 -32 1650.966 899.98)"/><use xlink:href="#G" transform="matrix(32 0 0 -32 1665.11 905.293)"/><use xlink:href="#L" transform="matrix(32 0 0 -32 1673.558 906.189)"/><use xlink:href="#M" transform="matrix(32 0 0 -32 1693.078 900.205)"/><use xlink:href="#o" transform="matrix(22.72 0 0 -22.72 1711.526 907.924)"/><use xlink:href="#z" transform="matrix(32 0 0 -32 1724.159 899.629)"/><use xlink:href="#A" transform="matrix(32 0 0 -32 1745.983 900.205)"/><symbol id="as"><path d="M.02.524C.061.598.107.63.169.63.235.63.277.596.277.528A.15.15 0 0 0 .196.394.444.444 0 0 0 .112.358V.344c.057 0 .08-.003.102-.01C.283.314.318.265.318.189.318.104.262.036.188.036.16.036.139.041.102.067.074.087.058.093.041.093.018.093 0 .078 0 .057 0 .021.039 0 .112 0c.089 0 .184.029.232.093a.23.23 0 0 1 .046.14.192.192 0 0 1-.044.129.216.216 0 0 1-.083.053c.067.04.093.09.093.138C.356.635.293.69.2.69.096.69.033.623.004.528L.02.524z"/></symbol><use xlink:href="#as" transform="matrix(22.72 0 0 -22.72 1762.146 888.107)"/><use xlink:href="#p" transform="matrix(32 0 0 -32 1783 895.789)"/><use xlink:href="#aq" transform="matrix(32 0 0 -32 1813.04 900.077)"/></g><g data-name="P"><use xlink:href="#c" transform="matrix(38 0 0 -38 1073.171 1002.94)"/><symbol id="at"><path d="M.29.633a.232.232 0 0 1 .002.009C.292.644.29.646.287.646L.131.624.133.609h.022C.171.609.199.606.199.582A.5.5 0 0 0 .183.511L.068.079C.056.032.043.017 0 .016V0h.203v.016C.156.016.141.023.141.045c0 .014.023.096.04.166A.14.14 0 0 1 .25.194c.146 0 .297.162.297.327 0 .078-.041.125-.115.125C.372.646.315.614.261.533l.029.1M.457.518a.358.358 0 0 0-.069-.21C.344.246.296.213.243.213.215.213.195.229.195.251c0 .034.036.163.065.238.023.06.082.114.135.114C.44.603.457.575.457.518z"/></symbol><use xlink:href="#at" transform="matrix(38 0 0 -38 1088.295 1010.312)"/><use xlink:href="#d" transform="matrix(38 0 0 -38 1111.741 1002.94)"/><use xlink:href="#t" transform="matrix(38 0 0 -38 1122.908 1002.94)"/><use xlink:href="#D" transform="matrix(38 0 0 -38 1132.066 1002.864)"/><use xlink:href="#e" transform="matrix(38 0 0 -38 1160.362 1002.94)"/><use xlink:href="#f" transform="matrix(38 0 0 -38 1180.312 1002.94)"/><use xlink:href="#A" transform="matrix(38 0 0 -38 1202.732 1003.206)"/><use xlink:href="#p" transform="matrix(38 0 0 -38 1231.223 997.962)"/><use xlink:href="#as" transform="matrix(19.1558 0 0 -19.1558 1279.536 991.803)"/><path d="M1303.909 936.587h-2.546l-17.822 101.232h-.152l-7.562-42.484h-1.482l-8.36 5.282.684 1.292c.722-.608 1.672-1.254 3.23-1.254 1.596 0 2.166 1.824 2.698 4.75l8.55 48.032h2.166zm-2.546 2.508h146.317v-2.508h-146.317z"/><use xlink:href="#q" transform="matrix(38 0 0 -38 1307.405 975.732)"/><use xlink:href="#r" transform="matrix(38 0 0 -38 1330.243 975.732)"/><use xlink:href="#v" transform="matrix(38 0 0 -38 1362.087 975.732)"/><use xlink:href="#w" transform="matrix(38 0 0 -38 1395.877 976.682)"/><use xlink:href="#i" transform="matrix(38 0 0 -38 1428.186 976.15)"/><path d="M1303.909 991.654h143.771v2.508h-143.771z"/><use xlink:href="#L" transform="matrix(38 0 0 -38 1332.426 1038.812)"/><use xlink:href="#M" transform="matrix(38 0 0 -38 1355.606 1031.706)"/><use xlink:href="#o" transform="matrix(26.98 0 0 -26.98 1377.673 1039.733)"/><use xlink:href="#z" transform="matrix(38 0 0 -38 1392.487 1031.022)"/></g><g data-name="P"><use xlink:href="#b" transform="matrix(32 0 0 -32 105.375 390.7)"/><use xlink:href="#c" transform="matrix(32 0 0 -32 122.143 391.053)"/><use xlink:href="#d" transform="matrix(32 0 0 -32 138.495 391.053)"/><use xlink:href="#e" transform="matrix(32 0 0 -32 146.719 391.053)"/><use xlink:href="#f" transform="matrix(32 0 0 -32 163.519 391.053)"/><use xlink:href="#g" transform="matrix(32 0 0 -32 171.071 390.7)"/><use xlink:href="#h" transform="matrix(32 0 0 -32 191.103 390.989)"/><use xlink:href="#i" transform="matrix(32 0 0 -32 207.817 391.053)"/><use xlink:href="#j" transform="matrix(32 0 0 -32 222.474 390.7)"/><use xlink:href="#k" transform="matrix(32 0 0 -32 233.738 397.293)"/><use xlink:href="#l" transform="matrix(32 0 0 -32 249.305 397.293)"/><use xlink:href="#m" transform="matrix(32 0 0 -32 267.546 391.277)"/><use xlink:href="#n" transform="matrix(32 0 0 -32 287.897 391.117)"/><use xlink:href="#i" transform="matrix(32 0 0 -32 300.825 391.053)"/><use xlink:href="#o" transform="matrix(32 0 0 -32 314.522 391.117)"/><use xlink:href="#p" transform="matrix(32 0 0 -32 340.466 386.86)"/><use xlink:href="#g" transform="matrix(32 0 0 -32 369.707 390.7)"/><use xlink:href="#h" transform="matrix(32 0 0 -32 389.74 390.989)"/><use xlink:href="#i" transform="matrix(32 0 0 -32 406.454 391.053)"/><use xlink:href="#j" transform="matrix(32 0 0 -32 421.11 390.7)"/><use xlink:href="#k" transform="matrix(32 0 0 -32 432.374 397.293)"/><use xlink:href="#l" transform="matrix(32 0 0 -32 447.942 397.293)"/><use xlink:href="#m" transform="matrix(32 0 0 -32 466.182 391.277)"/><use xlink:href="#n" transform="matrix(32 0 0 -32 486.534 391.117)"/><use xlink:href="#i" transform="matrix(32 0 0 -32 499.462 391.053)"/><use xlink:href="#I" transform="matrix(32 0 0 -32 507.974 397.325)"/><use xlink:href="#c" transform="matrix(32 0 0 -32 522.438 391.053)"/><use xlink:href="#j" transform="matrix(32 0 0 -32 539.014 390.7)"/><use xlink:href="#q" transform="matrix(32 0 0 -32 549.766 390.7)"/><use xlink:href="#e" transform="matrix(32 0 0 -32 570.118 391.053)"/><use xlink:href="#n" transform="matrix(32 0 0 -32 586.471 391.117)"/><use xlink:href="#t" transform="matrix(32 0 0 -32 599.975 391.053)"/><use xlink:href="#u" transform="matrix(32 0 0 -32 608.263 391.053)"/><use xlink:href="#q" transform="matrix(32 0 0 -32 621.255 390.7)"/><use xlink:href="#c" transform="matrix(32 0 0 -32 641.927 391.053)"/><use xlink:href="#o" transform="matrix(32 0 0 -32 657.543 391.117)"/><use xlink:href="#l" transform="matrix(32 0 0 -32 672.915 397.293)"/><use xlink:href="#y" transform="matrix(32 0 0 -32 688.147 390.7)"/><use xlink:href="#E" transform="matrix(32 0 0 -32 708.787 391.053)"/><use xlink:href="#h" transform="matrix(32 0 0 -32 724.017 390.989)"/><use xlink:href="#u" transform="matrix(32 0 0 -32 740.652 391.053)"/><use xlink:href="#d" transform="matrix(32 0 0 -32 755.116 391.053)"/><use xlink:href="#t" transform="matrix(32 0 0 -32 764.835 391.053)"/><use xlink:href="#c" transform="matrix(32 0 0 -32 773.027 391.053)"/><use xlink:href="#h" transform="matrix(32 0 0 -32 788.611 390.989)"/><use xlink:href="#x" transform="matrix(32 0 0 -32 812.81 392.013)"/><use xlink:href="#g" transform="matrix(32 0 0 -32 840.273 390.7)"/><use xlink:href="#h" transform="matrix(32 0 0 -32 860.305 390.989)"/><use xlink:href="#i" transform="matrix(32 0 0 -32 877.02 391.053)"/><use xlink:href="#j" transform="matrix(32 0 0 -32 891.676 390.7)"/><use xlink:href="#k" transform="matrix(32 0 0 -32 902.94 397.293)"/><use xlink:href="#l" transform="matrix(32 0 0 -32 918.508 397.293)"/><use xlink:href="#m" transform="matrix(32 0 0 -32 936.748 391.277)"/><use xlink:href="#n" transform="matrix(32 0 0 -32 957.1 391.117)"/><use xlink:href="#i" transform="matrix(32 0 0 -32 970.028 391.053)"/><use xlink:href="#I" transform="matrix(32 0 0 -32 978.54 397.325)"/><use xlink:href="#c" transform="matrix(32 0 0 -32 993.004 391.053)"/><use xlink:href="#j" transform="matrix(32 0 0 -32 1009.58 390.7)"/><symbol id="au"><path d="M.146.653V.637C.203.63.217.622.217.595A.346.346 0 0 0 .2.512L.084.098C.066.033.057.024 0 .016V0h.244v.016C.19.022.175.034.175.057c0 .015.007.036.014.063l.053.193a.364.364 0 0 1 .09-.008c.089 0 .159.019.205.057a.192.192 0 0 1 .068.143c0 .096-.071.148-.218.148H.146M.32.592c.006.023.024.031.052.031.082 0 .13-.034.13-.123C.502.435.475.391.431.366.4.348.365.342.303.342c-.018 0-.023 0-.052.005L.32.592z"/></symbol><use xlink:href="#au" transform="matrix(32 0 0 -32 1020.588 390.7)"/><use xlink:href="#j" transform="matrix(32 0 0 -32 1041.58 390.7)"/><use xlink:href="#c" transform="matrix(32 0 0 -32 1053.452 391.053)"/><use xlink:href="#at" transform="matrix(32 0 0 -32 1066.188 397.26)"/><use xlink:href="#E" transform="matrix(32 0 0 -32 1086.06 391.053)"/><use xlink:href="#f" transform="matrix(32 0 0 -32 1102.028 391.053)"/><use xlink:href="#n" transform="matrix(32 0 0 -32 1110.124 391.117)"/><use xlink:href="#t" transform="matrix(32 0 0 -32 1123.628 391.053)"/><use xlink:href="#c" transform="matrix(32 0 0 -32 1131.82 391.053)"/><use xlink:href="#h" transform="matrix(32 0 0 -32 1147.404 390.989)"/></g><path stroke-dasharray="2,2" fill="none" stroke="#000" d="M960 1055.872V424.014" data-name="P"/><g data-name="P"><path stroke-width="2" fill="none" stroke="#000" d="M543 1007.8h448.3V471.1h72.7"/><path d="m1063 475.9 9.6-4.8-9.6-4.8z"/></g><path stroke-width="2" fill="none" stroke="#000" d="M1118 466.5h338.19v59.15H1118z" data-name="P"/><g data-name="P"><path stroke-width="2" fill="none" stroke="#000" d="m1632.821 544.644-185.73-52.323-.963-.272"/><path d="m1448.392 487.7-10.542 2.017 7.938 7.224z"/></g><g data-name="P"><symbol id="av"><path d="M.032.246H.18l.027.48H.005l.027-.48M.106 0c.059 0 .107.044.107.099 0 .055-.048.1-.107.1A.103.103 0 0 1 0 .099C0 .044.047 0 .106 0z"/></symbol><symbol id="aw"><path d="M.375 0c.231 0 .35.137.35.319v.088H.389V.264h.134C.519.207.481.156.381.156c-.124 0-.167.09-.167.206V.37c0 .129.061.207.162.207.076 0 .119-.035.129-.102h.203C.694.661.544.738.375.738.16.738 0 .591 0 .373V.365C0 .151.132 0 .375 0z"/></symbol><symbol id="ax"><path d="M.284 0c.158 0 .249.067.265.185H.381C.374.15.349.123.29.123c-.064 0-.104.04-.109.109h.368v.047c0 .188-.123.27-.266.27C.125.549 0 .443 0 .275V.267C0 .096.12 0 .284 0M.183.333c.009.063.046.098.1.098.058 0 .089-.035.092-.098H.183z"/></symbol><symbol id="ay"><path d="M0 0h.179v.229L.32 0h.2L.335.288l.171.235H.32L.179.316v.437H0V0z"/></symbol><symbol id="az"><path d="M0 0z"/></symbol><symbol id="aA"><path d="M0 0h.191l.038.133h.237L.504 0h.217L.494.715H.229L0 0m.348.549L.426.274H.269l.079.275z"/></symbol><symbol id="aB"><path d="M0 0h.178v.753H0V0z"/></symbol><symbol id="aC"><path d="M0 0h.179v.248c0 .084.06.118.169.115V.53C.267.531.212.497.179.419v.104H0V0z"/></symbol><symbol id="aD"><path d="M.247 0c.042 0 .076.009.099.015v.136A.136.136 0 0 0 .295.142C.261.142.242.159.242.197v.216h.103v.122H.242v.109H.063V.535H0V.413h.063V.18C.063.057.129 0 .247 0z"/></symbol><use xlink:href="#av" transform="matrix(72 0 0 -72 703.792 79.011)" fill="#ee220d"/><use xlink:href="#av" transform="matrix(72 0 0 -72 727.84 79.011)" fill="#ee220d"/><use xlink:href="#av" transform="matrix(72 0 0 -72 751.888 79.011)" fill="#ee220d"/><use xlink:href="#aw" transform="matrix(72 0 0 -72 773.776 79.083)" fill="#ee220d"/><use xlink:href="#ax" transform="matrix(72 0 0 -72 830.008 79.083)" fill="#ee220d"/><use xlink:href="#ax" transform="matrix(72 0 0 -72 873.064 79.083)" fill="#ee220d"/><use xlink:href="#ay" transform="matrix(72 0 0 -72 918.136 78.219)" fill="#ee220d"/><use xlink:href="#az" transform="matrix(72 0 0 -72 955.864 78.219)" fill="#ee220d"/><use xlink:href="#aA" transform="matrix(72 0 0 -72 970.984 78.219)" fill="#ee220d"/><use xlink:href="#aB" transform="matrix(72 0 0 -72 1028.008 78.219)" fill="#ee220d"/><use xlink:href="#ax" transform="matrix(72 0 0 -72 1046.8 79.083)" fill="#ee220d"/><use xlink:href="#aC" transform="matrix(72 0 0 -72 1091.872 78.219)" fill="#ee220d"/><use xlink:href="#aD" transform="matrix(72 0 0 -72 1120.456 79.083)" fill="#ee220d"/><use xlink:href="#av" transform="matrix(72 0 0 -72 1151.848 79.011)" fill="#ee220d"/><use xlink:href="#av" transform="matrix(72 0 0 -72 1175.896 79.011)" fill="#ee220d"/><use xlink:href="#av" transform="matrix(72 0 0 -72 1199.944 79.011)" fill="#ee220d"/></g></g></svg>
