<svg xmlns="http://www.w3.org/2000/svg" xmlns:xlink="http://www.w3.org/1999/xlink" width="2560" height="1440" viewBox="0 0 1920 1080"><clipPath id="a"><path transform="matrix(1 0 0 -1 0 1080)" d="M0 0h1920v1080H0z"/></clipPath><g clip-path="url(#a)"><path d="M0 0h1920v1080H0z" fill="#fff"/><g data-name="P"><symbol id="b"><path d="M.138.653V.637C.201.632.215.625.215.596A.267.267 0 0 0 .204.532L.083.096C.066.034.055.024 0 .016V0h.272c.162 0 .275.066.275.2 0 .071-.04.124-.126.15v.001C.464.36.501.369.532.39a.13.13 0 0 1 .064.113c0 .099-.069.15-.208.15h-.25m.118-.29.063.224c.01.036.02.036.059.036.081 0 .117-.034.117-.108C.495.416.425.363.294.363H.256M.246.331A.456.456 0 0 0 .372.319C.41.306.439.262.439.2.439.089.361.03.246.03.204.03.179.044.179.072c0 .013.015.064.035.14l.032.119z"/></symbol><use xlink:href="#b" transform="matrix(32 0 0 -32 971.087 592.675)"/><symbol id="c"><path d="M.89.653H.724L.389.161.333.653H.152V.637C.202.634.226.622.226.603A.248.248 0 0 0 .214.551L.1.15C.068.038.052.022 0 .016V0h.197v.016C.146.02.127.036.127.064c0 .011.004.036.009.054l.118.428L.316 0h.017l.376.561L.583.102C.566.04.546.023.481.016V0h.271l.001.016C.69.018.672.032.672.058c0 .016.007.037.014.062l.123.443C.823.614.833.628.89.637v.016z"/></symbol><use xlink:href="#c" transform="matrix(32 0 0 -32 990.319 592.675)"/><symbol id="d"><path d="M.145.653V.637C.187.631.191.63.202.623A.038.038 0 0 0 .216.595C.216.578.211.559.204.532L.085.101C.069.042.055.023 0 .016V0h.243v.016C.186.022.176.033.176.063c0 .01.002.024.013.063l.055.203L.31.324.433 0H.58v.016C.535.016.515.039.493.098L.404.333c.067.015.1.027.131.051.041.031.066.08.066.128 0 .085-.072.141-.204.141H.145m.174-.06c.005.019.026.03.057.03.078 0 .12-.043.12-.112 0-.093-.07-.15-.189-.15a.263.263 0 0 0-.051.005l.063.227z"/></symbol><use xlink:href="#d" transform="matrix(32 0 0 -32 1017.135 592.675)"/><symbol id="e"><path d="M.589.2v.066H0V.2h.589m0-.2v.066H0V0h.589z"/></symbol><use xlink:href="#e" transform="matrix(32 0 0 -32 1047.528 588.835)"/><symbol id="f"><path d="M.574.653H.042L0 .498.018.494c.048.108.08.124.238.124L.113.091C.098.037.075.022.006.016V0h.288v.016L.259.019C.218.023.206.031.206.062c0 .022.008.045.014.066l.137.49h.058C.48.618.516.59.516.537A.407.407 0 0 0 .513.491L.53.489l.044.164z"/></symbol><use xlink:href="#f" transform="matrix(32 0 0 -32 1078.688 592.675)"/><symbol id="g"><path d="M.635.653H.138V.637C.2.631.215.623.215.596A.306.306 0 0 0 .204.532L.081.09C.065.032.056.026 0 .016V0h.507l.062.162L.553.17A.294.294 0 0 0 .459.072.4.4 0 0 0 .256.033C.2.033.177.043.177.067c0 .012.011.058.036.146l.032.112h.078C.363.325.39.32.401.31.406.305.408.296.408.279A.207.207 0 0 0 .401.227l.02-.005.068.232-.018.004C.433.373.422.361.332.361H.254L.32.594C.326.616.336.62.393.62.55.62.585.607.585.547A.407.407 0 0 0 .582.501L.604.499l.031.154z"/></symbol><use xlink:href="#g" transform="matrix(32 0 0 -32 1094.64 592.675)"/><symbol id="h"><path d="M.296.69H.229L0 0h.068l.228.69z"/></symbol><use xlink:href="#h" transform="matrix(32 0 0 -32 1115.714 593.123)"/><symbol id="i"><path d="M.258.439h-.08l.028.103a.023.023 0 0 1 .001.007c0 .005-.003.008-.009.008C.194.557.188.554.184.548a.295.295 0 0 0-.133-.11C.027.433.018.424.018.413L.019.407h.075L.016.111C.008.079 0 .048 0 .037 0 .012.019 0 .046 0c.052 0 .083.029.143.121L.176.128C.127.065.111.049.095.049.086.049.08.052.08.065l.002.014.087.328h.084l.005.032z"/></symbol><use xlink:href="#i" transform="matrix(32 0 0 -32 1127.892 593.027)"/><symbol id="j"><path d="M.35.455H.336C.328.441.321.437.306.437A.112.112 0 0 0 .27.444a.195.195 0 0 1-.056.01C.14.454.093.412.093.346c0-.032.02-.077.063-.131C.195.166.212.132.212.1.212.051.183.023.136.023c-.052 0-.086.041-.1.136H.02L0 0h.016c.007.016.018.021.029.021A.106.106 0 0 0 .089.012a.134.134 0 0 1 .055-.01c.083 0 .144.051.144.134C.288.175.27.214.22.272.181.318.166.347.166.374c0 .037.024.057.059.057.049 0 .079-.033.089-.116H.33l.02.14z"/></symbol><use xlink:href="#j" transform="matrix(22.72 0 0 -22.72 1134.811 600.97)"/><use xlink:href="#i" transform="matrix(22.72 0 0 -22.72 1144.15 600.925)"/><symbol id="k"><path d="M.446.122.419.093C.389.06.376.052.367.052.359.052.353.058.353.065c0 .02.042.192.089.363l.006.021-.007.003L.38.445.377.442.366.394C.358.431.329.452.286.452.153.452 0 .271 0 .116 0 .04.044 0 .1 0c.07 0 .128.044.203.157A.418.418 0 0 1 .28.042C.28.013.292.001.32.001c.04 0 .064.019.139.11L.446.122m-.098.25A.423.423 0 0 0 .271.147C.241.104.194.049.144.049c-.036 0-.06.019-.06.074 0 .063.035.152.077.215C.203.399.247.43.292.43.327.43.348.407.348.372z"/></symbol><use xlink:href="#k" transform="matrix(22.72 0 0 -22.72 1149.988 600.925)"/><symbol id="l"><path d="M.5 0v.05H0V0h.5z"/></symbol><use xlink:href="#l" transform="matrix(22.72 0 0 -22.72 1160.985 603.515)"/><symbol id="m"><path d="M.29.633a.232.232 0 0 1 .002.009C.292.644.29.646.287.646L.131.624.133.609h.022C.171.609.199.606.199.582A.5.5 0 0 0 .183.511L.068.079C.056.032.043.017 0 .016V0h.203v.016C.156.016.141.023.141.045c0 .014.023.096.04.166A.14.14 0 0 1 .25.194c.146 0 .297.162.297.327 0 .078-.041.125-.115.125C.372.646.315.614.261.533l.029.1M.457.518a.358.358 0 0 0-.069-.21C.344.246.296.213.243.213.215.213.195.229.195.251c0 .034.036.163.065.238.023.06.082.114.135.114C.44.603.457.575.457.518z"/></symbol><use xlink:href="#m" transform="matrix(22.72 0 0 -22.72 1173.117 605.332)"/><symbol id="n"><path d="m.14.301.084.306.021.082L.24.694A2.255 2.255 0 0 0 .087.671V.654C.146.652.151.651.151.629A.234.234 0 0 0 .142.582L0 .059V.053C0 .023.073 0 .13 0c.155 0 .32.174.32.332 0 .077-.049.12-.116.12C.264.452.209.414.141.301H.14m.225.016a.388.388 0 0 0-.11-.235.175.175 0 0 0-.123-.059C.101.023.086.034.086.057c0 .06.028.157.072.231.043.073.089.115.137.115.044 0 .07-.025.07-.086z"/></symbol><use xlink:href="#n" transform="matrix(22.72 0 0 -22.72 1186.794 600.925)"/></g><g data-name="P"><use xlink:href="#f" transform="matrix(32 0 0 -32 164.471 592.506)"/><use xlink:href="#g" transform="matrix(32 0 0 -32 180.423 592.506)"/><use xlink:href="#e" transform="matrix(32 0 0 -32 210.432 588.666)"/><use xlink:href="#b" transform="matrix(32 0 0 -32 239.45 592.506)"/><use xlink:href="#c" transform="matrix(32 0 0 -32 258.681 592.506)"/><use xlink:href="#d" transform="matrix(32 0 0 -32 285.497 592.506)"/><symbol id="o"><path d="m.554.047-.23.23.23.232-.046.045-.231-.23-.23.23L0 .508.23.277 0 .046.046 0l.231.23L.508 0l.046.047z"/></symbol><use xlink:href="#o" transform="matrix(32 0 0 -32 313.952 593.306)"/><use xlink:href="#j" transform="matrix(32 0 0 -32 344.827 564.754)"/><symbol id="p"><path d="M.506.696A1.211 1.211 0 0 0 .353.673V.656C.408.654.417.651.417.63.417.616.418.612.403.559L.358.396H.357C.351.435.334.454.292.454.162.454 0 .281 0 .119 0 .043.042.002.107.002c.068 0 .119.033.178.132A.366.366 0 0 1 .272.045C.272.018.287 0 .313 0c.05 0 .098.041.147.114l-.012.01C.394.062.383.053.366.053c-.013 0-.018.008-.018.02 0 .016.034.132.065.246l.06.219.039.152-.006.006M.341.374C.341.222.237.05.145.05.11.05.087.077.087.123c0 .083.05.192.116.262a.138.138 0 0 0 .091.046C.317.431.341.41.341.374z"/></symbol><use xlink:href="#p" transform="matrix(22.72 0 0 -22.72 355.98 572.633)"/><symbol id="q"><path d="M.267.392C.25.481.197.647.182.647H.178A2.185 2.185 0 0 1 .071.629L.039.623V.606A.11.11 0 0 0 .07.61C.11.61.128.595.147.546.174.478.229.254.229.214a.081.081 0 0 0-.01-.035A1.054 1.054 0 0 0 .148.088C.125.063.113.055.1.055.074.055.074.083.039.083A.04.04 0 0 1 0 .043C0 .017.021 0 .051 0c.057 0 .164.115.268.287C.402.425.45.535.45.592c0 .03-.022.055-.052.055C.375.647.358.632.358.61c0-.016.006-.026.026-.039C.403.559.41.553.41.539.41.495.373.423.288.282l-.021.11z"/></symbol><use xlink:href="#q" transform="matrix(22.72 0 0 -22.72 366.453 577.018)"/><symbol id="r"><path d="M.446.126.425.1C.396.063.378.047.364.047.352.047.348.056.348.065c0 .008.004.025.014.061l.056.203c.006.021.01.042.01.06C.428.425.406.45.363.45.299.45.232.39.132.23l.067.218L.195.45.033.419V.403C.084.402.098.396.098.376A.088.088 0 0 0 .096.359L0 .009h.075c.047.158.055.181.1.248.063.093.108.142.148.142C.338.399.347.388.347.37A.455.455 0 0 0 .333.291L.289.129A.325.325 0 0 1 .273.054C.273.016.295 0 .32 0c.047 0 .072.02.14.113L.446.126z"/></symbol><use xlink:href="#r" transform="matrix(22.72 0 0 -22.72 377.404 572.542)"/><use xlink:href="#l" transform="matrix(22.72 0 0 -22.72 388.446 575.178)"/><use xlink:href="#m" transform="matrix(22.72 0 0 -22.72 400.578 576.995)"/><use xlink:href="#n" transform="matrix(22.72 0 0 -22.72 414.255 572.587)"/><path d="M340.167 583.354h89.073v2.112h-89.073z"/><symbol id="s"><path d="M.187.088a1.58 1.58 0 0 1-.025.257C.141.453.141.459.132.459A1.794 1.794 0 0 0 0 .434V.421l.031.001C.068.422.079.405.092.329.105.253.116.12.116.051V.027C.116.01.119 0 .125 0c.017 0 .044.033.099.092.018.019.074.083.119.153A.332.332 0 0 1 .406.4C.406.427.383.459.35.459.329.459.312.446.312.425.312.409.319.396.337.38.35.368.355.361.355.351.355.304.29.194.218.12L.187.088z"/></symbol><use xlink:href="#s" transform="matrix(32 0 0 -32 344.007 617.082)"/><use xlink:href="#p" transform="matrix(22.72 0 0 -22.72 356.927 623.841)"/><use xlink:href="#q" transform="matrix(22.72 0 0 -22.72 367.4 628.226)"/><use xlink:href="#r" transform="matrix(22.72 0 0 -22.72 378.352 623.75)"/><use xlink:href="#l" transform="matrix(22.72 0 0 -22.72 389.394 626.386)"/><use xlink:href="#m" transform="matrix(22.72 0 0 -22.72 401.525 628.203)"/><use xlink:href="#n" transform="matrix(22.72 0 0 -22.72 415.203 623.796)"/><symbol id="t"><path d="M.588.261v.066H.327v.261H.261V.327H0V.261h.261V0h.066v.261h.261z"/></symbol><use xlink:href="#t" transform="matrix(32 0 0 -32 439.487 593.818)"/><symbol id="u"><path d="M.256.016c-.14.117-.17.23-.17.416 0 .193.031.286.17.405L.247.853A.472.472 0 0 1 0 .429C0 .259.086.09.244 0l.012.016z"/></symbol><use xlink:href="#u" transform="matrix(32 0 0 -32 468.519 598.17)"/><symbol id="v"><path d="M.283 0v.015C.208.015.188.033.188.076v.597L.179.676 0 .585V.571l.027.01a.151.151 0 0 0 .045.012c.021 0 .03-.015.03-.049V.095C.102.04.081.019.007.015V0h.276z"/></symbol><use xlink:href="#v" transform="matrix(32 0 0 -32 481.19 592.506)"/><use xlink:href="#h" transform="matrix(32 0 0 -32 495.128 592.954)"/><symbol id="w"><path d="M.445.137.431.143C.398.087.377.076.335.076H.101l.165.176C.355.346.394.421.394.5c0 .099-.072.176-.185.176C.086.676.022.594.001.477L.022.472c.04.098.075.13.147.13.085 0 .139-.05.139-.141C.308.376.272.3.178.201L0 .012V0h.391l.054.137z"/></symbol><use xlink:href="#w" transform="matrix(32 0 0 -32 507.018 592.506)"/><symbol id="x"><path d="M.031.07A.233.233 0 0 0 0 0h.078a.209.209 0 0 1 .031.07l.036.141A.132.132 0 0 1 .213.194c.142 0 .298.161.298.315 0 .137-.099.137-.152.137C.252.646.152.533.106.356L.031.07m.391.447C.422.399.341.215.208.213.18.213.159.229.159.25c0 .025.028.129.046.194.03.107.095.181.151.181.043 0 .066-.049.066-.108z"/></symbol><use xlink:href="#x" transform="matrix(32 0 0 -32 520.81 599.066)"/><symbol id="y"><path d="M.623.682H.602C.594.666.584.66.564.66a.11.11 0 0 0-.041.007.376.376 0 0 1-.336-.056A.438.438 0 0 1 0 .261C0 .096.108 0 .261 0c.103 0 .183.043.273.149L.516.164C.429.074.369.045.287.045.176.045.112.11.112.25c0 .11.036.224.108.301a.278.278 0 0 0 .199.097C.507.648.556.592.568.485L.586.482l.037.2z"/></symbol><use xlink:href="#y" transform="matrix(32 0 0 -32 540.33 593.082)"/><use xlink:href="#p" transform="matrix(22.72 0 0 -22.72 558.779 600.801)"/><use xlink:href="#s" transform="matrix(32 0 0 -32 571.411 593.082)"/><use xlink:href="#w" transform="matrix(22.72 0 0 -22.72 587.302 580.666)"/><use xlink:href="#p" transform="matrix(22.72 0 0 -22.72 583.913 602.815)"/><use xlink:href="#q" transform="matrix(22.72 0 0 -22.72 594.387 607.2)"/><use xlink:href="#r" transform="matrix(22.72 0 0 -22.72 605.338 602.724)"/><use xlink:href="#l" transform="matrix(22.72 0 0 -22.72 616.38 605.36)"/><use xlink:href="#m" transform="matrix(22.72 0 0 -22.72 628.511 607.177)"/><use xlink:href="#n" transform="matrix(22.72 0 0 -22.72 642.189 602.77)"/><symbol id="z"><path d="M.615 0v.016C.562.02.551.031.537.115L.445.668H.419L.134.172C.059.042.046.025 0 .016V0h.186v.016C.139.018.124.03.124.049c0 .016.008.04.022.066l.059.111h.22l.02-.131.002-.026C.447.035.433.019.37.016V0h.245M.42.262H.226l.149.263L.42.262z"/></symbol><use xlink:href="#z" transform="matrix(32 0 0 -32 653.413 592.506)"/><symbol id="A"><path d="M0 .837C.145.723.17.608.17.421.17.227.142.133 0 .016L.009 0a.476.476 0 0 1 .247.424c0 .17-.091.337-.244.429L0 .837z"/></symbol><use xlink:href="#A" transform="matrix(32 0 0 -32 675.525 598.17)"/><use xlink:href="#o" transform="matrix(32 0 0 -32 693.74 593.306)"/><use xlink:href="#j" transform="matrix(32 0 0 -32 720.467 592.922)"/><use xlink:href="#p" transform="matrix(22.72 0 0 -22.72 731.62 600.801)"/><use xlink:href="#q" transform="matrix(22.72 0 0 -22.72 742.093 605.186)"/><use xlink:href="#r" transform="matrix(22.72 0 0 -22.72 753.044 600.71)"/><use xlink:href="#l" transform="matrix(22.72 0 0 -22.72 764.086 603.346)"/><use xlink:href="#m" transform="matrix(22.72 0 0 -22.72 776.218 605.163)"/><use xlink:href="#n" transform="matrix(22.72 0 0 -22.72 789.896 600.756)"/><use xlink:href="#o" transform="matrix(32 0 0 -32 809.22 593.306)"/><use xlink:href="#u" transform="matrix(32 0 0 -32 836.971 598.17)"/><use xlink:href="#v" transform="matrix(32 0 0 -32 849.643 592.506)"/><use xlink:href="#h" transform="matrix(32 0 0 -32 863.581 592.954)"/><symbol id="B"><path d="M.327.12C.255.061.224.045.18.045.124.045.087.081.087.136c0 .015 0 .041.01.061.179.023.284.101.284.187 0 .042-.029.068-.082.068C.149.452 0 .292 0 .137 0 .054.054 0 .135 0c.083 0 .147.038.204.108L.327.12M.121.263C.155.352.223.429.28.429.308.429.315.414.315.39.315.359.296.323.265.293.228.258.19.24.104.219l.017.044z"/></symbol><use xlink:href="#B" transform="matrix(32 0 0 -32 875.535 592.858)"/><use xlink:href="#A" transform="matrix(32 0 0 -32 889.679 598.17)"/></g><g data-name="P"><symbol id="C"><path d="M.238.689.232.694A1.397 1.397 0 0 0 .077.667V.651h.018c.032 0 .049-.01.049-.022C.144.626.144.62.141.61L.004.086A.113.113 0 0 1 0 .056C0 .019.017 0 .049 0 .103 0 .14.03.2.125l-.014.01L.161.1C.132.059.109.043.094.043c-.01 0-.017.006-.017.018a.2.2 0 0 0 .008.043l.153.585z"/></symbol><use xlink:href="#C" transform="matrix(32 0 0 -32 513.786 454.615)"/><use xlink:href="#B" transform="matrix(32 0 0 -32 522.362 454.615)"/><use xlink:href="#i" transform="matrix(32 0 0 -32 536.794 454.615)"/><symbol id="D"><path d="M.447.439H.268V.423h.014C.307.423.319.416.319.405.319.385.27.337.176.265L.133.232l.12.456-.006.006A1.432 1.432 0 0 0 .09.667V.651h.018C.142.651.157.645.159.627A.547.547 0 0 0 .141.539L0 .011h.075l.048.18.04.032C.179.179.205.117.223.082.255.019.275 0 .304 0c.04 0 .065.025.111.109L.4.12.385.094C.367.063.355.052.34.052.321.052.298.089.259.181L.222.269C.369.4.4.42.447.423v.016z"/></symbol><use xlink:href="#D" transform="matrix(32 0 0 -32 555.578 454.615)"/><use xlink:href="#e" transform="matrix(32 0 0 -32 580.657 450.423)"/><use xlink:href="#v" transform="matrix(32 0 0 -32 613.482 454.263)"/><use xlink:href="#h" transform="matrix(32 0 0 -32 627.42 454.711)"/><use xlink:href="#w" transform="matrix(32 0 0 -32 639.31 454.263)"/><use xlink:href="#x" transform="matrix(32 0 0 -32 653.101 460.823)"/><use xlink:href="#y" transform="matrix(32 0 0 -32 672.621 454.84)"/><use xlink:href="#p" transform="matrix(22.72 0 0 -22.72 691.07 462.558)"/><use xlink:href="#z" transform="matrix(32 0 0 -32 703.702 454.263)"/><use xlink:href="#o" transform="matrix(32 0 0 -32 733.374 455.063)"/><use xlink:href="#u" transform="matrix(32 0 0 -32 761.125 459.927)"/><use xlink:href="#v" transform="matrix(32 0 0 -32 773.797 454.263)"/><use xlink:href="#h" transform="matrix(32 0 0 -32 787.735 454.711)"/><use xlink:href="#B" transform="matrix(32 0 0 -32 799.688 454.615)"/><use xlink:href="#A" transform="matrix(32 0 0 -32 813.832 459.927)"/></g><g data-name="P"><use xlink:href="#f" transform="matrix(32 0 0 -32 156.572 703.544)"/><use xlink:href="#g" transform="matrix(32 0 0 -32 172.524 703.544)"/><use xlink:href="#e" transform="matrix(32 0 0 -32 202.533 699.704)"/><use xlink:href="#b" transform="matrix(32 0 0 -32 231.55 703.544)"/><use xlink:href="#c" transform="matrix(32 0 0 -32 250.782 703.544)"/><use xlink:href="#d" transform="matrix(32 0 0 -32 277.598 703.544)"/><use xlink:href="#o" transform="matrix(32 0 0 -32 306.053 704.344)"/><use xlink:href="#j" transform="matrix(32 0 0 -32 336.928 675.791)"/><use xlink:href="#p" transform="matrix(22.72 0 0 -22.72 348.08 683.67)"/><use xlink:href="#q" transform="matrix(22.72 0 0 -22.72 358.554 688.056)"/><use xlink:href="#r" transform="matrix(22.72 0 0 -22.72 369.505 683.58)"/><use xlink:href="#l" transform="matrix(22.72 0 0 -22.72 380.547 686.215)"/><use xlink:href="#m" transform="matrix(22.72 0 0 -22.72 392.679 688.033)"/><use xlink:href="#n" transform="matrix(22.72 0 0 -22.72 406.356 683.625)"/><path d="M332.268 694.392h89.073v2.112h-89.073z"/><use xlink:href="#s" transform="matrix(32 0 0 -32 336.108 728.12)"/><use xlink:href="#p" transform="matrix(22.72 0 0 -22.72 349.027 734.879)"/><use xlink:href="#q" transform="matrix(22.72 0 0 -22.72 359.501 739.264)"/><use xlink:href="#r" transform="matrix(22.72 0 0 -22.72 370.452 734.788)"/><use xlink:href="#l" transform="matrix(22.72 0 0 -22.72 381.494 737.424)"/><use xlink:href="#m" transform="matrix(22.72 0 0 -22.72 393.626 739.241)"/><use xlink:href="#n" transform="matrix(22.72 0 0 -22.72 407.304 734.834)"/><use xlink:href="#t" transform="matrix(32 0 0 -32 431.588 704.856)"/><use xlink:href="#u" transform="matrix(32 0 0 -32 460.62 709.208)"/><use xlink:href="#D" transform="matrix(32 0 0 -32 470.187 703.896)"/><use xlink:href="#j" transform="matrix(32 0 0 -32 485.08 703.96)"/><use xlink:href="#p" transform="matrix(22.72 0 0 -22.72 496.232 711.84)"/><use xlink:href="#q" transform="matrix(22.72 0 0 -22.72 506.706 716.224)"/><use xlink:href="#r" transform="matrix(22.72 0 0 -22.72 517.657 711.748)"/><use xlink:href="#l" transform="matrix(22.72 0 0 -22.72 528.699 714.384)"/><use xlink:href="#m" transform="matrix(22.72 0 0 -22.72 540.83 716.201)"/><use xlink:href="#n" transform="matrix(22.72 0 0 -22.72 554.508 711.794)"/><use xlink:href="#s" transform="matrix(32 0 0 -32 565.986 704.12)"/><use xlink:href="#w" transform="matrix(22.72 0 0 -22.72 581.876 691.704)"/><use xlink:href="#p" transform="matrix(22.72 0 0 -22.72 578.487 713.853)"/><use xlink:href="#q" transform="matrix(22.72 0 0 -22.72 588.96 718.238)"/><use xlink:href="#r" transform="matrix(22.72 0 0 -22.72 599.912 713.762)"/><use xlink:href="#l" transform="matrix(22.72 0 0 -22.72 610.954 716.397)"/><use xlink:href="#m" transform="matrix(22.72 0 0 -22.72 623.086 718.215)"/><use xlink:href="#n" transform="matrix(22.72 0 0 -22.72 636.763 713.807)"/><use xlink:href="#A" transform="matrix(32 0 0 -32 648.529 709.208)"/></g><g data-name="P"><use xlink:href="#f" transform="matrix(32 0 0 -32 732.34 709.54)"/><use xlink:href="#g" transform="matrix(32 0 0 -32 748.291 709.54)"/><use xlink:href="#e" transform="matrix(32 0 0 -32 778.3 705.7)"/><use xlink:href="#j" transform="matrix(32 0 0 -32 808.085 709.955)"/><use xlink:href="#p" transform="matrix(22.72 0 0 -22.72 819.237 717.835)"/><use xlink:href="#q" transform="matrix(22.72 0 0 -22.72 829.711 722.22)"/><use xlink:href="#r" transform="matrix(22.72 0 0 -22.72 840.662 717.744)"/><use xlink:href="#l" transform="matrix(22.72 0 0 -22.72 851.704 720.38)"/><use xlink:href="#m" transform="matrix(22.72 0 0 -22.72 863.836 722.197)"/><use xlink:href="#n" transform="matrix(22.72 0 0 -22.72 877.514 717.79)"/><use xlink:href="#o" transform="matrix(32 0 0 -32 896.838 710.34)"/><use xlink:href="#u" transform="matrix(32 0 0 -32 924.59 715.203)"/><use xlink:href="#b" transform="matrix(32 0 0 -32 946.782 686.98)"/><use xlink:href="#c" transform="matrix(32 0 0 -32 966.014 686.98)"/><use xlink:href="#d" transform="matrix(32 0 0 -32 992.83 686.98)"/><path d="M935.381 700.387h89.073v2.112h-89.073z"/><use xlink:href="#s" transform="matrix(32 0 0 -32 939.221 734.115)"/><use xlink:href="#p" transform="matrix(22.72 0 0 -22.72 952.14 740.875)"/><use xlink:href="#q" transform="matrix(22.72 0 0 -22.72 962.614 745.26)"/><use xlink:href="#r" transform="matrix(22.72 0 0 -22.72 973.566 740.784)"/><use xlink:href="#l" transform="matrix(22.72 0 0 -22.72 984.607 743.42)"/><use xlink:href="#m" transform="matrix(22.72 0 0 -22.72 996.74 745.237)"/><use xlink:href="#n" transform="matrix(22.72 0 0 -22.72 1010.417 740.83)"/><use xlink:href="#t" transform="matrix(32 0 0 -32 1034.701 710.851)"/><use xlink:href="#u" transform="matrix(32 0 0 -32 1063.732 715.203)"/><use xlink:href="#D" transform="matrix(32 0 0 -32 1073.3 709.891)"/><use xlink:href="#s" transform="matrix(32 0 0 -32 1089.604 710.115)"/><use xlink:href="#w" transform="matrix(22.72 0 0 -22.72 1105.495 697.7)"/><use xlink:href="#p" transform="matrix(22.72 0 0 -22.72 1102.106 719.848)"/><use xlink:href="#q" transform="matrix(22.72 0 0 -22.72 1112.58 724.233)"/><use xlink:href="#r" transform="matrix(22.72 0 0 -22.72 1123.53 719.758)"/><use xlink:href="#l" transform="matrix(22.72 0 0 -22.72 1134.573 722.393)"/><use xlink:href="#m" transform="matrix(22.72 0 0 -22.72 1146.704 724.21)"/><use xlink:href="#n" transform="matrix(22.72 0 0 -22.72 1160.382 719.803)"/><use xlink:href="#A" transform="matrix(32 0 0 -32 1172.147 715.203)"/><use xlink:href="#A" transform="matrix(32 0 0 -32 1182.803 715.203)"/></g><g data-name="P"><use xlink:href="#f" transform="matrix(32 0 0 -32 1266.614 712.7)"/><use xlink:href="#g" transform="matrix(32 0 0 -32 1282.566 712.7)"/><use xlink:href="#e" transform="matrix(32 0 0 -32 1312.575 708.86)"/><use xlink:href="#j" transform="matrix(32 0 0 -32 1342.36 713.116)"/><use xlink:href="#p" transform="matrix(22.72 0 0 -22.72 1353.512 720.995)"/><use xlink:href="#q" transform="matrix(22.72 0 0 -22.72 1363.986 725.38)"/><use xlink:href="#r" transform="matrix(22.72 0 0 -22.72 1374.937 720.905)"/><use xlink:href="#l" transform="matrix(22.72 0 0 -22.72 1385.979 723.54)"/><use xlink:href="#m" transform="matrix(22.72 0 0 -22.72 1398.11 725.358)"/><use xlink:href="#n" transform="matrix(22.72 0 0 -22.72 1411.788 720.95)"/><use xlink:href="#o" transform="matrix(32 0 0 -32 1431.113 713.5)"/><use xlink:href="#u" transform="matrix(32 0 0 -32 1458.864 718.364)"/><use xlink:href="#f" transform="matrix(32 0 0 -32 1474.744 684.554)"/><use xlink:href="#g" transform="matrix(32 0 0 -32 1490.696 684.554)"/><use xlink:href="#h" transform="matrix(32 0 0 -32 1511.77 685.003)"/><use xlink:href="#i" transform="matrix(32 0 0 -32 1523.947 684.907)"/><use xlink:href="#j" transform="matrix(22.72 0 0 -22.72 1530.867 692.85)"/><use xlink:href="#i" transform="matrix(22.72 0 0 -22.72 1540.205 692.804)"/><use xlink:href="#k" transform="matrix(22.72 0 0 -22.72 1546.044 692.804)"/><use xlink:href="#l" transform="matrix(22.72 0 0 -22.72 1557.04 695.395)"/><use xlink:href="#m" transform="matrix(22.72 0 0 -22.72 1569.172 697.212)"/><use xlink:href="#n" transform="matrix(22.72 0 0 -22.72 1582.85 692.804)"/><path d="M1469.656 703.548h127.231v2.112h-127.231z"/><use xlink:href="#s" transform="matrix(32 0 0 -32 1492.575 737.276)"/><use xlink:href="#p" transform="matrix(22.72 0 0 -22.72 1505.494 744.035)"/><use xlink:href="#q" transform="matrix(22.72 0 0 -22.72 1515.968 748.42)"/><use xlink:href="#r" transform="matrix(22.72 0 0 -22.72 1526.92 743.945)"/><use xlink:href="#l" transform="matrix(22.72 0 0 -22.72 1537.961 746.58)"/><use xlink:href="#m" transform="matrix(22.72 0 0 -22.72 1550.093 748.398)"/><use xlink:href="#n" transform="matrix(22.72 0 0 -22.72 1563.77 743.99)"/><use xlink:href="#t" transform="matrix(32 0 0 -32 1607.134 714.012)"/><use xlink:href="#u" transform="matrix(32 0 0 -32 1636.165 718.364)"/><use xlink:href="#D" transform="matrix(32 0 0 -32 1645.733 713.052)"/><use xlink:href="#s" transform="matrix(32 0 0 -32 1662.037 713.276)"/><use xlink:href="#w" transform="matrix(22.72 0 0 -22.72 1677.928 700.86)"/><use xlink:href="#p" transform="matrix(22.72 0 0 -22.72 1674.539 723.01)"/><use xlink:href="#q" transform="matrix(22.72 0 0 -22.72 1685.012 727.394)"/><use xlink:href="#r" transform="matrix(22.72 0 0 -22.72 1695.964 722.918)"/><use xlink:href="#l" transform="matrix(22.72 0 0 -22.72 1707.005 725.554)"/><use xlink:href="#m" transform="matrix(22.72 0 0 -22.72 1719.137 727.371)"/><use xlink:href="#n" transform="matrix(22.72 0 0 -22.72 1732.815 722.964)"/><use xlink:href="#A" transform="matrix(32 0 0 -32 1744.58 718.364)"/><use xlink:href="#A" transform="matrix(32 0 0 -32 1755.236 718.364)"/></g><g data-name="P"><use xlink:href="#u" transform="matrix(32 0 0 -32 166.04 839.693)"/><use xlink:href="#f" transform="matrix(32 0 0 -32 203.664 811.47)"/><use xlink:href="#g" transform="matrix(32 0 0 -32 219.616 811.47)"/><path d="M176.832 824.877h87.313v2.112h-87.313z"/><use xlink:href="#j" transform="matrix(32 0 0 -32 180.544 858.445)"/><use xlink:href="#p" transform="matrix(22.72 0 0 -22.72 191.831 865.365)"/><use xlink:href="#q" transform="matrix(22.72 0 0 -22.72 202.305 869.75)"/><use xlink:href="#r" transform="matrix(22.72 0 0 -22.72 213.256 865.274)"/><use xlink:href="#l" transform="matrix(22.72 0 0 -22.72 224.298 867.91)"/><use xlink:href="#m" transform="matrix(22.72 0 0 -22.72 236.43 869.727)"/><use xlink:href="#n" transform="matrix(22.72 0 0 -22.72 250.107 865.32)"/><symbol id="E"><path d="M.557 0v.066H0V0h.557z"/></symbol><use xlink:href="#E" transform="matrix(32 0 0 -32 274.904 826.99)"/><use xlink:href="#f" transform="matrix(32 0 0 -32 306.975 805.884)"/><use xlink:href="#g" transform="matrix(32 0 0 -32 322.927 805.884)"/><use xlink:href="#h" transform="matrix(32 0 0 -32 344 806.332)"/><use xlink:href="#i" transform="matrix(32 0 0 -32 356.179 806.236)"/><use xlink:href="#j" transform="matrix(22.72 0 0 -22.72 363.098 814.179)"/><use xlink:href="#i" transform="matrix(22.72 0 0 -22.72 372.436 814.134)"/><use xlink:href="#k" transform="matrix(22.72 0 0 -22.72 378.275 814.134)"/><use xlink:href="#l" transform="matrix(22.72 0 0 -22.72 389.271 816.724)"/><use xlink:href="#m" transform="matrix(22.72 0 0 -22.72 401.403 818.541)"/><use xlink:href="#n" transform="matrix(22.72 0 0 -22.72 415.08 814.134)"/><path d="M301.887 824.877h127.231v2.112h-127.23z"/><use xlink:href="#s" transform="matrix(32 0 0 -32 324.806 858.605)"/><use xlink:href="#p" transform="matrix(22.72 0 0 -22.72 337.726 865.365)"/><use xlink:href="#q" transform="matrix(22.72 0 0 -22.72 348.2 869.75)"/><use xlink:href="#r" transform="matrix(22.72 0 0 -22.72 359.15 865.274)"/><use xlink:href="#l" transform="matrix(22.72 0 0 -22.72 370.192 867.91)"/><use xlink:href="#m" transform="matrix(22.72 0 0 -22.72 382.324 869.727)"/><use xlink:href="#n" transform="matrix(22.72 0 0 -22.72 396.002 865.32)"/><use xlink:href="#A" transform="matrix(32 0 0 -32 431.718 839.693)"/><use xlink:href="#e" transform="matrix(32 0 0 -32 451.87 830.19)"/><use xlink:href="#D" transform="matrix(32 0 0 -32 481.592 834.381)"/><use xlink:href="#s" transform="matrix(32 0 0 -32 497.896 834.605)"/><use xlink:href="#w" transform="matrix(22.72 0 0 -22.72 513.787 822.19)"/><use xlink:href="#p" transform="matrix(22.72 0 0 -22.72 510.397 844.338)"/><use xlink:href="#q" transform="matrix(22.72 0 0 -22.72 520.871 848.723)"/><use xlink:href="#r" transform="matrix(22.72 0 0 -22.72 531.822 844.247)"/><use xlink:href="#l" transform="matrix(22.72 0 0 -22.72 542.864 846.883)"/><use xlink:href="#m" transform="matrix(22.72 0 0 -22.72 554.996 848.7)"/><use xlink:href="#n" transform="matrix(22.72 0 0 -22.72 568.673 844.293)"/></g><g data-name="P"><use xlink:href="#D" transform="matrix(32 0 0 -32 713.454 833.246)"/><use xlink:href="#e" transform="matrix(32 0 0 -32 738.533 829.054)"/><use xlink:href="#v" transform="matrix(32 0 0 -32 807.735 810.334)"/><path d="M767.806 823.742h88.754v2.112h-88.754z"/><use xlink:href="#s" transform="matrix(32 0 0 -32 771.646 857.47)"/><use xlink:href="#w" transform="matrix(22.72 0 0 -22.72 787.042 848.574)"/><use xlink:href="#p" transform="matrix(22.72 0 0 -22.72 784.246 866.5)"/><use xlink:href="#q" transform="matrix(22.72 0 0 -22.72 794.72 870.884)"/><use xlink:href="#r" transform="matrix(22.72 0 0 -22.72 805.671 866.409)"/><use xlink:href="#l" transform="matrix(22.72 0 0 -22.72 816.713 869.044)"/><use xlink:href="#m" transform="matrix(22.72 0 0 -22.72 828.845 870.862)"/><use xlink:href="#n" transform="matrix(22.72 0 0 -22.72 842.522 866.454)"/><use xlink:href="#o" transform="matrix(32 0 0 -32 866.647 833.694)"/><use xlink:href="#u" transform="matrix(32 0 0 -32 894.398 838.558)"/><use xlink:href="#f" transform="matrix(32 0 0 -32 932.022 810.334)"/><use xlink:href="#g" transform="matrix(32 0 0 -32 947.974 810.334)"/><path d="M905.19 823.742h87.313v2.112H905.19z"/><use xlink:href="#j" transform="matrix(32 0 0 -32 908.902 857.31)"/><use xlink:href="#p" transform="matrix(22.72 0 0 -22.72 920.19 864.23)"/><use xlink:href="#q" transform="matrix(22.72 0 0 -22.72 930.663 868.615)"/><use xlink:href="#r" transform="matrix(22.72 0 0 -22.72 941.614 864.139)"/><use xlink:href="#l" transform="matrix(22.72 0 0 -22.72 952.656 866.774)"/><use xlink:href="#m" transform="matrix(22.72 0 0 -22.72 964.788 868.592)"/><use xlink:href="#n" transform="matrix(22.72 0 0 -22.72 978.465 864.184)"/><use xlink:href="#E" transform="matrix(32 0 0 -32 1003.262 825.854)"/><use xlink:href="#f" transform="matrix(32 0 0 -32 1035.333 804.749)"/><use xlink:href="#g" transform="matrix(32 0 0 -32 1051.285 804.749)"/><use xlink:href="#h" transform="matrix(32 0 0 -32 1072.359 805.197)"/><use xlink:href="#i" transform="matrix(32 0 0 -32 1084.536 805.1)"/><use xlink:href="#j" transform="matrix(22.72 0 0 -22.72 1091.456 813.044)"/><use xlink:href="#i" transform="matrix(22.72 0 0 -22.72 1100.794 812.999)"/><use xlink:href="#k" transform="matrix(22.72 0 0 -22.72 1106.633 812.999)"/><use xlink:href="#l" transform="matrix(22.72 0 0 -22.72 1117.63 815.589)"/><use xlink:href="#m" transform="matrix(22.72 0 0 -22.72 1129.76 817.406)"/><use xlink:href="#n" transform="matrix(22.72 0 0 -22.72 1143.438 812.999)"/><path d="M1030.245 823.742h127.231v2.112h-127.231z"/><use xlink:href="#s" transform="matrix(32 0 0 -32 1053.164 857.47)"/><use xlink:href="#p" transform="matrix(22.72 0 0 -22.72 1066.083 864.23)"/><use xlink:href="#q" transform="matrix(22.72 0 0 -22.72 1076.557 868.615)"/><use xlink:href="#r" transform="matrix(22.72 0 0 -22.72 1087.508 864.139)"/><use xlink:href="#l" transform="matrix(22.72 0 0 -22.72 1098.55 866.774)"/><use xlink:href="#m" transform="matrix(22.72 0 0 -22.72 1110.682 868.592)"/><use xlink:href="#n" transform="matrix(22.72 0 0 -22.72 1124.36 864.184)"/><use xlink:href="#A" transform="matrix(32 0 0 -32 1160.076 838.558)"/></g><g data-name="P"><use xlink:href="#D" transform="matrix(32 0 0 -32 1302.825 841.438)"/><use xlink:href="#e" transform="matrix(32 0 0 -32 1327.903 837.246)"/><use xlink:href="#f" transform="matrix(32 0 0 -32 1384.73 818.526)"/><use xlink:href="#g" transform="matrix(32 0 0 -32 1400.681 818.526)"/><path d="M1357.176 831.934h88.754v2.112h-88.754z"/><use xlink:href="#s" transform="matrix(32 0 0 -32 1361.016 865.662)"/><use xlink:href="#w" transform="matrix(22.72 0 0 -22.72 1376.413 856.766)"/><use xlink:href="#p" transform="matrix(22.72 0 0 -22.72 1373.617 874.691)"/><use xlink:href="#q" transform="matrix(22.72 0 0 -22.72 1384.09 879.076)"/><use xlink:href="#r" transform="matrix(22.72 0 0 -22.72 1395.042 874.6)"/><use xlink:href="#l" transform="matrix(22.72 0 0 -22.72 1406.084 877.236)"/><use xlink:href="#m" transform="matrix(22.72 0 0 -22.72 1418.215 879.053)"/><use xlink:href="#n" transform="matrix(22.72 0 0 -22.72 1431.893 874.646)"/><use xlink:href="#o" transform="matrix(32 0 0 -32 1456.017 841.886)"/><use xlink:href="#u" transform="matrix(32 0 0 -32 1483.768 846.75)"/><use xlink:href="#v" transform="matrix(32 0 0 -32 1533.769 818.526)"/><path d="M1494.56 831.934h87.313v2.112h-87.313z"/><use xlink:href="#j" transform="matrix(32 0 0 -32 1498.273 865.502)"/><use xlink:href="#p" transform="matrix(22.72 0 0 -22.72 1509.56 872.421)"/><use xlink:href="#q" transform="matrix(22.72 0 0 -22.72 1520.034 876.806)"/><use xlink:href="#r" transform="matrix(22.72 0 0 -22.72 1530.985 872.33)"/><use xlink:href="#l" transform="matrix(22.72 0 0 -22.72 1542.027 874.966)"/><use xlink:href="#m" transform="matrix(22.72 0 0 -22.72 1554.159 876.784)"/><use xlink:href="#n" transform="matrix(22.72 0 0 -22.72 1567.836 872.376)"/><use xlink:href="#E" transform="matrix(32 0 0 -32 1592.633 834.046)"/><use xlink:href="#v" transform="matrix(32 0 0 -32 1626.368 812.94)"/><use xlink:href="#h" transform="matrix(32 0 0 -32 1640.306 813.388)"/><use xlink:href="#i" transform="matrix(32 0 0 -32 1652.483 813.292)"/><use xlink:href="#j" transform="matrix(22.72 0 0 -22.72 1659.402 821.236)"/><use xlink:href="#i" transform="matrix(22.72 0 0 -22.72 1668.74 821.19)"/><use xlink:href="#k" transform="matrix(22.72 0 0 -22.72 1674.58 821.19)"/><use xlink:href="#l" transform="matrix(22.72 0 0 -22.72 1685.576 823.78)"/><use xlink:href="#m" transform="matrix(22.72 0 0 -22.72 1697.708 825.598)"/><use xlink:href="#n" transform="matrix(22.72 0 0 -22.72 1711.385 821.19)"/><path d="M1619.615 831.934h105.807v2.112h-105.807z"/><use xlink:href="#s" transform="matrix(32 0 0 -32 1631.823 865.662)"/><use xlink:href="#p" transform="matrix(22.72 0 0 -22.72 1644.742 872.421)"/><use xlink:href="#q" transform="matrix(22.72 0 0 -22.72 1655.216 876.806)"/><use xlink:href="#r" transform="matrix(22.72 0 0 -22.72 1666.167 872.33)"/><use xlink:href="#l" transform="matrix(22.72 0 0 -22.72 1677.209 874.966)"/><use xlink:href="#m" transform="matrix(22.72 0 0 -22.72 1689.34 876.784)"/><use xlink:href="#n" transform="matrix(22.72 0 0 -22.72 1703.018 872.376)"/><use xlink:href="#A" transform="matrix(32 0 0 -32 1728.023 846.75)"/></g><g data-name="P"><use xlink:href="#D" transform="matrix(32 0 0 -32 703.338 979.268)"/><use xlink:href="#e" transform="matrix(32 0 0 -32 728.416 975.076)"/><use xlink:href="#f" transform="matrix(32 0 0 -32 785.242 956.356)"/><use xlink:href="#g" transform="matrix(32 0 0 -32 801.194 956.356)"/><path d="M757.69 969.764h88.753v2.112H757.69z"/><use xlink:href="#s" transform="matrix(32 0 0 -32 761.53 1003.492)"/><use xlink:href="#w" transform="matrix(22.72 0 0 -22.72 776.925 994.596)"/><use xlink:href="#p" transform="matrix(22.72 0 0 -22.72 774.13 1012.52)"/><use xlink:href="#q" transform="matrix(22.72 0 0 -22.72 784.603 1016.906)"/><use xlink:href="#r" transform="matrix(22.72 0 0 -22.72 795.554 1012.43)"/><use xlink:href="#l" transform="matrix(22.72 0 0 -22.72 806.596 1015.065)"/><use xlink:href="#m" transform="matrix(22.72 0 0 -22.72 818.728 1016.883)"/><use xlink:href="#n" transform="matrix(22.72 0 0 -22.72 832.406 1012.475)"/><use xlink:href="#o" transform="matrix(32 0 0 -32 856.53 979.716)"/><use xlink:href="#u" transform="matrix(32 0 0 -32 884.281 984.58)"/><use xlink:href="#v" transform="matrix(32 0 0 -32 934.282 956.356)"/><path d="M895.073 969.764h87.313v2.112h-87.313z"/><use xlink:href="#j" transform="matrix(32 0 0 -32 898.785 1003.332)"/><use xlink:href="#p" transform="matrix(22.72 0 0 -22.72 910.073 1010.25)"/><use xlink:href="#q" transform="matrix(22.72 0 0 -22.72 920.547 1014.636)"/><use xlink:href="#r" transform="matrix(22.72 0 0 -22.72 931.498 1010.16)"/><use xlink:href="#l" transform="matrix(22.72 0 0 -22.72 942.54 1012.796)"/><use xlink:href="#m" transform="matrix(22.72 0 0 -22.72 954.671 1014.613)"/><use xlink:href="#n" transform="matrix(22.72 0 0 -22.72 968.349 1010.206)"/><use xlink:href="#E" transform="matrix(32 0 0 -32 993.145 971.876)"/><use xlink:href="#v" transform="matrix(32 0 0 -32 1095.762 956.356)"/><path d="M1020.128 969.764h160.164v2.112h-160.164z"/><use xlink:href="#s" transform="matrix(32 0 0 -32 1023.968 1003.492)"/><use xlink:href="#p" transform="matrix(22.72 0 0 -22.72 1036.888 1010.25)"/><use xlink:href="#q" transform="matrix(22.72 0 0 -22.72 1047.362 1014.636)"/><use xlink:href="#r" transform="matrix(22.72 0 0 -22.72 1058.313 1010.16)"/><use xlink:href="#l" transform="matrix(22.72 0 0 -22.72 1069.355 1012.796)"/><use xlink:href="#m" transform="matrix(22.72 0 0 -22.72 1081.486 1014.613)"/><use xlink:href="#n" transform="matrix(22.72 0 0 -22.72 1095.164 1010.206)"/><use xlink:href="#i" transform="matrix(32 0 0 -32 1107.217 1003.268)"/><use xlink:href="#j" transform="matrix(22.72 0 0 -22.72 1114.272 1010.25)"/><use xlink:href="#i" transform="matrix(22.72 0 0 -22.72 1123.61 1010.206)"/><use xlink:href="#k" transform="matrix(22.72 0 0 -22.72 1129.448 1010.206)"/><use xlink:href="#l" transform="matrix(22.72 0 0 -22.72 1140.445 1012.796)"/><use xlink:href="#m" transform="matrix(22.72 0 0 -22.72 1152.577 1014.613)"/><use xlink:href="#n" transform="matrix(22.72 0 0 -22.72 1166.254 1010.206)"/><use xlink:href="#A" transform="matrix(32 0 0 -32 1182.892 984.58)"/></g><g data-name="P"><symbol id="F"><path d="M.207 0a.207.207 0 0 0-.153.055A.194.194 0 0 0 0 .197V.55h.102V.201c0-.04.011-.07.033-.091C.158.09.191.08.234.08c.069 0 .123.03.162.092V.55h.102V.015H.399v.072A.242.242 0 0 0 .207 0z"/></symbol><use xlink:href="#F" transform="matrix(48 0 0 -48 508.324 76.969)"/><g data-name="Span"><symbol id="G"><path d="M.11 0C.08 0 .054.01.033.032A.103.103 0 0 0 0 .109c0 .03.011.057.033.078A.103.103 0 0 0 .11.22C.14.22.166.209.188.187A.106.106 0 0 0 .22.109C.22.079.21.053.188.032A.108.108 0 0 0 .11 0m0 .062c.012 0 .023.005.032.014a.05.05 0 0 1 .013.033.046.046 0 0 1-.013.032.044.044 0 0 1-.032.014.04.04 0 0 1-.031-.014.044.044 0 0 1-.014-.032C.065.097.07.086.079.076A.04.04 0 0 1 .11.062z"/></symbol><symbol id="H"><path d="M.238.346C.238.389.229.42.212.439.195.459.164.469.12.469A.265.265 0 0 1 0 .441v.08A.342.342 0 0 0 .139.55C.206.55.257.532.29.495.323.459.34.407.34.339V0H.238v.346z"/></symbol><use xlink:href="#G" transform="matrix(48 0 0 -48 523.876 47.209)"/><use xlink:href="#H" transform="matrix(48 0 0 -48 536.068 76.249)"/></g><symbol id="I"><path d="M0 .699h.269A.26.26 0 0 0 .447.642a.198.198 0 0 0 .066-.16C.513.412.491.358.448.321A.272.272 0 0 0 .269.267H.102V0H0v.699M.258.352c.047 0 .084.01.111.029.027.02.041.053.041.101C.41.53.396.564.369.583a.184.184 0 0 1-.111.03H.102V.352h.156z"/></symbol><symbol id="J"><path d="M0 .699h.321c.062 0 .11-.016.144-.048C.499.619.516.572.516.511A.17.17 0 0 0 .491.419.15.15 0 0 0 .427.361C.502.339.539.285.539.198A.202.202 0 0 0 .512.092.177.177 0 0 0 .44.024.217.217 0 0 0 .338 0H0v.699m.308-.3c.033 0 .058.009.077.027.019.018.028.045.028.08 0 .04-.01.069-.028.085C.367.608.339.616.301.616H.102V.399h.206M.315.083c.04 0 .07.009.09.026.02.017.031.047.031.089C.436.24.425.27.403.288.382.306.349.315.306.315H.102V.083h.213z"/></symbol><symbol id="K"><path d="M0 0z"/></symbol><use xlink:href="#I" transform="matrix(48 0 0 -48 576.388 76.249)"/><use xlink:href="#J" transform="matrix(48 0 0 -48 605.332 76.249)"/><use xlink:href="#K" transform="matrix(48 0 0 -48 633.364 76.249)"/><symbol id="L"><path d="M.24 0a.29.29 0 0 0-.125.025.192.192 0 0 0-.082.07A.198.198 0 0 0 .005.2v.034c0 .023.005.043.014.062.01.019.023.04.041.065.013.017.022.03.028.041a.069.069 0 0 1 .009.032c0 .013-.003.022-.01.027C.081.466.071.469.056.469H0V.55h.105A.089.089 0 0 0 .2.457.123.123 0 0 0 .188.403.523.523 0 0 0 .152.344.578.578 0 0 1 .117.286a.115.115 0 0 1-.01-.048V.201A.12.12 0 0 1 .14.111C.163.091.196.08.24.08c.044 0 .077.01.098.032A.127.127 0 0 1 .37.204V.55h.102V.221A.215.215 0 0 0 .411.059.236.236 0 0 0 .24 0z"/></symbol><symbol id="M"><path d="M.218 0a.477.477 0 0 0-.12.015.314.314 0 0 0-.098.04v.266h.222V.239h-.12V.106A.223.223 0 0 1 .218.08c.064 0 .113.018.146.053.034.035.051.087.051.154S.398.404.363.436C.329.468.273.484.195.484A.492.492 0 0 1 .091.473.239.239 0 0 1 .005.44v.081a.318.318 0 0 0 .092.033.56.56 0 0 0 .114.011c.1 0 .176-.024.229-.073A.265.265 0 0 0 .519.287.28.28 0 0 0 .44.077C.388.026.314 0 .218 0z"/></symbol><symbol id="N"><path d="M0 .468h.102L.229.08C.292.08.34.097.374.132a.201.201 0 0 1 .051.147.24.24 0 0 1-.035.142C.367.453.33.469.278.469A.272.272 0 0 1 .208.46v.079A.327.327 0 0 0 .295.55C.371.55.429.526.469.478a.302.302 0 0 0 .06-.199.285.285 0 0 0-.038-.15A.246.246 0 0 0 .39.033.305.305 0 0 0 .248 0H.152L0 .468z"/></symbol><use xlink:href="#L" transform="matrix(48 0 0 -48 653.284 76.969)"/><use xlink:href="#M" transform="matrix(48 0 0 -48 681.22 76.969)"/><use xlink:href="#N" transform="matrix(48 0 0 -48 710.452 76.249)"/><use xlink:href="#K" transform="matrix(48 0 0 -48 738.004 76.249)"/><symbol id="O"><path d="M.214 0c-.04 0-.08.004-.119.011A.36.36 0 0 0 0 .039v.092A.482.482 0 0 1 .207.086c.104 0 .156.035.156.105a.092.092 0 0 1-.017.058.14.14 0 0 1-.049.038 1.202 1.202 0 0 1-.104.046.394.394 0 0 0-.143.088.172.172 0 0 0-.044.121c0 .037.01.069.03.097A.19.19 0 0 0 .12.705a.303.303 0 0 0 .124.024A.539.539 0 0 0 .347.72a.405.405 0 0 0 .09-.029V.603a.427.427 0 0 1-.176.039.194.194 0 0 1-.11-.026.084.084 0 0 1-.038-.074c0-.022.005-.04.016-.056a.16.16 0 0 1 .049-.04A1.27 1.27 0 0 1 .275.403.731.731 0 0 0 .387.348.177.177 0 0 0 .449.284.18.18 0 0 0 .471.191.168.168 0 0 0 .406.05.311.311 0 0 0 .214 0z"/></symbol><symbol id="P"><path d="M.217.613H0v.086h.537V.613H.32V0H.217v.613z"/></symbol><symbol id="Q"><path d="M.279.699h.098L.656 0H.552l-.07.174H.173L.105 0H0l.279.699m.175-.44L.328.586.202.259h.252z"/></symbol><use xlink:href="#O" transform="matrix(48 0 0 -48 757.924 76.969)"/><use xlink:href="#P" transform="matrix(48 0 0 -48 782.692 76.249)"/><use xlink:href="#Q" transform="matrix(48 0 0 -48 805.828 76.249)"/><use xlink:href="#K" transform="matrix(48 0 0 -48 839.476 76.249)"/><symbol id="R"><path d="M.1 0C.067 0 .042.009.025.027A.113.113 0 0 0 0 .105v.43h.102V.133c0-.018.004-.03.011-.038.007-.007.02-.01.038-.01h.036V0H.1m.257 0C.325 0 .3.01.283.028a.109.109 0 0 0-.026.077v.43h.102V.133c0-.018.004-.03.011-.038.008-.007.021-.01.039-.01h.036V0H.357z"/></symbol><symbol id="S"><path d="M.194 0a.215.215 0 0 0-.142.044A.159.159 0 0 0 0 .171C0 .225.02.268.058.3c.04.032.092.048.159.048A.415.415 0 0 0 .395.311v.041c0 .046-.013.08-.038.1C.332.473.291.484.233.484A.488.488 0 0 1 .059.45v.08a.576.576 0 0 0 .189.035C.331.565.394.546.435.508A.199.199 0 0 0 .497.354V.015H.395V.23a.364.364 0 0 1-.167.037C.185.267.153.259.132.243.112.227.102.203.102.171.102.111.141.08.219.08c.024 0 .045.003.063.01V.011A.304.304 0 0 0 .194 0z"/></symbol><symbol id="T"><path d="M.08.273C.05.273.03.28.018.293.006.306 0 .327 0 .354v.057h.092V.373c0-.01.002-.018.007-.023C.104.346.112.344.124.344h.117V.273H.08M.08 0C.05 0 .03.007.018.02.006.033 0 .054 0 .081v.057h.092V.1c0-.01.002-.018.007-.023C.104.073.112.071.124.071h.117V0H.08z"/></symbol><use xlink:href="#R" transform="matrix(48 0 0 -48 860.356 76.249)"/><use xlink:href="#S" transform="matrix(48 0 0 -48 886.036 76.969)"/><use xlink:href="#T" transform="matrix(48 0 0 -48 915.172 73.753)"/><use xlink:href="#K" transform="matrix(48 0 0 -48 928.9 76.249)"/><symbol id="U"><path d="M0 .699h.225A.43.43 0 0 0 .421.657a.295.295 0 0 0 .127-.12.362.362 0 0 0 .045-.184C.593.237.559.149.492.089A.408.408 0 0 0 .211 0H0v.699M.21.085c.093 0 .163.023.21.069C.467.2.49.266.49.353c0 .08-.023.143-.069.19-.045.047-.11.07-.195.07H.102V.085H.21z"/></symbol><symbol id="V"><path d="M.254.265 0 .699h.109L.304.362l.198.337H.61L.353.265V0H.254v.265z"/></symbol><symbol id="W"><path d="M0 .699h.097L.453.172v.527h.103V0H.458L.102.527V0H0v.699z"/></symbol><use xlink:href="#U" transform="matrix(48 0 0 -48 949.78 76.249)"/><use xlink:href="#V" transform="matrix(48 0 0 -48 978.004 76.249)"/><use xlink:href="#W" transform="matrix(48 0 0 -48 1010.404 76.249)"/><use xlink:href="#K" transform="matrix(48 0 0 -48 1040.212 76.249)"/><symbol id="X"><path d="M.291 0a.258.258 0 0 0-.193.087V.015H0V.55h.102V.172A.183.183 0 0 1 .264.08C.307.08.34.09.362.11c.023.02.034.051.034.091V.55h.102V.197A.192.192 0 0 0 .443.055.205.205 0 0 0 .291 0z"/></symbol><symbol id="Y"><path d="M0 .535h.098V.463c.026.03.056.051.091.065A.277.277 0 0 0 .296.55C.361.55.411.532.446.496A.192.192 0 0 0 .498.357V0H.396v.352c0 .037-.01.066-.031.086-.02.02-.053.031-.096.031A.186.186 0 0 1 .102.378V0H0v.535z"/></symbol><symbol id="Z"><path d="M0 .331c0 .07.023.123.068.161A.279.279 0 0 0 .255.55.28.28 0 0 0 .441.493.2.2 0 0 0 .509.331V0H.407v.334c0 .045-.013.079-.04.101a.168.168 0 0 1-.112.034.17.17 0 0 1-.113-.034C.115.413.102.379.102.334V.232A.091.091 0 0 0 .143.27c.019.01.04.015.066.015h.08V.201H.201A.095.095 0 0 1 .13.171.094.094 0 0 1 .102.104V0H0v.331z"/></symbol><symbol id="aa"><path d="M0 .167h.101V0H0v.167z"/></symbol><symbol id="ab"><path d="M.199 0C.166 0 .141.009.124.027a.113.113 0 0 0-.025.078v.379c0 .045.006.081.019.11a.16.16 0 0 0 .064.071H0v.086h.315V.669A.191.191 0 0 1 .228.602.206.206 0 0 1 .201.488V.134c0-.018.004-.03.011-.038.007-.007.02-.01.038-.01h.036V0H.199z"/></symbol><symbol id="ac"><path d="M.257 0a.258.258 0 0 0-.189.068C.023.113 0 .18 0 .268a.34.34 0 0 0 .035.159.243.243 0 0 0 .102.102.323.323 0 0 0 .157.036C.388.565.457.543.5.498A.23.23 0 0 0 .565.329V.015H.463V.33c0 .103-.056.154-.169.154a.18.18 0 0 1-.14-.056C.12.391.103.338.103.268c0-.064.014-.111.043-.142C.175.096.217.08.274.08c.025 0 .049.003.07.01V.011A.294.294 0 0 0 .257 0z"/></symbol><symbol id="ad"><path d="M.066.063C.066.071.065.077.062.08.059.083.053.085.045.085H0v.072h.075C.096.157.112.152.122.141A.054.054 0 0 0 .136.103V.068h.205V0H.066v.063z"/></symbol><use xlink:href="#X" transform="matrix(48 0 0 -48 1061.092 76.969)"/><use xlink:href="#H" transform="matrix(48 0 0 -48 1088.836 76.249)"/><use xlink:href="#R" transform="matrix(48 0 0 -48 1111.396 76.249)"/><use xlink:href="#Y" transform="matrix(48 0 0 -48 1138.036 76.249)"/><use xlink:href="#F" transform="matrix(48 0 0 -48 1168.18 76.969)"/><use xlink:href="#Z" transform="matrix(48 0 0 -48 1198.324 76.249)"/><use xlink:href="#aa" transform="matrix(48 0 0 -48 1218.004 46.777)"/><use xlink:href="#H" transform="matrix(48 0 0 -48 1226.596 76.249)"/><use xlink:href="#ab" transform="matrix(48 0 0 -48 1246.036 76.201)"/><use xlink:href="#ac" transform="matrix(48 0 0 -48 1264.036 76.969)"/><use xlink:href="#ad" transform="matrix(48 0 0 -48 1277.668 46.777)"/></g><g data-name="P"><use xlink:href="#j" transform="matrix(48 0 0 -48 518.285 215.338)"/><use xlink:href="#p" transform="matrix(34.08 0 0 -34.08 535.014 227.157)"/><use xlink:href="#q" transform="matrix(34.08 0 0 -34.08 550.725 233.734)"/><use xlink:href="#r" transform="matrix(34.08 0 0 -34.08 567.151 227.02)"/><use xlink:href="#l" transform="matrix(34.08 0 0 -34.08 583.714 230.974)"/><use xlink:href="#m" transform="matrix(34.08 0 0 -34.08 601.295 233.7)"/><use xlink:href="#n" transform="matrix(34.08 0 0 -34.08 621.81 227.089)"/></g><g data-name="P"><use xlink:href="#s" transform="matrix(48 0 0 -48 518.285 290.375)"/><use xlink:href="#p" transform="matrix(34.08 0 0 -34.08 537.462 301.954)"/><use xlink:href="#q" transform="matrix(34.08 0 0 -34.08 553.173 308.532)"/><use xlink:href="#r" transform="matrix(34.08 0 0 -34.08 569.6 301.818)"/><use xlink:href="#l" transform="matrix(34.08 0 0 -34.08 586.162 305.771)"/><use xlink:href="#m" transform="matrix(34.08 0 0 -34.08 603.743 308.498)"/><use xlink:href="#n" transform="matrix(34.08 0 0 -34.08 624.259 301.886)"/></g><g data-name="P"><use xlink:href="#i" transform="matrix(48 0 0 -48 518.285 367.397)"/><use xlink:href="#j" transform="matrix(34.08 0 0 -34.08 528.664 379.312)"/><use xlink:href="#i" transform="matrix(34.08 0 0 -34.08 542.67 379.244)"/><use xlink:href="#k" transform="matrix(34.08 0 0 -34.08 551.43 379.244)"/><use xlink:href="#l" transform="matrix(34.08 0 0 -34.08 567.924 383.13)"/><use xlink:href="#m" transform="matrix(34.08 0 0 -34.08 585.504 385.856)"/><use xlink:href="#n" transform="matrix(34.08 0 0 -34.08 606.02 379.244)"/></g><g data-name="P"><symbol id="ae"><path d="M0 .067h.201v.109h.075V.067h.081v.109h.074V0H0v.067z"/></symbol><use xlink:href="#Z" transform="matrix(32 0 0 -32 658.03 227.495)"/><use xlink:href="#ae" transform="matrix(32 0 0 -32 660.493 207.847)"/><use xlink:href="#M" transform="matrix(32 0 0 -32 677.837 227.975)"/><use xlink:href="#K" transform="matrix(32 0 0 -32 695.885 227.495)"/><symbol id="af"><path d="M.204 0a.503.503 0 0 0-.112.013.225.225 0 0 0-.089.036v.082A.37.37 0 0 1 .291.093c.02.01.029.029.029.054a.061.061 0 0 1-.014.042.114.114 0 0 1-.043.028.88.88 0 0 1-.089.03.38.38 0 0 0-.131.063A.127.127 0 0 0 0 .412c0 .05.019.087.057.113.038.027.09.04.156.04A.395.395 0 0 0 .39.523V.439a.34.34 0 0 1-.168.045C.142.484.102.46.102.412.102.394.107.38.118.369A.141.141 0 0 1 .162.342C.181.335.212.326.255.313a.432.432 0 0 0 .1-.041A.13.13 0 0 0 .406.22.164.164 0 0 0 .421.146.126.126 0 0 0 .367.04C.331.013.277 0 .204 0z"/></symbol><symbol id="ag"><path d="M.254 0a.34.34 0 0 0-.185.044A.143.143 0 0 0 0 .172a.127.127 0 0 0 .09.124.154.154 0 0 0-.063.049.124.124 0 0 0-.023.074c0 .044.015.08.044.106.03.027.072.04.129.04A.31.31 0 0 0 .226.561a.3.3 0 0 0 .04-.007v-.08a.25.25 0 0 1-.071.01.101.101 0 0 1-.066-.019C.114.453.107.435.107.413c0-.024.008-.042.024-.055C.147.345.171.339.202.339h.064V.255H.203A.115.115 0 0 1 .129.234C.112.221.103.2.103.172c0-.03.013-.052.04-.068A.22.22 0 0 1 .254.08c.11 0 .165.047.165.14v.33h.102V.222a.203.203 0 0 0-.112-.19A.325.325 0 0 0 .254 0z"/></symbol><use xlink:href="#af" transform="matrix(32 0 0 -32 709.165 227.975)"/><use xlink:href="#T" transform="matrix(32 0 0 -32 725.517 225.83)"/><use xlink:href="#ag" transform="matrix(32 0 0 -32 736.11 227.975)"/><use xlink:href="#T" transform="matrix(32 0 0 -32 756.301 225.83)"/><use xlink:href="#Y" transform="matrix(32 0 0 -32 767.533 227.495)"/><use xlink:href="#H" transform="matrix(32 0 0 -32 786.03 227.495)"/><use xlink:href="#N" transform="matrix(32 0 0 -32 800.43 227.495)"/><use xlink:href="#K" transform="matrix(32 0 0 -32 818.797 227.495)"/><use xlink:href="#I" transform="matrix(32 0 0 -32 832.717 227.495)"/><use xlink:href="#J" transform="matrix(32 0 0 -32 852.013 227.495)"/><use xlink:href="#K" transform="matrix(32 0 0 -32 870.701 227.495)"/><use xlink:href="#U" transform="matrix(32 0 0 -32 884.621 227.495)"/><use xlink:href="#V" transform="matrix(32 0 0 -32 903.437 227.495)"/><use xlink:href="#W" transform="matrix(32 0 0 -32 925.037 227.495)"/></g><g data-name="P"><use xlink:href="#Z" transform="matrix(32 0 0 -32 658.03 299.433)"/><use xlink:href="#ae" transform="matrix(32 0 0 -32 660.493 279.785)"/><use xlink:href="#M" transform="matrix(32 0 0 -32 677.837 299.913)"/><use xlink:href="#K" transform="matrix(32 0 0 -32 695.885 299.433)"/><symbol id="ah"><path d="M.195 0A.356.356 0 0 0 0 .045v.082A.298.298 0 0 1 .175.08C.24.08.291.097.327.131c.037.034.055.084.055.151 0 .067-.018.117-.055.151a.213.213 0 0 1-.152.051.298.298 0 0 1-.173-.047V.52c.047.03.111.045.193.045C.285.565.356.54.408.49A.273.273 0 0 0 .486.282.273.273 0 0 0 .408.074.297.297 0 0 0 .195 0z"/></symbol><symbol id="ai"><path d="M.1 0C.067 0 .042.009.025.027A.113.113 0 0 0 0 .105v.43h.102V.133c0-.018.004-.03.011-.038.007-.007.02-.01.038-.01h.036V0H.1z"/></symbol><symbol id="aj"><path d="M.115 0a.116.116 0 0 0-.084.03A.104.104 0 0 0 0 .108C0 .148.012.179.035.2a.14.14 0 0 0 .096.031h.237V.173h-.23C.115.173.098.168.088.159.077.149.071.135.071.115c0-.018.005-.032.014-.041A.053.053 0 0 1 .124.06c.019 0 .033.005.043.015.01.01.014.023.014.04h.058c0-.034.019-.051.056-.051h.056v-.06H.296a.118.118 0 0 0-.057.013.06.06 0 0 0-.03.034.079.079 0 0 0-.034-.036A.118.118 0 0 0 .115 0z"/></symbol><use xlink:href="#Z" transform="matrix(32 0 0 -32 709.805 299.433)"/><use xlink:href="#ah" transform="matrix(32 0 0 -32 729.613 299.913)"/><use xlink:href="#H" transform="matrix(32 0 0 -32 747.085 299.433)"/><use xlink:href="#X" transform="matrix(32 0 0 -32 762.125 299.913)"/><use xlink:href="#ai" transform="matrix(32 0 0 -32 782.221 299.433)"/><use xlink:href="#af" transform="matrix(32 0 0 -32 791.085 299.913)"/><use xlink:href="#aj" transform="matrix(32 0 0 -32 791.053 279.913)"/><use xlink:href="#ah" transform="matrix(32 0 0 -32 807.437 299.913)"/><use xlink:href="#K" transform="matrix(32 0 0 -32 824.43 299.433)"/><use xlink:href="#I" transform="matrix(32 0 0 -32 838.35 299.433)"/><use xlink:href="#J" transform="matrix(32 0 0 -32 857.645 299.433)"/><use xlink:href="#K" transform="matrix(32 0 0 -32 876.333 299.433)"/><use xlink:href="#U" transform="matrix(32 0 0 -32 890.253 299.433)"/><use xlink:href="#V" transform="matrix(32 0 0 -32 909.07 299.433)"/><use xlink:href="#W" transform="matrix(32 0 0 -32 930.67 299.433)"/></g><g data-name="P"><use xlink:href="#Z" transform="matrix(32 0 0 -32 658.03 374.255)"/><use xlink:href="#ae" transform="matrix(32 0 0 -32 660.493 354.607)"/><use xlink:href="#M" transform="matrix(32 0 0 -32 677.837 374.735)"/><use xlink:href="#K" transform="matrix(32 0 0 -32 695.885 374.255)"/><use xlink:href="#ai" transform="matrix(32 0 0 -32 709.805 374.255)"/><use xlink:href="#ah" transform="matrix(32 0 0 -32 718.67 374.735)"/><use xlink:href="#S" transform="matrix(32 0 0 -32 737.101 374.735)"/><use xlink:href="#H" transform="matrix(32 0 0 -32 755.565 374.255)"/><g data-name="Span"><symbol id="ak"><path d="M0 .069h.339v.107h.093V0H0v.069z"/></symbol><symbol id="al"><path d="M0 .133h.092V0H0v.133z"/></symbol><use xlink:href="#Y" transform="matrix(32 0 0 -32 770.605 374.255)"/><use xlink:href="#ak" transform="matrix(32 0 0 -32 772.685 354.607)"/><use xlink:href="#al" transform="matrix(32 0 0 -32 783.565 347.279)"/></g><symbol id="am"><path d="M.05.333 0 .414a.36.36 0 0 0 .121.101.348.348 0 0 0 .161.035C.362.55.423.532.466.495A.188.188 0 0 0 .53.343V0H.428v.335c0 .046-.012.08-.037.101C.367.458.331.469.282.469A.257.257 0 0 1 .185.452.204.204 0 0 1 .109.4L.152.333V0H.05v.333z"/></symbol><use xlink:href="#am" transform="matrix(32 0 0 -32 790.061 374.255)"/><g data-name="Span"><symbol id="an"><path d="M.082 0C.053 0 .032.007.02.021.007.036 0 .057 0 .086v.052h.092v-.04c0-.011.002-.019.007-.023C.103.071.111.069.123.069h.236V0H.082z"/></symbol><symbol id="ao"><path d="M.063.057C.063.065.062.07.059.073.056.076.051.078.042.078H0v.068h.072C.111.146.13.129.13.095V.063h.169V0H.063v.057z"/></symbol><use xlink:href="#S" transform="matrix(32 0 0 -32 810.541 374.735)"/><use xlink:href="#an" transform="matrix(32 0 0 -32 817.805 354.607)"/><use xlink:href="#ao" transform="matrix(32 0 0 -32 819.085 348.687)"/></g><symbol id="ap"><path d="M.174 0C.141 0 .116.009.099.027a.113.113 0 0 0-.025.078v.271a.18.18 0 0 0 .018.085c.012.023.03.048.052.075A.266.266 0 0 1 .177.58a.072.072 0 0 1 .011.038C.188.64.182.656.17.666.159.676.139.681.11.681A.188.188 0 0 1 0 .647v.08c.02.011.041.02.065.026a.32.32 0 0 0 .076.009C.191.762.229.75.254.725A.128.128 0 0 0 .292.629.115.115 0 0 0 .278.572a.348.348 0 0 0-.04-.056A.43.43 0 0 1 .191.45.153.153 0 0 1 .176.379V.133c0-.018.004-.03.011-.038.007-.007.02-.01.038-.01h.036V0H.174z"/></symbol><use xlink:href="#F" transform="matrix(32 0 0 -32 830.605 374.735)"/><use xlink:href="#ab" transform="matrix(32 0 0 -32 848.621 374.223)"/><use xlink:href="#ac" transform="matrix(32 0 0 -32 860.621 374.735)"/><use xlink:href="#ad" transform="matrix(32 0 0 -32 869.71 354.607)"/><use xlink:href="#ap" transform="matrix(32 0 0 -32 880.621 374.255)"/><use xlink:href="#F" transform="matrix(32 0 0 -32 892.525 374.735)"/><use xlink:href="#K" transform="matrix(32 0 0 -32 910.541 374.255)"/><use xlink:href="#O" transform="matrix(32 0 0 -32 923.821 374.735)"/><use xlink:href="#P" transform="matrix(32 0 0 -32 940.333 374.255)"/><use xlink:href="#Q" transform="matrix(32 0 0 -32 955.757 374.255)"/></g></g></svg>