<svg xmlns="http://www.w3.org/2000/svg" xmlns:xlink="http://www.w3.org/1999/xlink" width="2560" height="1440" viewBox="0 0 1920 1080"><clipPath id="a"><path transform="matrix(1 0 0 -1 0 1080)" d="M0 0h1920v1080H0z"/></clipPath><g clip-path="url(#a)"><path d="M0 0h1920v1080H0z" fill="#fff"/><g data-name="P"><symbol id="b"><path d="M.229 0a.662.662 0 0 0-.124.012.286.286 0 0 0-.099.033v.132A.407.407 0 0 1 .272.13c.015.006.022.016.022.03 0 .013-.007.023-.021.03a.552.552 0 0 1-.078.029l-.031.01a.343.343 0 0 0-.125.065A.138.138 0 0 0 0 .398a.14.14 0 0 0 .064.123c.043.03.1.044.171.044.04 0 .079-.004.116-.012a.327.327 0 0 0 .09-.031V.388a.328.328 0 0 1-.173.05C.209.438.18.425.18.398.18.385.187.374.202.367A.534.534 0 0 1 .277.341L.315.329A.26.26 0 0 0 .44.26.154.154 0 0 0 .474.157.133.133 0 0 0 .412.043.318.318 0 0 0 .229 0z"/></symbol><symbol id="c"><path d="M.101.268c-.035 0-.06.008-.077.023C.008.306 0 .33 0 .361v.092h.157V.408c0-.015.008-.023.025-.023H.3V.268H.101m0-.268C.066 0 .041.008.024.023.008.039 0 .063 0 .094v.092h.157V.14c0-.015.008-.023.025-.023H.3V0H.101z"/></symbol><symbol id="d"><path d="M.286 0a.425.425 0 0 0-.209.044A.144.144 0 0 0 0 .176a.124.124 0 0 0 .071.113.135.135 0 0 0-.049.048.138.138 0 0 0-.018.069c0 .048.017.086.052.115.035.03.086.044.153.044A.377.377 0 0 0 .316.551V.423a.17.17 0 0 1-.069.015C.206.438.185.423.185.392.185.36.206.344.248.344h.068v-.11H.248C.203.234.181.217.181.183c0-.039.035-.058.105-.058.041 0 .072.008.091.025.02.017.029.043.029.077v.324h.176V.228A.215.215 0 0 0 .456.033.38.38 0 0 0 .286 0z"/></symbol><symbol id="e"><path d="M0 .535h.167V.479A.26.26 0 0 0 .344.55C.412.55.463.532.497.496A.199.199 0 0 0 .549.352V0H.373v.332C.373.386.345.413.29.413A.138.138 0 0 1 .224.397.12.12 0 0 1 .176.35V0H0v.535z"/></symbol><symbol id="f"><path d="M.19.324c0 .03-.007.052-.021.067C.156.406.132.413.099.413A.22.22 0 0 1 0 .388V.52a.382.382 0 0 0 .144.03C.216.55.271.531.309.493.347.456.366.401.366.33V0H.19v.324z"/></symbol><symbol id="g"><path d="M0 .468h.175l.11-.34c.042 0 .075.014.098.041a.18.18 0 0 1 .035.118c0 .084-.032.126-.097.126a.172.172 0 0 1-.06-.01v.132a.382.382 0 0 0 .1.015C.441.55.501.527.54.482.58.437.599.372.599.287a.29.29 0 0 0-.04-.155.264.264 0 0 0-.107-.099A.33.33 0 0 0 .304 0H.151L0 .468z"/></symbol><use xlink:href="#b" transform="matrix(57 0 0 -57 665.702 95.801)"/><use xlink:href="#c" transform="matrix(57 0 0 -57 693.86 92.723)"/><use xlink:href="#d" transform="matrix(57 0 0 -57 712.1 95.801)"/><use xlink:href="#c" transform="matrix(57 0 0 -57 747.554 92.723)"/><use xlink:href="#e" transform="matrix(57 0 0 -57 766.934 94.946)"/><use xlink:href="#f" transform="matrix(57 0 0 -57 799.367 94.946)"/><use xlink:href="#g" transform="matrix(57 0 0 -57 822.509 94.946)"/><symbol id="h"><path d="M0 0z"/></symbol><use xlink:href="#h" transform="matrix(57 0 0 -57 856.367 94.946)"/><symbol id="i"><path d="M0 .699h.189L.367.234l.178.465h.188L.454 0H.28L0 .699z"/></symbol><symbol id="j"><path d="M.238 0a.666.666 0 0 0-.131.013A.381.381 0 0 0 0 .047v.159A.495.495 0 0 1 .224.15c.033 0 .057.005.074.015.017.01.025.024.025.043a.05.05 0 0 1-.014.036.117.117 0 0 1-.039.029C.253.282.226.293.189.309A.387.387 0 0 0 .048.4a.18.18 0 0 0-.044.123c0 .04.011.076.033.107a.222.222 0 0 0 .094.073c.04.017.086.026.138.026.043 0 .08-.003.114-.01A.406.406 0 0 0 .479.687V.532a.379.379 0 0 1-.177.046.16.16 0 0 1-.077-.016C.206.552.197.537.197.518c0-.02.01-.035.029-.047A.772.772 0 0 1 .333.422a.549.549 0 0 0 .11-.057A.172.172 0 0 0 .501.3.215.215 0 0 0 .519.206.182.182 0 0 0 .448.054C.401.018.331 0 .238 0z"/></symbol><use xlink:href="#i" transform="matrix(57 0 0 -57 875.462 94.946)"/><use xlink:href="#j" transform="matrix(57 0 0 -57 914.108 95.801)"/><use xlink:href="#h" transform="matrix(57 0 0 -57 943.406 94.946)"/><symbol id="k"><path d="M0 .319c0 .076.026.133.077.172.051.04.12.059.207.059A.33.33 0 0 0 .491.491C.542.452.568.395.568.319V0H.392v.316c0 .065-.036.097-.108.097C.212.413.176.381.176.316V.252c.009.01.02.017.034.022a.113.113 0 0 0 .045.009h.074V.156H.248A.072.072 0 0 1 .196.137a.065.065 0 0 1-.02-.051V0H0v.319z"/></symbol><symbol id="l"><path d="M.206 0a.577.577 0 0 0-.117.011A.279.279 0 0 0 0 .044V.18A.291.291 0 0 1 .167.137c.05 0 .09.012.118.035.029.024.043.06.043.11S.314.368.285.392a.176.176 0 0 1-.118.036.278.278 0 0 1-.163-.043v.136a.282.282 0 0 0 .088.032.524.524 0 0 0 .114.012C.301.565.376.54.429.491a.27.27 0 0 0 .08-.209.27.27 0 0 0-.08-.208A.316.316 0 0 0 .206 0z"/></symbol><symbol id="m"><path d="M.341 0a.24.24 0 0 0-.174.07V.015H0V.55h.176V.2A.137.137 0 0 1 .221.152.124.124 0 0 1 .284.137c.029 0 .05.007.066.021.015.014.023.035.023.063V.55h.176V.21A.238.238 0 0 0 .525.102.183.183 0 0 0 .454.027.223.223 0 0 0 .341 0z"/></symbol><symbol id="n"><path d="M.121 0a.12.12 0 0 0-.09.033A.133.133 0 0 0 0 .126v.409h.176V.168c0-.015.003-.026.009-.032C.191.13.201.127.216.127h.035V0h-.13z"/></symbol><symbol id="o"><path d="M.135 0a.142.142 0 0 0-.098.032A.112.112 0 0 0 0 .12c0 .047.014.082.041.105a.158.158 0 0 0 .11.036h.26V.172H.163C.13.172.114.159.114.133.114.12.118.111.125.104a.038.038 0 0 1 .028-.01c.014 0 .025.004.032.012.007.008.01.019.01.032h.089c0-.027.016-.04.047-.04h.063V.004h-.06a.156.156 0 0 0-.061.011C.255.023.243.033.238.046A.082.082 0 0 0 .2.013.157.157 0 0 0 .135 0z"/></symbol><symbol id="p"><path d="M.18 0a.12.12 0 0 0-.09.033.133.133 0 0 0-.031.093v.228c0 .031.006.058.018.08a.379.379 0 0 0 .05.069.327.327 0 0 1 .03.039.06.06 0 0 1 .01.032c0 .018-.005.031-.014.039C.143.622.128.626.106.626A.162.162 0 0 1 0 .586v.136a.374.374 0 0 0 .167.04c.06 0 .106-.013.136-.04A.135.135 0 0 0 .348.616.15.15 0 0 0 .333.548.474.474 0 0 0 .29.479.563.563 0 0 1 .248.413.139.139 0 0 1 .235.352V.168c0-.015.003-.026.009-.032C.25.13.26.127.275.127H.31V0H.18z"/></symbol><symbol id="q"><path d="M.208 0a.223.223 0 0 0-.113.027.183.183 0 0 0-.071.075A.238.238 0 0 0 0 .21v.34h.176V.221c0-.028.008-.049.023-.063C.214.144.236.137.265.137c.025 0 .046.005.063.015C.345.162.36.179.373.2v.35h.176V.015H.382V.07A.24.24 0 0 0 .208 0z"/></symbol><symbol id="r"><path d="M.05.312 0 .399c.081.1.185.151.311.151C.4.55.468.53.516.491A.195.195 0 0 0 .588.33V0H.412v.316c0 .065-.034.097-.101.097A.181.181 0 0 1 .189.372L.226.309V0H.05v.312z"/></symbol><symbol id="s"><path d="M.273 0a.285.285 0 0 0-.199.067C.024.112 0 .178 0 .266c0 .062.013.115.039.16A.26.26 0 0 0 .15.529a.378.378 0 0 0 .171.036c.104 0 .18-.024.23-.072A.25.25 0 0 0 .626.302V.015H.45v.288c0 .04-.01.072-.03.093C.4.417.367.428.321.428A.133.133 0 0 1 .219.386C.194.358.181.318.181.266c0-.045.01-.078.031-.099.021-.02.053-.03.095-.03.023 0 .045.004.067.012V.014A.34.34 0 0 0 .273 0z"/></symbol><use xlink:href="#k" transform="matrix(57 0 0 -57 963.64 94.946)"/><use xlink:href="#l" transform="matrix(57 0 0 -57 998.297 95.801)"/><use xlink:href="#f" transform="matrix(57 0 0 -57 1027.31 94.946)"/><use xlink:href="#m" transform="matrix(57 0 0 -57 1051.592 95.801)"/><use xlink:href="#n" transform="matrix(57 0 0 -57 1086.305 94.946)"/><use xlink:href="#b" transform="matrix(57 0 0 -57 1101.467 95.801)"/><use xlink:href="#o" transform="matrix(57 0 0 -57 1101.239 61.26)"/><use xlink:href="#l" transform="matrix(57 0 0 -57 1129.625 95.801)"/><use xlink:href="#p" transform="matrix(57 0 0 -57 1156.928 94.946)"/><use xlink:href="#q" transform="matrix(57 0 0 -57 1177.334 95.801)"/><use xlink:href="#r" transform="matrix(57 0 0 -57 1210.622 94.946)"/><use xlink:href="#f" transform="matrix(57 0 0 -57 1245.278 94.946)"/><use xlink:href="#b" transform="matrix(57 0 0 -57 1268.42 95.801)"/><use xlink:href="#s" transform="matrix(57 0 0 -57 1296.578 95.801)"/><g data-name="Span"><symbol id="t"><path d="M.127 0A.124.124 0 0 0 0 .126C0 .149.006.171.017.19c.011.02.027.036.047.047a.128.128 0 0 0 .127 0A.125.125 0 0 0 .237.19.124.124 0 0 0 .254.126.124.124 0 0 0 .127 0m0 .087c.01 0 .019.004.026.011a.039.039 0 0 1 .011.027c0 .01-.003.02-.01.027a.037.037 0 0 1-.027.011.034.034 0 0 1-.026-.011.039.039 0 0 1 0-.054.036.036 0 0 1 .026-.011z"/></symbol><use xlink:href="#t" transform="matrix(57 0 0 -57 1317.896 61.772)"/><use xlink:href="#f" transform="matrix(57 0 0 -57 1333.4 94.946)"/></g></g><g data-name="P"><path stroke-width="4" stroke-linecap="square" fill="none" stroke="#000" d="M259 850V150m6 700h-12m12-175h-12m12-175h-12m12-175h-12m12-175h-12"/><clipPath id="u"><path transform="matrix(1 0 0 -1 0 1080)" d="M66.13 229.643v700.714h81V229.643z"/></clipPath><g clip-path="url(#u)"><clipPath id="v"><path transform="matrix(1 0 0 -1 0 1080)" d="M0 0h1920v1080H0z"/></clipPath><g clip-path="url(#v)"><symbol id="w"><path d="M.204 0a.503.503 0 0 0-.112.013.225.225 0 0 0-.089.036v.082A.37.37 0 0 1 .291.093c.02.01.029.029.029.054a.061.061 0 0 1-.014.042.114.114 0 0 1-.043.028.88.88 0 0 1-.089.03.38.38 0 0 0-.131.063A.127.127 0 0 0 0 .412c0 .05.019.087.057.113.038.027.09.04.156.04A.395.395 0 0 0 .39.523V.439a.34.34 0 0 1-.168.045C.142.484.102.46.102.412.102.394.107.38.118.369A.141.141 0 0 1 .162.342C.181.335.212.326.255.313a.432.432 0 0 0 .1-.041A.13.13 0 0 0 .406.22.164.164 0 0 0 .421.146.126.126 0 0 0 .367.04C.331.013.277 0 .204 0z"/></symbol><symbol id="x"><path d="M.08.273C.05.273.03.28.018.293.006.306 0 .327 0 .354v.057h.092V.373c0-.01.002-.018.007-.023C.104.346.112.344.124.344h.117V.273H.08M.08 0C.05 0 .03.007.018.02.006.033 0 .054 0 .081v.057h.092V.1c0-.01.002-.018.007-.023C.104.073.112.071.124.071h.117V0H.08z"/></symbol><symbol id="y"><path d="M.254 0a.34.34 0 0 0-.185.044A.143.143 0 0 0 0 .172a.127.127 0 0 0 .09.124.154.154 0 0 0-.063.049.124.124 0 0 0-.023.074c0 .044.015.08.044.106.03.027.072.04.129.04A.31.31 0 0 0 .226.561a.3.3 0 0 0 .04-.007v-.08a.25.25 0 0 1-.071.01.101.101 0 0 1-.066-.019C.114.453.107.435.107.413c0-.024.008-.042.024-.055C.147.345.171.339.202.339h.064V.255H.203A.115.115 0 0 1 .129.234C.112.221.103.2.103.172c0-.03.013-.052.04-.068A.22.22 0 0 1 .254.08c.11 0 .165.047.165.14v.33h.102V.222a.203.203 0 0 0-.112-.19A.325.325 0 0 0 .254 0z"/></symbol><symbol id="z"><path d="M0 .535h.098V.463c.026.03.056.051.091.065A.277.277 0 0 0 .296.55C.361.55.411.532.446.496A.192.192 0 0 0 .498.357V0H.396v.352c0 .037-.01.066-.031.086-.02.02-.053.031-.096.031A.186.186 0 0 1 .102.378V0H0v.535z"/></symbol><symbol id="A"><path d="M.238.346C.238.389.229.42.212.439.195.459.164.469.12.469A.265.265 0 0 1 0 .441v.08A.342.342 0 0 0 .139.55C.206.55.257.532.29.495.323.459.34.407.34.339V0H.238v.346z"/></symbol><symbol id="B"><path d="M0 .468h.102L.229.08C.292.08.34.097.374.132a.201.201 0 0 1 .051.147.24.24 0 0 1-.035.142C.367.453.33.469.278.469A.272.272 0 0 1 .208.46v.079A.327.327 0 0 0 .295.55C.371.55.429.526.469.478a.302.302 0 0 0 .06-.199.285.285 0 0 0-.038-.15A.246.246 0 0 0 .39.033.305.305 0 0 0 .248 0H.152L0 .468z"/></symbol><use xlink:href="#w" transform="matrix(0 -35.4 -35.4 0 105.723 608.89)"/><use xlink:href="#x" transform="matrix(0 -35.4 -35.4 0 103.35 590.801)"/><use xlink:href="#y" transform="matrix(0 -35.4 -35.4 0 105.723 579.084)"/><use xlink:href="#x" transform="matrix(0 -35.4 -35.4 0 103.35 556.746)"/><use xlink:href="#z" transform="matrix(0 -35.4 -35.4 0 105.192 544.32)"/><use xlink:href="#A" transform="matrix(0 -35.4 -35.4 0 105.192 523.86)"/><use xlink:href="#B" transform="matrix(0 -35.4 -35.4 0 105.192 507.93)"/><symbol id="C"><path d="M.148 0a.635.635 0 0 0-.11.2A.755.755 0 0 0 0 .444c0 .087.013.168.038.243a.633.633 0 0 0 .11.201h.107A.714.714 0 0 1 .141.682.719.719 0 0 1 .103.444c0-.086.013-.165.038-.238A.714.714 0 0 1 .255 0H.148z"/></symbol><use xlink:href="#C" transform="matrix(0 -35.4 -35.4 0 111.351 486.017)"/><symbol id="D"><path d="M.1 0C.067 0 .042.009.025.027A.113.113 0 0 0 0 .105v.43h.102V.133c0-.018.004-.03.011-.038.007-.007.02-.01.038-.01h.036V0H.1z"/></symbol><symbol id="E"><path d="M.291 0a.258.258 0 0 0-.193.087V.015H0V.55h.102V.172A.183.183 0 0 1 .264.08C.307.08.34.09.362.11c.023.02.034.051.034.091V.55h.102V.197A.192.192 0 0 0 .443.055.205.205 0 0 0 .291 0z"/></symbol><symbol id="F"><path d="M.257 0a.258.258 0 0 0-.189.068C.023.113 0 .18 0 .268c0 .06.008.113.025.158a.24.24 0 0 0 .068.103c.03.024.063.036.1.036.05 0 .086-.02.107-.061.011.02.028.036.051.046.023.01.048.015.076.015C.473.565.507.55.53.521A.184.184 0 0 0 .565.403V.015H.463v.381c0 .03-.005.052-.014.066C.439.477.424.484.401.484.363.484.339.464.33.422H.27a.082.082 0 0 1-.02.046C.24.478.227.484.209.484.178.484.152.465.132.428a.355.355 0 0 1-.029-.16c0-.064.014-.111.042-.142C.173.096.216.08.274.08c.025 0 .049.003.07.01V.011A.294.294 0 0 0 .257 0z"/></symbol><use xlink:href="#D" transform="matrix(0 -35.4 -35.4 0 105.192 473.627)"/><use xlink:href="#E" transform="matrix(0 -35.4 -35.4 0 105.723 463.113)"/><use xlink:href="#F" transform="matrix(0 -35.4 -35.4 0 105.723 441.59)"/><use xlink:href="#w" transform="matrix(0 -35.4 -35.4 0 105.723 417.695)"/><symbol id="G"><path d="M0 0c.05.065.089.133.114.206a.719.719 0 0 1 .038.238.719.719 0 0 1-.038.238A.714.714 0 0 1 0 .888h.107a.633.633 0 0 0 .11-.201.752.752 0 0 0 .038-.243A.755.755 0 0 0 .217.2a.635.635 0 0 0-.11-.2H0z"/></symbol><use xlink:href="#G" transform="matrix(0 -35.4 -35.4 0 111.351 400.137)"/></g></g><clipPath id="H"><path transform="matrix(1 0 0 -1 0 1080)" d="M193.195 201.643h26.788v56h-26.788z"/></clipPath><g clip-path="url(#H)"><symbol id="I"><path d="M.291 0a.275.275 0 0 0-.156.044.28.28 0 0 0-.1.126A.492.492 0 0 0 0 .364c0 .075.011.14.034.194a.28.28 0 0 0 .1.127c.044.03.096.044.157.044.06 0 .113-.015.156-.044a.271.271 0 0 0 .1-.127.492.492 0 0 0 .035-.194A.492.492 0 0 0 .547.17.278.278 0 0 0 .446.044.27.27 0 0 0 .291 0m0 .09A.16.16 0 0 1 .43.163c.034.05.051.116.051.2s-.017.15-.05.2a.16.16 0 0 1-.14.074.16.16 0 0 1-.14-.074.352.352 0 0 1-.05-.2c0-.084.017-.15.05-.2A.162.162 0 0 1 .291.09z"/></symbol><use xlink:href="#I" transform="matrix(35.4 0 0 -35.4 196.287 862.949)"/></g><clipPath id="J"><path transform="matrix(1 0 0 -1 0 1080)" d="M156.555 376.822h63.428v56h-63.428z"/></clipPath><g clip-path="url(#J)"><symbol id="K"><path d="M.151.589 0 .48v.097l.165.122h.088V0H.151v.589z"/></symbol><use xlink:href="#K" transform="matrix(35.4 0 0 -35.4 159.649 687.24)"/><use xlink:href="#I" transform="matrix(35.4 0 0 -35.4 172.499 687.77)"/><use xlink:href="#I" transform="matrix(35.4 0 0 -35.4 196.287 687.77)"/></g><clipPath id="L"><path transform="matrix(1 0 0 -1 0 1080)" d="M148.838 552h71.145v56h-71.145z"/></clipPath><g clip-path="url(#L)"><symbol id="M"><path d="m0 .067.151.145.056.052c.038.035.067.063.087.084.02.021.036.044.049.068a.17.17 0 0 1 .019.079C.362.536.35.568.326.589.302.611.267.622.221.622A.326.326 0 0 1 .032.555v.098a.34.34 0 0 0 .205.061c.072 0 .128-.02.168-.058.04-.038.06-.09.06-.156A.211.211 0 0 0 .444.408.368.368 0 0 0 .387.321a1.879 1.879 0 0 0-.1-.103L.151.085h.34V0H0v.067z"/></symbol><use xlink:href="#M" transform="matrix(35.4 0 0 -35.4 151.931 512.061)"/><use xlink:href="#I" transform="matrix(35.4 0 0 -35.4 172.499 512.592)"/><use xlink:href="#I" transform="matrix(35.4 0 0 -35.4 196.287 512.592)"/></g><clipPath id="N"><path transform="matrix(1 0 0 -1 0 1080)" d="M149.086 727.178h70.897v56h-70.897z"/></clipPath><g clip-path="url(#N)"><symbol id="O"><path d="M.213 0c-.04 0-.08.003-.117.01A.37.37 0 0 0 0 .038v.084A.48.48 0 0 1 .2.08c.061 0 .107.011.136.033.03.023.045.055.045.096C.381.252.366.282.335.3a.275.275 0 0 1-.14.028H.113V.41h.08c.05 0 .09.01.121.03.03.02.046.05.046.09C.36.569.347.598.322.618a.174.174 0 0 1-.11.03.364.364 0 0 1-.101-.013.371.371 0 0 1-.093-.043v.084a.392.392 0 0 0 .206.053C.302.729.361.712.402.677A.18.18 0 0 0 .463.533c0-.037-.01-.07-.03-.098A.19.19 0 0 0 .343.37.19.19 0 0 0 .447.312.154.154 0 0 0 .484.206.19.19 0 0 0 .419.055C.376.018.307 0 .213 0z"/></symbol><use xlink:href="#O" transform="matrix(35.4 0 0 -35.4 152.18 337.414)"/><use xlink:href="#I" transform="matrix(35.4 0 0 -35.4 172.499 337.414)"/><use xlink:href="#I" transform="matrix(35.4 0 0 -35.4 196.288 337.414)"/></g><clipPath id="P"><path transform="matrix(1 0 0 -1 0 1080)" d="M148.13 902.357h71.853v56H148.13z"/></clipPath><g clip-path="url(#P)"><symbol id="Q"><path d="M.34.172H0v.065l.339.462h.104V.252h.108v-.08H.443V0H.34v.172m.012.08v.325L.115.252h.237z"/></symbol><use xlink:href="#Q" transform="matrix(35.4 0 0 -35.4 150.515 161.705)"/><use xlink:href="#I" transform="matrix(35.4 0 0 -35.4 172.499 162.236)"/><use xlink:href="#I" transform="matrix(35.4 0 0 -35.4 196.287 162.236)"/></g></g><clipPath id="R"><path transform="matrix(1 0 0 -1 0 1080)" d="M0 0h1920v1080H0z"/></clipPath><g clip-path="url(#R)"><path stroke-width="4" stroke-linecap="square" fill="none" stroke="#000" d="M259 850h1402m-1402-6v12m54-12v12m54-12v12m54-12v12m54-12v12m53-12v12m54-12v12m54-12v12m54-12v12m54-12v12m54-12v12m54-12v12m54-12v12m54-12v12m54-12v12m54-12v12m54-12v12m54-12v12m54-12v12m54-12v12m54-12v12m54-12v12m53-12v12m54-12v12m54-12v12m54-12v12m54-12v12"/><clipPath id="S"><path transform="matrix(1 0 0 -1 0 1080)" d="M258.745 38.294h1402.51v81H258.745z"/></clipPath><g clip-path="url(#S)"><symbol id="T"><path d="M0 .331c0 .07.023.123.068.161A.279.279 0 0 0 .255.55.28.28 0 0 0 .441.493.2.2 0 0 0 .509.331V0H.407v.334c0 .045-.013.079-.04.101a.168.168 0 0 1-.112.034.17.17 0 0 1-.113-.034C.115.413.102.379.102.334V.232A.091.091 0 0 0 .143.27c.019.01.04.015.066.015h.08V.201H.201A.095.095 0 0 1 .13.171.094.094 0 0 1 .102.104V0H0v.331z"/></symbol><symbol id="U"><path d="M.195 0A.356.356 0 0 0 0 .045v.082A.298.298 0 0 1 .175.08C.24.08.291.097.327.131c.037.034.055.084.055.151 0 .067-.018.117-.055.151a.213.213 0 0 1-.152.051.298.298 0 0 1-.173-.047V.52c.047.03.111.045.193.045C.285.565.356.54.408.49A.273.273 0 0 0 .486.282.273.273 0 0 0 .408.074.297.297 0 0 0 .195 0z"/></symbol><symbol id="V"><path d="M.115 0a.116.116 0 0 0-.084.03A.104.104 0 0 0 0 .108C0 .148.012.179.035.2a.14.14 0 0 0 .096.031h.237V.173h-.23C.115.173.098.168.088.159.077.149.071.135.071.115c0-.018.005-.032.014-.041A.053.053 0 0 1 .124.06c.019 0 .033.005.043.015.01.01.014.023.014.04h.058c0-.034.019-.051.056-.051h.056v-.06H.296a.118.118 0 0 0-.057.013.06.06 0 0 0-.03.034.079.079 0 0 0-.034-.036A.118.118 0 0 0 .115 0z"/></symbol><symbol id="W"><path d="M.174 0C.141 0 .116.009.099.027a.113.113 0 0 0-.025.078v.271a.18.18 0 0 0 .018.085c.012.023.03.048.052.075A.266.266 0 0 1 .177.58a.072.072 0 0 1 .011.038C.188.64.182.656.17.666.159.676.139.681.11.681A.188.188 0 0 1 0 .647v.08c.02.011.041.02.065.026a.32.32 0 0 0 .076.009C.191.762.229.75.254.725A.128.128 0 0 0 .292.629.115.115 0 0 0 .278.572a.348.348 0 0 0-.04-.056A.43.43 0 0 1 .191.45.153.153 0 0 1 .176.379V.133c0-.018.004-.03.011-.038.007-.007.02-.01.038-.01h.036V0H.174z"/></symbol><symbol id="X"><path d="M.207 0a.207.207 0 0 0-.153.055A.194.194 0 0 0 0 .197V.55h.102V.201c0-.04.011-.07.033-.091C.158.09.191.08.234.08c.069 0 .123.03.162.092V.55h.102V.015H.399v.072A.242.242 0 0 0 .207 0z"/></symbol><symbol id="Y"><path d="M.05.333 0 .414a.36.36 0 0 0 .121.101.348.348 0 0 0 .161.035C.362.55.423.532.466.495A.188.188 0 0 0 .53.343V0H.428v.335c0 .046-.012.08-.037.101C.367.458.331.469.282.469A.257.257 0 0 1 .185.452.204.204 0 0 1 .109.4L.152.333V0H.05v.333z"/></symbol><symbol id="Z"><path d="M.257 0a.258.258 0 0 0-.189.068C.023.113 0 .18 0 .268a.34.34 0 0 0 .035.159.243.243 0 0 0 .102.102.323.323 0 0 0 .157.036C.388.565.457.543.5.498A.23.23 0 0 0 .565.329V.015H.463V.33c0 .103-.056.154-.169.154a.18.18 0 0 1-.14-.056C.12.391.103.338.103.268c0-.064.014-.111.043-.142C.175.096.217.08.274.08c.025 0 .049.003.07.01V.011A.294.294 0 0 0 .257 0z"/></symbol><use xlink:href="#T" transform="matrix(35.4 0 0 -35.4 736.75 1026.767)"/><use xlink:href="#U" transform="matrix(35.4 0 0 -35.4 758.663 1027.298)"/><use xlink:href="#A" transform="matrix(35.4 0 0 -35.4 777.99 1026.767)"/><use xlink:href="#E" transform="matrix(35.4 0 0 -35.4 794.629 1027.298)"/><use xlink:href="#D" transform="matrix(35.4 0 0 -35.4 816.86 1026.767)"/><use xlink:href="#w" transform="matrix(35.4 0 0 -35.4 826.666 1027.298)"/><use xlink:href="#V" transform="matrix(35.4 0 0 -35.4 826.63 1005.173)"/><use xlink:href="#U" transform="matrix(35.4 0 0 -35.4 844.755 1027.298)"/><use xlink:href="#W" transform="matrix(35.4 0 0 -35.4 863.376 1026.767)"/><use xlink:href="#X" transform="matrix(35.4 0 0 -35.4 876.545 1027.298)"/><use xlink:href="#Y" transform="matrix(35.4 0 0 -35.4 898.068 1026.767)"/><use xlink:href="#A" transform="matrix(35.4 0 0 -35.4 919.662 1026.767)"/><use xlink:href="#w" transform="matrix(35.4 0 0 -35.4 935.592 1027.298)"/><use xlink:href="#Z" transform="matrix(35.4 0 0 -35.4 953.681 1027.298)"/><g data-name="Span"><symbol id="aa"><path d="M.11 0C.08 0 .054.01.033.032A.103.103 0 0 0 0 .109c0 .03.011.057.033.078A.103.103 0 0 0 .11.22C.14.22.166.209.188.187A.106.106 0 0 0 .22.109C.22.079.21.053.188.032A.108.108 0 0 0 .11 0m0 .062c.012 0 .023.005.032.014a.05.05 0 0 1 .013.033.046.046 0 0 1-.013.032.044.044 0 0 1-.032.014.04.04 0 0 1-.031-.014.044.044 0 0 1-.014-.032C.065.097.07.086.079.076A.04.04 0 0 1 .11.062z"/></symbol><use xlink:href="#aa" transform="matrix(35.4 0 0 -35.4 967.523 1005.35)"/><use xlink:href="#A" transform="matrix(35.4 0 0 -35.4 976.514 1026.767)"/></g><use xlink:href="#C" transform="matrix(35.4 0 0 -35.4 992.444 1032.927)"/><use xlink:href="#D" transform="matrix(35.4 0 0 -35.4 1004.834 1026.767)"/><use xlink:href="#E" transform="matrix(35.4 0 0 -35.4 1015.348 1027.298)"/><use xlink:href="#F" transform="matrix(35.4 0 0 -35.4 1036.871 1027.298)"/><use xlink:href="#w" transform="matrix(35.4 0 0 -35.4 1060.766 1027.298)"/><symbol id="ab"><path d="M.285.714h.102L.102 0H0l.285.714z"/></symbol><use xlink:href="#ab" transform="matrix(35.4 0 0 -35.4 1078.855 1026.767)"/><symbol id="ac"><path d="M0 .069h.432V0H0v.069z"/></symbol><symbol id="ad"><path d="M0 .069h.339v.107h.093V0H0v.069z"/></symbol><use xlink:href="#U" transform="matrix(35.4 0 0 -35.4 1095.741 1027.298)"/><use xlink:href="#ac" transform="matrix(35.4 0 0 -35.4 1096.91 1005.032)"/><use xlink:href="#X" transform="matrix(35.4 0 0 -35.4 1116.84 1027.298)"/><use xlink:href="#A" transform="matrix(35.4 0 0 -35.4 1137.3 1026.767)"/><use xlink:href="#z" transform="matrix(35.4 0 0 -35.4 1153.939 1026.767)"/><use xlink:href="#ad" transform="matrix(35.4 0 0 -35.4 1156.24 1005.032)"/><use xlink:href="#G" transform="matrix(35.4 0 0 -35.4 1174.931 1032.927)"/></g><clipPath id="ae"><path transform="matrix(1 0 0 -1 0 1080)" d="m220.711 179.353 18.943 18.942 39.598-39.598-18.943-18.942z"/></clipPath><g clip-path="url(#ae)"><clipPath id="af"><path transform="matrix(1 0 0 -1 0 1080)" d="M0 0h1920v1080H0z"/></clipPath><g clip-path="url(#af)"><use xlink:href="#I" transform="scale(35.4 -35.4) rotate(45 35.17 -4.516)"/></g></g><clipPath id="ag"><path transform="matrix(1 0 0 -1 0 1080)" d="m309.422 160.179 38.117 38.116 39.598-39.598-38.117-38.116z"/></clipPath><g clip-path="url(#ag)"><clipPath id="ah"><path transform="matrix(1 0 0 -1 0 1080)" d="M0 0h1920v1080H0z"/></clipPath><g clip-path="url(#ah)"><symbol id="ai"><path d="M.047 0a.048.048 0 0 0-.034.013A.048.048 0 0 0 0 .047a.046.046 0 0 0 .047.048.046.046 0 0 0 .034-.014c.01-.01.014-.02.014-.034A.046.046 0 0 0 .081.013.048.048 0 0 0 .047 0z"/></symbol><use xlink:href="#I" transform="scale(35.4 -35.4) rotate(45 37.076 -1.762)"/><use xlink:href="#ai" transform="scale(35.4 -35.4) rotate(45 36.722 -.958)"/><use xlink:href="#M" transform="scale(35.4 -35.4) rotate(45 36.63 -.735)"/></g></g><clipPath id="aj"><path transform="matrix(1 0 0 -1 0 1080)" d="m416.807 159.678 38.617 38.617 39.598-39.598-38.617-38.617z"/></clipPath><g clip-path="url(#aj)"><clipPath id="ak"><path transform="matrix(1 0 0 -1 0 1080)" d="M0 0h1920v1080H0z"/></clipPath><g clip-path="url(#ak)"><use xlink:href="#I" transform="scale(35.4 -35.4) rotate(45 38.61 1.893)"/><use xlink:href="#ai" transform="scale(35.4 -35.4) rotate(45 38.256 2.696)"/><use xlink:href="#Q" transform="scale(35.4 -35.4) rotate(45 38.173 2.895)"/></g></g><clipPath id="al"><path transform="matrix(1 0 0 -1 0 1080)" d="m524.492 159.478 38.818 38.817 39.598-39.598-38.818-38.817z"/></clipPath><g clip-path="url(#al)"><clipPath id="am"><path transform="matrix(1 0 0 -1 0 1080)" d="M0 0h1920v1080H0z"/></clipPath><g clip-path="url(#am)"><symbol id="an"><path d="M.263 0a.269.269 0 0 0-.135.034.25.25 0 0 0-.094.102A.361.361 0 0 0 0 .299c0 .139.028.245.085.319.057.074.14.111.246.111.037 0 .07-.004.098-.012V.631a.23.23 0 0 1-.09.015C.196.646.118.56.104.389c.02.025.046.044.079.057A.29.29 0 0 0 .411.438.194.194 0 0 0 .49.358.244.244 0 0 0 .519.237.24.24 0 0 0 .488.115.212.212 0 0 0 .4.03.294.294 0 0 0 .263 0m0 .079c.047 0 .084.014.112.042a.153.153 0 0 1 .043.113.146.146 0 0 1-.043.111.153.153 0 0 1-.112.041.167.167 0 0 1-.079-.019.145.145 0 0 1-.076-.135c0-.027.006-.053.019-.076A.153.153 0 0 1 .263.079z"/></symbol><use xlink:href="#I" transform="scale(35.4 -35.4) rotate(45 40.137 5.562)"/><use xlink:href="#ai" transform="scale(35.4 -35.4) rotate(45 39.783 6.365)"/><use xlink:href="#an" transform="scale(35.4 -35.4) rotate(45 39.709 6.596)"/></g></g><clipPath id="ao"><path transform="matrix(1 0 0 -1 0 1080)" d="m632.553 159.653 38.642 38.642 39.598-39.598-38.643-38.642z"/></clipPath><g clip-path="url(#ao)"><clipPath id="ap"><path transform="matrix(1 0 0 -1 0 1080)" d="M0 0h1920v1080H0z"/></clipPath><g clip-path="url(#ap)"><symbol id="aq"><path d="M.256 0a.3.3 0 0 0-.187.053A.183.183 0 0 0 0 .206.17.17 0 0 0 .128.38a.168.168 0 0 0-.076.061.17.17 0 0 0-.028.097.17.17 0 0 0 .063.139.257.257 0 0 0 .169.052c.07 0 .126-.017.168-.052A.17.17 0 0 0 .487.538.17.17 0 0 0 .459.441.168.168 0 0 0 .383.38.174.174 0 0 0 .512.206.183.183 0 0 0 .443.053.3.3 0 0 0 .256 0m0 .411c.04 0 .071.01.096.032a.11.11 0 0 1 .037.086.114.114 0 0 1-.037.088.134.134 0 0 1-.096.034.138.138 0 0 1-.097-.034.116.116 0 0 1-.036-.088A.11.11 0 0 1 .16.443.142.142 0 0 1 .256.411m0-.337c.048 0 .086.012.113.037A.13.13 0 0 1 .41.213a.121.121 0 0 1-.043.098.165.165 0 0 1-.111.036.169.169 0 0 1-.112-.036.121.121 0 0 1-.043-.098.13.13 0 0 1 .041-.102.166.166 0 0 1 .114-.037z"/></symbol><use xlink:href="#I" transform="scale(35.4 -35.4) rotate(45 41.658 9.249)"/><use xlink:href="#ai" transform="scale(35.4 -35.4) rotate(45 41.304 10.053)"/><use xlink:href="#aq" transform="scale(35.4 -35.4) rotate(45 41.23 10.283)"/></g></g><clipPath id="ar"><path transform="matrix(1 0 0 -1 0 1080)" d="m767.872 187.088 11.208 11.207 39.598-39.598-11.208-11.207z"/></clipPath><g clip-path="url(#ar)"><clipPath id="as"><path transform="matrix(1 0 0 -1 0 1080)" d="M0 0h1920v1080H0z"/></clipPath><g clip-path="url(#as)"><use xlink:href="#K" transform="scale(35.4 -35.4) rotate(45 42.615 14.243)"/></g></g><clipPath id="at"><path transform="matrix(1 0 0 -1 0 1080)" d="m856.583 167.913 30.383 30.382 39.597-39.598-30.381-30.382z"/></clipPath><g clip-path="url(#at)"><clipPath id="au"><path transform="matrix(1 0 0 -1 0 1080)" d="M0 0h1920v1080H0z"/></clipPath><g clip-path="url(#au)"><use xlink:href="#K" transform="scale(35.4 -35.4) rotate(45 44.522 16.997)"/><use xlink:href="#ai" transform="scale(35.4 -35.4) rotate(45 44.34 17.436)"/><use xlink:href="#M" transform="scale(35.4 -35.4) rotate(45 44.248 17.659)"/></g></g><clipPath id="av"><path transform="matrix(1 0 0 -1 0 1080)" d="m963.968 167.413 30.883 30.882 39.598-39.598-30.883-30.882z"/></clipPath><g clip-path="url(#av)"><clipPath id="aw"><path transform="matrix(1 0 0 -1 0 1080)" d="M0 0h1920v1080H0z"/></clipPath><g clip-path="url(#aw)"><use xlink:href="#K" transform="scale(35.4 -35.4) rotate(45 46.056 20.652)"/><use xlink:href="#ai" transform="scale(35.4 -35.4) rotate(45 45.875 21.09)"/><use xlink:href="#Q" transform="scale(35.4 -35.4) rotate(45 45.792 21.29)"/></g></g><clipPath id="ax"><path transform="matrix(1 0 0 -1 0 1080)" d="m1072.529 168.089 30.207 30.206 39.598-39.598-30.207-30.206z"/></clipPath><g clip-path="url(#ax)"><clipPath id="ay"><path transform="matrix(1 0 0 -1 0 1080)" d="M0 0h1920v1080H0z"/></clipPath><g clip-path="url(#ay)"><use xlink:href="#K" transform="scale(35.4 -35.4) rotate(45 47.566 24.363)"/><use xlink:href="#ai" transform="scale(35.4 -35.4) rotate(45 47.385 24.802)"/><use xlink:href="#O" transform="scale(35.4 -35.4) rotate(45 47.31 25.032)"/></g></g><clipPath id="az"><path transform="matrix(1 0 0 -1 0 1080)" d="m1179.539 167.213 31.082 31.082 39.598-39.598-31.083-31.082z"/></clipPath><g clip-path="url(#az)"><clipPath id="aA"><path transform="matrix(1 0 0 -1 0 1080)" d="M0 0h1920v1080H0z"/></clipPath><g clip-path="url(#aA)"><use xlink:href="#K" transform="scale(35.4 -35.4) rotate(45 49.108 28)"/><use xlink:href="#ai" transform="scale(35.4 -35.4) rotate(45 48.926 28.438)"/><use xlink:href="#an" transform="scale(35.4 -35.4) rotate(45 48.852 28.669)"/></g></g><clipPath id="aB"><path transform="matrix(1 0 0 -1 0 1080)" d="m1287.599 167.388 30.908 30.907 39.598-39.598-30.908-30.907z"/></clipPath><g clip-path="url(#aB)"><clipPath id="aC"><path transform="matrix(1 0 0 -1 0 1080)" d="M0 0h1920v1080H0z"/></clipPath><g clip-path="url(#aC)"><use xlink:href="#K" transform="scale(35.4 -35.4) rotate(45 50.628 31.687)"/><use xlink:href="#ai" transform="scale(35.4 -35.4) rotate(45 50.447 32.125)"/><use xlink:href="#aq" transform="scale(35.4 -35.4) rotate(45 50.372 32.356)"/></g></g><clipPath id="aD"><path transform="matrix(1 0 0 -1 0 1080)" d="m1409.727 181.63 16.665 16.665 39.598-39.598-16.665-16.664z"/></clipPath><g clip-path="url(#aD)"><clipPath id="aE"><path transform="matrix(1 0 0 -1 0 1080)" d="M0 0h1920v1080H0z"/></clipPath><g clip-path="url(#aE)"><use xlink:href="#M" transform="scale(35.4 -35.4) rotate(45 51.867 36.053)"/></g></g><clipPath id="aF"><path transform="matrix(1 0 0 -1 0 1080)" d="m1498.438 162.457 35.839 35.838 39.598-39.598-35.839-35.838z"/></clipPath><g clip-path="url(#aF)"><clipPath id="aG"><path transform="matrix(1 0 0 -1 0 1080)" d="M0 0h1920v1080H0z"/></clipPath><g clip-path="url(#aG)"><use xlink:href="#M" transform="scale(35.4 -35.4) rotate(45 53.774 38.807)"/><use xlink:href="#ai" transform="scale(35.4 -35.4) rotate(45 53.484 39.508)"/><use xlink:href="#M" transform="scale(35.4 -35.4) rotate(45 53.391 39.732)"/></g></g><clipPath id="aH"><path transform="matrix(1 0 0 -1 0 1080)" d="m1606.599 162.732 35.564 35.563 39.598-39.598-35.564-35.563z"/></clipPath><g clip-path="url(#aH)"><clipPath id="aI"><path transform="matrix(1 0 0 -1 0 1080)" d="M0 0h1920v1080H0z"/></clipPath><g clip-path="url(#aI)"><symbol id="aJ"><path d="M.195 0A.474.474 0 0 0 0 .043v.091A.355.355 0 0 1 .192.082c.06 0 .107.013.138.038.031.026.047.064.047.114 0 .047-.015.083-.044.108C.304.367.261.38.204.38A.441.441 0 0 1 .058.354L.013.38l.026.334H.43V.628H.132L.117.448a.612.612 0 0 0 .126.013c.074 0 .132-.02.174-.062A.221.221 0 0 0 .48.234.217.217 0 0 0 .409.06C.362.02.29 0 .195 0z"/></symbol><use xlink:href="#M" transform="scale(35.4 -35.4) rotate(45 55.292 42.499)"/><use xlink:href="#ai" transform="scale(35.4 -35.4) rotate(45 55.002 43.2)"/><use xlink:href="#aJ" transform="scale(35.4 -35.4) rotate(45 54.928 43.431)"/></g></g></g><clipPath id="aK"><path transform="matrix(1 0 0 -1 0 1080)" d="M0 0h1920v1080H0z"/></clipPath><g clip-path="url(#aK)"><clipPath id="aL"><path transform="matrix(1 0 0 -1 0 1080)" d="M256 227h1306v560H256z"/></clipPath><g clip-path="url(#aL)"><clipPath id="aM"><path transform="matrix(1 0 0 -1 0 1080)" d="M256.346 227.243h1407.308v705.514H256.345z"/></clipPath><g clip-path="url(#aM)"><path stroke-width="4" fill="none" stroke="#00a2ff" d="M258.745 850.357c13.486-23.457 40.431-70.446 53.943-93.826 13.46-23.29 40.363-69.913 53.943-92.857 13.394-22.63 40.252-67.686 53.942-89.469 13.293-21.15 40.108-62.787 53.943-82.395 13.169-18.664 39.957-54.74 53.943-71.065 13.05-15.232 39.872-43.797 53.942-55.907 12.988-11.179 39.96-30.898 53.943-38.354 13.053-6.96 40.234-17.373 53.943-20.412 13.276-2.943 40.498-4.693 53.942-4.032 13.527.666 40.608 5.89 53.943 9.422 13.643 3.613 40.6 13.79 53.943 19.378 13.635 5.71 40.55 19.048 53.942 25.94 13.581 6.99 40.497 22.06 53.943 29.63 13.526 7.614 40.455 23.344 53.943 31.116 13.484 7.77 40.428 23.408 53.942 31.054 13.457 7.613 40.413 22.673 53.943 29.983 13.442 7.263 40.407 21.462 53.943 28.319 13.436 6.807 40.406 20 53.942 26.35 13.436 6.304 40.41 18.446 53.943 24.276 13.44 5.79 40.415 16.894 53.943 22.217 13.444 5.29 40.42 15.404 53.943 20.247 13.448 4.818 40.425 14.009 53.942 18.408 13.455 4.38 40.43 12.722 53.943 16.716 13.46 3.977 40.457 11.38 53.943 15.174"/></g></g><path stroke-width="1.75" fill="none" stroke="#000" d="M259 300h1402"/><clipPath id="aN"><path transform="matrix(1 0 0 -1 0 1080)" d="M1669.254 752.703h213.719v54h-213.719z"/></clipPath><g clip-path="url(#aN)"><symbol id="aO"><path d="M.194 0a.215.215 0 0 0-.142.044A.159.159 0 0 0 0 .171C0 .225.02.268.058.3c.04.032.092.048.159.048A.415.415 0 0 0 .395.311v.041c0 .046-.013.08-.038.1C.332.473.291.484.233.484A.488.488 0 0 1 .059.45v.08a.576.576 0 0 0 .189.035c.06 0 .11-.011.15-.033L.449.59h.113L.461.477A.208.208 0 0 0 .497.354V.015H.395V.23a.364.364 0 0 1-.167.037C.185.267.153.259.132.243.112.227.102.203.102.171.102.111.141.08.219.08c.024 0 .045.003.063.01V.011A.304.304 0 0 0 .194 0z"/></symbol><symbol id="aP"><path d="M.186 0A.155.155 0 0 0 .09.026a.083.083 0 0 0-.035.07v.027c0 .01-.001.016-.004.019C.048.145.043.146.034.146H0v.068h.088C.106.214.118.21.125.202.132.194.135.181.135.163V.106c0-.03.016-.044.048-.044.031 0 .047.015.047.044v.108h.08V.099C.31.069.3.046.278.028A.138.138 0 0 0 .186 0z"/></symbol><symbol id="aQ"><path d="M.065.102c0 .012-.002.02-.006.025C.054.131.046.133.033.133H0v.073h.082C.112.206.132.2.143.188.153.176.158.155.158.124V0H.065v.102z"/></symbol><use xlink:href="#w" transform="matrix(35.4 0 0 -35.4 1671.347 312.89)"/><use xlink:href="#x" transform="matrix(35.4 0 0 -35.4 1689.436 310.517)"/><use xlink:href="#y" transform="matrix(35.4 0 0 -35.4 1701.154 312.89)"/><use xlink:href="#x" transform="matrix(35.4 0 0 -35.4 1723.491 310.517)"/><use xlink:href="#z" transform="matrix(35.4 0 0 -35.4 1735.917 312.358)"/><use xlink:href="#A" transform="matrix(35.4 0 0 -35.4 1756.378 312.358)"/><use xlink:href="#B" transform="matrix(35.4 0 0 -35.4 1772.308 312.358)"/><use xlink:href="#aO" transform="matrix(35.4 0 0 -35.4 1794.22 312.89)"/><use xlink:href="#aP" transform="matrix(35.4 0 0 -35.4 1801.371 321.952)"/><use xlink:href="#B" transform="matrix(35.4 0 0 -35.4 1816.24 312.358)"/><use xlink:href="#aO" transform="matrix(35.4 0 0 -35.4 1838.152 312.89)"/><use xlink:href="#aQ" transform="matrix(35.4 0 0 -35.4 1850.684 321.668)"/><use xlink:href="#Z" transform="matrix(35.4 0 0 -35.4 1860.17 312.89)"/></g></g><clipPath id="aR"><path transform="matrix(1 0 0 -1 0 1080)" d="M0 0h1920v1080H0z"/></clipPath><g clip-path="url(#aR)"><symbol id="aS"><path d="M.273 0C.415 0 .52.091.52.211.52.346.436.394.277.419.131.441.105.477.105.547c0 .067.051.116.149.116.099 0 .151-.037.168-.127H.5C.486.663.397.733.254.733.119.733.024.649.024.539c0-.127.089-.174.239-.197C.399.32.436.286.436.205.436.124.365.07.273.07.129.07.095.142.084.227H0C.013.105.082 0 .273 0z"/></symbol><symbol id="aT"><path d="M.216 0C.25 0 .27.005.287.011v.07A.17.17 0 0 0 .223.07C.181.07.158.095.158.146V.46H.28v.07H.158v.119H.075V.53H0V.46h.075V.138C.075.056.121 0 .216 0z"/></symbol><symbol id="aU"><path d="M.174 0c.077 0 .124.026.163.075V.009H.42v.345C.42.5.329.541.229.541.128.541.033.497.022.378h.083c.008.064.048.094.12.094.08 0 .112-.035.112-.118V.316H.262C.128.316 0 .275 0 .154 0 .047.077 0 .174 0m.008.066C.109.066.083.1.083.154c0 .077.077.103.182.103h.072V.192C.337.111.27.066.182.066z"/></symbol><symbol id="aV"><path d="M.055.632c.03 0 .055.025.055.055S.085.742.055.742A.055.055 0 0 1 0 .687C0 .657.025.632.055.632M.015 0h.083v.523H.015V0z"/></symbol><symbol id="aW"><path d="M.256 0c.126 0 .217.084.228.197H.407C.398.112.331.069.257.069.156.069.086.137.086.265v.008c0 .123.073.199.168.199.072 0 .132-.031.145-.114h.082C.465.491.363.541.254.541.114.541 0 .433 0 .273V.265C0 .103.11 0 .256 0z"/></symbol><use xlink:href="#aS" transform="matrix(48 0 0 -48 71.676 971.632)"/><use xlink:href="#aT" transform="matrix(48 0 0 -48 100.764 971.536)"/><use xlink:href="#aU" transform="matrix(48 0 0 -48 118.716 971.632)"/><use xlink:href="#aT" transform="matrix(48 0 0 -48 143.964 971.536)"/><use xlink:href="#aV" transform="matrix(48 0 0 -48 163.116 971.2)"/><use xlink:href="#aW" transform="matrix(48 0 0 -48 174.108 971.632)"/></g><g data-name="P"><path stroke-width="2" fill="none" stroke="#000" d="m1610.743 751.57-49.084-76.699-.539-.842"/><path d="m1565.703 672.284-9.218-5.499 1.132 10.674z"/></g><g data-name="P"><symbol id="aX"><path d="M.214 0c-.04 0-.08.004-.119.011A.36.36 0 0 0 0 .039v.092A.482.482 0 0 1 .207.086c.104 0 .156.035.156.105a.092.092 0 0 1-.017.058.14.14 0 0 1-.049.038 1.202 1.202 0 0 1-.104.046.394.394 0 0 0-.143.088.172.172 0 0 0-.044.121c0 .037.01.069.03.097A.19.19 0 0 0 .12.705a.303.303 0 0 0 .124.024A.539.539 0 0 0 .347.72a.405.405 0 0 0 .09-.029V.603a.427.427 0 0 1-.176.039.194.194 0 0 1-.11-.026.084.084 0 0 1-.038-.074c0-.022.005-.04.016-.056a.16.16 0 0 1 .049-.04A1.27 1.27 0 0 1 .275.403.731.731 0 0 0 .387.348.177.177 0 0 0 .449.284.18.18 0 0 0 .471.191.168.168 0 0 0 .406.05.311.311 0 0 0 .214 0z"/></symbol><symbol id="aY"><path d="M0 .699h.098V.628a.25.25 0 0 0 .2.086c.048 0 .091-.01.129-.032a.225.225 0 0 0 .09-.09A.26.26 0 0 0 .55.459.264.264 0 0 0 .517.326a.227.227 0 0 0-.089-.09.261.261 0 0 0-.13-.032.31.31 0 0 0-.112.02.206.206 0 0 0-.085.059V0H0v.699M.275.284c.033 0 .062.007.088.021a.154.154 0 0 1 .062.062.181.181 0 0 1 .023.092.176.176 0 0 1-.023.091.148.148 0 0 1-.062.061.176.176 0 0 1-.088.022.176.176 0 0 1-.174-.12V.405A.162.162 0 0 1 .166.317.188.188 0 0 1 .275.284z"/></symbol><symbol id="aZ"><path d="M0 .48h.098V.394c.02.03.048.051.084.065A.355.355 0 0 0 .309.48V.401A.317.317 0 0 1 .177.376.14.14 0 0 1 .101.297V0H0v.48z"/></symbol><symbol id="ba"><path d="M.059.574a.057.057 0 0 0-.042.017A.057.057 0 0 0 0 .633c0 .017.006.03.017.042a.057.057 0 0 0 .042.017.058.058 0 0 0 .043-.017A.055.055 0 0 0 .12.633.055.055 0 0 0 .102.591.058.058 0 0 0 .059.574M.008.48h.103V0H.008v.48z"/></symbol><symbol id="bb"><path d="M0 .48h.098V.411c.023.029.05.05.083.063a.266.266 0 0 0 .104.021C.349.495.397.478.428.444A.194.194 0 0 0 .475.307V0H.374v.297c0 .078-.037.117-.112.117a.184.184 0 0 1-.09-.023.197.197 0 0 1-.071-.068V0H0v.48z"/></symbol><symbol id="bc"><path d="M.225 0a.149.149 0 0 0-.113.042.168.168 0 0 0-.039.119v.256H0v.078h.073v.144h.102V.495h.118V.417H.175V.168C.175.136.181.113.193.1.206.087.228.08.261.08a.14.14 0 0 1 .058.013v-.08A.293.293 0 0 0 .225 0z"/></symbol><symbol id="bd"><path d="M0 0z"/></symbol><use xlink:href="#aX" transform="matrix(39 0 0 -39 1454.78 755.827)"/><use xlink:href="#aY" transform="matrix(39 0 0 -39 1477.44 763.783)"/><use xlink:href="#aZ" transform="matrix(39 0 0 -39 1503.18 755.242)"/><use xlink:href="#ba" transform="matrix(39 0 0 -39 1518.74 755.242)"/><use xlink:href="#bb" transform="matrix(39 0 0 -39 1528.49 755.242)"/><use xlink:href="#bc" transform="matrix(39 0 0 -39 1550.33 755.827)"/><use xlink:href="#bd" transform="matrix(39 0 0 -39 1563.941 755.242)"/></g><g data-name="P"><use xlink:href="#C" transform="matrix(39 0 0 -39 1454.78 809.628)"/><use xlink:href="#Z" transform="matrix(39 0 0 -39 1467.65 803.427)"/><g data-name="Span"><use xlink:href="#aa" transform="matrix(39 0 0 -39 1482.899 779.247)"/><use xlink:href="#A" transform="matrix(39 0 0 -39 1492.805 802.842)"/></g><symbol id="be"><path d="M.199 0C.166 0 .141.009.124.027a.113.113 0 0 0-.025.078v.379c0 .045.006.081.019.11a.16.16 0 0 0 .064.071H0v.086h.315V.669A.191.191 0 0 1 .228.602.206.206 0 0 1 .201.488V.134c0-.018.004-.03.011-.038.007-.007.02-.01.038-.01h.036V0H.199z"/></symbol><symbol id="bf"><path d="M.066.063C.066.071.065.077.062.08.059.083.053.085.045.085H0v.072h.075C.096.157.112.152.122.141A.054.054 0 0 0 .136.103V.068h.205V0H.066v.063z"/></symbol><use xlink:href="#D" transform="matrix(39 0 0 -39 1511.135 802.842)"/><use xlink:href="#w" transform="matrix(39 0 0 -39 1521.938 803.427)"/><use xlink:href="#V" transform="matrix(39 0 0 -39 1521.899 779.052)"/><use xlink:href="#U" transform="matrix(39 0 0 -39 1541.867 803.427)"/><use xlink:href="#be" transform="matrix(39 0 0 -39 1562.576 802.803)"/><use xlink:href="#Z" transform="matrix(39 0 0 -39 1577.201 803.427)"/><use xlink:href="#bf" transform="matrix(39 0 0 -39 1588.277 778.896)"/><use xlink:href="#E" transform="matrix(39 0 0 -39 1604.306 803.427)"/><use xlink:href="#A" transform="matrix(39 0 0 -39 1626.848 802.842)"/><use xlink:href="#Y" transform="matrix(39 0 0 -39 1644.398 802.842)"/><g data-name="Span"><symbol id="bg"><path d="M0 .133h.092V0H0v.133z"/></symbol><use xlink:href="#z" transform="matrix(39 0 0 -39 1670.138 802.842)"/><use xlink:href="#ad" transform="matrix(39 0 0 -39 1672.673 778.896)"/><use xlink:href="#bg" transform="matrix(39 0 0 -39 1685.933 769.965)"/></g><use xlink:href="#aO" transform="matrix(39 0 0 -39 1693.85 803.427)"/><use xlink:href="#aQ" transform="matrix(39 0 0 -39 1707.656 813.1)"/><use xlink:href="#Z" transform="matrix(39 0 0 -39 1718.108 803.427)"/><use xlink:href="#G" transform="matrix(39 0 0 -39 1743.848 809.628)"/></g><g data-name="P"><path stroke-width="2" fill="none" stroke="#000" d="m186 926 59.229-41.327.82-.572"/><path d="m247.975 888.61 5.127-9.43-10.62 1.557z"/></g><path stroke-width="4" fill="none" stroke="#000" d="M734 879.02V150.574" data-name="P"/><g data-name="P"><symbol id="bh"><path d="M0 .535h.102V.299l.259.236H.48L.334.402C.389.388.427.366.448.335A.207.207 0 0 0 .481.212V0H.379v.206c0 .04-.008.07-.025.091C.338.317.31.332.27.341L.102.188V0H0v.535z"/></symbol><use xlink:href="#T" transform="matrix(42 0 0 -42 757.618 201.278)" fill="#00a2ff"/><use xlink:href="#U" transform="matrix(42 0 0 -42 783.616 201.908)" fill="#00a2ff"/><use xlink:href="#A" transform="matrix(42 0 0 -42 806.548 201.278)" fill="#00a2ff"/><use xlink:href="#E" transform="matrix(42 0 0 -42 826.288 201.908)" fill="#00a2ff"/><use xlink:href="#D" transform="matrix(42 0 0 -42 852.664 201.278)" fill="#00a2ff"/><use xlink:href="#w" transform="matrix(42 0 0 -42 864.298 201.908)" fill="#00a2ff"/><use xlink:href="#V" transform="matrix(42 0 0 -42 864.256 175.658)" fill="#00a2ff"/><use xlink:href="#U" transform="matrix(42 0 0 -42 885.76 201.908)" fill="#00a2ff"/><use xlink:href="#D" transform="matrix(42 0 0 -42 910.792 201.278)" fill="#00a2ff"/><use xlink:href="#bh" transform="matrix(42 0 0 -42 923.266 201.278)" fill="#00a2ff"/><use xlink:href="#E" transform="matrix(42 0 0 -42 948.928 201.908)" fill="#00a2ff"/><use xlink:href="#A" transform="matrix(42 0 0 -42 973.204 201.278)" fill="#00a2ff"/><use xlink:href="#x" transform="matrix(42 0 0 -42 992.104 199.094)" fill="#00a2ff"/><use xlink:href="#aO" transform="matrix(42 0 0 -42 1006.006 201.908)" fill="#00a2ff"/><use xlink:href="#E" transform="matrix(42 0 0 -42 1032.97 201.908)" fill="#00a2ff"/><use xlink:href="#bd" transform="matrix(42 0 0 -42 1056.616 201.278)" fill="#00a2ff"/></g><g data-name="P" fill="#00a2ff"><use xlink:href="#be" transform="matrix(42 0 0 -42 754.888 238.036)"/><use xlink:href="#Z" transform="matrix(42 0 0 -42 770.638 238.708)"/><use xlink:href="#bf" transform="matrix(42 0 0 -42 782.566 212.29)"/><use xlink:href="#w" transform="matrix(42 0 0 -42 798.988 238.708)"/><use xlink:href="#x" transform="matrix(42 0 0 -42 820.45 235.894)"/><use xlink:href="#y" transform="matrix(42 0 0 -42 834.352 238.708)"/><use xlink:href="#x" transform="matrix(42 0 0 -42 860.854 235.894)"/><use xlink:href="#z" transform="matrix(42 0 0 -42 875.596 238.078)"/><use xlink:href="#A" transform="matrix(42 0 0 -42 899.872 238.078)"/><use xlink:href="#B" transform="matrix(42 0 0 -42 918.772 238.078)"/><use xlink:href="#aO" transform="matrix(42 0 0 -42 944.77 238.708)"/><use xlink:href="#aP" transform="matrix(42 0 0 -42 953.254 249.46)"/><use xlink:href="#B" transform="matrix(42 0 0 -42 970.894 238.078)"/><use xlink:href="#aO" transform="matrix(42 0 0 -42 996.892 238.708)"/><use xlink:href="#aQ" transform="matrix(42 0 0 -42 1011.76 249.124)"/><use xlink:href="#Z" transform="matrix(42 0 0 -42 1023.016 238.708)"/></g><g data-name="P"><path stroke-width="4" fill="none" stroke="#000" d="M1635.339 298.57h-865.08"/><path d="m1633.339 306.97 16.8-8.4-16.8-8.4z"/></g><g data-name="P"><path stroke-width="4" fill="none" stroke="#000" d="m790.453 261.611-28.08 28.08-1.414 1.414"/><path d="m756.433 283.751-5.94 17.82 17.82-5.94z"/></g><g data-name="P"><path stroke-width="4" fill="none" stroke="#000" d="M716.628 298.57H297.294"/><path d="m299.294 290.17-16.8 8.4 16.8 8.4z"/></g><g data-name="P"><use xlink:href="#Z" transform="matrix(40 0 0 -40 1448.688 271.622)" fill="#5e5e5e"/><g data-name="Span" fill="#5e5e5e"><use xlink:href="#aa" transform="matrix(40 0 0 -40 1464.328 246.822)"/><use xlink:href="#A" transform="matrix(40 0 0 -40 1474.488 271.022)"/></g><symbol id="bi"><path d="M.257 0a.31.31 0 0 0-.136.028.215.215 0 0 0-.09.078A.219.219 0 0 0 0 .222V.55h.102V.224c0-.045.013-.08.039-.106C.168.093.206.08.257.08c.05 0 .088.013.114.038.027.026.04.061.04.106v.505h.102V.222A.208.208 0 0 0 .392.028.307.307 0 0 0 .257 0z"/></symbol><use xlink:href="#D" transform="matrix(40 0 0 -40 1493.288 271.022)" fill="#5e5e5e"/><use xlink:href="#w" transform="matrix(40 0 0 -40 1504.368 271.622)" fill="#5e5e5e"/><use xlink:href="#V" transform="matrix(40 0 0 -40 1504.328 246.622)" fill="#5e5e5e"/><use xlink:href="#U" transform="matrix(40 0 0 -40 1524.808 271.622)" fill="#5e5e5e"/><use xlink:href="#be" transform="matrix(40 0 0 -40 1546.048 270.982)" fill="#5e5e5e"/><use xlink:href="#bi" transform="matrix(40 0 0 -40 1561.848 271.622)" fill="#5e5e5e"/></g><g data-name="P"><use xlink:href="#Z" transform="matrix(40 0 0 -40 320.688 257.622)" fill="#5e5e5e"/><g data-name="Span" fill="#5e5e5e"><use xlink:href="#aa" transform="matrix(40 0 0 -40 336.328 232.822)"/><use xlink:href="#A" transform="matrix(40 0 0 -40 346.488 257.022)"/></g><symbol id="bj"><path d="M.243 0a.295.295 0 0 0-.125.025.198.198 0 0 0-.084.07A.193.193 0 0 0 .005.2v.034c0 .023.005.044.015.063.01.02.024.042.041.065a.318.318 0 0 1 .027.042c.006.01.009.02.009.03 0 .013-.003.022-.01.027C.081.466.071.469.056.469H0V.55h.105A.089.089 0 0 0 .2.457.123.123 0 0 0 .188.403.523.523 0 0 0 .152.344.578.578 0 0 1 .117.286a.115.115 0 0 1-.01-.048V.201c0-.038.012-.068.036-.089a.145.145 0 0 1 .1-.032c.045 0 .08.012.106.037.025.025.038.061.038.109S.377.31.357.334C.337.358.307.37.269.37v.055l.107.14h.11L.373.416A.161.161 0 0 0 .461.345.23.23 0 0 0 .489.226a.227.227 0 0 0-.031-.12.202.202 0 0 0-.086-.079A.294.294 0 0 0 .243 0z"/></symbol><use xlink:href="#bj" transform="matrix(40 0 0 -40 364.488 257.622)" fill="#5e5e5e"/><use xlink:href="#bf" transform="matrix(40 0 0 -40 372.208 232.462)" fill="#5e5e5e"/><use xlink:href="#A" transform="matrix(40 0 0 -40 386.648 257.022)" fill="#5e5e5e"/><use xlink:href="#be" transform="matrix(40 0 0 -40 402.848 256.982)" fill="#5e5e5e"/><use xlink:href="#bi" transform="matrix(40 0 0 -40 418.648 257.622)" fill="#5e5e5e"/></g></g></svg>