<svg xmlns="http://www.w3.org/2000/svg" xmlns:xlink="http://www.w3.org/1999/xlink" width="2560" height="1440" viewBox="0 0 1920 1080"><clipPath id="a"><path transform="matrix(1 0 0 -1 0 1080)" d="M0 0h1920v1080H0z"/></clipPath><g clip-path="url(#a)"><path d="M0 0h1920v1080H0z" fill="#fff"/><g data-name="P"><symbol id="b"><path d="M.447.439H.268V.423h.014C.307.423.319.416.319.405.319.385.27.337.176.265L.133.232l.12.456-.006.006A1.432 1.432 0 0 0 .09.667V.651h.018C.142.651.157.645.159.627A.547.547 0 0 0 .141.539L0 .011h.075l.048.18.04.032C.179.179.205.117.223.082.255.019.275 0 .304 0c.04 0 .065.025.111.109L.4.12.385.094C.367.063.355.052.34.052.321.052.298.089.259.181L.222.269C.369.4.4.42.447.423v.016z"/></symbol><use xlink:href="#b" transform="matrix(29 0 0 -29 46.001 96.572)"/><symbol id="c"><path d="M.589.2v.066H0V.2h.589m0-.2v.066H0V0h.589z"/></symbol><use xlink:href="#c" transform="matrix(29 0 0 -29 68.926 92.773)"/><symbol id="d"><path d="M.574.653H.042L0 .498.018.494c.048.108.08.124.238.124L.113.091C.098.037.075.022.006.016V0h.288v.016L.259.019C.218.023.206.031.206.062c0 .022.008.045.014.066l.137.49h.058C.48.618.516.59.516.537A.407.407 0 0 0 .513.491L.53.489l.044.164z"/></symbol><use xlink:href="#d" transform="matrix(29 0 0 -29 120.428 75.808)"/><symbol id="e"><path d="M.635.653H.138V.637C.2.631.215.623.215.596A.306.306 0 0 0 .204.532L.081.09C.065.032.056.026 0 .016V0h.507l.062.162L.553.17A.294.294 0 0 0 .459.072.4.4 0 0 0 .256.033C.2.033.177.043.177.067c0 .012.011.058.036.146l.032.112h.078C.363.325.39.32.401.31.406.305.408.296.408.279A.207.207 0 0 0 .401.227l.02-.005.068.232-.018.004C.433.373.422.361.332.361H.254L.32.594C.326.616.336.62.393.62.55.62.585.607.585.547A.407.407 0 0 0 .582.501L.604.499l.031.154z"/></symbol><use xlink:href="#e" transform="matrix(29 0 0 -29 135.072 75.808)"/><path d="M95.455 87.959h80.627v1.914H95.455z"/><symbol id="f"><path d="M.187.088a1.58 1.58 0 0 1-.025.257C.141.453.141.459.132.459A1.794 1.794 0 0 0 0 .434V.421l.031.001C.068.422.079.405.092.329.105.253.116.12.116.051V.027C.116.01.119 0 .125 0c.017 0 .044.033.099.092.018.019.074.083.119.153A.332.332 0 0 1 .406.4C.406.427.383.459.35.459.329.459.312.446.312.425.312.409.319.396.337.38.35.368.355.361.355.351.355.304.29.194.218.12L.187.088z"/></symbol><use xlink:href="#f" transform="matrix(29 0 0 -29 98.935 118.525)"/><symbol id="g"><path d="M.445.137.431.143C.398.087.377.076.335.076H.101l.165.176C.355.346.394.421.394.5c0 .099-.072.176-.185.176C.086.676.022.594.001.477L.022.472c.04.098.075.13.147.13.085 0 .139-.05.139-.141C.308.376.272.3.178.201L0 .012V0h.391l.054.137z"/></symbol><use xlink:href="#g" transform="matrix(20.59 0 0 -20.59 112.888 110.463)"/><symbol id="h"><path d="M.506.696A1.211 1.211 0 0 0 .353.673V.656C.408.654.417.651.417.63.417.616.418.612.403.559L.358.396H.357C.351.435.334.454.292.454.162.454 0 .281 0 .119 0 .043.042.002.107.002c.068 0 .119.033.178.132A.366.366 0 0 1 .272.045C.272.018.287 0 .313 0c.05 0 .098.041.147.114l-.012.01C.394.062.383.053.366.053c-.013 0-.018.008-.018.02 0 .016.034.132.065.246l.06.219.039.152-.006.006M.341.374C.341.222.237.05.145.05.11.05.087.077.087.123c0 .083.05.192.116.262a.138.138 0 0 0 .091.046C.317.431.341.41.341.374z"/></symbol><use xlink:href="#h" transform="matrix(20.59 0 0 -20.59 110.354 126.707)"/><symbol id="i"><path d="M.267.392C.25.481.197.647.182.647H.178A2.185 2.185 0 0 1 .071.629L.039.623V.606A.11.11 0 0 0 .07.61C.11.61.128.595.147.546.174.478.229.254.229.214a.081.081 0 0 0-.01-.035A1.054 1.054 0 0 0 .148.088C.125.063.113.055.1.055.074.055.074.083.039.083A.04.04 0 0 1 0 .043C0 .017.021 0 .051 0c.057 0 .164.115.268.287C.402.425.45.535.45.592c0 .03-.022.055-.052.055C.375.647.358.632.358.61c0-.016.006-.026.026-.039C.403.559.41.553.41.539.41.495.373.423.288.282l-.021.11z"/></symbol><use xlink:href="#i" transform="matrix(20.59 0 0 -20.59 119.935 130.681)"/><symbol id="j"><path d="M.446.126.425.1C.396.063.378.047.364.047.352.047.348.056.348.065c0 .008.004.025.014.061l.056.203c.006.021.01.042.01.06C.428.425.406.45.363.45.299.45.232.39.132.23l.067.218L.195.45.033.419V.403C.084.402.098.396.098.376A.088.088 0 0 0 .096.359L0 .009h.075c.047.158.055.181.1.248.063.093.108.142.148.142C.338.399.347.388.347.37A.455.455 0 0 0 .333.291L.289.129A.325.325 0 0 1 .273.054C.273.016.295 0 .32 0c.047 0 .072.02.14.113L.446.126z"/></symbol><use xlink:href="#j" transform="matrix(20.59 0 0 -20.59 129.86 126.625)"/><symbol id="k"><path d="M.5 0v.05H0V0h.5z"/></symbol><use xlink:href="#k" transform="matrix(20.59 0 0 -20.59 139.866 129.013)"/><symbol id="l"><path d="M.29.633a.232.232 0 0 1 .002.009C.292.644.29.646.287.646L.131.624.133.609h.022C.171.609.199.606.199.582A.5.5 0 0 0 .183.511L.068.079C.056.032.043.017 0 .016V0h.203v.016C.156.016.141.023.141.045c0 .014.023.096.04.166A.14.14 0 0 1 .25.194c.146 0 .297.162.297.327 0 .078-.041.125-.115.125C.372.646.315.614.261.533l.029.1M.457.518a.358.358 0 0 0-.069-.21C.344.246.296.213.243.213.215.213.195.229.195.251c0 .034.036.163.065.238.023.06.082.114.135.114C.44.603.457.575.457.518z"/></symbol><use xlink:href="#l" transform="matrix(20.59 0 0 -20.59 150.965 130.66)"/><symbol id="m"><path d="m.14.301.084.306.021.082L.24.694A2.255 2.255 0 0 0 .087.671V.654C.146.652.151.651.151.629A.234.234 0 0 0 .142.582L0 .059V.053C0 .023.073 0 .13 0c.155 0 .32.174.32.332 0 .077-.049.12-.116.12C.264.452.209.414.141.301H.14m.225.016a.388.388 0 0 0-.11-.235.175.175 0 0 0-.123-.059C.101.023.086.034.086.057c0 .06.028.157.072.231.043.073.089.115.137.115.044 0 .07-.025.07-.086z"/></symbol><use xlink:href="#m" transform="matrix(20.59 0 0 -20.59 163.36 126.666)"/><symbol id="n"><path d="m.554.047-.23.23.23.232-.046.045-.231-.23-.23.23L0 .508.23.277 0 .046.046 0l.231.23L.508 0l.046.047z"/></symbol><use xlink:href="#n" transform="matrix(29 0 0 -29 185.223 96.978)"/><symbol id="o"><path d="M.256.016c-.14.117-.17.23-.17.416 0 .193.031.286.17.405L.247.853A.472.472 0 0 1 0 .429C0 .259.086.09.244 0l.012.016z"/></symbol><use xlink:href="#o" transform="matrix(29 0 0 -29 210.373 101.386)"/><symbol id="p"><path d="M.283 0v.015C.208.015.188.033.188.076v.597L.179.676 0 .585V.571l.027.01a.151.151 0 0 0 .045.012c.021 0 .03-.015.03-.049V.095C.102.04.081.019.007.015V0h.276z"/></symbol><use xlink:href="#p" transform="matrix(29 0 0 -29 255.877 75.808)"/><path d="M220.247 87.959h79.321v1.914h-79.321z"/><symbol id="q"><path d="M.35.455H.336C.328.441.321.437.306.437A.112.112 0 0 0 .27.444a.195.195 0 0 1-.056.01C.14.454.093.412.093.346c0-.032.02-.077.063-.131C.195.166.212.132.212.1.212.051.183.023.136.023c-.052 0-.086.041-.1.136H.02L0 0h.016c.007.016.018.021.029.021A.106.106 0 0 0 .089.012a.134.134 0 0 1 .055-.01c.083 0 .144.051.144.134C.288.175.27.214.22.272.181.318.166.347.166.374c0 .037.024.057.059.057.049 0 .079-.033.089-.116H.33l.02.14z"/></symbol><use xlink:href="#q" transform="matrix(29 0 0 -29 223.611 118.38)"/><use xlink:href="#h" transform="matrix(20.59 0 0 -20.59 233.84 124.65)"/><use xlink:href="#i" transform="matrix(20.59 0 0 -20.59 243.421 128.624)"/><use xlink:href="#j" transform="matrix(20.59 0 0 -20.59 253.345 124.568)"/><use xlink:href="#k" transform="matrix(20.59 0 0 -20.59 263.352 126.956)"/><use xlink:href="#l" transform="matrix(20.59 0 0 -20.59 274.452 128.604)"/><use xlink:href="#m" transform="matrix(20.59 0 0 -20.59 286.847 124.61)"/><symbol id="r"><path d="M.557 0v.066H0V0h.557z"/></symbol><use xlink:href="#r" transform="matrix(29 0 0 -29 309.319 89.873)"/><use xlink:href="#p" transform="matrix(29 0 0 -29 402.464 75.808)"/><path d="M333.772 87.959H479.22v1.914H333.772z"/><use xlink:href="#f" transform="matrix(29 0 0 -29 337.252 118.525)"/><use xlink:href="#h" transform="matrix(20.59 0 0 -20.59 348.96 124.65)"/><use xlink:href="#i" transform="matrix(20.59 0 0 -20.59 358.541 128.624)"/><use xlink:href="#j" transform="matrix(20.59 0 0 -20.59 368.465 124.568)"/><use xlink:href="#k" transform="matrix(20.59 0 0 -20.59 378.472 126.956)"/><use xlink:href="#l" transform="matrix(20.59 0 0 -20.59 389.572 128.604)"/><use xlink:href="#m" transform="matrix(20.59 0 0 -20.59 401.967 124.61)"/><symbol id="s"><path d="M.258.439h-.08l.028.103a.023.023 0 0 1 .001.007c0 .005-.003.008-.009.008C.194.557.188.554.184.548a.295.295 0 0 0-.133-.11C.027.433.018.424.018.413L.019.407h.075L.016.111C.008.079 0 .048 0 .037 0 .012.019 0 .046 0c.052 0 .083.029.143.121L.176.128C.127.065.111.049.095.049.086.049.08.052.08.065l.002.014.087.328h.084l.005.032z"/></symbol><use xlink:href="#s" transform="matrix(29 0 0 -29 412.89 118.322)"/><use xlink:href="#q" transform="matrix(20.59 0 0 -20.59 419.283 124.65)"/><use xlink:href="#s" transform="matrix(20.59 0 0 -20.59 427.745 124.61)"/><symbol id="t"><path d="M.446.122.419.093C.389.06.376.052.367.052.359.052.353.058.353.065c0 .02.042.192.089.363l.006.021-.007.003L.38.445.377.442.366.394C.358.431.329.452.286.452.153.452 0 .271 0 .116 0 .04.044 0 .1 0c.07 0 .128.044.203.157A.418.418 0 0 1 .28.042C.28.013.292.001.32.001c.04 0 .064.019.139.11L.446.122m-.098.25A.423.423 0 0 0 .271.147C.241.104.194.049.144.049c-.036 0-.06.019-.06.074 0 .063.035.152.077.215C.203.399.247.43.292.43.327.43.348.407.348.372z"/></symbol><use xlink:href="#t" transform="matrix(20.59 0 0 -20.59 433.037 124.61)"/><use xlink:href="#k" transform="matrix(20.59 0 0 -20.59 443.003 126.956)"/><use xlink:href="#l" transform="matrix(20.59 0 0 -20.59 454.102 128.604)"/><use xlink:href="#m" transform="matrix(20.59 0 0 -20.59 466.497 124.61)"/><symbol id="u"><path d="M0 .837C.145.723.17.608.17.421.17.227.142.133 0 .016L.009 0a.476.476 0 0 1 .247.424c0 .17-.091.337-.244.429L0 .837z"/></symbol><use xlink:href="#u" transform="matrix(29 0 0 -29 481.669 101.386)"/></g><g data-name="P"><symbol id="v"><path d="M.138.653V.637C.201.632.215.625.215.596A.267.267 0 0 0 .204.532L.083.096C.066.034.055.024 0 .016V0h.272c.162 0 .275.066.275.2 0 .071-.04.124-.126.15v.001C.464.36.501.369.532.39a.13.13 0 0 1 .064.113c0 .099-.069.15-.208.15h-.25m.118-.29.063.224c.01.036.02.036.059.036.081 0 .117-.034.117-.108C.495.416.425.363.294.363H.256M.246.331A.456.456 0 0 0 .372.319C.41.306.439.262.439.2.439.089.361.03.246.03.204.03.179.044.179.072c0 .013.015.064.035.14l.032.119z"/></symbol><use xlink:href="#v" transform="matrix(29 0 0 -29 546.24 97.51)"/><symbol id="w"><path d="M.89.653H.724L.389.161.333.653H.152V.637C.202.634.226.622.226.603A.248.248 0 0 0 .214.551L.1.15C.068.038.052.022 0 .016V0h.197v.016C.146.02.127.036.127.064c0 .011.004.036.009.054l.118.428L.316 0h.017l.376.561L.583.102C.566.04.546.023.481.016V0h.271l.001.016C.69.018.672.032.672.058c0 .016.007.037.014.062l.123.443C.823.614.833.628.89.637v.016z"/></symbol><use xlink:href="#w" transform="matrix(29 0 0 -29 563.67 97.51)"/><symbol id="x"><path d="M.145.653V.637C.187.631.191.63.202.623A.038.038 0 0 0 .216.595C.216.578.211.559.204.532L.085.101C.069.042.055.023 0 .016V0h.243v.016C.186.022.176.033.176.063c0 .01.002.024.013.063l.055.203L.31.324.433 0H.58v.016C.535.016.515.039.493.098L.404.333c.067.015.1.027.131.051.041.031.066.08.066.128 0 .085-.072.141-.204.141H.145m.174-.06c.005.019.026.03.057.03.078 0 .12-.043.12-.112 0-.093-.07-.15-.189-.15a.263.263 0 0 0-.051.005l.063.227z"/></symbol><use xlink:href="#x" transform="matrix(29 0 0 -29 587.971 97.51)"/><use xlink:href="#c" transform="matrix(29 0 0 -29 615.515 94.029)"/><use xlink:href="#d" transform="matrix(29 0 0 -29 643.755 97.51)"/><use xlink:href="#e" transform="matrix(29 0 0 -29 658.399 97.51)"/><symbol id="y"><path d="M.296.69H.229L0 0h.068l.228.69z"/></symbol><use xlink:href="#y" transform="matrix(29 0 0 -29 677.497 97.915)"/><use xlink:href="#s" transform="matrix(29 0 0 -29 688.533 97.828)"/><use xlink:href="#q" transform="matrix(20.59 0 0 -20.59 694.803 105.027)"/><use xlink:href="#s" transform="matrix(20.59 0 0 -20.59 703.266 104.986)"/><use xlink:href="#t" transform="matrix(20.59 0 0 -20.59 708.557 104.986)"/><use xlink:href="#k" transform="matrix(20.59 0 0 -20.59 718.523 107.333)"/><use xlink:href="#l" transform="matrix(20.59 0 0 -20.59 729.622 108.98)"/><use xlink:href="#m" transform="matrix(20.59 0 0 -20.59 742.018 104.986)"/></g><g data-name="P"><use xlink:href="#q" transform="matrix(29 0 0 -29 238.717 246.83)"/><use xlink:href="#c" transform="matrix(29 0 0 -29 258.981 242.973)"/><use xlink:href="#d" transform="matrix(29 0 0 -29 325.91 226.008)"/><use xlink:href="#e" transform="matrix(29 0 0 -29 340.554 226.008)"/><use xlink:href="#n" transform="matrix(29 0 0 -29 366.67 226.733)"/><use xlink:href="#f" transform="matrix(29 0 0 -29 391.007 226.53)"/><path d="M285.51 238.159h156.482v1.914H285.51z"/><use xlink:href="#o" transform="matrix(29 0 0 -29 289.802 273.336)"/><use xlink:href="#v" transform="matrix(29 0 0 -29 297.835 268.203)"/><use xlink:href="#w" transform="matrix(29 0 0 -29 315.264 268.203)"/><use xlink:href="#x" transform="matrix(29 0 0 -29 339.566 268.203)"/><symbol id="z"><path d="M.588.261v.066H.327v.261H.261V.327H0V.261h.261V0h.066v.261h.261z"/></symbol><use xlink:href="#z" transform="matrix(29 0 0 -29 365.498 269.392)"/><use xlink:href="#b" transform="matrix(29 0 0 -29 390.822 268.522)"/><use xlink:href="#f" transform="matrix(29 0 0 -29 405.785 268.725)"/><symbol id="A"><path d="M.02.524C.061.598.107.63.169.63.235.63.277.596.277.528A.15.15 0 0 0 .196.394.444.444 0 0 0 .112.358V.344c.057 0 .08-.003.102-.01C.283.314.318.265.318.189.318.104.262.036.188.036.16.036.139.041.102.067.074.087.058.093.041.093.018.093 0 .078 0 .057 0 .021.039 0 .112 0c.089 0 .184.029.232.093a.23.23 0 0 1 .046.14.192.192 0 0 1-.044.129.216.216 0 0 1-.083.053c.067.04.093.09.093.138C.356.635.293.69.2.69.096.69.033.623.004.528L.02.524z"/></symbol><use xlink:href="#A" transform="matrix(20.59 0 0 -20.59 419.985 260.951)"/><use xlink:href="#u" transform="matrix(29 0 0 -29 430.276 273.336)"/></g><g data-name="P"><use xlink:href="#q" transform="matrix(29 0 0 -29 106.717 359.012)"/><use xlink:href="#c" transform="matrix(29 0 0 -29 126.981 355.155)"/><use xlink:href="#d" transform="matrix(29 0 0 -29 351.592 338.19)"/><use xlink:href="#e" transform="matrix(29 0 0 -29 366.236 338.19)"/><use xlink:href="#n" transform="matrix(29 0 0 -29 392.352 338.915)"/><use xlink:href="#f" transform="matrix(29 0 0 -29 416.69 338.712)"/><path d="M153.51 350.341h471.847v1.914H153.51z"/><use xlink:href="#o" transform="matrix(29 0 0 -29 157.802 391.55)"/><use xlink:href="#d" transform="matrix(20.59 0 0 -20.59 182.84 371.916)"/><use xlink:href="#e" transform="matrix(20.59 0 0 -20.59 193.053 371.916)"/><path d="M167.676 378.122h51.928v1.914h-51.928z"/><use xlink:href="#s" transform="matrix(20.59 0 0 -20.59 171.358 399.693)"/><use xlink:href="#q" transform="matrix(14.6189 0 0 -14.6189 175.897 404.186)"/><use xlink:href="#s" transform="matrix(14.6189 0 0 -14.6189 181.905 404.157)"/><use xlink:href="#t" transform="matrix(14.6189 0 0 -14.6189 185.663 404.157)"/><use xlink:href="#k" transform="matrix(14.6189 0 0 -14.6189 192.738 405.823)"/><use xlink:href="#l" transform="matrix(14.6189 0 0 -14.6189 200.93 406.993)"/><use xlink:href="#m" transform="matrix(14.6189 0 0 -14.6189 209.73 404.157)"/><use xlink:href="#z" transform="matrix(29 0 0 -29 228.89 387.605)"/><use xlink:href="#o" transform="matrix(29 0 0 -29 255.2 391.55)"/><use xlink:href="#d" transform="matrix(20.59 0 0 -20.59 284.074 371.916)"/><use xlink:href="#e" transform="matrix(20.59 0 0 -20.59 294.286 371.916)"/><path d="M265.074 378.122h59.599v1.914h-59.6z"/><use xlink:href="#f" transform="matrix(20.59 0 0 -20.59 268.385 401.385)"/><use xlink:href="#g" transform="matrix(14.6189 0 0 -14.6189 278.292 395.66)"/><use xlink:href="#h" transform="matrix(14.6189 0 0 -14.6189 276.493 407.194)"/><use xlink:href="#i" transform="matrix(14.6189 0 0 -14.6189 283.606 410.016)"/><use xlink:href="#j" transform="matrix(14.6189 0 0 -14.6189 290.702 407.136)"/><use xlink:href="#k" transform="matrix(14.6189 0 0 -14.6189 297.807 408.832)"/><use xlink:href="#l" transform="matrix(14.6189 0 0 -14.6189 305.999 410.001)"/><use xlink:href="#m" transform="matrix(14.6189 0 0 -14.6189 314.8 407.165)"/><use xlink:href="#n" transform="matrix(29 0 0 -29 333.814 387.141)"/><use xlink:href="#o" transform="matrix(29 0 0 -29 358.964 391.55)"/><use xlink:href="#p" transform="matrix(20.59 0 0 -20.59 395.312 371.916)"/><path d="M368.838 378.122h58.672v1.914h-58.672z"/><use xlink:href="#q" transform="matrix(20.59 0 0 -20.59 372.067 399.734)"/><use xlink:href="#h" transform="matrix(14.6189 0 0 -14.6189 379.33 404.186)"/><use xlink:href="#i" transform="matrix(14.6189 0 0 -14.6189 386.443 407.007)"/><use xlink:href="#j" transform="matrix(14.6189 0 0 -14.6189 393.54 404.127)"/><use xlink:href="#k" transform="matrix(14.6189 0 0 -14.6189 400.644 405.823)"/><use xlink:href="#l" transform="matrix(14.6189 0 0 -14.6189 408.836 406.993)"/><use xlink:href="#m" transform="matrix(14.6189 0 0 -14.6189 417.637 404.157)"/><use xlink:href="#r" transform="matrix(29 0 0 -29 437.26 380.036)"/><use xlink:href="#p" transform="matrix(20.59 0 0 -20.59 511.818 371.916)"/><path d="M461.714 378.122h105.932v1.914H461.714z"/><use xlink:href="#f" transform="matrix(20.59 0 0 -20.59 465.026 399.837)"/><use xlink:href="#h" transform="matrix(14.6189 0 0 -14.6189 473.338 404.186)"/><use xlink:href="#i" transform="matrix(14.6189 0 0 -14.6189 480.452 407.007)"/><use xlink:href="#j" transform="matrix(14.6189 0 0 -14.6189 487.548 404.127)"/><use xlink:href="#k" transform="matrix(14.6189 0 0 -14.6189 494.653 405.823)"/><use xlink:href="#l" transform="matrix(14.6189 0 0 -14.6189 502.844 406.993)"/><use xlink:href="#m" transform="matrix(14.6189 0 0 -14.6189 511.645 404.157)"/><use xlink:href="#s" transform="matrix(20.59 0 0 -20.59 519.4 399.693)"/><use xlink:href="#q" transform="matrix(14.6189 0 0 -14.6189 523.94 404.186)"/><use xlink:href="#s" transform="matrix(14.6189 0 0 -14.6189 529.948 404.157)"/><use xlink:href="#t" transform="matrix(14.6189 0 0 -14.6189 533.705 404.157)"/><use xlink:href="#k" transform="matrix(14.6189 0 0 -14.6189 540.78 405.823)"/><use xlink:href="#l" transform="matrix(14.6189 0 0 -14.6189 548.972 406.993)"/><use xlink:href="#m" transform="matrix(14.6189 0 0 -14.6189 557.773 404.157)"/><use xlink:href="#u" transform="matrix(29 0 0 -29 570.096 391.55)"/><use xlink:href="#u" transform="matrix(29 0 0 -29 579.753 391.55)"/><use xlink:href="#f" transform="matrix(29 0 0 -29 589.15 386.938)"/><use xlink:href="#A" transform="matrix(20.59 0 0 -20.59 603.349 379.164)"/><use xlink:href="#u" transform="matrix(29 0 0 -29 613.64 391.55)"/></g><g data-name="P"><use xlink:href="#q" transform="matrix(29 0 0 -29 106.717 520.5)"/><use xlink:href="#c" transform="matrix(29 0 0 -29 126.981 516.643)"/><use xlink:href="#d" transform="matrix(29 0 0 -29 351.93 499.678)"/><use xlink:href="#e" transform="matrix(29 0 0 -29 366.574 499.678)"/><path stroke-width="1.435" stroke-miterlimit="10" fill="none" stroke="#000" d="m348.305 501.592 37.931-22.765"/><use xlink:href="#n" transform="matrix(29 0 0 -29 392.014 500.403)"/><use xlink:href="#f" transform="matrix(29 0 0 -29 416.351 500.2)"/><path d="M153.51 511.829h471.847v1.914H153.51z"/><use xlink:href="#o" transform="matrix(29 0 0 -29 157.802 553.036)"/><use xlink:href="#d" transform="matrix(20.59 0 0 -20.59 182.84 533.403)"/><use xlink:href="#e" transform="matrix(20.59 0 0 -20.59 193.053 533.403)"/><path stroke-width="1.019" stroke-miterlimit="10" fill="none" stroke="#000" d="m180.267 534.762 26.746-16.163"/><path d="M167.676 539.61h51.928v1.913h-51.928z"/><use xlink:href="#s" transform="matrix(20.59 0 0 -20.59 171.358 561.18)"/><use xlink:href="#q" transform="matrix(14.6189 0 0 -14.6189 175.897 565.673)"/><use xlink:href="#s" transform="matrix(14.6189 0 0 -14.6189 181.905 565.644)"/><use xlink:href="#t" transform="matrix(14.6189 0 0 -14.6189 185.663 565.644)"/><use xlink:href="#k" transform="matrix(14.6189 0 0 -14.6189 192.738 567.31)"/><use xlink:href="#l" transform="matrix(14.6189 0 0 -14.6189 200.93 568.48)"/><use xlink:href="#m" transform="matrix(14.6189 0 0 -14.6189 209.73 565.644)"/><use xlink:href="#z" transform="matrix(29 0 0 -29 228.89 549.092)"/><use xlink:href="#o" transform="matrix(29 0 0 -29 255.2 553.036)"/><use xlink:href="#d" transform="matrix(20.59 0 0 -20.59 284.074 533.403)"/><use xlink:href="#e" transform="matrix(20.59 0 0 -20.59 294.286 533.403)"/><path stroke-width="1.019" stroke-miterlimit="10" fill="none" stroke="#000" d="m281.5 534.762 26.746-16.163"/><path d="M265.074 539.61h59.599v1.913h-59.6z"/><use xlink:href="#f" transform="matrix(20.59 0 0 -20.59 268.385 562.872)"/><use xlink:href="#g" transform="matrix(14.6189 0 0 -14.6189 278.292 557.148)"/><use xlink:href="#h" transform="matrix(14.6189 0 0 -14.6189 276.493 568.682)"/><use xlink:href="#i" transform="matrix(14.6189 0 0 -14.6189 283.606 571.503)"/><use xlink:href="#j" transform="matrix(14.6189 0 0 -14.6189 290.702 568.623)"/><use xlink:href="#k" transform="matrix(14.6189 0 0 -14.6189 297.807 570.319)"/><use xlink:href="#l" transform="matrix(14.6189 0 0 -14.6189 305.999 571.488)"/><use xlink:href="#m" transform="matrix(14.6189 0 0 -14.6189 314.8 568.652)"/><use xlink:href="#n" transform="matrix(29 0 0 -29 333.814 548.628)"/><use xlink:href="#o" transform="matrix(29 0 0 -29 358.964 553.036)"/><use xlink:href="#p" transform="matrix(20.59 0 0 -20.59 395.312 533.403)"/><path d="M368.838 539.61h58.672v1.913h-58.672z"/><use xlink:href="#q" transform="matrix(20.59 0 0 -20.59 372.067 561.221)"/><use xlink:href="#h" transform="matrix(14.6189 0 0 -14.6189 379.33 565.673)"/><use xlink:href="#i" transform="matrix(14.6189 0 0 -14.6189 386.443 568.495)"/><use xlink:href="#j" transform="matrix(14.6189 0 0 -14.6189 393.54 565.615)"/><use xlink:href="#k" transform="matrix(14.6189 0 0 -14.6189 400.644 567.31)"/><use xlink:href="#l" transform="matrix(14.6189 0 0 -14.6189 408.836 568.48)"/><use xlink:href="#m" transform="matrix(14.6189 0 0 -14.6189 417.637 565.644)"/><use xlink:href="#r" transform="matrix(29 0 0 -29 437.26 541.523)"/><use xlink:href="#p" transform="matrix(20.59 0 0 -20.59 511.818 533.403)"/><path d="M461.714 539.61h105.932v1.913H461.714z"/><use xlink:href="#f" transform="matrix(20.59 0 0 -20.59 465.026 561.324)"/><use xlink:href="#h" transform="matrix(14.6189 0 0 -14.6189 473.338 565.673)"/><use xlink:href="#i" transform="matrix(14.6189 0 0 -14.6189 480.452 568.495)"/><use xlink:href="#j" transform="matrix(14.6189 0 0 -14.6189 487.548 565.615)"/><use xlink:href="#k" transform="matrix(14.6189 0 0 -14.6189 494.653 567.31)"/><use xlink:href="#l" transform="matrix(14.6189 0 0 -14.6189 502.844 568.48)"/><use xlink:href="#m" transform="matrix(14.6189 0 0 -14.6189 511.645 565.644)"/><use xlink:href="#s" transform="matrix(20.59 0 0 -20.59 519.4 561.18)"/><use xlink:href="#q" transform="matrix(14.6189 0 0 -14.6189 523.94 565.673)"/><use xlink:href="#s" transform="matrix(14.6189 0 0 -14.6189 529.948 565.644)"/><use xlink:href="#t" transform="matrix(14.6189 0 0 -14.6189 533.705 565.644)"/><use xlink:href="#k" transform="matrix(14.6189 0 0 -14.6189 540.78 567.31)"/><use xlink:href="#l" transform="matrix(14.6189 0 0 -14.6189 548.972 568.48)"/><use xlink:href="#m" transform="matrix(14.6189 0 0 -14.6189 557.773 565.644)"/><use xlink:href="#u" transform="matrix(29 0 0 -29 570.096 553.036)"/><use xlink:href="#u" transform="matrix(29 0 0 -29 579.753 553.036)"/><use xlink:href="#f" transform="matrix(29 0 0 -29 589.15 548.425)"/><use xlink:href="#A" transform="matrix(20.59 0 0 -20.59 603.349 540.652)"/><use xlink:href="#u" transform="matrix(29 0 0 -29 613.64 553.036)"/></g><g data-name="P"><use xlink:href="#q" transform="matrix(29 0 0 -29 98.698 661.962)"/><use xlink:href="#c" transform="matrix(29 0 0 -29 118.963 658.105)"/><use xlink:href="#d" transform="matrix(29 0 0 -29 369.771 641.14)"/><use xlink:href="#e" transform="matrix(29 0 0 -29 384.415 641.14)"/><path stroke-width="1.435" stroke-miterlimit="10" fill="none" stroke="#000" d="m366.146 643.054 37.931-22.765"/><use xlink:href="#n" transform="matrix(29 0 0 -29 409.855 641.865)"/><use xlink:href="#f" transform="matrix(29 0 0 -29 434.192 641.662)"/><path d="M145.491 653.29h523.566v1.915H145.491z"/><use xlink:href="#o" transform="matrix(29 0 0 -29 149.783 694.499)"/><use xlink:href="#d" transform="matrix(20.59 0 0 -20.59 174.822 674.866)"/><use xlink:href="#e" transform="matrix(20.59 0 0 -20.59 185.034 674.866)"/><path stroke-width="1.019" stroke-miterlimit="10" fill="none" stroke="#000" d="m172.248 676.225 26.746-16.164"/><path d="M159.657 681.072h51.928v1.914h-51.928z"/><use xlink:href="#s" transform="matrix(20.59 0 0 -20.59 163.34 702.642)"/><use xlink:href="#q" transform="matrix(14.6189 0 0 -14.6189 167.878 707.136)"/><use xlink:href="#s" transform="matrix(14.6189 0 0 -14.6189 173.887 707.106)"/><use xlink:href="#t" transform="matrix(14.6189 0 0 -14.6189 177.644 707.106)"/><use xlink:href="#k" transform="matrix(14.6189 0 0 -14.6189 184.72 708.773)"/><use xlink:href="#l" transform="matrix(14.6189 0 0 -14.6189 192.911 709.942)"/><use xlink:href="#m" transform="matrix(14.6189 0 0 -14.6189 201.712 707.106)"/><use xlink:href="#z" transform="matrix(29 0 0 -29 220.871 690.555)"/><use xlink:href="#o" transform="matrix(29 0 0 -29 247.18 694.499)"/><use xlink:href="#d" transform="matrix(20.59 0 0 -20.59 276.055 674.866)"/><use xlink:href="#e" transform="matrix(20.59 0 0 -20.59 286.268 674.866)"/><path stroke-width="1.019" stroke-miterlimit="10" fill="none" stroke="#000" d="m273.481 676.225 26.747-16.164"/><path d="M257.055 681.072h59.6v1.914h-59.6z"/><use xlink:href="#f" transform="matrix(20.59 0 0 -20.59 260.367 704.334)"/><use xlink:href="#g" transform="matrix(14.6189 0 0 -14.6189 270.273 698.61)"/><use xlink:href="#h" transform="matrix(14.6189 0 0 -14.6189 268.474 710.144)"/><use xlink:href="#i" transform="matrix(14.6189 0 0 -14.6189 275.588 712.965)"/><use xlink:href="#j" transform="matrix(14.6189 0 0 -14.6189 282.684 710.085)"/><use xlink:href="#k" transform="matrix(14.6189 0 0 -14.6189 289.789 711.781)"/><use xlink:href="#l" transform="matrix(14.6189 0 0 -14.6189 297.98 712.95)"/><use xlink:href="#m" transform="matrix(14.6189 0 0 -14.6189 306.78 710.115)"/><use xlink:href="#n" transform="matrix(29 0 0 -29 325.796 690.09)"/><use xlink:href="#o" transform="matrix(29 0 0 -29 350.945 694.499)"/><use xlink:href="#p" transform="matrix(20.59 0 0 -20.59 413.152 674.866)"/><path d="M360.819 681.072H471.21v1.914H360.82z"/><use xlink:href="#f" transform="matrix(20.59 0 0 -20.59 364.13 702.786)"/><use xlink:href="#h" transform="matrix(14.6189 0 0 -14.6189 372.444 707.136)"/><use xlink:href="#i" transform="matrix(14.6189 0 0 -14.6189 379.557 709.957)"/><use xlink:href="#j" transform="matrix(14.6189 0 0 -14.6189 386.653 707.077)"/><use xlink:href="#k" transform="matrix(14.6189 0 0 -14.6189 393.758 708.773)"/><use xlink:href="#l" transform="matrix(14.6189 0 0 -14.6189 401.95 709.942)"/><use xlink:href="#m" transform="matrix(14.6189 0 0 -14.6189 410.75 707.106)"/><use xlink:href="#s" transform="matrix(20.59 0 0 -20.59 418.506 702.642)"/><use xlink:href="#h" transform="matrix(14.6189 0 0 -14.6189 423.03 707.136)"/><use xlink:href="#i" transform="matrix(14.6189 0 0 -14.6189 430.144 709.957)"/><use xlink:href="#j" transform="matrix(14.6189 0 0 -14.6189 437.24 707.077)"/><use xlink:href="#k" transform="matrix(14.6189 0 0 -14.6189 444.345 708.773)"/><use xlink:href="#l" transform="matrix(14.6189 0 0 -14.6189 452.536 709.942)"/><use xlink:href="#m" transform="matrix(14.6189 0 0 -14.6189 461.337 707.106)"/><use xlink:href="#r" transform="matrix(29 0 0 -29 480.96 682.986)"/><use xlink:href="#p" transform="matrix(20.59 0 0 -20.59 555.518 674.866)"/><path d="M505.414 681.072h105.932v1.914H505.414z"/><use xlink:href="#f" transform="matrix(20.59 0 0 -20.59 508.726 702.786)"/><use xlink:href="#h" transform="matrix(14.6189 0 0 -14.6189 517.039 707.136)"/><use xlink:href="#i" transform="matrix(14.6189 0 0 -14.6189 524.152 709.957)"/><use xlink:href="#j" transform="matrix(14.6189 0 0 -14.6189 531.248 707.077)"/><use xlink:href="#k" transform="matrix(14.6189 0 0 -14.6189 538.353 708.773)"/><use xlink:href="#l" transform="matrix(14.6189 0 0 -14.6189 546.545 709.942)"/><use xlink:href="#m" transform="matrix(14.6189 0 0 -14.6189 555.345 707.106)"/><use xlink:href="#s" transform="matrix(20.59 0 0 -20.59 563.1 702.642)"/><use xlink:href="#q" transform="matrix(14.6189 0 0 -14.6189 567.64 707.136)"/><use xlink:href="#s" transform="matrix(14.6189 0 0 -14.6189 573.648 707.106)"/><use xlink:href="#t" transform="matrix(14.6189 0 0 -14.6189 577.405 707.106)"/><use xlink:href="#k" transform="matrix(14.6189 0 0 -14.6189 584.48 708.773)"/><use xlink:href="#l" transform="matrix(14.6189 0 0 -14.6189 592.673 709.942)"/><use xlink:href="#m" transform="matrix(14.6189 0 0 -14.6189 601.473 707.106)"/><use xlink:href="#u" transform="matrix(29 0 0 -29 613.796 694.499)"/><use xlink:href="#u" transform="matrix(29 0 0 -29 623.453 694.499)"/><use xlink:href="#f" transform="matrix(29 0 0 -29 632.85 689.888)"/><use xlink:href="#A" transform="matrix(20.59 0 0 -20.59 647.05 682.114)"/><use xlink:href="#u" transform="matrix(29 0 0 -29 657.341 694.499)"/></g><g data-name="P"><use xlink:href="#q" transform="matrix(29 0 0 -29 97.96 852.51)"/><use xlink:href="#c" transform="matrix(29 0 0 -29 118.225 848.653)"/><use xlink:href="#f" transform="matrix(29 0 0 -29 314.36 832.21)"/><path d="M144.754 843.84h350.93v1.913h-350.93z"/><use xlink:href="#p" transform="matrix(20.59 0 0 -20.59 172.205 866.731)"/><path d="M149.103 872.937h51.928v1.914h-51.928z"/><use xlink:href="#s" transform="matrix(20.59 0 0 -20.59 152.786 894.508)"/><use xlink:href="#q" transform="matrix(14.6189 0 0 -14.6189 157.325 899)"/><use xlink:href="#s" transform="matrix(14.6189 0 0 -14.6189 163.333 898.972)"/><use xlink:href="#t" transform="matrix(14.6189 0 0 -14.6189 167.09 898.972)"/><use xlink:href="#k" transform="matrix(14.6189 0 0 -14.6189 174.166 900.638)"/><use xlink:href="#l" transform="matrix(14.6189 0 0 -14.6189 182.358 901.808)"/><use xlink:href="#m" transform="matrix(14.6189 0 0 -14.6189 191.158 898.972)"/><use xlink:href="#z" transform="matrix(29 0 0 -29 210.318 882.42)"/><use xlink:href="#f" transform="matrix(20.59 0 0 -20.59 256.845 867.102)"/><use xlink:href="#A" transform="matrix(14.6189 0 0 -14.6189 266.927 861.582)"/><path d="M235.235 872.937h59.6v1.914h-59.6z"/><use xlink:href="#f" transform="matrix(20.59 0 0 -20.59 238.547 896.404)"/><use xlink:href="#A" transform="matrix(14.6189 0 0 -14.6189 248.658 890.68)"/><use xlink:href="#h" transform="matrix(14.6189 0 0 -14.6189 246.655 902.214)"/><use xlink:href="#i" transform="matrix(14.6189 0 0 -14.6189 253.768 905.035)"/><use xlink:href="#j" transform="matrix(14.6189 0 0 -14.6189 260.864 902.155)"/><use xlink:href="#k" transform="matrix(14.6189 0 0 -14.6189 267.969 903.851)"/><use xlink:href="#l" transform="matrix(14.6189 0 0 -14.6189 276.16 905.02)"/><use xlink:href="#m" transform="matrix(14.6189 0 0 -14.6189 284.961 902.184)"/><use xlink:href="#n" transform="matrix(29 0 0 -29 303.976 881.956)"/><use xlink:href="#o" transform="matrix(29 0 0 -29 329.125 886.364)"/><use xlink:href="#p" transform="matrix(20.59 0 0 -20.59 364.33 866.731)"/><path d="M339 872.937h56.386v1.914h-56.387z"/><use xlink:href="#s" transform="matrix(20.59 0 0 -20.59 342.682 894.508)"/><use xlink:href="#h" transform="matrix(14.6189 0 0 -14.6189 347.206 899)"/><use xlink:href="#i" transform="matrix(14.6189 0 0 -14.6189 354.32 901.822)"/><use xlink:href="#j" transform="matrix(14.6189 0 0 -14.6189 361.416 898.942)"/><use xlink:href="#k" transform="matrix(14.6189 0 0 -14.6189 368.52 900.638)"/><use xlink:href="#l" transform="matrix(14.6189 0 0 -14.6189 376.712 901.808)"/><use xlink:href="#m" transform="matrix(14.6189 0 0 -14.6189 385.513 898.972)"/><use xlink:href="#r" transform="matrix(29 0 0 -29 405.136 874.851)"/><use xlink:href="#p" transform="matrix(20.59 0 0 -20.59 452.692 866.731)"/><path d="M429.59 872.937h51.928v1.914H429.59z"/><use xlink:href="#s" transform="matrix(20.59 0 0 -20.59 433.272 894.508)"/><use xlink:href="#q" transform="matrix(14.6189 0 0 -14.6189 437.811 899)"/><use xlink:href="#s" transform="matrix(14.6189 0 0 -14.6189 443.82 898.972)"/><use xlink:href="#t" transform="matrix(14.6189 0 0 -14.6189 447.577 898.972)"/><use xlink:href="#k" transform="matrix(14.6189 0 0 -14.6189 454.652 900.638)"/><use xlink:href="#l" transform="matrix(14.6189 0 0 -14.6189 462.844 901.808)"/><use xlink:href="#m" transform="matrix(14.6189 0 0 -14.6189 471.644 898.972)"/><use xlink:href="#u" transform="matrix(29 0 0 -29 483.968 886.364)"/></g><g data-name="P"><use xlink:href="#f" transform="matrix(29 0 0 -29 856.116 112.622)"/><symbol id="B"><path d="M.441.312C.441.4.381.452.3.452a.248.248 0 0 1-.12-.03A.338.338 0 0 1 0 .139C0 .052.053 0 .147 0a.26.26 0 0 1 .188.083.34.34 0 0 1 .106.229M.357.337A.426.426 0 0 0 .283.104C.244.05.206.021.162.021.115.021.084.052.084.112A.42.42 0 0 0 .158.34c.04.06.084.091.128.091.043 0 .071-.033.071-.094z"/></symbol><use xlink:href="#B" transform="matrix(20.59 0 0 -20.59 867.949 119.576)"/><use xlink:href="#l" transform="matrix(20.59 0 0 -20.59 876.144 123.57)"/><use xlink:href="#s" transform="matrix(20.59 0 0 -20.59 888.848 119.576)"/><symbol id="C"><path d="M.215.61c0 .029-.023.055-.05.055C.138.665.118.643.118.612.118.58.137.559.166.559A.05.05 0 0 1 .215.61M.173.125C.13.068.106.047.089.047.081.047.075.052.075.062c0 .014.005.027.01.044l.094.343-.004.003a1.28 1.28 0 0 0-.16-.025V.411C.069.41.079.407.079.387A.225.225 0 0 0 .07.343L.022.166A.52.52 0 0 1 0 .055C0 .018.016 0 .049 0c.05 0 .082.03.137.114L.173.125z"/></symbol><use xlink:href="#C" transform="matrix(20.59 0 0 -20.59 894.815 119.576)"/><symbol id="D"><path d="M.692.114.677.126.656.1C.626.063.608.047.591.047.583.047.579.052.579.063l.01.045.068.251A.219.219 0 0 1 .66.387C.66.423.639.45.602.45A.113.113 0 0 1 .539.43C.49.399.449.349.379.238c.027.077.04.133.04.152 0 .036-.02.06-.06.06C.298.45.228.384.139.239l.058.209L.194.45.032.419V.403h.025C.084.403.098.396.098.381A1.46 1.46 0 0 0 .043.153L0 .009h.075c.048.158.062.194.096.246C.227.34.286.398.32.398.333.398.342.389.342.373.342.36.318.254.274.102L.247.009h.075C.361.163.381.212.43.281c.05.07.101.117.131.117a.02.02 0 0 0 .02-.021.206.206 0 0 0-.007-.038L.516.112A.318.318 0 0 1 .503.046C.503.016.517 0 .543 0 .59 0 .634.033.687.107l.005.007z"/></symbol><use xlink:href="#D" transform="matrix(20.59 0 0 -20.59 899.777 119.535)"/><use xlink:href="#t" transform="matrix(20.59 0 0 -20.59 915.025 119.576)"/><symbol id="E"><path d="M.238.689.232.694A1.397 1.397 0 0 0 .077.667V.651h.018c.032 0 .049-.01.049-.022C.144.626.144.62.141.61L.004.086A.113.113 0 0 1 0 .056C0 .019.017 0 .049 0 .103 0 .14.03.2.125l-.014.01L.161.1C.132.059.109.043.094.043c-.01 0-.017.006-.017.018a.2.2 0 0 0 .008.043l.153.585z"/></symbol><use xlink:href="#E" transform="matrix(20.59 0 0 -20.59 925.835 119.576)"/><use xlink:href="#c" transform="matrix(29 0 0 -29 940.162 108.62)"/><use xlink:href="#A" transform="matrix(14.6189 0 0 -14.6189 977.09 100.06)"/><path d="M997.054 67.375h-1.77l-15.34 64.06h-.203l-6.931-28.68h-.812l-5.307 3.683.435.783c.667-.523 1.508-.813 2-.813 1.103 0 1.538 1.044 1.857 2.379l7.25 29.928h1.71zm-1.77 1.914h67.165v-1.914h-67.164z"/><use xlink:href="#v" transform="matrix(29 0 0 -29 999.722 91.655)"/><use xlink:href="#w" transform="matrix(29 0 0 -29 1017.15 91.655)"/><use xlink:href="#x" transform="matrix(29 0 0 -29 1041.453 91.655)"/><path d="M997.054 103.806h65.395v1.914h-65.395z"/><use xlink:href="#g" transform="matrix(29 0 0 -29 1013.67 133.85)"/><symbol id="F"><path d="M.715.653H.494V.637L.518.634C.542.631.554.626.554.615.554.591.5.541.411.478L.258.369l.053.194c.015.056.047.07.099.074v.016H.14V.637C.202.634.219.621.219.594.219.578.212.557.205.532L.081.087C.066.034.06.023 0 .016V0h.247v.016C.192.021.176.029.176.06a.2.2 0 0 0 .011.051l.065.237.123-.215C.393.101.412.072.412.051.412.034.397.022.366.019L.337.016V0h.275v.016C.549.022.539.028.508.082L.34.375.638.6C.667.622.69.637.715.637v.016z"/></symbol><use xlink:href="#F" transform="matrix(29 0 0 -29 1027.533 133.85)"/></g><g data-name="P"><use xlink:href="#f" transform="matrix(29 0 0 -29 712.21 270.985)"/><use xlink:href="#B" transform="matrix(20.59 0 0 -20.59 724.043 277.939)"/><use xlink:href="#l" transform="matrix(20.59 0 0 -20.59 732.238 281.933)"/><use xlink:href="#s" transform="matrix(20.59 0 0 -20.59 744.942 277.939)"/><use xlink:href="#C" transform="matrix(20.59 0 0 -20.59 750.91 277.939)"/><use xlink:href="#D" transform="matrix(20.59 0 0 -20.59 755.871 277.898)"/><use xlink:href="#t" transform="matrix(20.59 0 0 -20.59 771.12 277.939)"/><use xlink:href="#E" transform="matrix(20.59 0 0 -20.59 781.93 277.939)"/><use xlink:href="#c" transform="matrix(29 0 0 -29 796.257 266.982)"/><use xlink:href="#A" transform="matrix(14.6189 0 0 -14.6189 833.475 281.331)"/><path d="M845.492 332.92V196.349h-1.914v124.857h-.029l-13.079-37.207h-1.16l-6.525 3.74.667.929c.783-.667 2.204-.9 2.813-.9.841 0 1.711.523 2.117 1.683l15.457 43.47zm-1.914-134.658h362.776v-1.914H843.578z"/><use xlink:href="#d" transform="matrix(20.59 0 0 -20.59 1015.124 221.35)"/><use xlink:href="#e" transform="matrix(20.59 0 0 -20.59 1025.336 221.35)"/><path d="M999.96 227.556h51.927v1.914h-51.928z"/><use xlink:href="#s" transform="matrix(20.59 0 0 -20.59 1003.642 249.126)"/><use xlink:href="#q" transform="matrix(14.6189 0 0 -14.6189 1008.18 253.62)"/><use xlink:href="#s" transform="matrix(14.6189 0 0 -14.6189 1014.189 253.59)"/><use xlink:href="#t" transform="matrix(14.6189 0 0 -14.6189 1017.946 253.59)"/><use xlink:href="#k" transform="matrix(14.6189 0 0 -14.6189 1025.022 255.257)"/><use xlink:href="#l" transform="matrix(14.6189 0 0 -14.6189 1033.213 256.426)"/><use xlink:href="#m" transform="matrix(14.6189 0 0 -14.6189 1042.014 253.59)"/><path d="M848.392 262.168h355.062v1.914H848.392z"/><use xlink:href="#g" transform="matrix(29 0 0 -29 852.133 298.243)"/><use xlink:href="#o" transform="matrix(29 0 0 -29 867.184 303.376)"/><use xlink:href="#d" transform="matrix(20.59 0 0 -20.59 896.059 283.743)"/><use xlink:href="#e" transform="matrix(20.59 0 0 -20.59 906.271 283.743)"/><path d="M877.058 289.95h59.6v1.913h-59.6z"/><use xlink:href="#f" transform="matrix(20.59 0 0 -20.59 880.37 313.212)"/><use xlink:href="#g" transform="matrix(14.6189 0 0 -14.6189 890.277 307.488)"/><use xlink:href="#h" transform="matrix(14.6189 0 0 -14.6189 888.478 319.021)"/><use xlink:href="#i" transform="matrix(14.6189 0 0 -14.6189 895.591 321.843)"/><use xlink:href="#j" transform="matrix(14.6189 0 0 -14.6189 902.687 318.963)"/><use xlink:href="#k" transform="matrix(14.6189 0 0 -14.6189 909.792 320.659)"/><use xlink:href="#l" transform="matrix(14.6189 0 0 -14.6189 917.984 321.828)"/><use xlink:href="#m" transform="matrix(14.6189 0 0 -14.6189 926.785 318.992)"/><use xlink:href="#n" transform="matrix(29 0 0 -29 945.8 298.968)"/><use xlink:href="#o" transform="matrix(29 0 0 -29 970.949 303.376)"/><use xlink:href="#p" transform="matrix(20.59 0 0 -20.59 1007.297 283.743)"/><path d="M980.823 289.95h58.672v1.913h-58.672z"/><use xlink:href="#q" transform="matrix(20.59 0 0 -20.59 984.052 311.561)"/><use xlink:href="#h" transform="matrix(14.6189 0 0 -14.6189 991.315 316.013)"/><use xlink:href="#i" transform="matrix(14.6189 0 0 -14.6189 998.428 318.835)"/><use xlink:href="#j" transform="matrix(14.6189 0 0 -14.6189 1005.524 315.955)"/><use xlink:href="#k" transform="matrix(14.6189 0 0 -14.6189 1012.63 317.65)"/><use xlink:href="#l" transform="matrix(14.6189 0 0 -14.6189 1020.82 318.82)"/><use xlink:href="#m" transform="matrix(14.6189 0 0 -14.6189 1029.621 315.984)"/><use xlink:href="#r" transform="matrix(29 0 0 -29 1049.245 291.863)"/><use xlink:href="#p" transform="matrix(20.59 0 0 -20.59 1123.803 283.743)"/><path d="M1073.699 289.95h105.932v1.913h-105.932z"/><use xlink:href="#f" transform="matrix(20.59 0 0 -20.59 1077.01 311.664)"/><use xlink:href="#h" transform="matrix(14.6189 0 0 -14.6189 1085.323 316.013)"/><use xlink:href="#i" transform="matrix(14.6189 0 0 -14.6189 1092.437 318.835)"/><use xlink:href="#j" transform="matrix(14.6189 0 0 -14.6189 1099.533 315.955)"/><use xlink:href="#k" transform="matrix(14.6189 0 0 -14.6189 1106.638 317.65)"/><use xlink:href="#l" transform="matrix(14.6189 0 0 -14.6189 1114.83 318.82)"/><use xlink:href="#m" transform="matrix(14.6189 0 0 -14.6189 1123.63 315.984)"/><use xlink:href="#s" transform="matrix(20.59 0 0 -20.59 1131.386 311.52)"/><use xlink:href="#q" transform="matrix(14.6189 0 0 -14.6189 1135.924 316.013)"/><use xlink:href="#s" transform="matrix(14.6189 0 0 -14.6189 1141.933 315.984)"/><use xlink:href="#t" transform="matrix(14.6189 0 0 -14.6189 1145.69 315.984)"/><use xlink:href="#k" transform="matrix(14.6189 0 0 -14.6189 1152.765 317.65)"/><use xlink:href="#l" transform="matrix(14.6189 0 0 -14.6189 1160.957 318.82)"/><use xlink:href="#m" transform="matrix(14.6189 0 0 -14.6189 1169.758 315.984)"/><use xlink:href="#u" transform="matrix(29 0 0 -29 1182.08 303.376)"/><use xlink:href="#u" transform="matrix(29 0 0 -29 1191.738 303.376)"/></g><g data-name="P"><use xlink:href="#f" transform="matrix(29 0 0 -29 712.21 460.257)"/><use xlink:href="#B" transform="matrix(20.59 0 0 -20.59 724.043 467.212)"/><use xlink:href="#l" transform="matrix(20.59 0 0 -20.59 732.238 471.206)"/><use xlink:href="#s" transform="matrix(20.59 0 0 -20.59 744.942 467.212)"/><use xlink:href="#C" transform="matrix(20.59 0 0 -20.59 750.91 467.212)"/><use xlink:href="#D" transform="matrix(20.59 0 0 -20.59 755.871 467.17)"/><use xlink:href="#t" transform="matrix(20.59 0 0 -20.59 771.12 467.212)"/><use xlink:href="#E" transform="matrix(20.59 0 0 -20.59 781.93 467.212)"/><use xlink:href="#c" transform="matrix(29 0 0 -29 796.257 456.255)"/><use xlink:href="#A" transform="matrix(14.6189 0 0 -14.6189 833.475 470.604)"/><path d="M845.492 522.194V385.62h-1.914v124.857h-.029L830.47 473.27h-1.16l-6.525 3.74.667.929c.783-.667 2.204-.9 2.813-.9.841 0 1.711.523 2.117 1.683l15.457 43.47zm-1.914-134.66h362.776v-1.913H843.578z"/><use xlink:href="#d" transform="matrix(20.59 0 0 -20.59 1015.124 410.623)"/><use xlink:href="#e" transform="matrix(20.59 0 0 -20.59 1025.336 410.623)"/><path stroke-width="1.019" stroke-miterlimit="10" fill="none" stroke="#000" d="m1012.55 411.982 26.746-16.164"/><path d="M999.96 416.828h51.927v1.914h-51.928z"/><use xlink:href="#s" transform="matrix(20.59 0 0 -20.59 1003.642 438.4)"/><use xlink:href="#q" transform="matrix(14.6189 0 0 -14.6189 1008.18 442.892)"/><use xlink:href="#s" transform="matrix(14.6189 0 0 -14.6189 1014.189 442.863)"/><use xlink:href="#t" transform="matrix(14.6189 0 0 -14.6189 1017.946 442.863)"/><use xlink:href="#k" transform="matrix(14.6189 0 0 -14.6189 1025.022 444.53)"/><use xlink:href="#l" transform="matrix(14.6189 0 0 -14.6189 1033.213 445.7)"/><use xlink:href="#m" transform="matrix(14.6189 0 0 -14.6189 1042.014 442.863)"/><path d="M848.392 451.441h355.062v1.914H848.392z"/><use xlink:href="#g" transform="matrix(29 0 0 -29 852.133 487.516)"/><use xlink:href="#o" transform="matrix(29 0 0 -29 867.184 492.65)"/><use xlink:href="#d" transform="matrix(20.59 0 0 -20.59 896.059 473.016)"/><use xlink:href="#e" transform="matrix(20.59 0 0 -20.59 906.271 473.016)"/><path stroke-width="1.019" stroke-miterlimit="10" fill="none" stroke="#000" d="m893.485 474.375 26.746-16.163"/><path d="M877.058 479.222h59.6v1.914h-59.6z"/><use xlink:href="#f" transform="matrix(20.59 0 0 -20.59 880.37 502.484)"/><use xlink:href="#g" transform="matrix(14.6189 0 0 -14.6189 890.277 496.76)"/><use xlink:href="#h" transform="matrix(14.6189 0 0 -14.6189 888.478 508.294)"/><use xlink:href="#i" transform="matrix(14.6189 0 0 -14.6189 895.591 511.116)"/><use xlink:href="#j" transform="matrix(14.6189 0 0 -14.6189 902.687 508.236)"/><use xlink:href="#k" transform="matrix(14.6189 0 0 -14.6189 909.792 509.931)"/><use xlink:href="#l" transform="matrix(14.6189 0 0 -14.6189 917.984 511.101)"/><use xlink:href="#m" transform="matrix(14.6189 0 0 -14.6189 926.785 508.265)"/><use xlink:href="#n" transform="matrix(29 0 0 -29 945.8 488.241)"/><use xlink:href="#o" transform="matrix(29 0 0 -29 970.949 492.65)"/><use xlink:href="#p" transform="matrix(20.59 0 0 -20.59 1007.297 473.016)"/><path d="M980.823 479.222h58.672v1.914h-58.672z"/><use xlink:href="#q" transform="matrix(20.59 0 0 -20.59 984.052 500.834)"/><use xlink:href="#h" transform="matrix(14.6189 0 0 -14.6189 991.315 505.286)"/><use xlink:href="#i" transform="matrix(14.6189 0 0 -14.6189 998.428 508.107)"/><use xlink:href="#j" transform="matrix(14.6189 0 0 -14.6189 1005.524 505.227)"/><use xlink:href="#k" transform="matrix(14.6189 0 0 -14.6189 1012.63 506.923)"/><use xlink:href="#l" transform="matrix(14.6189 0 0 -14.6189 1020.82 508.093)"/><use xlink:href="#m" transform="matrix(14.6189 0 0 -14.6189 1029.621 505.257)"/><use xlink:href="#r" transform="matrix(29 0 0 -29 1049.245 481.136)"/><use xlink:href="#p" transform="matrix(20.59 0 0 -20.59 1123.803 473.016)"/><path d="M1073.699 479.222h105.932v1.914h-105.932z"/><use xlink:href="#f" transform="matrix(20.59 0 0 -20.59 1077.01 500.937)"/><use xlink:href="#h" transform="matrix(14.6189 0 0 -14.6189 1085.323 505.286)"/><use xlink:href="#i" transform="matrix(14.6189 0 0 -14.6189 1092.437 508.107)"/><use xlink:href="#j" transform="matrix(14.6189 0 0 -14.6189 1099.533 505.227)"/><use xlink:href="#k" transform="matrix(14.6189 0 0 -14.6189 1106.638 506.923)"/><use xlink:href="#l" transform="matrix(14.6189 0 0 -14.6189 1114.83 508.093)"/><use xlink:href="#m" transform="matrix(14.6189 0 0 -14.6189 1123.63 505.257)"/><use xlink:href="#s" transform="matrix(20.59 0 0 -20.59 1131.386 500.793)"/><use xlink:href="#q" transform="matrix(14.6189 0 0 -14.6189 1135.924 505.286)"/><use xlink:href="#s" transform="matrix(14.6189 0 0 -14.6189 1141.933 505.257)"/><use xlink:href="#t" transform="matrix(14.6189 0 0 -14.6189 1145.69 505.257)"/><use xlink:href="#k" transform="matrix(14.6189 0 0 -14.6189 1152.765 506.923)"/><use xlink:href="#l" transform="matrix(14.6189 0 0 -14.6189 1160.957 508.093)"/><use xlink:href="#m" transform="matrix(14.6189 0 0 -14.6189 1169.758 505.257)"/><use xlink:href="#u" transform="matrix(29 0 0 -29 1182.08 492.65)"/><use xlink:href="#u" transform="matrix(29 0 0 -29 1191.738 492.65)"/></g><g data-name="P"><use xlink:href="#f" transform="matrix(29 0 0 -29 712.21 632.336)"/><use xlink:href="#B" transform="matrix(20.59 0 0 -20.59 724.043 639.29)"/><use xlink:href="#l" transform="matrix(20.59 0 0 -20.59 732.238 643.284)"/><use xlink:href="#s" transform="matrix(20.59 0 0 -20.59 744.942 639.29)"/><use xlink:href="#C" transform="matrix(20.59 0 0 -20.59 750.91 639.29)"/><use xlink:href="#D" transform="matrix(20.59 0 0 -20.59 755.871 639.249)"/><use xlink:href="#t" transform="matrix(20.59 0 0 -20.59 771.12 639.29)"/><use xlink:href="#E" transform="matrix(20.59 0 0 -20.59 781.93 639.29)"/><use xlink:href="#c" transform="matrix(29 0 0 -29 796.257 628.334)"/><use xlink:href="#A" transform="matrix(14.6189 0 0 -14.6189 833.475 642.683)"/><path d="M845.492 694.272V557.699h-1.914v124.857h-.029l-13.079-37.207h-1.16l-6.525 3.74.667.929c.783-.667 2.204-.9 2.813-.9.841 0 1.711.523 2.117 1.683l15.457 43.47zm-1.914-134.659h362.776V557.7H843.578z"/><use xlink:href="#d" transform="matrix(20.59 0 0 -20.59 1015.124 582.7)"/><use xlink:href="#e" transform="matrix(20.59 0 0 -20.59 1025.336 582.7)"/><path stroke-width="1.019" stroke-miterlimit="10" fill="none" stroke="#000" d="m1012.55 584.06 26.746-16.163"/><path d="M999.96 588.907h51.927v1.914h-51.928z"/><use xlink:href="#s" transform="matrix(20.59 0 0 -20.59 1003.642 610.477)"/><use xlink:href="#q" transform="matrix(14.6189 0 0 -14.6189 1008.18 614.97)"/><use xlink:href="#s" transform="matrix(14.6189 0 0 -14.6189 1014.189 614.941)"/><use xlink:href="#t" transform="matrix(14.6189 0 0 -14.6189 1017.946 614.941)"/><use xlink:href="#k" transform="matrix(14.6189 0 0 -14.6189 1025.022 616.608)"/><use xlink:href="#l" transform="matrix(14.6189 0 0 -14.6189 1033.213 617.778)"/><use xlink:href="#m" transform="matrix(14.6189 0 0 -14.6189 1042.014 614.941)"/><path d="M848.392 623.52h355.062v1.913H848.392z"/><use xlink:href="#g" transform="matrix(29 0 0 -29 852.133 659.594)"/><use xlink:href="#o" transform="matrix(29 0 0 -29 867.184 664.727)"/><use xlink:href="#d" transform="matrix(20.59 0 0 -20.59 896.059 645.094)"/><use xlink:href="#e" transform="matrix(20.59 0 0 -20.59 906.271 645.094)"/><path stroke-width="1.019" stroke-miterlimit="10" fill="none" stroke="#000" d="m893.485 646.453 26.746-16.163"/><path d="M877.058 651.3h59.6v1.914h-59.6z"/><use xlink:href="#f" transform="matrix(20.59 0 0 -20.59 880.37 674.563)"/><use xlink:href="#g" transform="matrix(14.6189 0 0 -14.6189 890.277 668.839)"/><use xlink:href="#h" transform="matrix(14.6189 0 0 -14.6189 888.478 680.372)"/><use xlink:href="#i" transform="matrix(14.6189 0 0 -14.6189 895.591 683.194)"/><use xlink:href="#j" transform="matrix(14.6189 0 0 -14.6189 902.687 680.314)"/><use xlink:href="#k" transform="matrix(14.6189 0 0 -14.6189 909.792 682.01)"/><use xlink:href="#l" transform="matrix(14.6189 0 0 -14.6189 917.984 683.18)"/><use xlink:href="#m" transform="matrix(14.6189 0 0 -14.6189 926.785 680.343)"/><use xlink:href="#n" transform="matrix(29 0 0 -29 945.8 660.32)"/><use xlink:href="#o" transform="matrix(29 0 0 -29 970.949 664.727)"/><use xlink:href="#p" transform="matrix(20.59 0 0 -20.59 1007.297 645.094)"/><path d="M980.823 651.3h58.672v1.914h-58.672z"/><use xlink:href="#q" transform="matrix(20.59 0 0 -20.59 984.052 672.912)"/><use xlink:href="#h" transform="matrix(14.6189 0 0 -14.6189 991.315 677.364)"/><use xlink:href="#i" transform="matrix(14.6189 0 0 -14.6189 998.428 680.186)"/><use xlink:href="#j" transform="matrix(14.6189 0 0 -14.6189 1005.524 677.306)"/><use xlink:href="#k" transform="matrix(14.6189 0 0 -14.6189 1012.63 679.002)"/><use xlink:href="#l" transform="matrix(14.6189 0 0 -14.6189 1020.82 680.171)"/><use xlink:href="#m" transform="matrix(14.6189 0 0 -14.6189 1029.621 677.335)"/><use xlink:href="#r" transform="matrix(29 0 0 -29 1049.245 653.214)"/><use xlink:href="#p" transform="matrix(20.59 0 0 -20.59 1123.803 645.094)"/><path d="M1073.699 651.3h105.932v1.914h-105.932z"/><use xlink:href="#f" transform="matrix(20.59 0 0 -20.59 1077.01 673.015)"/><use xlink:href="#h" transform="matrix(14.6189 0 0 -14.6189 1085.323 677.364)"/><use xlink:href="#i" transform="matrix(14.6189 0 0 -14.6189 1092.437 680.186)"/><use xlink:href="#j" transform="matrix(14.6189 0 0 -14.6189 1099.533 677.306)"/><use xlink:href="#k" transform="matrix(14.6189 0 0 -14.6189 1106.638 679.002)"/><use xlink:href="#l" transform="matrix(14.6189 0 0 -14.6189 1114.83 680.171)"/><use xlink:href="#m" transform="matrix(14.6189 0 0 -14.6189 1123.63 677.335)"/><use xlink:href="#s" transform="matrix(20.59 0 0 -20.59 1131.386 672.87)"/><use xlink:href="#q" transform="matrix(14.6189 0 0 -14.6189 1135.924 677.364)"/><use xlink:href="#s" transform="matrix(14.6189 0 0 -14.6189 1141.933 677.335)"/><use xlink:href="#t" transform="matrix(14.6189 0 0 -14.6189 1145.69 677.335)"/><use xlink:href="#k" transform="matrix(14.6189 0 0 -14.6189 1152.765 679.002)"/><use xlink:href="#l" transform="matrix(14.6189 0 0 -14.6189 1160.957 680.171)"/><use xlink:href="#m" transform="matrix(14.6189 0 0 -14.6189 1169.758 677.335)"/><use xlink:href="#u" transform="matrix(29 0 0 -29 1182.08 664.727)"/><use xlink:href="#u" transform="matrix(29 0 0 -29 1191.738 664.727)"/></g><g data-name="P"><use xlink:href="#f" transform="matrix(29 0 0 -29 712.21 804.887)"/><use xlink:href="#B" transform="matrix(20.59 0 0 -20.59 724.043 811.842)"/><use xlink:href="#l" transform="matrix(20.59 0 0 -20.59 732.238 815.836)"/><use xlink:href="#s" transform="matrix(20.59 0 0 -20.59 744.942 811.842)"/><use xlink:href="#C" transform="matrix(20.59 0 0 -20.59 750.91 811.842)"/><use xlink:href="#D" transform="matrix(20.59 0 0 -20.59 755.871 811.8)"/><use xlink:href="#t" transform="matrix(20.59 0 0 -20.59 771.12 811.842)"/><use xlink:href="#E" transform="matrix(20.59 0 0 -20.59 781.93 811.842)"/><use xlink:href="#c" transform="matrix(29 0 0 -29 796.257 800.885)"/><use xlink:href="#A" transform="matrix(14.6189 0 0 -14.6189 833.475 815.234)"/><path d="M845.492 866.824V729.777h-1.914v125.33h-.029l-13.079-37.206h-1.16l-6.525 3.74.667.929c.783-.667 2.204-.9 2.813-.9.841 0 1.711.523 2.117 1.683l15.457 43.47zm-1.914-135.132h362.776v-1.915H843.578z"/><use xlink:href="#p" transform="matrix(20.59 0 0 -20.59 1023.061 755.253)"/><path d="M999.96 761.459h51.927v1.914h-51.928z"/><use xlink:href="#s" transform="matrix(20.59 0 0 -20.59 1003.642 783.03)"/><use xlink:href="#q" transform="matrix(14.6189 0 0 -14.6189 1008.18 787.523)"/><use xlink:href="#s" transform="matrix(14.6189 0 0 -14.6189 1014.189 787.493)"/><use xlink:href="#t" transform="matrix(14.6189 0 0 -14.6189 1017.946 787.493)"/><use xlink:href="#k" transform="matrix(14.6189 0 0 -14.6189 1025.022 789.16)"/><use xlink:href="#l" transform="matrix(14.6189 0 0 -14.6189 1033.213 790.33)"/><use xlink:href="#m" transform="matrix(14.6189 0 0 -14.6189 1042.014 787.493)"/><path d="M848.392 796.072h355.062v1.913H848.392z"/><use xlink:href="#g" transform="matrix(29 0 0 -29 852.133 832.146)"/><use xlink:href="#o" transform="matrix(29 0 0 -29 867.184 837.28)"/><use xlink:href="#p" transform="matrix(20.59 0 0 -20.59 903.996 817.646)"/><path d="M877.058 823.852h59.6v1.914h-59.6z"/><use xlink:href="#f" transform="matrix(20.59 0 0 -20.59 880.37 847.115)"/><use xlink:href="#g" transform="matrix(14.6189 0 0 -14.6189 890.277 841.39)"/><use xlink:href="#h" transform="matrix(14.6189 0 0 -14.6189 888.478 852.924)"/><use xlink:href="#i" transform="matrix(14.6189 0 0 -14.6189 895.591 855.746)"/><use xlink:href="#j" transform="matrix(14.6189 0 0 -14.6189 902.687 852.866)"/><use xlink:href="#k" transform="matrix(14.6189 0 0 -14.6189 909.792 854.562)"/><use xlink:href="#l" transform="matrix(14.6189 0 0 -14.6189 917.984 855.731)"/><use xlink:href="#m" transform="matrix(14.6189 0 0 -14.6189 926.785 852.895)"/><use xlink:href="#n" transform="matrix(29 0 0 -29 945.8 832.871)"/><use xlink:href="#o" transform="matrix(29 0 0 -29 970.949 837.28)"/><use xlink:href="#p" transform="matrix(20.59 0 0 -20.59 1007.297 817.646)"/><path d="M980.823 823.852h58.672v1.914h-58.672z"/><use xlink:href="#q" transform="matrix(20.59 0 0 -20.59 984.052 845.464)"/><use xlink:href="#h" transform="matrix(14.6189 0 0 -14.6189 991.315 849.916)"/><use xlink:href="#i" transform="matrix(14.6189 0 0 -14.6189 998.428 852.738)"/><use xlink:href="#j" transform="matrix(14.6189 0 0 -14.6189 1005.524 849.858)"/><use xlink:href="#k" transform="matrix(14.6189 0 0 -14.6189 1012.63 851.553)"/><use xlink:href="#l" transform="matrix(14.6189 0 0 -14.6189 1020.82 852.723)"/><use xlink:href="#m" transform="matrix(14.6189 0 0 -14.6189 1029.621 849.887)"/><use xlink:href="#r" transform="matrix(29 0 0 -29 1049.245 825.766)"/><use xlink:href="#p" transform="matrix(20.59 0 0 -20.59 1123.803 817.646)"/><path d="M1073.699 823.852h105.932v1.914h-105.932z"/><use xlink:href="#f" transform="matrix(20.59 0 0 -20.59 1077.01 845.567)"/><use xlink:href="#h" transform="matrix(14.6189 0 0 -14.6189 1085.323 849.916)"/><use xlink:href="#i" transform="matrix(14.6189 0 0 -14.6189 1092.437 852.738)"/><use xlink:href="#j" transform="matrix(14.6189 0 0 -14.6189 1099.533 849.858)"/><use xlink:href="#k" transform="matrix(14.6189 0 0 -14.6189 1106.638 851.553)"/><use xlink:href="#l" transform="matrix(14.6189 0 0 -14.6189 1114.83 852.723)"/><use xlink:href="#m" transform="matrix(14.6189 0 0 -14.6189 1123.63 849.887)"/><use xlink:href="#s" transform="matrix(20.59 0 0 -20.59 1131.386 845.423)"/><use xlink:href="#q" transform="matrix(14.6189 0 0 -14.6189 1135.924 849.916)"/><use xlink:href="#s" transform="matrix(14.6189 0 0 -14.6189 1141.933 849.887)"/><use xlink:href="#t" transform="matrix(14.6189 0 0 -14.6189 1145.69 849.887)"/><use xlink:href="#k" transform="matrix(14.6189 0 0 -14.6189 1152.765 851.553)"/><use xlink:href="#l" transform="matrix(14.6189 0 0 -14.6189 1160.957 852.723)"/><use xlink:href="#m" transform="matrix(14.6189 0 0 -14.6189 1169.758 849.887)"/><use xlink:href="#u" transform="matrix(29 0 0 -29 1182.08 837.28)"/><use xlink:href="#u" transform="matrix(29 0 0 -29 1191.738 837.28)"/></g><g data-name="P"><use xlink:href="#f" transform="matrix(29 0 0 -29 1251.898 257.537)"/><use xlink:href="#B" transform="matrix(20.59 0 0 -20.59 1263.731 264.492)"/><use xlink:href="#l" transform="matrix(20.59 0 0 -20.59 1271.926 268.486)"/><use xlink:href="#s" transform="matrix(20.59 0 0 -20.59 1284.63 264.492)"/><use xlink:href="#C" transform="matrix(20.59 0 0 -20.59 1290.597 264.492)"/><use xlink:href="#D" transform="matrix(20.59 0 0 -20.59 1295.559 264.45)"/><use xlink:href="#t" transform="matrix(20.59 0 0 -20.59 1310.807 264.492)"/><use xlink:href="#E" transform="matrix(20.59 0 0 -20.59 1321.617 264.492)"/><use xlink:href="#c" transform="matrix(29 0 0 -29 1335.944 253.535)"/><use xlink:href="#A" transform="matrix(14.6189 0 0 -14.6189 1373.163 272.27)"/><path d="M1385.18 323.86V205.41h-1.914v106.733h-.029l-13.079-37.207h-1.16l-6.525 3.741.667.928c.783-.667 2.204-.899 2.813-.899.841 0 1.711.522 2.117 1.682l15.457 43.471zm-1.914-116.537h414.495v-1.914h-414.495z"/><use xlink:href="#p" transform="matrix(29 0 0 -29 1587.44 236.57)"/><path d="M1388.08 248.721h406.781v1.914H1388.08z"/><use xlink:href="#g" transform="matrix(29 0 0 -29 1391.82 289.182)"/><use xlink:href="#o" transform="matrix(29 0 0 -29 1406.872 294.315)"/><use xlink:href="#s" transform="matrix(20.59 0 0 -20.59 1424.264 267.846)"/><use xlink:href="#q" transform="matrix(14.6189 0 0 -14.6189 1428.803 272.339)"/><use xlink:href="#s" transform="matrix(14.6189 0 0 -14.6189 1434.811 272.31)"/><use xlink:href="#t" transform="matrix(14.6189 0 0 -14.6189 1438.569 272.31)"/><use xlink:href="#k" transform="matrix(14.6189 0 0 -14.6189 1445.644 273.976)"/><use xlink:href="#l" transform="matrix(14.6189 0 0 -14.6189 1453.836 275.146)"/><use xlink:href="#m" transform="matrix(14.6189 0 0 -14.6189 1462.636 272.31)"/><path d="M1416.746 280.888h59.599v1.914h-59.599z"/><use xlink:href="#f" transform="matrix(20.59 0 0 -20.59 1420.058 304.15)"/><use xlink:href="#g" transform="matrix(14.6189 0 0 -14.6189 1429.964 298.426)"/><use xlink:href="#h" transform="matrix(14.6189 0 0 -14.6189 1428.165 309.96)"/><use xlink:href="#i" transform="matrix(14.6189 0 0 -14.6189 1435.279 312.781)"/><use xlink:href="#j" transform="matrix(14.6189 0 0 -14.6189 1442.375 309.901)"/><use xlink:href="#k" transform="matrix(14.6189 0 0 -14.6189 1449.48 311.597)"/><use xlink:href="#l" transform="matrix(14.6189 0 0 -14.6189 1457.671 312.767)"/><use xlink:href="#m" transform="matrix(14.6189 0 0 -14.6189 1466.472 309.93)"/><use xlink:href="#n" transform="matrix(29 0 0 -29 1485.487 289.907)"/><use xlink:href="#o" transform="matrix(29 0 0 -29 1510.636 294.315)"/><use xlink:href="#p" transform="matrix(20.59 0 0 -20.59 1572.844 274.682)"/><path d="M1520.51 280.888h110.391v1.914H1520.51z"/><use xlink:href="#f" transform="matrix(20.59 0 0 -20.59 1523.822 302.602)"/><use xlink:href="#h" transform="matrix(14.6189 0 0 -14.6189 1532.135 306.952)"/><use xlink:href="#i" transform="matrix(14.6189 0 0 -14.6189 1539.248 309.773)"/><use xlink:href="#j" transform="matrix(14.6189 0 0 -14.6189 1546.344 306.893)"/><use xlink:href="#k" transform="matrix(14.6189 0 0 -14.6189 1553.45 308.589)"/><use xlink:href="#l" transform="matrix(14.6189 0 0 -14.6189 1561.64 309.759)"/><use xlink:href="#m" transform="matrix(14.6189 0 0 -14.6189 1570.441 306.922)"/><use xlink:href="#s" transform="matrix(20.59 0 0 -20.59 1578.197 302.458)"/><use xlink:href="#h" transform="matrix(14.6189 0 0 -14.6189 1582.721 306.952)"/><use xlink:href="#i" transform="matrix(14.6189 0 0 -14.6189 1589.835 309.773)"/><use xlink:href="#j" transform="matrix(14.6189 0 0 -14.6189 1596.931 306.893)"/><use xlink:href="#k" transform="matrix(14.6189 0 0 -14.6189 1604.036 308.589)"/><use xlink:href="#l" transform="matrix(14.6189 0 0 -14.6189 1612.227 309.759)"/><use xlink:href="#m" transform="matrix(14.6189 0 0 -14.6189 1621.028 306.922)"/><use xlink:href="#r" transform="matrix(29 0 0 -29 1640.652 282.802)"/><use xlink:href="#p" transform="matrix(20.59 0 0 -20.59 1715.21 274.682)"/><path d="M1665.105 280.888h105.933v1.914h-105.933z"/><use xlink:href="#f" transform="matrix(20.59 0 0 -20.59 1668.417 302.602)"/><use xlink:href="#h" transform="matrix(14.6189 0 0 -14.6189 1676.73 306.952)"/><use xlink:href="#i" transform="matrix(14.6189 0 0 -14.6189 1683.843 309.773)"/><use xlink:href="#j" transform="matrix(14.6189 0 0 -14.6189 1690.94 306.893)"/><use xlink:href="#k" transform="matrix(14.6189 0 0 -14.6189 1698.044 308.589)"/><use xlink:href="#l" transform="matrix(14.6189 0 0 -14.6189 1706.236 309.759)"/><use xlink:href="#m" transform="matrix(14.6189 0 0 -14.6189 1715.036 306.922)"/><use xlink:href="#s" transform="matrix(20.59 0 0 -20.59 1722.792 302.458)"/><use xlink:href="#q" transform="matrix(14.6189 0 0 -14.6189 1727.331 306.952)"/><use xlink:href="#s" transform="matrix(14.6189 0 0 -14.6189 1733.34 306.922)"/><use xlink:href="#t" transform="matrix(14.6189 0 0 -14.6189 1737.096 306.922)"/><use xlink:href="#k" transform="matrix(14.6189 0 0 -14.6189 1744.172 308.589)"/><use xlink:href="#l" transform="matrix(14.6189 0 0 -14.6189 1752.364 309.759)"/><use xlink:href="#m" transform="matrix(14.6189 0 0 -14.6189 1761.164 306.922)"/><use xlink:href="#u" transform="matrix(29 0 0 -29 1773.487 294.315)"/><use xlink:href="#u" transform="matrix(29 0 0 -29 1783.144 294.315)"/></g><g data-name="P"><use xlink:href="#f" transform="matrix(29 0 0 -29 1261.903 414.591)"/><use xlink:href="#B" transform="matrix(20.59 0 0 -20.59 1273.736 421.546)"/><use xlink:href="#l" transform="matrix(20.59 0 0 -20.59 1281.93 425.54)"/><use xlink:href="#s" transform="matrix(20.59 0 0 -20.59 1294.635 421.546)"/><use xlink:href="#C" transform="matrix(20.59 0 0 -20.59 1300.602 421.546)"/><use xlink:href="#D" transform="matrix(20.59 0 0 -20.59 1305.564 421.505)"/><use xlink:href="#t" transform="matrix(20.59 0 0 -20.59 1320.812 421.546)"/><use xlink:href="#E" transform="matrix(20.59 0 0 -20.59 1331.622 421.546)"/><use xlink:href="#c" transform="matrix(29 0 0 -29 1345.95 410.59)"/><use xlink:href="#A" transform="matrix(14.6189 0 0 -14.6189 1383.168 429.529)"/><path d="M1395.185 481.118V362.464h-1.914v106.938h-.029l-13.079-37.207h-1.16l-6.525 3.741.667.928c.783-.667 2.204-.899 2.813-.899.841 0 1.711.522 2.117 1.682l15.457 43.471zm-1.914-116.74h306.485v-1.914h-306.485z"/><use xlink:href="#p" transform="matrix(29 0 0 -29 1543.44 393.624)"/><path d="M1398.085 405.775h298.771v1.914h-298.771z"/><use xlink:href="#g" transform="matrix(29 0 0 -29 1401.826 446.236)"/><use xlink:href="#o" transform="matrix(29 0 0 -29 1416.877 451.37)"/><use xlink:href="#s" transform="matrix(20.59 0 0 -20.59 1434.27 424.9)"/><use xlink:href="#q" transform="matrix(14.6189 0 0 -14.6189 1438.808 429.393)"/><use xlink:href="#s" transform="matrix(14.6189 0 0 -14.6189 1444.816 429.364)"/><use xlink:href="#t" transform="matrix(14.6189 0 0 -14.6189 1448.573 429.364)"/><use xlink:href="#k" transform="matrix(14.6189 0 0 -14.6189 1455.649 431.03)"/><use xlink:href="#l" transform="matrix(14.6189 0 0 -14.6189 1463.84 432.2)"/><use xlink:href="#m" transform="matrix(14.6189 0 0 -14.6189 1472.641 429.364)"/><path d="M1426.751 437.942h59.599v1.914h-59.599z"/><use xlink:href="#f" transform="matrix(20.59 0 0 -20.59 1430.063 461.41)"/><use xlink:href="#A" transform="matrix(14.6189 0 0 -14.6189 1440.173 455.685)"/><use xlink:href="#h" transform="matrix(14.6189 0 0 -14.6189 1438.17 467.219)"/><use xlink:href="#i" transform="matrix(14.6189 0 0 -14.6189 1445.284 470.04)"/><use xlink:href="#j" transform="matrix(14.6189 0 0 -14.6189 1452.38 467.16)"/><use xlink:href="#k" transform="matrix(14.6189 0 0 -14.6189 1459.485 468.856)"/><use xlink:href="#l" transform="matrix(14.6189 0 0 -14.6189 1467.676 470.026)"/><use xlink:href="#m" transform="matrix(14.6189 0 0 -14.6189 1476.477 467.19)"/><use xlink:href="#n" transform="matrix(29 0 0 -29 1495.492 446.961)"/><use xlink:href="#o" transform="matrix(29 0 0 -29 1520.641 451.37)"/><use xlink:href="#p" transform="matrix(20.59 0 0 -20.59 1555.846 431.736)"/><path d="M1530.515 437.942h56.386v1.914h-56.386z"/><use xlink:href="#s" transform="matrix(20.59 0 0 -20.59 1534.197 459.513)"/><use xlink:href="#h" transform="matrix(14.6189 0 0 -14.6189 1538.722 464.006)"/><use xlink:href="#i" transform="matrix(14.6189 0 0 -14.6189 1545.835 466.827)"/><use xlink:href="#j" transform="matrix(14.6189 0 0 -14.6189 1552.931 463.947)"/><use xlink:href="#k" transform="matrix(14.6189 0 0 -14.6189 1560.036 465.643)"/><use xlink:href="#l" transform="matrix(14.6189 0 0 -14.6189 1568.228 466.813)"/><use xlink:href="#m" transform="matrix(14.6189 0 0 -14.6189 1577.028 463.977)"/><use xlink:href="#r" transform="matrix(29 0 0 -29 1596.652 439.856)"/><use xlink:href="#p" transform="matrix(20.59 0 0 -20.59 1644.207 431.736)"/><path d="M1621.105 437.942h51.928v1.914h-51.928z"/><use xlink:href="#s" transform="matrix(20.59 0 0 -20.59 1624.788 459.513)"/><use xlink:href="#q" transform="matrix(14.6189 0 0 -14.6189 1629.327 464.006)"/><use xlink:href="#s" transform="matrix(14.6189 0 0 -14.6189 1635.335 463.977)"/><use xlink:href="#t" transform="matrix(14.6189 0 0 -14.6189 1639.092 463.977)"/><use xlink:href="#k" transform="matrix(14.6189 0 0 -14.6189 1646.168 465.643)"/><use xlink:href="#l" transform="matrix(14.6189 0 0 -14.6189 1654.36 466.813)"/><use xlink:href="#m" transform="matrix(14.6189 0 0 -14.6189 1663.16 463.977)"/><use xlink:href="#u" transform="matrix(29 0 0 -29 1675.483 451.37)"/><use xlink:href="#u" transform="matrix(29 0 0 -29 1685.14 451.37)"/></g><g data-name="P"><use xlink:href="#f" transform="matrix(29 0 0 -29 709.178 960.328)"/><use xlink:href="#B" transform="matrix(20.59 0 0 -20.59 721.01 967.283)"/><use xlink:href="#l" transform="matrix(20.59 0 0 -20.59 729.205 971.277)"/><use xlink:href="#s" transform="matrix(20.59 0 0 -20.59 741.91 967.283)"/><use xlink:href="#C" transform="matrix(20.59 0 0 -20.59 747.876 967.283)"/><use xlink:href="#D" transform="matrix(20.59 0 0 -20.59 752.839 967.241)"/><use xlink:href="#t" transform="matrix(20.59 0 0 -20.59 768.087 967.283)"/><use xlink:href="#E" transform="matrix(20.59 0 0 -20.59 778.897 967.283)"/><use xlink:href="#c" transform="matrix(29 0 0 -29 793.224 956.326)"/><use xlink:href="#A" transform="matrix(14.6189 0 0 -14.6189 830.442 967.667)"/><path d="M842.46 1019.256V898.073h-1.915v109.467h-.029l-13.078-37.207h-1.16l-6.525 3.741.666.928c.784-.667 2.205-.899 2.813-.899.841 0 1.712.522 2.118 1.682l15.457 43.471zm-1.915-119.269h308.358v-1.914H840.545z"/><use xlink:href="#f" transform="matrix(29 0 0 -29 958.764 934.8)"/><use xlink:href="#A" transform="matrix(20.59 0 0 -20.59 973.413 923.837)"/><use xlink:href="#h" transform="matrix(20.59 0 0 -20.59 970.35 941.796)"/><use xlink:href="#i" transform="matrix(20.59 0 0 -20.59 979.931 945.77)"/><use xlink:href="#j" transform="matrix(20.59 0 0 -20.59 989.856 941.714)"/><use xlink:href="#k" transform="matrix(20.59 0 0 -20.59 999.862 944.102)"/><use xlink:href="#l" transform="matrix(20.59 0 0 -20.59 1010.962 945.75)"/><use xlink:href="#m" transform="matrix(20.59 0 0 -20.59 1023.357 941.755)"/><path d="M845.36 951.512h300.643v1.914H845.36z"/><use xlink:href="#g" transform="matrix(29 0 0 -29 849.1 987.587)"/><use xlink:href="#o" transform="matrix(29 0 0 -29 864.152 992.72)"/><use xlink:href="#s" transform="matrix(29 0 0 -29 873.519 987.906)"/><use xlink:href="#q" transform="matrix(20.59 0 0 -20.59 879.911 994.235)"/><use xlink:href="#s" transform="matrix(20.59 0 0 -20.59 888.374 994.194)"/><use xlink:href="#t" transform="matrix(20.59 0 0 -20.59 893.665 994.194)"/><use xlink:href="#k" transform="matrix(20.59 0 0 -20.59 903.631 996.54)"/><use xlink:href="#l" transform="matrix(20.59 0 0 -20.59 914.73 998.188)"/><use xlink:href="#m" transform="matrix(20.59 0 0 -20.59 927.126 994.194)"/><use xlink:href="#n" transform="matrix(29 0 0 -29 944.639 988.312)"/><use xlink:href="#o" transform="matrix(29 0 0 -29 969.788 992.72)"/><use xlink:href="#p" transform="matrix(20.59 0 0 -20.59 1004.993 973.087)"/><path d="M979.662 979.293h56.386v1.914h-56.386z"/><use xlink:href="#s" transform="matrix(20.59 0 0 -20.59 983.344 1000.864)"/><use xlink:href="#h" transform="matrix(14.6189 0 0 -14.6189 987.869 1005.357)"/><use xlink:href="#i" transform="matrix(14.6189 0 0 -14.6189 994.982 1008.178)"/><use xlink:href="#j" transform="matrix(14.6189 0 0 -14.6189 1002.078 1005.298)"/><use xlink:href="#k" transform="matrix(14.6189 0 0 -14.6189 1009.183 1006.994)"/><use xlink:href="#l" transform="matrix(14.6189 0 0 -14.6189 1017.375 1008.164)"/><use xlink:href="#m" transform="matrix(14.6189 0 0 -14.6189 1026.175 1005.328)"/><use xlink:href="#r" transform="matrix(29 0 0 -29 1045.799 981.207)"/><use xlink:href="#p" transform="matrix(20.59 0 0 -20.59 1093.354 973.087)"/><path d="M1070.252 979.293h51.928v1.914h-51.928z"/><use xlink:href="#s" transform="matrix(20.59 0 0 -20.59 1073.935 1000.864)"/><use xlink:href="#q" transform="matrix(14.6189 0 0 -14.6189 1078.474 1005.357)"/><use xlink:href="#s" transform="matrix(14.6189 0 0 -14.6189 1084.482 1005.328)"/><use xlink:href="#t" transform="matrix(14.6189 0 0 -14.6189 1088.24 1005.328)"/><use xlink:href="#k" transform="matrix(14.6189 0 0 -14.6189 1095.315 1006.994)"/><use xlink:href="#l" transform="matrix(14.6189 0 0 -14.6189 1103.506 1008.164)"/><use xlink:href="#m" transform="matrix(14.6189 0 0 -14.6189 1112.307 1005.328)"/><use xlink:href="#u" transform="matrix(29 0 0 -29 1124.63 992.72)"/><use xlink:href="#u" transform="matrix(29 0 0 -29 1134.287 992.72)"/></g><g data-name="P"><use xlink:href="#f" transform="matrix(29 0 0 -29 1265.498 612.098)"/><use xlink:href="#B" transform="matrix(20.59 0 0 -20.59 1277.33 619.052)"/><use xlink:href="#l" transform="matrix(20.59 0 0 -20.59 1285.526 623.047)"/><use xlink:href="#s" transform="matrix(20.59 0 0 -20.59 1298.23 619.052)"/><use xlink:href="#C" transform="matrix(20.59 0 0 -20.59 1304.197 619.052)"/><use xlink:href="#D" transform="matrix(20.59 0 0 -20.59 1309.159 619.01)"/><use xlink:href="#t" transform="matrix(20.59 0 0 -20.59 1324.407 619.052)"/><use xlink:href="#E" transform="matrix(20.59 0 0 -20.59 1335.217 619.052)"/><use xlink:href="#c" transform="matrix(29 0 0 -29 1349.544 608.096)"/><use xlink:href="#A" transform="matrix(14.6189 0 0 -14.6189 1386.763 623.822)"/><path d="M1398.779 675.412v-125.57h-1.914v113.854h-.029l-13.079-37.207h-1.16l-6.525 3.74.667.929c.783-.667 2.204-.9 2.813-.9.841 0 1.711.523 2.117 1.683l15.457 43.47zm-1.914-123.655h154.028v-1.914h-154.028z"/><use xlink:href="#f" transform="matrix(29 0 0 -29 1437.92 586.57)"/><use xlink:href="#A" transform="matrix(20.59 0 0 -20.59 1452.568 575.606)"/><use xlink:href="#h" transform="matrix(20.59 0 0 -20.59 1449.506 593.566)"/><use xlink:href="#i" transform="matrix(20.59 0 0 -20.59 1459.086 597.54)"/><use xlink:href="#j" transform="matrix(20.59 0 0 -20.59 1469.01 593.483)"/><use xlink:href="#k" transform="matrix(20.59 0 0 -20.59 1479.018 595.872)"/><use xlink:href="#l" transform="matrix(20.59 0 0 -20.59 1490.117 597.519)"/><use xlink:href="#m" transform="matrix(20.59 0 0 -20.59 1502.512 593.524)"/><path d="M1401.679 603.282h146.314v1.913h-146.314z"/><use xlink:href="#g" transform="matrix(29 0 0 -29 1405.42 643.742)"/><use xlink:href="#o" transform="matrix(29 0 0 -29 1420.472 648.875)"/><use xlink:href="#s" transform="matrix(20.59 0 0 -20.59 1436.258 622.406)"/><use xlink:href="#q" transform="matrix(14.6189 0 0 -14.6189 1440.796 626.9)"/><use xlink:href="#s" transform="matrix(14.6189 0 0 -14.6189 1446.805 626.87)"/><use xlink:href="#t" transform="matrix(14.6189 0 0 -14.6189 1450.562 626.87)"/><use xlink:href="#k" transform="matrix(14.6189 0 0 -14.6189 1457.638 628.537)"/><use xlink:href="#l" transform="matrix(14.6189 0 0 -14.6189 1465.83 629.706)"/><use xlink:href="#m" transform="matrix(14.6189 0 0 -14.6189 1474.63 626.87)"/><path d="M1430.345 635.448h56.387v1.914h-56.387z"/><use xlink:href="#s" transform="matrix(20.59 0 0 -20.59 1434.028 657.019)"/><use xlink:href="#h" transform="matrix(14.6189 0 0 -14.6189 1438.553 661.512)"/><use xlink:href="#i" transform="matrix(14.6189 0 0 -14.6189 1445.666 664.334)"/><use xlink:href="#j" transform="matrix(14.6189 0 0 -14.6189 1452.762 661.454)"/><use xlink:href="#k" transform="matrix(14.6189 0 0 -14.6189 1459.867 663.15)"/><use xlink:href="#l" transform="matrix(14.6189 0 0 -14.6189 1468.059 664.319)"/><use xlink:href="#m" transform="matrix(14.6189 0 0 -14.6189 1476.86 661.483)"/><use xlink:href="#r" transform="matrix(29 0 0 -29 1496.483 637.362)"/><use xlink:href="#p" transform="matrix(29 0 0 -29 1524.155 643.742)"/><use xlink:href="#u" transform="matrix(29 0 0 -29 1536.277 648.875)"/></g><g data-name="P"><use xlink:href="#f" transform="matrix(29 0 0 -29 1272.68 806.936)"/><use xlink:href="#B" transform="matrix(20.59 0 0 -20.59 1284.514 813.89)"/><use xlink:href="#l" transform="matrix(20.59 0 0 -20.59 1292.709 817.885)"/><use xlink:href="#s" transform="matrix(20.59 0 0 -20.59 1305.413 813.89)"/><use xlink:href="#C" transform="matrix(20.59 0 0 -20.59 1311.38 813.89)"/><use xlink:href="#D" transform="matrix(20.59 0 0 -20.59 1316.342 813.85)"/><use xlink:href="#t" transform="matrix(20.59 0 0 -20.59 1331.59 813.89)"/><use xlink:href="#E" transform="matrix(20.59 0 0 -20.59 1342.4 813.89)"/><use xlink:href="#c" transform="matrix(29 0 0 -29 1356.727 802.934)"/><use xlink:href="#A" transform="matrix(14.6189 0 0 -14.6189 1393.946 800.331)"/><path d="M1405.963 851.92V744.681h-1.914v95.523h-.029l-13.079-37.207h-1.16l-6.525 3.741.667.928c.783-.667 2.204-.899 2.813-.899.841 0 1.711.522 2.117 1.682l15.457 43.471zm-1.914-105.325h284.928v-1.914h-284.928z"/><use xlink:href="#q" transform="matrix(29 0 0 -29 1511.234 781.263)"/><use xlink:href="#A" transform="matrix(20.59 0 0 -20.59 1524.403 770.444)"/><use xlink:href="#h" transform="matrix(20.59 0 0 -20.59 1521.341 788.404)"/><use xlink:href="#i" transform="matrix(20.59 0 0 -20.59 1530.922 792.378)"/><use xlink:href="#j" transform="matrix(20.59 0 0 -20.59 1540.846 788.322)"/><use xlink:href="#k" transform="matrix(20.59 0 0 -20.59 1550.853 790.71)"/><use xlink:href="#l" transform="matrix(20.59 0 0 -20.59 1561.953 792.357)"/><use xlink:href="#m" transform="matrix(20.59 0 0 -20.59 1574.348 788.363)"/><path d="M1408.863 798.12h277.214v1.914h-277.214z"/><use xlink:href="#g" transform="matrix(29 0 0 -29 1412.604 828.164)"/><use xlink:href="#s" transform="matrix(29 0 0 -29 1427.365 828.483)"/><use xlink:href="#g" transform="matrix(20.59 0 0 -20.59 1435.982 820.624)"/><use xlink:href="#h" transform="matrix(20.59 0 0 -20.59 1433.448 836.869)"/><use xlink:href="#i" transform="matrix(20.59 0 0 -20.59 1443.029 840.842)"/><use xlink:href="#j" transform="matrix(20.59 0 0 -20.59 1452.953 836.786)"/><use xlink:href="#k" transform="matrix(20.59 0 0 -20.59 1462.96 839.175)"/><use xlink:href="#l" transform="matrix(20.59 0 0 -20.59 1474.06 840.822)"/><use xlink:href="#m" transform="matrix(20.59 0 0 -20.59 1486.455 836.827)"/><use xlink:href="#o" transform="matrix(29 0 0 -29 1497.668 833.297)"/><use xlink:href="#s" transform="matrix(29 0 0 -29 1507.035 828.483)"/><use xlink:href="#q" transform="matrix(20.59 0 0 -20.59 1513.428 834.812)"/><use xlink:href="#s" transform="matrix(20.59 0 0 -20.59 1521.89 834.77)"/><use xlink:href="#t" transform="matrix(20.59 0 0 -20.59 1527.182 834.77)"/><use xlink:href="#k" transform="matrix(20.59 0 0 -20.59 1537.148 837.118)"/><use xlink:href="#l" transform="matrix(20.59 0 0 -20.59 1548.247 838.765)"/><use xlink:href="#m" transform="matrix(20.59 0 0 -20.59 1560.642 834.77)"/><use xlink:href="#r" transform="matrix(29 0 0 -29 1578.764 821.784)"/><use xlink:href="#s" transform="matrix(29 0 0 -29 1604.32 828.483)"/><use xlink:href="#h" transform="matrix(20.59 0 0 -20.59 1610.692 834.812)"/><use xlink:href="#i" transform="matrix(20.59 0 0 -20.59 1620.273 838.785)"/><use xlink:href="#j" transform="matrix(20.59 0 0 -20.59 1630.197 834.73)"/><use xlink:href="#k" transform="matrix(20.59 0 0 -20.59 1640.204 837.118)"/><use xlink:href="#l" transform="matrix(20.59 0 0 -20.59 1651.303 838.765)"/><use xlink:href="#m" transform="matrix(20.59 0 0 -20.59 1663.698 834.77)"/><use xlink:href="#u" transform="matrix(29 0 0 -29 1674.36 833.297)"/></g><g data-name="P"><use xlink:href="#f" transform="matrix(29 0 0 -29 1272.043 950.94)"/><use xlink:href="#B" transform="matrix(20.59 0 0 -20.59 1283.876 957.895)"/><use xlink:href="#l" transform="matrix(20.59 0 0 -20.59 1292.07 961.889)"/><use xlink:href="#s" transform="matrix(20.59 0 0 -20.59 1304.775 957.895)"/><use xlink:href="#C" transform="matrix(20.59 0 0 -20.59 1310.742 957.895)"/><use xlink:href="#D" transform="matrix(20.59 0 0 -20.59 1315.704 957.853)"/><use xlink:href="#t" transform="matrix(20.59 0 0 -20.59 1330.952 957.895)"/><use xlink:href="#E" transform="matrix(20.59 0 0 -20.59 1341.762 957.895)"/><use xlink:href="#c" transform="matrix(29 0 0 -29 1356.09 946.938)"/><use xlink:href="#q" transform="matrix(29 0 0 -29 1499.874 925.268)"/><use xlink:href="#h" transform="matrix(20.59 0 0 -20.59 1509.98 932.408)"/><use xlink:href="#i" transform="matrix(20.59 0 0 -20.59 1519.561 936.382)"/><use xlink:href="#j" transform="matrix(20.59 0 0 -20.59 1529.486 932.326)"/><use xlink:href="#k" transform="matrix(20.59 0 0 -20.59 1539.493 934.714)"/><use xlink:href="#l" transform="matrix(20.59 0 0 -20.59 1550.592 936.361)"/><use xlink:href="#m" transform="matrix(20.59 0 0 -20.59 1562.987 932.367)"/><path d="M1382.618 942.124h306.983v1.914h-306.983z"/><use xlink:href="#A" transform="matrix(14.6189 0 0 -14.6189 1395.86 975.62)"/><path d="M1413.851 951.694h-1.653l-14.5 47.734h-.116l-6.583-21.373h-.725l-4.756 3.654.348.58c.696-.55 1.421-.783 1.972-.783.928 0 1.392.638 1.798 1.972l6.699 21.78h1.218zm-1.653 1.914h273.067v-1.914h-273.067z"/><use xlink:href="#g" transform="matrix(29 0 0 -29 1414.692 983.105)"/><use xlink:href="#s" transform="matrix(29 0 0 -29 1429.453 983.424)"/><use xlink:href="#g" transform="matrix(20.59 0 0 -20.59 1438.07 975.565)"/><use xlink:href="#h" transform="matrix(20.59 0 0 -20.59 1435.536 991.81)"/><use xlink:href="#i" transform="matrix(20.59 0 0 -20.59 1445.117 995.783)"/><use xlink:href="#j" transform="matrix(20.59 0 0 -20.59 1455.041 991.727)"/><use xlink:href="#k" transform="matrix(20.59 0 0 -20.59 1465.048 994.116)"/><use xlink:href="#l" transform="matrix(20.59 0 0 -20.59 1476.148 995.763)"/><use xlink:href="#m" transform="matrix(20.59 0 0 -20.59 1488.543 991.768)"/><use xlink:href="#o" transform="matrix(29 0 0 -29 1499.756 988.238)"/><use xlink:href="#s" transform="matrix(29 0 0 -29 1509.123 983.424)"/><use xlink:href="#q" transform="matrix(20.59 0 0 -20.59 1515.516 989.753)"/><use xlink:href="#s" transform="matrix(20.59 0 0 -20.59 1523.978 989.712)"/><use xlink:href="#t" transform="matrix(20.59 0 0 -20.59 1529.27 989.712)"/><use xlink:href="#k" transform="matrix(20.59 0 0 -20.59 1539.236 992.059)"/><use xlink:href="#l" transform="matrix(20.59 0 0 -20.59 1550.335 993.706)"/><use xlink:href="#m" transform="matrix(20.59 0 0 -20.59 1562.73 989.712)"/><use xlink:href="#r" transform="matrix(29 0 0 -29 1580.852 976.725)"/><use xlink:href="#s" transform="matrix(29 0 0 -29 1606.408 983.424)"/><use xlink:href="#h" transform="matrix(20.59 0 0 -20.59 1612.78 989.753)"/><use xlink:href="#i" transform="matrix(20.59 0 0 -20.59 1622.36 993.727)"/><use xlink:href="#j" transform="matrix(20.59 0 0 -20.59 1632.285 989.67)"/><use xlink:href="#k" transform="matrix(20.59 0 0 -20.59 1642.292 992.059)"/><use xlink:href="#l" transform="matrix(20.59 0 0 -20.59 1653.391 993.706)"/><use xlink:href="#m" transform="matrix(20.59 0 0 -20.59 1665.786 989.712)"/><use xlink:href="#u" transform="matrix(29 0 0 -29 1676.449 988.238)"/></g></g></svg>