<svg xmlns="http://www.w3.org/2000/svg" xmlns:xlink="http://www.w3.org/1999/xlink" width="2560" height="1440" viewBox="0 0 1920 1080"><clipPath id="a"><path transform="matrix(1 0 0 -1 0 1080)" d="M0 0h1920v1080H0z"/></clipPath><g clip-path="url(#a)"><path d="M0 0h1920v1080H0z" fill="#fff"/><g data-name="P"><symbol id="b"><path d="M.441.312C.441.4.381.452.3.452a.248.248 0 0 1-.12-.03A.338.338 0 0 1 0 .139C0 .052.053 0 .147 0a.26.26 0 0 1 .188.083.34.34 0 0 1 .106.229M.357.337A.426.426 0 0 0 .283.104C.244.05.206.021.162.021.115.021.084.052.084.112A.42.42 0 0 0 .158.34c.04.06.084.091.128.091.043 0 .071-.033.071-.094z"/></symbol><use xlink:href="#b" transform="matrix(38 0 0 -38 789.96 131.668)"/><symbol id="c"><path d="M.29.633a.232.232 0 0 1 .002.009C.292.644.29.646.287.646L.131.624.133.609h.022C.171.609.199.606.199.582A.5.5 0 0 0 .183.511L.068.079C.056.032.043.017 0 .016V0h.203v.016C.156.016.141.023.141.045c0 .014.023.096.04.166A.14.14 0 0 1 .25.194c.146 0 .297.162.297.327 0 .078-.041.125-.115.125C.372.646.315.614.261.533l.029.1M.457.518a.358.358 0 0 0-.069-.21C.344.246.296.213.243.213.215.213.195.229.195.251c0 .034.036.163.065.238.023.06.082.114.135.114C.44.603.457.575.457.518z"/></symbol><use xlink:href="#c" transform="matrix(38 0 0 -38 805.084 139.04)"/><symbol id="d"><path d="M.258.439h-.08l.028.103a.023.023 0 0 1 .001.007c0 .005-.003.008-.009.008C.194.557.188.554.184.548a.295.295 0 0 0-.133-.11C.027.433.018.424.018.413L.019.407h.075L.016.111C.008.079 0 .048 0 .037 0 .012.019 0 .046 0c.052 0 .083.029.143.121L.176.128C.127.065.111.049.095.049.086.049.08.052.08.065l.002.014.087.328h.084l.005.032z"/></symbol><use xlink:href="#d" transform="matrix(38 0 0 -38 828.53 131.668)"/><symbol id="e"><path d="M.215.61c0 .029-.023.055-.05.055C.138.665.118.643.118.612.118.58.137.559.166.559A.05.05 0 0 1 .215.61M.173.125C.13.068.106.047.089.047.081.047.075.052.075.062c0 .014.005.027.01.044l.094.343-.004.003a1.28 1.28 0 0 0-.16-.025V.411C.069.41.079.407.079.387A.225.225 0 0 0 .07.343L.022.166A.52.52 0 0 1 0 .055C0 .018.016 0 .049 0c.05 0 .082.03.137.114L.173.125z"/></symbol><use xlink:href="#e" transform="matrix(38 0 0 -38 839.697 131.668)"/><symbol id="f"><path d="M.692.114.677.126.656.1C.626.063.608.047.591.047.583.047.579.052.579.063l.01.045.068.251A.219.219 0 0 1 .66.387C.66.423.639.45.602.45A.113.113 0 0 1 .539.43C.49.399.449.349.379.238c.027.077.04.133.04.152 0 .036-.02.06-.06.06C.298.45.228.384.139.239l.058.209L.194.45.032.419V.403h.025C.084.403.098.396.098.381A1.46 1.46 0 0 0 .043.153L0 .009h.075c.048.158.062.194.096.246C.227.34.286.398.32.398.333.398.342.389.342.373.342.36.318.254.274.102L.247.009h.075C.361.163.381.212.43.281c.05.07.101.117.131.117a.02.02 0 0 0 .02-.021.206.206 0 0 0-.007-.038L.516.112A.318.318 0 0 1 .503.046C.503.016.517 0 .543 0 .59 0 .634.033.687.107l.005.007z"/></symbol><use xlink:href="#f" transform="matrix(38 0 0 -38 848.855 131.592)"/><symbol id="g"><path d="M.419.13C.368.063.352.049.336.049.329.049.325.055.325.066c0 .012.014.059.019.078l.079.299H.349A.96.96 0 0 0 .239.2C.177.106.131.053.097.053c-.015 0-.02.01-.02.025L.08.094l.089.355-.004.003a1.312 1.312 0 0 0-.15-.027V.411C.053.411.056.41.065.405A.022.022 0 0 0 .076.387.528.528 0 0 0 .062.32L.027.181C.009.108 0 .072 0 .053 0 .016.018 0 .053 0c.071 0 .121.053.239.247A1.004 1.004 0 0 1 .247.05c0-.031.018-.048.048-.048.047 0 .073.02.138.119L.419.13z"/></symbol><use xlink:href="#g" transform="matrix(38 0 0 -38 877.43 131.668)"/><use xlink:href="#f" transform="matrix(38 0 0 -38 895.29 131.592)"/><symbol id="h"><path d="M.187.088a1.58 1.58 0 0 1-.025.257C.141.453.141.459.132.459A1.794 1.794 0 0 0 0 .434V.421l.031.001C.068.422.079.405.092.329.105.253.116.12.116.051V.027C.116.01.119 0 .125 0c.017 0 .044.033.099.092.018.019.074.083.119.153A.332.332 0 0 1 .406.4C.406.427.383.459.35.459.329.459.312.446.312.425.312.409.319.396.337.38.35.368.355.361.355.351.355.304.29.194.218.12L.187.088z"/></symbol><use xlink:href="#h" transform="matrix(38 0 0 -38 935.684 131.934)"/><symbol id="i"><path d="M.589.2v.066H0V.2h.589m0-.2v.066H0V0h.589z"/></symbol><use xlink:href="#i" transform="matrix(38 0 0 -38 964.176 126.69)"/><symbol id="j"><path d="M.02.524C.061.598.107.63.169.63.235.63.277.596.277.528A.15.15 0 0 0 .196.394.444.444 0 0 0 .112.358V.344c.057 0 .08-.003.102-.01C.283.314.318.265.318.189.318.104.262.036.188.036.16.036.139.041.102.067.074.087.058.093.041.093.018.093 0 .078 0 .057 0 .021.039 0 .112 0c.089 0 .184.029.232.093a.23.23 0 0 1 .046.14.192.192 0 0 1-.044.129.216.216 0 0 1-.083.053c.067.04.093.09.093.138C.356.635.293.69.2.69.096.69.033.623.004.528L.02.524z"/></symbol><use xlink:href="#j" transform="matrix(19.1558 0 0 -19.1558 1012.49 120.53)"/><path d="M1036.862 65.315h-2.546l-17.822 101.232h-.152l-7.562-42.484h-1.482l-8.36 5.282.684 1.292c.722-.608 1.672-1.254 3.23-1.254 1.596 0 2.166 1.824 2.698 4.75l8.55 48.032h2.166zm-2.546 2.508h93.843v-2.508h-93.843z"/><symbol id="k"><path d="M.138.653V.637C.201.632.215.625.215.596A.267.267 0 0 0 .204.532L.083.096C.066.034.055.024 0 .016V0h.272c.162 0 .275.066.275.2 0 .071-.04.124-.126.15v.001C.464.36.501.369.532.39a.13.13 0 0 1 .064.113c0 .099-.069.15-.208.15h-.25m.118-.29.063.224c.01.036.02.036.059.036.081 0 .117-.034.117-.108C.495.416.425.363.294.363H.256M.246.331A.456.456 0 0 0 .372.319C.41.306.439.262.439.2.439.089.361.03.246.03.204.03.179.044.179.072c0 .013.015.064.035.14l.032.119z"/></symbol><use xlink:href="#k" transform="matrix(38 0 0 -38 1043.161 104.46)"/><symbol id="l"><path d="M.89.653H.724L.389.161.333.653H.152V.637C.202.634.226.622.226.603A.248.248 0 0 0 .214.551L.1.15C.068.038.052.022 0 .016V0h.197v.016C.146.02.127.036.127.064c0 .011.004.036.009.054l.118.428L.316 0h.017l.376.561L.583.102C.566.04.546.023.481.016V0h.271l.001.016C.69.018.672.032.672.058c0 .016.007.037.014.062l.123.443C.823.614.833.628.89.637v.016z"/></symbol><use xlink:href="#l" transform="matrix(38 0 0 -38 1066 104.46)"/><symbol id="m"><path d="M.145.653V.637C.187.631.191.63.202.623A.038.038 0 0 0 .216.595C.216.578.211.559.204.532L.085.101C.069.042.055.023 0 .016V0h.243v.016C.186.022.176.033.176.063c0 .01.002.024.013.063l.055.203L.31.324.433 0H.58v.016C.535.016.515.039.493.098L.404.333c.067.015.1.027.131.051.041.031.066.08.066.128 0 .085-.072.141-.204.141H.145m.174-.06c.005.019.026.03.057.03.078 0 .12-.043.12-.112 0-.093-.07-.15-.189-.15a.263.263 0 0 0-.051.005l.063.227z"/></symbol><use xlink:href="#m" transform="matrix(38 0 0 -38 1097.843 104.46)"/><path d="M1036.862 120.382h91.297v2.508h-91.297z"/><symbol id="n"><path d="M.031.07A.233.233 0 0 0 0 0h.078a.209.209 0 0 1 .031.07l.036.141A.132.132 0 0 1 .213.194c.142 0 .298.161.298.315 0 .137-.099.137-.152.137C.252.646.152.533.106.356L.031.07m.391.447C.422.399.341.215.208.213.18.213.159.229.159.25c0 .025.028.129.046.194.03.107.095.181.151.181.043 0 .066-.049.066-.108z"/></symbol><use xlink:href="#n" transform="matrix(38 0 0 -38 1039.142 167.54)"/><symbol id="o"><path d="M.623.682H.602C.594.666.584.66.564.66a.11.11 0 0 0-.041.007.376.376 0 0 1-.336-.056A.438.438 0 0 1 0 .261C0 .096.108 0 .261 0c.103 0 .183.043.273.149L.516.164C.429.074.369.045.287.045.176.045.112.11.112.25c0 .11.036.224.108.301a.278.278 0 0 0 .199.097C.507.648.556.592.568.485L.586.482l.037.2z"/></symbol><use xlink:href="#o" transform="matrix(38 0 0 -38 1062.322 160.434)"/><symbol id="p"><path d="M.506.696A1.211 1.211 0 0 0 .353.673V.656C.408.654.417.651.417.63.417.616.418.612.403.559L.358.396H.357C.351.435.334.454.292.454.162.454 0 .281 0 .119 0 .043.042.002.107.002c.068 0 .119.033.178.132A.366.366 0 0 1 .272.045C.272.018.287 0 .313 0c.05 0 .098.041.147.114l-.012.01C.394.062.383.053.366.053c-.013 0-.018.008-.018.02 0 .016.034.132.065.246l.06.219.039.152-.006.006M.341.374C.341.222.237.05.145.05.11.05.087.077.087.123c0 .083.05.192.116.262a.138.138 0 0 0 .091.046C.317.431.341.41.341.374z"/></symbol><use xlink:href="#p" transform="matrix(26.98 0 0 -26.98 1084.39 168.46)"/><symbol id="q"><path d="M.615 0v.016C.562.02.551.031.537.115L.445.668H.419L.134.172C.059.042.046.025 0 .016V0h.186v.016C.139.018.124.03.124.049c0 .016.008.04.022.066l.059.111h.22l.02-.131.002-.026C.447.035.433.019.37.016V0h.245M.42.262H.226l.149.263L.42.262z"/></symbol><use xlink:href="#q" transform="matrix(38 0 0 -38 1099.203 159.75)"/></g><g data-name="P"><use xlink:href="#o" transform="matrix(38 0 0 -38 397.293 384.353)"/><use xlink:href="#p" transform="matrix(26.98 0 0 -26.98 419.2 393.52)"/><use xlink:href="#q" transform="matrix(38 0 0 -38 434.015 383.67)"/><use xlink:href="#i" transform="matrix(38 0 0 -38 471.55 379.11)"/><symbol id="r"><path d="M.452.344C.452.549.361.69.23.69.069.69 0 .527 0 .35 0 .186.055 0 .226 0c.163 0 .226.172.226.344M.356.339C.356.141.311.026.226.026.14.026.096.14.096.343s.045.321.128.321C.312.664.356.547.356.339z"/></symbol><symbol id="s"><path d="M.111.054c0 .03-.026.057-.055.057A.056.056 0 0 1 0 .055C0 .024.024 0 .055 0c.03 0 .056.025.056.054z"/></symbol><symbol id="t"><path d="M.029 0c.13.018.195.042.28.119.08.073.12.182.12.297a.329.329 0 0 1-.064.206.198.198 0 0 1-.157.076C.089.698 0 .597 0 .462 0 .34.072.259.18.259a.2.2 0 0 1 .15.057A.373.373 0 0 0 .026.02L.029 0m.303.377C.332.324.259.302.215.302.14.302.092.377.092.496a.27.27 0 0 0 .035.14A.09.09 0 0 0 .2.67C.287.67.332.584.332.416V.377z"/></symbol><symbol id="u"><path d="M.283 0v.015C.208.015.188.033.188.076v.597L.179.676 0 .585V.571l.027.01a.151.151 0 0 0 .045.012c.021 0 .03-.015.03-.049V.095C.102.04.081.019.007.015V0h.276z"/></symbol><symbol id="v"><path d="M.389.169c0 .08-.032.134-.155.216.099.053.134.087.134.162C.368.625.299.69.2.69.089.69.006.63.006.534.006.469.027.431.13.346.023.271 0 .232 0 .163 0 .069.079 0 .192 0c.12 0 .197.066.197.169m-.09.378C.299.485.273.443.205.403.117.455.08.501.08.563s.043.099.11.099C.258.662.299.616.299.547M.215.286C.283.24.313.2.313.138a.105.105 0 0 0-.11-.11C.127.028.076.08.076.172c0 .065.021.106.08.154l.059-.04z"/></symbol><symbol id="w"><path d="M.445.137.431.143C.398.087.377.076.335.076H.101l.165.176C.355.346.394.421.394.5c0 .099-.072.176-.185.176C.086.676.022.594.001.477L.022.472c.04.098.075.13.147.13.085 0 .139-.05.139-.141C.308.376.272.3.178.201L0 .012V0h.391l.054.137z"/></symbol><symbol id="x"><path d="M.429.654V.67H.06L0 .523.018.514C.06.582.077.596.135.596H.35L.152 0h.065l.212.654z"/></symbol><use xlink:href="#r" transform="matrix(38 0 0 -38 507.224 384.201)"/><use xlink:href="#s" transform="matrix(38 0 0 -38 527.972 384.087)"/><use xlink:href="#r" transform="matrix(38 0 0 -38 535.724 384.201)"/><use xlink:href="#j" transform="matrix(38 0 0 -38 555.37 384.201)"/><use xlink:href="#j" transform="matrix(38 0 0 -38 574.37 384.201)"/><use xlink:href="#t" transform="matrix(38 0 0 -38 592.952 384.505)"/><use xlink:href="#u" transform="matrix(38 0 0 -38 615.03 383.67)"/><use xlink:href="#v" transform="matrix(38 0 0 -38 631.94 384.201)"/><use xlink:href="#u" transform="matrix(38 0 0 -38 653.03 383.67)"/><use xlink:href="#u" transform="matrix(38 0 0 -38 672.03 383.67)"/><use xlink:href="#w" transform="matrix(38 0 0 -38 687.914 383.67)"/><use xlink:href="#v" transform="matrix(38 0 0 -38 707.94 384.201)"/><use xlink:href="#t" transform="matrix(38 0 0 -38 725.952 384.505)"/><use xlink:href="#v" transform="matrix(38 0 0 -38 745.94 384.201)"/><use xlink:href="#t" transform="matrix(38 0 0 -38 763.952 384.505)"/><use xlink:href="#t" transform="matrix(38 0 0 -38 782.952 384.505)"/><use xlink:href="#r" transform="matrix(38 0 0 -38 801.724 384.201)"/><use xlink:href="#w" transform="matrix(38 0 0 -38 820.914 383.67)"/><use xlink:href="#x" transform="matrix(38 0 0 -38 839.572 383.973)"/></g><g data-name="P"><use xlink:href="#k" transform="matrix(38 0 0 -38 389.96 474.125)"/><use xlink:href="#l" transform="matrix(38 0 0 -38 412.798 474.125)"/><use xlink:href="#m" transform="matrix(38 0 0 -38 444.642 474.125)"/><use xlink:href="#i" transform="matrix(38 0 0 -38 480.733 469.565)"/><symbol id="y"><path d="M.407.695.398.702C.382.681.373.676.35.676H.143L.034.439.033.434c0-.006.003-.008.012-.008a.332.332 0 0 0 .213-.07.181.181 0 0 0 .067-.15C.325.12.26.037.19.037.17.037.147.046.119.069.087.095.068.1.045.1.017.1 0 .087 0 .062 0 .024.052 0 .127 0c.068 0 .123.015.17.049.068.05.098.112.098.208A.2.2 0 0 1 .36.384C.303.463.253.485.11.512l.04.085h.194C.36.597.368.603.371.61l.036.085z"/></symbol><use xlink:href="#x" transform="matrix(38 0 0 -38 516.255 474.43)"/><use xlink:href="#y" transform="matrix(38 0 0 -38 535.673 474.657)"/><use xlink:href="#s" transform="matrix(38 0 0 -38 556.155 474.543)"/><use xlink:href="#t" transform="matrix(38 0 0 -38 564.135 474.961)"/><use xlink:href="#r" transform="matrix(38 0 0 -38 582.907 474.657)"/><use xlink:href="#w" transform="matrix(38 0 0 -38 602.097 474.125)"/><use xlink:href="#x" transform="matrix(38 0 0 -38 620.755 474.43)"/><use xlink:href="#x" transform="matrix(38 0 0 -38 639.755 474.43)"/><use xlink:href="#x" transform="matrix(38 0 0 -38 658.755 474.43)"/><use xlink:href="#x" transform="matrix(38 0 0 -38 677.755 474.43)"/><use xlink:href="#x" transform="matrix(38 0 0 -38 696.755 474.43)"/><use xlink:href="#x" transform="matrix(38 0 0 -38 715.755 474.43)"/><use xlink:href="#v" transform="matrix(38 0 0 -38 736.123 474.657)"/><symbol id="z"><path d="M.497.671H.243V.655C.306.649.32.641.32.614A.26.26 0 0 0 .308.55L.181.096C.17.056.152.032.128.032.104.032.093.043.093.071c0 .009.003.015.003.027 0 .025-.024.046-.051.046C.018.144 0 .12 0 .088 0 .035.047 0 .117 0c.051 0 .095.017.124.055.026.034.05.083.071.159l.103.367c.017.06.025.066.082.074v.016z"/></symbol><use xlink:href="#z" transform="matrix(38 0 0 -38 765.42 474.81)"/><symbol id="A"><path d="M.296.69H.229L0 0h.068l.228.69z"/></symbol><use xlink:href="#A" transform="matrix(38 0 0 -38 784.29 474.657)"/><symbol id="B"><path d="M.35.455H.336C.328.441.321.437.306.437A.112.112 0 0 0 .27.444a.195.195 0 0 1-.056.01C.14.454.093.412.093.346c0-.032.02-.077.063-.131C.195.166.212.132.212.1.212.051.183.023.136.023c-.052 0-.086.041-.1.136H.02L0 0h.016c.007.016.018.021.029.021A.106.106 0 0 0 .089.012a.134.134 0 0 1 .055-.01c.083 0 .144.051.144.134C.288.175.27.214.22.272.181.318.166.347.166.374c0 .037.024.057.059.057.049 0 .079-.033.089-.116H.33l.02.14z"/></symbol><use xlink:href="#B" transform="matrix(38 0 0 -38 797.915 474.62)"/></g><g data-name="P"><use xlink:href="#n" transform="matrix(38 0 0 -38 397.293 562.9)"/><use xlink:href="#i" transform="matrix(38 0 0 -38 430.345 550.55)"/><use xlink:href="#u" transform="matrix(38 0 0 -38 469.324 555.11)"/><use xlink:href="#r" transform="matrix(38 0 0 -38 485.018 555.643)"/><use xlink:href="#r" transform="matrix(38 0 0 -38 504.018 555.643)"/><use xlink:href="#r" transform="matrix(38 0 0 -38 523.018 555.643)"/></g><g data-name="P"><symbol id="C"><path d="M0 0h.245C.388 0 .48.065.48.2v.004C.48.297.441.35.337.375c.082.028.108.086.108.151V.53c0 .141-.097.185-.23.185H0V0m.085.403v.244h.128C.313.647.36.614.36.533V.529C.36.441.32.403.215.403h-.13m0-.335v.267h.146c.115 0 .164-.042.164-.13V.201C.395.114.347.068.243.068H.085z"/></symbol><symbol id="D"><path d="M0 0h.084v.773H0V0z"/></symbol><symbol id="E"><path d="M.256 0c.149 0 .258.109.258.267v.008c0 .157-.109.266-.257.266C.109.541 0 .431 0 .274V.266C0 .113.107 0 .256 0m.001.069C.151.069.086.147.086.266v.008c0 .12.066.198.171.198.104 0 .171-.078.171-.199V.266C.428.148.362.069.257.069z"/></symbol><symbol id="F"><path d="M.236 0a.22.22 0 0 1 .179.099v-.09h.083v.773H.415V.448a.187.187 0 0 1-.171.093C.1.541 0 .428 0 .268V.26C0 .097.099 0 .236 0m.009.069C.157.069.086.132.086.264v.008c0 .127.062.2.166.2.102 0 .166-.063.166-.197V.267C.418.133.342.069.245.069z"/></symbol><symbol id="G"><path d="M0 0z"/></symbol><symbol id="H"><path d="M.243 0h.104l.247.715H.512L.299.084.086.715H0L.243 0z"/></symbol><symbol id="I"><path d="M0 .18h.404v.072H0V.18M0 0h.404v.072H0V0z"/></symbol><symbol id="J"><path d="M.358 0h.085v.15h.099v.071H.443v.494H.327L0 .178V.15h.358V0M.11.221l.248.428V.221H.11z"/></symbol><symbol id="K"><path d="M.235 0c.171 0 .269.131.269.368v.045c0 .206-.088.32-.257.32C.096.733 0 .637 0 .494 0 .359.096.26.235.26A.21.21 0 0 1 .42.355C.418.165.351.071.237.071.145.071.105.114.089.184H.005C.024.069.103 0 .235 0m.013.328c-.097 0-.159.067-.159.17 0 .101.064.167.158.167C.343.665.412.6.412.483.412.39.344.328.248.328z"/></symbol><symbol id="L"><path d="M.238 0c.136 0 .245.092.245.243C.483.389.389.48.261.48A.211.211 0 0 1 .115.431v.218h.33v.075H.043V.341h.032C.113.384.161.41.244.41c.091 0 .15-.066.15-.167C.394.135.334.07.237.07.128.07.097.124.083.202H0C.01.085.084 0 .238 0z"/></symbol><symbol id="M"><path d="M.284 0C.46 0 .561.14.561.348v.04c0 .204-.103.345-.279.345C.107.733 0 .597 0 .386v-.04C0 .138.113 0 .284 0m0 .072C.165.072.089.166.089.347v.04c0 .176.072.276.193.276.121 0 .191-.108.191-.274v-.04C.473.168.409.072.284.072z"/></symbol><symbol id="N"><path d="M0 0h.083v.32c0 .094.07.14.138.14C.293.46.332.422.332.33V0h.083v.32c0 .094.07.14.138.14C.625.46.664.422.664.33V0h.083v.324c0 .152-.082.208-.176.208C.506.532.428.502.392.434.365.504.306.532.239.532A.17.17 0 0 1 .083.443v.08H0V0z"/></symbol><symbol id="O"><path d="M0 0h.414v.071H.087v.644H0V0z"/></symbol><use xlink:href="#C" transform="matrix(48 0 0 -48 372.663 659.867)"/><use xlink:href="#D" transform="matrix(48 0 0 -48 402.327 659.867)"/><use xlink:href="#E" transform="matrix(48 0 0 -48 412.648 660.299)"/><use xlink:href="#E" transform="matrix(48 0 0 -48 441.64 660.299)"/><use xlink:href="#F" transform="matrix(48 0 0 -48 470.632 660.299)"/><use xlink:href="#G" transform="matrix(48 0 0 -48 498.567 659.867)"/><use xlink:href="#H" transform="matrix(48 0 0 -48 512.727 659.867)"/><use xlink:href="#E" transform="matrix(48 0 0 -48 541.96 660.299)"/><use xlink:href="#D" transform="matrix(48 0 0 -48 572.92 659.867)"/><use xlink:href="#G" transform="matrix(48 0 0 -48 581.08 659.867)"/><use xlink:href="#I" transform="matrix(48 0 0 -48 595.72 650.459)"/><use xlink:href="#G" transform="matrix(48 0 0 -48 617.032 659.867)"/><use xlink:href="#J" transform="matrix(48 0 0 -48 631.624 659.867)"/><use xlink:href="#K" transform="matrix(48 0 0 -48 662.008 660.25)"/><use xlink:href="#L" transform="matrix(48 0 0 -48 691.192 660.299)"/><use xlink:href="#M" transform="matrix(48 0 0 -48 719.943 660.299)"/><use xlink:href="#G" transform="matrix(48 0 0 -48 749.751 659.867)"/><use xlink:href="#N" transform="matrix(48 0 0 -48 766.504 659.867)"/><use xlink:href="#O" transform="matrix(48 0 0 -48 810.471 659.867)"/></g><g data-name="P"><symbol id="P"><path d="M0 0h.087v.318h.376V0H.55v.715H.463V.391H.087v.324H0V0z"/></symbol><symbol id="Q"><path d="M.26 0c.144 0 .238.11.238.27v.008C.498.441.397.541.26.541A.215.215 0 0 1 .083.444v.338H0V.009h.083v.086A.2.2 0 0 1 .26 0M.252.069C.15.069.08.132.08.266v.008c0 .134.074.198.171.198.088 0 .161-.066.161-.198V.266C.412.139.356.069.252.069z"/></symbol><symbol id="R"><path d="M.16 0h.087v.715H.166L0 .595V.514l.16.115V0z"/></symbol><use xlink:href="#P" transform="matrix(48 0 0 -48 382.663 755.763)"/><use xlink:href="#Q" transform="matrix(48 0 0 -48 417.416 756.195)"/><use xlink:href="#G" transform="matrix(48 0 0 -48 443.48 755.763)"/><use xlink:href="#I" transform="matrix(48 0 0 -48 458.12 746.355)"/><use xlink:href="#G" transform="matrix(48 0 0 -48 479.432 755.763)"/><use xlink:href="#R" transform="matrix(48 0 0 -48 493.736 755.763)"/><use xlink:href="#J" transform="matrix(48 0 0 -48 512.216 755.763)"/></g><g data-name="P"><symbol id="S"><path d="M.334 0c.16 0 .274.081.299.246H.552C.534.13.453.071.336.071.182.071.09.181.09.363v.008c0 .18.099.295.247.295C.459.666.522.61.54.501h.086C.611.656.485.735.336.735.142.735 0 .582 0 .37V.362C0 .142.127 0 .334 0z"/></symbol><symbol id="T"><path d="M.174 0c.077 0 .124.026.163.075V.009H.42v.345C.42.5.329.541.229.541.128.541.033.497.022.378h.083c.008.064.048.094.12.094.08 0 .112-.035.112-.118V.316H.262C.128.316 0 .275 0 .154 0 .047.077 0 .174 0m.008.066C.109.066.083.1.083.154c0 .077.077.103.182.103h.072V.192C.337.111.27.066.182.066z"/></symbol><symbol id="U"><path d="M.354 0c.208 0 .347.162.347.364v.008c0 .201-.139.361-.349.361C.142.733 0 .573 0 .37V.362C0 .162.143 0 .354 0m0 .072C.205.072.09.19.09.363v.008c0 .17.096.292.262.292.165 0 .259-.13.259-.29V.365C.611.192.513.072.354.072z"/></symbol><symbol id="V"><path d="M0 0h.479v.071H.134l.197.192c.088.086.144.172.144.26 0 .123-.084.201-.216.201C.123.724.038.635.027.495h.081c.014.112.068.159.151.159C.34.654.387.606.387.526.387.453.349.388.284.319L0 .02V0z"/></symbol><symbol id="W"><path d="M.064 0c.035 0 .064.028.064.064a.064.064 0 0 1-.064.064A.064.064 0 0 1 0 .064C0 .028.029 0 .064 0z"/></symbol><symbol id="X"><path d="M.25 0c.148 0 .254.078.254.208a.172.172 0 0 1-.138.18c.065.027.113.075.113.156C.479.643.4.733.264.733S.035.64.03.527h.076c.009.081.069.135.158.135.087 0 .13-.052.13-.12C.394.464.353.42.26.42H.21V.347h.054C.365.347.415.3.415.208.415.124.364.07.252.07.139.07.088.135.08.22H0C.005.095.098 0 .25 0z"/></symbol><symbol id="Y"><path d="M.166 0h.083a.7.7 0 0 0-.162.46c0 .206.072.349.162.461H.166A.7.7 0 0 1 0 .46C0 .261.074.108.166 0z"/></symbol><symbol id="Z"><path d="M0 0h.076l.291.924H.291L0 0z"/></symbol><symbol id="aa"><path d="M.248 0c.146 0 .249.074.25.226v.488H.415V.63a.187.187 0 0 1-.171.093C.1.723 0 .605 0 .463V.456C0 .312.101.208.238.208c.076 0 .147.048.177.099V.231C.415.119.35.07.247.07.158.07.108.101.096.161H.011C.025.073.093 0 .248 0M.247.277C.159.277.086.345.086.459v.008c0 .11.062.187.166.187.102 0 .166-.068.166-.185V.462C.418.345.344.277.247.277z"/></symbol><symbol id="ab"><path d="M0 0h.083a.7.7 0 0 1 .166.461.696.696 0 0 1-.166.46H0a.7.7 0 0 0 .162-.46A.702.702 0 0 0 0 0z"/></symbol><symbol id="ac"><path d="m.097 0 .07.12L.241 0l.056.041-.083.111.124.029-.022.067L.199.2l.007.134H.133L.14.2.022.248 0 .181.123.152.04.041.097 0z"/></symbol><use xlink:href="#S" transform="matrix(48 0 0 -48 390.076 826.195)"/><use xlink:href="#T" transform="matrix(48 0 0 -48 424.924 826.195)"/><use xlink:href="#U" transform="matrix(48 0 0 -48 451.516 826.195)"/><use xlink:href="#V" transform="matrix(48 0 0 -48 488.716 825.763)"/><use xlink:href="#G" transform="matrix(48 0 0 -48 514.396 825.763)"/><use xlink:href="#I" transform="matrix(48 0 0 -48 529.036 816.355)"/><use xlink:href="#G" transform="matrix(48 0 0 -48 550.348 825.763)"/><use xlink:href="#R" transform="matrix(48 0 0 -48 564.652 825.763)"/><use xlink:href="#W" transform="matrix(48 0 0 -48 584.956 826.003)"/><use xlink:href="#X" transform="matrix(48 0 0 -48 595.516 826.195)"/><use xlink:href="#J" transform="matrix(48 0 0 -48 623.98 825.763)"/><use xlink:href="#Y" transform="matrix(48 0 0 -48 654.268 832.867)"/><use xlink:href="#N" transform="matrix(48 0 0 -48 671.212 825.763)"/><use xlink:href="#D" transform="matrix(48 0 0 -48 714.988 825.763)"/><use xlink:href="#Z" transform="matrix(48 0 0 -48 723.436 832.867)"/><use xlink:href="#aa" transform="matrix(48 0 0 -48 741.772 834.931)"/><use xlink:href="#ab" transform="matrix(48 0 0 -48 770.668 832.723)"/><use xlink:href="#ac" transform="matrix(48 0 0 -48 787.18 806.131)"/><use xlink:href="#R" transform="matrix(48 0 0 -48 807.964 825.763)"/><use xlink:href="#J" transform="matrix(48 0 0 -48 826.444 825.763)"/><use xlink:href="#Y" transform="matrix(48 0 0 -48 856.732 832.867)"/><use xlink:href="#aa" transform="matrix(48 0 0 -48 871.804 834.931)"/><use xlink:href="#Z" transform="matrix(48 0 0 -48 900.028 832.867)"/><use xlink:href="#F" transform="matrix(48 0 0 -48 918.364 826.195)"/><use xlink:href="#O" transform="matrix(48 0 0 -48 950.62 825.763)"/><use xlink:href="#ab" transform="matrix(48 0 0 -48 972.94 832.723)"/><use xlink:href="#ac" transform="matrix(48 0 0 -48 989.452 806.131)"/><use xlink:href="#R" transform="matrix(48 0 0 -48 1010.236 825.763)"/><use xlink:href="#ac" transform="matrix(48 0 0 -48 1029.34 806.131)"/><use xlink:href="#J" transform="matrix(48 0 0 -48 1045.132 825.763)"/><use xlink:href="#K" transform="matrix(48 0 0 -48 1075.516 826.147)"/><use xlink:href="#W" transform="matrix(48 0 0 -48 1103.692 826.003)"/><use xlink:href="#L" transform="matrix(48 0 0 -48 1114.876 826.195)"/><use xlink:href="#Y" transform="matrix(48 0 0 -48 1143.532 832.867)"/><use xlink:href="#F" transform="matrix(48 0 0 -48 1158.604 826.195)"/><use xlink:href="#O" transform="matrix(48 0 0 -48 1190.86 825.763)"/><use xlink:href="#ab" transform="matrix(48 0 0 -48 1213.18 832.723)"/></g><g data-name="P"><symbol id="ad"><path d="M.247 0c.121 0 .246.071.246.214 0 .092-.054.154-.137.184.066.029.11.079.11.151 0 .112-.108.184-.219.184-.11 0-.22-.07-.22-.186 0-.07.04-.124.108-.15A.19.19 0 0 1 0 .212C0 .07.13 0 .247 0M.25.428C.177.428.115.471.115.546c0 .074.058.119.132.119.074 0 .131-.048.131-.117C.378.472.326.428.25.428M.247.071c-.083 0-.158.05-.158.144 0 .095.075.144.16.144S.404.311.404.217C.404.122.335.071.247.071z"/></symbol><symbol id="ae"><path d="M.257 0c.151 0 .247.096.247.239A.225.225 0 0 1 .27.473.208.208 0 0 1 .086.376c.004.189.08.286.188.286C.354.662.39.626.406.56h.083C.47.675.391.733.28.733.116.733 0 .599 0 .342V.325C0 .146.062 0 .257 0m0 .068C.161.068.092.13.092.247c0 .093.068.158.164.158.097 0 .159-.067.159-.17C.415.134.351.068.257.068z"/></symbol><use xlink:href="#S" transform="matrix(48 0 0 -48 400.076 898.862)"/><use xlink:href="#T" transform="matrix(48 0 0 -48 434.924 898.862)"/><use xlink:href="#U" transform="matrix(48 0 0 -48 461.516 898.862)"/><use xlink:href="#V" transform="matrix(48 0 0 -48 498.716 898.43)"/><use xlink:href="#G" transform="matrix(48 0 0 -48 524.396 898.43)"/><use xlink:href="#I" transform="matrix(48 0 0 -48 539.036 889.022)"/><use xlink:href="#G" transform="matrix(48 0 0 -48 560.348 898.43)"/><use xlink:href="#K" transform="matrix(48 0 0 -48 575.708 898.814)"/><use xlink:href="#V" transform="matrix(48 0 0 -48 603.74 898.43)"/><use xlink:href="#ad" transform="matrix(48 0 0 -48 631.676 898.862)"/><use xlink:href="#W" transform="matrix(48 0 0 -48 660.572 898.67)"/><use xlink:href="#ae" transform="matrix(48 0 0 -48 670.892 898.862)"/><use xlink:href="#V" transform="matrix(48 0 0 -48 698.636 898.43)"/><use xlink:href="#G" transform="matrix(48 0 0 -48 724.316 898.43)"/><use xlink:href="#N" transform="matrix(48 0 0 -48 741.068 898.43)"/><use xlink:href="#D" transform="matrix(48 0 0 -48 784.844 898.43)"/></g><g data-name="P"><symbol id="af"><path d="M.182 0c.084 0 .142.043.166.092V.009h.083v.523H.348V.215C.348.121.278.072.204.072.122.072.083.113.083.205v.327H0V.201C0 .057.078 0 .182 0z"/></symbol><symbol id="ag"><path d="M0 0h.083v.317c0 .094.069.143.146.143C.313.46.352.419.352.327V0h.083v.321c0 .152-.076.211-.184.211C.165.532.107.489.083.44v.083H0V0z"/></symbol><symbol id="ah"><path d="m.054 0 .123.209-.081.038L0 .028.054 0z"/></symbol><use xlink:href="#O" transform="matrix(48 0 0 -48 409.29 991.66)"/><use xlink:href="#af" transform="matrix(48 0 0 -48 433.962 992.091)"/><use xlink:href="#ag" transform="matrix(48 0 0 -48 462.714 991.66)"/><use xlink:href="#aa" transform="matrix(48 0 0 -48 489.546 1000.827)"/><use xlink:href="#G" transform="matrix(48 0 0 -48 517.482 991.66)"/><use xlink:href="#U" transform="matrix(48 0 0 -48 532.842 992.091)"/><use xlink:href="#V" transform="matrix(48 0 0 -48 570.042 991.66)"/><use xlink:href="#G" transform="matrix(48 0 0 -48 595.722 991.66)"/><use xlink:href="#I" transform="matrix(48 0 0 -48 610.362 982.251)"/><use xlink:href="#G" transform="matrix(48 0 0 -48 631.674 991.66)"/><use xlink:href="#W" transform="matrix(48 0 0 -48 648.09 991.9)"/><use xlink:href="#V" transform="matrix(48 0 0 -48 658.842 991.66)"/><use xlink:href="#R" transform="matrix(48 0 0 -48 686.106 991.66)"/><use xlink:href="#ac" transform="matrix(48 0 0 -48 705.21 972.027)"/><use xlink:href="#L" transform="matrix(48 0 0 -48 725.514 992.091)"/><use xlink:href="#W" transform="matrix(48 0 0 -48 753.402 991.9)"/><use xlink:href="#L" transform="matrix(48 0 0 -48 764.586 992.091)"/><use xlink:href="#O" transform="matrix(48 0 0 -48 795.018 991.66)"/><use xlink:href="#G" transform="matrix(48 0 0 -48 816.378 991.66)"/><use xlink:href="#I" transform="matrix(48 0 0 -48 831.018 982.251)"/><use xlink:href="#G" transform="matrix(48 0 0 -48 852.33 991.66)"/><use xlink:href="#R" transform="matrix(48 0 0 -48 866.634 991.66)"/><use xlink:href="#ah" transform="matrix(48 0 0 -48 884.97 997.563)"/><use xlink:href="#R" transform="matrix(48 0 0 -48 895.242 991.66)"/><use xlink:href="#L" transform="matrix(48 0 0 -48 914.874 992.091)"/><use xlink:href="#L" transform="matrix(48 0 0 -48 942.57 992.091)"/><use xlink:href="#G" transform="matrix(48 0 0 -48 968.682 991.66)"/><use xlink:href="#N" transform="matrix(48 0 0 -48 985.434 991.66)"/><use xlink:href="#D" transform="matrix(48 0 0 -48 1029.21 991.66)"/></g><g data-name="P"><symbol id="ai"><path d="M.208 0h.087v.644h.208v.071H0V.644h.208V0z"/></symbol><symbol id="aj"><path d="M.216 0C.25 0 .27.005.287.011v.07A.17.17 0 0 0 .223.07C.181.07.158.095.158.146V.46H.28v.07H.158v.119H.075V.53H0V.46h.075V.138C.075.056.121 0 .216 0z"/></symbol><use xlink:href="#ai" transform="matrix(48 0 0 -48 1316.362 478.2)"/><use xlink:href="#E" transform="matrix(48 0 0 -48 1340.458 478.632)"/><use xlink:href="#aj" transform="matrix(48 0 0 -48 1368.586 478.536)"/><use xlink:href="#T" transform="matrix(48 0 0 -48 1386.538 478.632)"/><use xlink:href="#D" transform="matrix(48 0 0 -48 1414.618 478.2)"/><use xlink:href="#G" transform="matrix(48 0 0 -48 1422.778 478.2)"/><use xlink:href="#U" transform="matrix(48 0 0 -48 1438.138 478.632)"/><use xlink:href="#V" transform="matrix(48 0 0 -48 1475.338 478.2)"/><use xlink:href="#G" transform="matrix(48 0 0 -48 1501.018 478.2)"/><use xlink:href="#I" transform="matrix(48 0 0 -48 1515.658 468.792)"/><use xlink:href="#G" transform="matrix(48 0 0 -48 1536.97 478.2)"/><use xlink:href="#V" transform="matrix(48 0 0 -48 1550.602 478.2)"/><use xlink:href="#W" transform="matrix(48 0 0 -48 1579.498 478.44)"/><use xlink:href="#M" transform="matrix(48 0 0 -48 1589.818 478.632)"/><use xlink:href="#ad" transform="matrix(48 0 0 -48 1621.882 478.632)"/><use xlink:href="#X" transform="matrix(48 0 0 -48 1650.202 478.632)"/><use xlink:href="#G" transform="matrix(48 0 0 -48 1677.274 478.2)"/></g><g data-name="P"><symbol id="ak"><path d="M.253 0c.118 0 .205.055.223.16H.393C.382.099.335.069.254.069.147.069.09.135.086.254H.48v.027c0 .187-.114.26-.235.26C.101.541 0 .431 0 .273V.265C0 .104.105 0 .253 0M.089.321C.103.414.16.472.245.472c.086 0 .142-.043.15-.151H.089z"/></symbol><symbol id="al"><path d="M.205 0c.127 0 .192.064.192.159C.397.27.321.294.213.314.117.331.091.35.091.397c0 .045.039.075.099.075C.256.472.288.447.3.39h.08C.366.503.285.541.191.541.109.541.014.491.014.394.014.303.06.265.196.24.277.225.318.207.318.152.318.096.283.069.204.069.12.069.087.108.081.17H0C.005.063.08 0 .205 0z"/></symbol><symbol id="am"><path d="M0 0h.083v.287c0 .129.067.162.172.167v.078C.161.529.116.488.083.429v.094H0V0z"/></symbol><use xlink:href="#S" transform="matrix(48 0 0 -48 1317.61 566.632)"/><use xlink:href="#T" transform="matrix(48 0 0 -48 1352.458 566.632)"/><use xlink:href="#ag" transform="matrix(48 0 0 -48 1380.442 566.2)"/><use xlink:href="#G" transform="matrix(48 0 0 -48 1405.114 566.2)"/><use xlink:href="#Q" transform="matrix(48 0 0 -48 1421.866 566.632)"/><use xlink:href="#ak" transform="matrix(48 0 0 -48 1450.09 566.632)"/><use xlink:href="#G" transform="matrix(48 0 0 -48 1475.194 566.2)"/><use xlink:href="#af" transform="matrix(48 0 0 -48 1491.706 566.632)"/><use xlink:href="#al" transform="matrix(48 0 0 -48 1518.394 566.632)"/><use xlink:href="#ak" transform="matrix(48 0 0 -48 1541.626 566.632)"/><use xlink:href="#G" transform="matrix(48 0 0 -48 1566.73 566.2)"/><use xlink:href="#T" transform="matrix(48 0 0 -48 1581.418 566.632)"/><use xlink:href="#am" transform="matrix(48 0 0 -48 1609.402 566.2)"/><use xlink:href="#E" transform="matrix(48 0 0 -48 1624.858 566.632)"/><use xlink:href="#af" transform="matrix(48 0 0 -48 1655.482 566.632)"/><use xlink:href="#ag" transform="matrix(48 0 0 -48 1684.234 566.2)"/><use xlink:href="#F" transform="matrix(48 0 0 -48 1711.066 566.632)"/><use xlink:href="#G" transform="matrix(48 0 0 -48 1739.002 566.2)"/><use xlink:href="#R" transform="matrix(48 0 0 -48 1753.306 566.2)"/><use xlink:href="#O" transform="matrix(48 0 0 -48 1775.194 566.2)"/></g><g data-name="P"><symbol id="an"><path d="M0 0h.083v.271L.315 0h.101L.173.28l.224.243H.3L.083.282v.491H0V0z"/></symbol><symbol id="ao"><path d="M.1 0c.109 0 .198.06.198.203v.521H.211V.207C.211.111.166.071.095.071A.22.22 0 0 0 0 .091V.019A.202.202 0 0 1 .1 0z"/></symbol><symbol id="ap"><path d="M0 0h.087v.291h.116c.136 0 .25.059.25.211v.004c0 .149-.113.209-.25.209H0V0m.087.36v.285h.122C.306.645.366.607.366.506V.502C.366.41.311.36.209.36H.087z"/></symbol><symbol id="aq"><path d="M.075 0h.083v.453h.128v.07H.158v.094c0 .053.022.09.076.09A.163.163 0 0 0 .293.696v.07a.168.168 0 0 1-.062.01C.127.776.075.714.075.608V.523H0v-.07h.075V0z"/></symbol><use xlink:href="#V" transform="matrix(48 0 0 -48 1328.549 644.2)"/><use xlink:href="#R" transform="matrix(48 0 0 -48 1355.813 644.2)"/><use xlink:href="#W" transform="matrix(48 0 0 -48 1376.117 644.44)"/><use xlink:href="#R" transform="matrix(48 0 0 -48 1384.42 644.2)"/><use xlink:href="#G" transform="matrix(48 0 0 -48 1401.989 644.2)"/><use xlink:href="#an" transform="matrix(48 0 0 -48 1418.741 644.2)"/><use xlink:href="#ao" transform="matrix(48 0 0 -48 1441.3 644.632)"/><use xlink:href="#G" transform="matrix(48 0 0 -48 1459.637 644.2)"/><use xlink:href="#ap" transform="matrix(48 0 0 -48 1476.677 644.2)"/><use xlink:href="#ak" transform="matrix(48 0 0 -48 1501.685 644.632)"/><use xlink:href="#am" transform="matrix(48 0 0 -48 1530.82 644.2)"/><use xlink:href="#G" transform="matrix(48 0 0 -48 1544.837 644.2)"/><use xlink:href="#O" transform="matrix(48 0 0 -48 1561.877 644.2)"/><use xlink:href="#G" transform="matrix(48 0 0 -48 1583.237 644.2)"/><use xlink:href="#E" transform="matrix(48 0 0 -48 1598.117 644.632)"/><use xlink:href="#aq" transform="matrix(48 0 0 -48 1626.245 644.2)"/><use xlink:href="#G" transform="matrix(48 0 0 -48 1641.557 644.2)"/><use xlink:href="#U" transform="matrix(48 0 0 -48 1656.917 644.632)"/><use xlink:href="#V" transform="matrix(48 0 0 -48 1694.117 644.2)"/></g><g data-name="P"><symbol id="ar"><path d="M0 0h.435v.071H.087V.33h.266v.071H.087v.243h.33v.071H0V0z"/></symbol><symbol id="as"><path d="M.106 0H.19l.289.705H.394L.249.33l-.16.375H0L.205.236.106 0z"/></symbol><use xlink:href="#ai" transform="matrix(48 0 0 -48 1326.535 825.763)"/><use xlink:href="#E" transform="matrix(48 0 0 -48 1350.631 826.195)"/><use xlink:href="#aj" transform="matrix(48 0 0 -48 1378.759 826.1)"/><use xlink:href="#T" transform="matrix(48 0 0 -48 1396.71 826.195)"/><use xlink:href="#D" transform="matrix(48 0 0 -48 1424.791 825.763)"/><use xlink:href="#G" transform="matrix(48 0 0 -48 1432.95 825.763)"/><use xlink:href="#ar" transform="matrix(48 0 0 -48 1449.99 825.763)"/><use xlink:href="#ag" transform="matrix(48 0 0 -48 1476.871 825.763)"/><use xlink:href="#ak" transform="matrix(48 0 0 -48 1503.703 826.195)"/><use xlink:href="#am" transform="matrix(48 0 0 -48 1532.839 825.763)"/><use xlink:href="#aa" transform="matrix(48 0 0 -48 1548.295 834.931)"/><use xlink:href="#as" transform="matrix(48 0 0 -48 1577.43 834.5)"/><use xlink:href="#G" transform="matrix(48 0 0 -48 1601.623 825.763)"/><use xlink:href="#I" transform="matrix(48 0 0 -48 1616.263 816.355)"/><use xlink:href="#G" transform="matrix(48 0 0 -48 1637.575 825.763)"/><use xlink:href="#V" transform="matrix(48 0 0 -48 1651.207 825.763)"/><use xlink:href="#R" transform="matrix(48 0 0 -48 1678.471 825.763)"/><use xlink:href="#W" transform="matrix(48 0 0 -48 1698.775 826.003)"/><use xlink:href="#R" transform="matrix(48 0 0 -48 1707.079 825.763)"/><use xlink:href="#G" transform="matrix(48 0 0 -48 1724.647 825.763)"/><use xlink:href="#an" transform="matrix(48 0 0 -48 1741.399 825.763)"/><use xlink:href="#ao" transform="matrix(48 0 0 -48 1763.959 826.195)"/></g></g></svg>