<svg xmlns="http://www.w3.org/2000/svg" xmlns:xlink="http://www.w3.org/1999/xlink" width="2560" height="1440" viewBox="0 0 1920 1080"><clipPath id="a"><path transform="matrix(1 0 0 -1 0 1080)" d="M0 0h1920v1080H0z"/></clipPath><g clip-path="url(#a)"><path d="M0 0h1920v1080H0z" fill="#fff"/><g data-name="P"><symbol id="b"><path d="M.187.088a1.58 1.58 0 0 1-.025.257C.141.453.141.459.132.459A1.794 1.794 0 0 0 0 .434V.421l.031.001C.068.422.079.405.092.329.105.253.116.12.116.051V.027C.116.01.119 0 .125 0c.017 0 .044.033.099.092.018.019.074.083.119.153A.332.332 0 0 1 .406.4C.406.427.383.459.35.459.329.459.312.446.312.425.312.409.319.396.337.38.35.368.355.361.355.351.355.304.29.194.218.12L.187.088z"/></symbol><use xlink:href="#b" transform="matrix(92 0 0 -92 562.851 404.889)"/><symbol id="c"><path d="M.441.312C.441.4.381.452.3.452a.248.248 0 0 1-.12-.03A.338.338 0 0 1 0 .139C0 .052.053 0 .147 0a.26.26 0 0 1 .188.083.34.34 0 0 1 .106.229M.357.337A.426.426 0 0 0 .283.104C.244.05.206.021.162.021.115.021.084.052.084.112A.42.42 0 0 0 .158.34c.04.06.084.091.128.091.043 0 .071-.033.071-.094z"/></symbol><use xlink:href="#c" transform="matrix(65.32 0 0 -65.32 600.39 426.952)"/><symbol id="d"><path d="M.29.633a.232.232 0 0 1 .002.009C.292.644.29.646.287.646L.131.624.133.609h.022C.171.609.199.606.199.582A.5.5 0 0 0 .183.511L.068.079C.056.032.043.017 0 .016V0h.203v.016C.156.016.141.023.141.045c0 .014.023.096.04.166A.14.14 0 0 1 .25.194c.146 0 .297.162.297.327 0 .078-.041.125-.115.125C.372.646.315.614.261.533l.029.1M.457.518a.358.358 0 0 0-.069-.21C.344.246.296.213.243.213.215.213.195.229.195.251c0 .034.036.163.065.238.023.06.082.114.135.114C.44.603.457.575.457.518z"/></symbol><use xlink:href="#d" transform="matrix(65.32 0 0 -65.32 626.388 439.624)"/><symbol id="e"><path d="M.258.439h-.08l.028.103a.023.023 0 0 1 .001.007c0 .005-.003.008-.009.008C.194.557.188.554.184.548a.295.295 0 0 0-.133-.11C.027.433.018.424.018.413L.019.407h.075L.016.111C.008.079 0 .048 0 .037 0 .012.019 0 .046 0c.052 0 .083.029.143.121L.176.128C.127.065.111.049.095.049.086.049.08.052.08.065l.002.014.087.328h.084l.005.032z"/></symbol><use xlink:href="#e" transform="matrix(65.32 0 0 -65.32 666.69 426.952)"/><symbol id="f"><path d="M.215.61c0 .029-.023.055-.05.055C.138.665.118.643.118.612.118.58.137.559.166.559A.05.05 0 0 1 .215.61M.173.125C.13.068.106.047.089.047.081.047.075.052.075.062c0 .014.005.027.01.044l.094.343-.004.003a1.28 1.28 0 0 0-.16-.025V.411C.069.41.079.407.079.387A.225.225 0 0 0 .07.343L.022.166A.52.52 0 0 1 0 .055C0 .018.016 0 .049 0c.05 0 .082.03.137.114L.173.125z"/></symbol><use xlink:href="#f" transform="matrix(65.32 0 0 -65.32 685.567 426.952)"/><symbol id="g"><path d="M.692.114.677.126.656.1C.626.063.608.047.591.047.583.047.579.052.579.063l.01.045.068.251A.219.219 0 0 1 .66.387C.66.423.639.45.602.45A.113.113 0 0 1 .539.43C.49.399.449.349.379.238c.027.077.04.133.04.152 0 .036-.02.06-.06.06C.298.45.228.384.139.239l.058.209L.194.45.032.419V.403h.025C.084.403.098.396.098.381A1.46 1.46 0 0 0 .043.153L0 .009h.075c.048.158.062.194.096.246C.227.34.286.398.32.398.333.398.342.389.342.373.342.36.318.254.274.102L.247.009h.075C.361.163.381.212.43.281c.05.07.101.117.131.117a.02.02 0 0 0 .02-.021.206.206 0 0 0-.007-.038L.516.112A.318.318 0 0 1 .503.046C.503.016.517 0 .543 0 .59 0 .634.033.687.107l.005.007z"/></symbol><use xlink:href="#g" transform="matrix(65.32 0 0 -65.32 701.31 426.82)"/><symbol id="h"><path d="M.446.122.419.093C.389.06.376.052.367.052.359.052.353.058.353.065c0 .02.042.192.089.363l.006.021-.007.003L.38.445.377.442.366.394C.358.431.329.452.286.452.153.452 0 .271 0 .116 0 .04.044 0 .1 0c.07 0 .128.044.203.157A.418.418 0 0 1 .28.042C.28.013.292.001.32.001c.04 0 .064.019.139.11L.446.122m-.098.25A.423.423 0 0 0 .271.147C.241.104.194.049.144.049c-.036 0-.06.019-.06.074 0 .063.035.152.077.215C.203.399.247.43.292.43.327.43.348.407.348.372z"/></symbol><use xlink:href="#h" transform="matrix(65.32 0 0 -65.32 748.797 426.952)"/><symbol id="i"><path d="M.238.689.232.694A1.397 1.397 0 0 0 .077.667V.651h.018c.032 0 .049-.01.049-.022C.144.626.144.62.141.61L.004.086A.113.113 0 0 1 0 .056C0 .019.017 0 .049 0 .103 0 .14.03.2.125l-.014.01L.161.1C.132.059.109.043.094.043c-.01 0-.017.006-.017.018a.2.2 0 0 0 .008.043l.153.585z"/></symbol><use xlink:href="#i" transform="matrix(65.32 0 0 -65.32 783.09 426.952)"/><symbol id="j"><path d="M.589.2v.066H0V.2h.589m0-.2v.066H0V0h.589z"/></symbol><use xlink:href="#j" transform="matrix(92 0 0 -92 828.543 392.193)"/><symbol id="k"><path d="M.02.524C.061.598.107.63.169.63.235.63.277.596.277.528A.15.15 0 0 0 .196.394.444.444 0 0 0 .112.358V.344c.057 0 .08-.003.102-.01C.283.314.318.265.318.189.318.104.262.036.188.036.16.036.139.041.102.067.074.087.058.093.041.093.018.093 0 .078 0 .057 0 .021.039 0 .112 0c.089 0 .184.029.232.093a.23.23 0 0 1 .046.14.192.192 0 0 1-.044.129.216.216 0 0 1-.083.053c.067.04.093.09.093.138C.356.635.293.69.2.69.096.69.033.623.004.528L.02.524z"/></symbol><use xlink:href="#k" transform="matrix(46.3772 0 0 -46.3772 945.511 377.282)"/><path d="M1004.518 243.6h-6.164L955.206 488.69h-.368L936.53 385.833h-3.588l-20.24 12.788 1.656 3.128c1.748-1.472 4.048-3.036 7.82-3.036 3.864 0 5.244 4.416 6.532 11.5l20.7 116.288h5.244zm-6.164 6.073h354.241V243.6h-354.24z"/><symbol id="l"><path d="M.138.653V.637C.201.632.215.625.215.596A.267.267 0 0 0 .204.532L.083.096C.066.034.055.024 0 .016V0h.272c.162 0 .275.066.275.2 0 .071-.04.124-.126.15v.001C.464.36.501.369.532.39a.13.13 0 0 1 .064.113c0 .099-.069.15-.208.15h-.25m.118-.29.063.224c.01.036.02.036.059.036.081 0 .117-.034.117-.108C.495.416.425.363.294.363H.256M.246.331A.456.456 0 0 0 .372.319C.41.306.439.262.439.2.439.089.361.03.246.03.204.03.179.044.179.072c0 .013.015.064.035.14l.032.119z"/></symbol><use xlink:href="#l" transform="matrix(92 0 0 -92 1012.982 338.373)"/><symbol id="m"><path d="M.89.653H.724L.389.161.333.653H.152V.637C.202.634.226.622.226.603A.248.248 0 0 0 .214.551L.1.15C.068.038.052.022 0 .016V0h.197v.016C.146.02.127.036.127.064c0 .011.004.036.009.054l.118.428L.316 0h.017l.376.561L.583.102C.566.04.546.023.481.016V0h.271l.001.016C.69.018.672.032.672.058c0 .016.007.037.014.062l.123.443C.823.614.833.628.89.637v.016z"/></symbol><use xlink:href="#m" transform="matrix(92 0 0 -92 1068.274 338.373)"/><symbol id="n"><path d="M.145.653V.637C.187.631.191.63.202.623A.038.038 0 0 0 .216.595C.216.578.211.559.204.532L.085.101C.069.042.055.023 0 .016V0h.243v.016C.186.022.176.033.176.063c0 .01.002.024.013.063l.055.203L.31.324.433 0H.58v.016C.535.016.515.039.493.098L.404.333c.067.015.1.027.131.051.041.031.066.08.066.128 0 .085-.072.141-.204.141H.145m.174-.06c.005.019.026.03.057.03.078 0 .12-.043.12-.112 0-.093-.07-.15-.189-.15a.263.263 0 0 0-.051.005l.063.227z"/></symbol><use xlink:href="#n" transform="matrix(92 0 0 -92 1145.37 338.373)"/><symbol id="o"><path d="m.554.047-.23.23.23.232-.046.045-.231-.23-.23.23L0 .508.23.277 0 .046.046 0l.231.23L.508 0l.046.047z"/></symbol><use xlink:href="#o" transform="matrix(92 0 0 -92 1227.179 340.673)"/><symbol id="p"><path d="M.327.12C.255.061.224.045.18.045.124.045.087.081.087.136c0 .015 0 .041.01.061.179.023.284.101.284.187 0 .042-.029.068-.082.068C.149.452 0 .292 0 .137 0 .054.054 0 .135 0c.083 0 .147.038.204.108L.327.12M.121.263C.155.352.223.429.28.429.308.429.315.414.315.39.315.359.296.323.265.293.228.258.19.24.104.219l.017.044z"/></symbol><use xlink:href="#p" transform="matrix(92 0 0 -92 1305.4 339.385)"/><path d="M1004.518 376.921h348.077v6.072h-348.077z"/><symbol id="q"><path d="M.031.07A.233.233 0 0 0 0 0h.078a.209.209 0 0 1 .031.07l.036.141A.132.132 0 0 1 .213.194c.142 0 .298.161.298.315 0 .137-.099.137-.152.137C.252.646.152.533.106.356L.031.07m.391.447C.422.399.341.215.208.213.18.213.159.229.159.25c0 .025.028.129.046.194.03.107.095.181.151.181.043 0 .066-.049.066-.108z"/></symbol><use xlink:href="#q" transform="matrix(92 0 0 -92 1074.269 491.093)"/><symbol id="r"><path d="M.623.682H.602C.594.666.584.66.564.66a.11.11 0 0 0-.041.007.376.376 0 0 1-.336-.056A.438.438 0 0 1 0 .261C0 .096.108 0 .261 0c.103 0 .183.043.273.149L.516.164C.429.074.369.045.287.045.176.045.112.11.112.25c0 .11.036.224.108.301a.278.278 0 0 0 .199.097C.507.648.556.592.568.485L.586.482l.037.2z"/></symbol><use xlink:href="#r" transform="matrix(92 0 0 -92 1130.39 473.889)"/><symbol id="s"><path d="M.506.696A1.211 1.211 0 0 0 .353.673V.656C.408.654.417.651.417.63.417.616.418.612.403.559L.358.396H.357C.351.435.334.454.292.454.162.454 0 .281 0 .119 0 .043.042.002.107.002c.068 0 .119.033.178.132A.366.366 0 0 1 .272.045C.272.018.287 0 .313 0c.05 0 .098.041.147.114l-.012.01C.394.062.383.053.366.053c-.013 0-.018.008-.018.02 0 .016.034.132.065.246l.06.219.039.152-.006.006M.341.374C.341.222.237.05.145.05.11.05.087.077.087.123c0 .083.05.192.116.262a.138.138 0 0 0 .091.046C.317.431.341.41.341.374z"/></symbol><use xlink:href="#s" transform="matrix(65.32 0 0 -65.32 1183.816 493.322)"/><symbol id="t"><path d="M.615 0v.016C.562.02.551.031.537.115L.445.668H.419L.134.172C.059.042.046.025 0 .016V0h.186v.016C.139.018.124.03.124.049c0 .016.008.04.022.066l.059.111h.22l.02-.131.002-.026C.447.035.433.019.37.016V0h.245M.42.262H.226l.149.263L.42.262z"/></symbol><use xlink:href="#t" transform="matrix(92 0 0 -92 1218.26 472.233)"/></g><clipPath id="u"><path transform="matrix(1 0 0 -1 0 1080)" d="M407.94 410.528h1300.927v98.992H407.94z"/></clipPath><g clip-path="url(#u)"><symbol id="v"><path d="M0 0z"/></symbol><symbol id="w"><path d="M0 0h.245C.388 0 .48.065.48.2v.004C.48.297.441.35.337.375c.082.028.108.086.108.151V.53c0 .141-.097.185-.23.185H0V0m.085.403v.244h.128C.313.647.36.614.36.533V.529C.36.441.32.403.215.403h-.13m0-.335v.267h.146c.115 0 .164-.042.164-.13V.201C.395.114.347.068.243.068H.085z"/></symbol><symbol id="x"><path d="M.174 0c.077 0 .124.026.163.075V.009H.42v.345C.42.5.329.541.229.541.128.541.033.497.022.378h.083c.008.064.048.094.12.094.08 0 .112-.035.112-.118V.316H.262C.128.316 0 .275 0 .154 0 .047.077 0 .174 0m.008.066C.109.066.083.1.083.154c0 .077.077.103.182.103h.072V.192C.337.111.27.066.182.066z"/></symbol><symbol id="y"><path d="M.205 0c.127 0 .192.064.192.159C.397.27.321.294.213.314.117.331.091.35.091.397c0 .045.039.075.099.075C.256.472.288.447.3.39h.08C.366.503.285.541.191.541.109.541.014.491.014.394.014.303.06.265.196.24.277.225.318.207.318.152.318.096.283.069.204.069.12.069.087.108.081.17H0C.005.063.08 0 .205 0z"/></symbol><symbol id="z"><path d="M0 0h.084v.773H0V0z"/></symbol><symbol id="A"><path d="M0 0h.08v.602L.325 0h.027l.237.602V0h.087v.715h-.12L.342.158.121.715H0V0z"/></symbol><symbol id="B"><path d="M.253 0c.118 0 .205.055.223.16H.393C.382.099.335.069.254.069.147.069.09.135.086.254H.48v.027c0 .187-.114.26-.235.26C.101.541 0 .431 0 .273V.265C0 .104.105 0 .253 0M.089.321C.103.414.16.472.245.472c.086 0 .142-.043.15-.151H.089z"/></symbol><symbol id="C"><path d="M.216 0C.25 0 .27.005.287.011v.07A.17.17 0 0 0 .223.07C.181.07.158.095.158.146V.46H.28v.07H.158v.119H.075V.53H0V.46h.075V.138C.075.056.121 0 .216 0z"/></symbol><symbol id="D"><path d="M.26 0c.144 0 .238.11.238.27v.008C.498.441.397.541.26.541A.215.215 0 0 1 .083.444v.338H0V.009h.083v.086A.2.2 0 0 1 .26 0M.252.069C.15.069.08.132.08.266v.008c0 .134.074.198.171.198.088 0 .161-.066.161-.198V.266C.412.139.356.069.252.069z"/></symbol><symbol id="E"><path d="M.256 0c.149 0 .258.109.258.267v.008c0 .157-.109.266-.257.266C.109.541 0 .431 0 .274V.266C0 .113.107 0 .256 0m.001.069C.151.069.086.147.086.266v.008c0 .12.066.198.171.198.104 0 .171-.078.171-.199V.266C.428.148.362.069.257.069z"/></symbol><symbol id="F"><path d="M.055.632c.03 0 .055.025.055.055S.085.742.055.742A.055.055 0 0 1 0 .687C0 .657.025.632.055.632M.015 0h.083v.523H.015V0z"/></symbol><symbol id="G"><path d="M.256 0c.126 0 .217.084.228.197H.407C.398.112.331.069.257.069.156.069.086.137.086.265v.008c0 .123.073.199.168.199.072 0 .132-.031.145-.114h.082C.465.491.363.541.254.541.114.541 0 .433 0 .273V.265C0 .103.11 0 .256 0z"/></symbol><symbol id="H"><path d="M0 0h.087v.311h.11L.41 0h.097L.288.317c.098.019.177.077.177.195v.004c0 .143-.113.199-.25.199H0V0m.087.38v.265h.134C.318.645.378.613.378.516V.512C.378.424.323.38.221.38H.087z"/></symbol><symbol id="I"><path d="M.166 0h.083a.7.7 0 0 0-.162.46c0 .206.072.349.162.461H.166A.7.7 0 0 1 0 .46C0 .261.074.108.166 0z"/></symbol><symbol id="J"><path d="M0 0h.083a.7.7 0 0 1 .166.461.696.696 0 0 1-.166.46H0a.7.7 0 0 0 .162-.46A.702.702 0 0 0 0 0z"/></symbol><symbol id="K"><path d="M0 .18h.404v.072H0V.18M0 0h.404v.072H0V0z"/></symbol><use xlink:href="#v" transform="matrix(48 0 0 -48 423.877 639.378)"/><use xlink:href="#v" transform="matrix(48 0 0 -48 436.597 639.378)"/><use xlink:href="#w" transform="matrix(48 0 0 -48 453.637 639.378)"/><use xlink:href="#x" transform="matrix(48 0 0 -48 481.141 639.81)"/><use xlink:href="#y" transform="matrix(48 0 0 -48 507.061 639.81)"/><use xlink:href="#x" transform="matrix(48 0 0 -48 530.101 639.81)"/><use xlink:href="#z" transform="matrix(48 0 0 -48 558.181 639.378)"/><use xlink:href="#v" transform="matrix(48 0 0 -48 566.341 639.378)"/><use xlink:href="#A" transform="matrix(48 0 0 -48 583.381 639.378)"/><use xlink:href="#B" transform="matrix(48 0 0 -48 622.31 639.81)"/><use xlink:href="#C" transform="matrix(48 0 0 -48 648.71 639.714)"/><use xlink:href="#x" transform="matrix(48 0 0 -48 666.661 639.81)"/><use xlink:href="#D" transform="matrix(48 0 0 -48 694.645 639.81)"/><use xlink:href="#E" transform="matrix(48 0 0 -48 722.87 639.81)"/><use xlink:href="#z" transform="matrix(48 0 0 -48 753.83 639.378)"/><use xlink:href="#F" transform="matrix(48 0 0 -48 765.397 639.378)"/><use xlink:href="#G" transform="matrix(48 0 0 -48 776.39 639.81)"/><use xlink:href="#v" transform="matrix(48 0 0 -48 801.59 639.378)"/><use xlink:href="#H" transform="matrix(48 0 0 -48 818.63 639.378)"/><use xlink:href="#x" transform="matrix(48 0 0 -48 846.421 639.81)"/><use xlink:href="#C" transform="matrix(48 0 0 -48 871.67 639.714)"/><use xlink:href="#B" transform="matrix(48 0 0 -48 889.573 639.81)"/><use xlink:href="#I" transform="matrix(48 0 0 -48 917.221 646.482)"/><use xlink:href="#w" transform="matrix(48 0 0 -48 934.453 639.378)"/><use xlink:href="#A" transform="matrix(48 0 0 -48 964.31 639.378)"/><use xlink:href="#H" transform="matrix(48 0 0 -48 1005.397 639.378)"/><use xlink:href="#J" transform="matrix(48 0 0 -48 1032.181 646.338)"/><use xlink:href="#v" transform="matrix(48 0 0 -48 1046.677 639.378)"/><use xlink:href="#K" transform="matrix(48 0 0 -48 1061.317 629.97)"/><use xlink:href="#v" transform="matrix(48 0 0 -48 1082.63 639.378)"/><g data-name="Span"><symbol id="L"><path d="M.403.006A.146.146 0 0 0 .359 0H.05v.285c0 .022.003.039.008.05A.13.13 0 0 0 .082.37c.01.01.02.018.034.023A.123.123 0 0 0 .16.4C.195.4.223.39.242.368A.096.096 0 0 0 .267.302c0-.027-.01-.05-.028-.068A.094.094 0 0 0 .17.206.208.208 0 0 1 .143.21V.07h.175a.06.06 0 0 1 .048.02C.374.1.379.12.379.152v.216a.16.16 0 0 1-.022.092C.335.49.295.507.236.507a.238.238 0 0 1-.128-.03C.074.456.055.435.052.415L0 .455c.016.032.046.06.09.082A.32.32 0 0 0 .237.57C.353.569.426.534.457.464a.2.2 0 0 0 .015-.08V.1a.098.098 0 0 0-.07-.094M.17.346A.04.04 0 0 1 .14.333.044.044 0 0 1 .128.302c0-.011.004-.02.012-.029A.043.043 0 0 1 .17.261C.182.26.192.265.2.273a.038.038 0 0 1 .012.029A.044.044 0 0 1 .2.333a.04.04 0 0 1-.03.013m.377.409a.131.131 0 0 1 .055.11h.093C.695.815.67.77.62.728A.265.265 0 0 0 .447.662a.308.308 0 0 0-.131.022C.276.702.256.73.256.773c0 .026.01.049.027.068.02.018.044.027.07.027a.102.102 0 0 0 .07-.023c.02-.018.03-.04.03-.068a.08.08 0 0 0-.022-.06h.007c.041 0 .078.012.11.038M.31.774c0-.012.004-.022.013-.032A.04.04 0 0 1 .354.73c.012 0 .023.004.032.013.009.009.013.02.013.032a.041.041 0 0 1-.014.03.044.044 0 0 1-.031.014.04.04 0 0 1-.03-.013A.045.045 0 0 1 .31.774z"/></symbol><use xlink:href="#L" transform="matrix(48 0 0 -48 1097.037 639.378)"/></g><symbol id="M"><path d="M.404 0v.38c0 .04-.011.07-.032.09l-.02.013a.015.015 0 0 1-.009.003.206.206 0 0 1-.036-.018.13.13 0 0 0-.059-.016.11.11 0 0 0-.052.016.206.206 0 0 1-.031.016C.16.484.152.481.142.474A.071.071 0 0 1 .123.458C.105.435.096.401.096.354.096.33.098.304.104.28L.119.212A.59.59 0 0 0 .136.088c.01.02.027.044.049.07L.234.22A.066.066 0 0 0 .18.238a.094.094 0 0 0-.03.071c0 .035.014.062.044.081C.21.401.23.407.252.407h.007L.3.4C.312.397.323.387.334.37a.126.126 0 0 0 .02-.068C.354.282.342.256.318.22A4.31 4.31 0 0 0 .225.098L.195.055A.4.4 0 0 1 .162 0H.05a.231.231 0 0 0 .001.023.765.765 0 0 1-.01.115L.005.298A.286.286 0 0 0 0 .36c0 .03.006.06.019.09a.176.176 0 0 0 .054.073C.107.548.14.563.17.568.176.568.189.56.208.543.228.526.243.518.255.518c.013 0 .03.008.05.025.02.016.033.025.038.025A.121.121 0 0 0 .395.554.151.151 0 0 0 .44.52.225.225 0 0 0 .483.45.219.219 0 0 0 .496.374V0H.404M.208.308a.04.04 0 0 1 .013-.03.043.043 0 0 1 .031-.013c.012 0 .022.004.03.012a.04.04 0 0 1 .013.03C.295.337.281.35.252.35a.044.044 0 0 1-.03-.012.04.04 0 0 1-.014-.03z"/></symbol><symbol id="N"><path d="M.185.379a.679.679 0 0 1-.184.009.054.054 0 0 0-.001.01c0 .035.011.07.034.106C.063.549.11.57.176.57A.293.293 0 0 0 .252.557.298.298 0 0 1 .325.543c.03 0 .051.01.063.028L.456.536a.084.084 0 0 0-.023-.03.093.093 0 0 0-.055-.027.264.264 0 0 0-.024-.002c-.02 0-.049.006-.086.018A.283.283 0 0 1 .193.51.107.107 0 0 1 .119.486.1.1 0 0 1 .09.444c.03 0 .066-.003.107-.01A.457.457 0 0 0 .315.403c.03-.014.05-.03.06-.05A.097.097 0 0 0 .39.305v-.19c0-.032-.01-.06-.032-.083A.1.1 0 0 0 .28 0a.107.107 0 0 0-.084.033.092.092 0 0 0-.024.065.093.093 0 0 0 .096.096A.087.087 0 0 0 .295.19v.106c0 .017-.004.03-.013.042C.27.356.237.369.185.379M.268.055a.04.04 0 0 1 .03.013.042.042 0 0 1 .012.03.041.041 0 0 1-.012.03.04.04 0 0 1-.03.013.043.043 0 1 1 0-.086z"/></symbol><symbol id="O"><path d="M.427 0H.333v.37c0 .043-.006.074-.018.092C.295.492.26.507.21.507A.163.163 0 0 1 .092.465.13.13 0 0 1 .054.401L0 .434a.203.203 0 0 0 .064.09.23.23 0 0 0 .15.045A.24.24 0 0 0 .37.52C.407.491.427.445.427.384V0z"/></symbol><symbol id="P"><path d="M.39 0v.374c0 .04-.009.07-.026.092C.342.493.302.507.244.507A.187.187 0 0 1 .14.481.215.215 0 0 1 .08.43L.22.41.214.365C.194.365.18.36.17.35A.075.075 0 0 1 .144.289V0H.052v.289c0 .022.005.04.015.054.012.015.024.023.037.025.004 0 .007.003.008.006L0 .388l.006.06a.128.128 0 0 1 .04.032.304.304 0 0 0 .082.062.34.34 0 0 0 .248.005.177.177 0 0 0 .103-.12.305.305 0 0 0 .003-.05V0H.39z"/></symbol><symbol id="Q"><path d="M.092.567V.191A.101.101 0 0 0 .12.194.095.095 0 0 0 .216.098.093.093 0 0 0 .13.003a.103.103 0 0 0-.1.033.112.112 0 0 0-.029.08v.451h.092M.164.098a.04.04 0 0 1-.013.03.044.044 0 0 1-.031.013.04.04 0 0 1-.03-.012.041.041 0 0 1-.013-.03C.077.086.081.076.09.067A.041.041 0 0 1 .12.055c.013 0 .023.005.032.013a.04.04 0 0 1 .013.03z"/></symbol><symbol id="R"><path d="M.358.559h.094V0H.349L.226.195.102 0H0v.45c0 .033.01.06.03.081.02.023.048.035.083.035.034 0 .06-.011.081-.033A.095.095 0 0 0 .22.468.09.09 0 0 0 .19.4.094.094 0 0 0 .122.373c-.007 0-.016 0-.027.002v-.26L.198.27h.055L.358.114V.56M.122.51a.04.04 0 0 1-.03-.013.042.042 0 0 1-.012-.03c0-.012.004-.022.012-.03a.041.041 0 0 1 .06 0 .041.041 0 0 1 .012.03C.164.496.15.51.122.51z"/></symbol><symbol id="S"><path d="M.134.188a.107.107 0 0 0 .037.007c.027 0 .05-.01.069-.029A.094.094 0 0 0 .268.097c0-.02-.007-.04-.02-.06A.077.077 0 0 0 .196.003.358.358 0 0 0 .163 0a.117.117 0 0 0-.086.037C.051.063.037.112.037.185c0 .08.013.137.038.169a.135.135 0 0 0 .112.055A.193.193 0 0 0 .27.388.214.214 0 0 0 .357.295a1.56 1.56 0 0 0 .02-.037v.117c0 .042-.006.073-.02.092-.02.03-.061.046-.121.046a.241.241 0 0 1-.127-.03A.186.186 0 0 1 .05.42L0 .46l.034.041a.233.233 0 0 0 .124.064.36.36 0 0 0 .08.009C.353.575.426.54.457.47A.198.198 0 0 0 .472.39V.006H.377v.051a.386.386 0 0 1-.045.168c-.04.08-.083.12-.129.12-.03 0-.05-.015-.06-.047a.227.227 0 0 1-.011-.07c0-.02 0-.033.002-.04m.078-.09A.043.043 0 0 1 .2.127.038.038 0 0 1 .171.14a.04.04 0 0 1-.03-.013.042.042 0 0 1-.012-.03A.042.042 0 0 1 .17.055c.011 0 .02.004.029.013a.042.042 0 0 1 .012.03z"/></symbol><symbol id="T"><path d="M.47.086C.477.067.498.058.532.058c.04.004.065.02.076.046.007.018.011.04.011.064v.01h.092A.184.184 0 0 0 .668.05.154.154 0 0 0 .546 0 .295.295 0 0 0 .44.018C.4.034.375.058.37.092a.076.076 0 0 0 .014.069c.01.013.026.02.044.02.046 0 .069-.02.069-.063C.496.096.487.086.47.086M.05.509c0 .022.006.04.017.054.012.015.023.023.035.025.004 0 .006.001.007.002l.003.004L0 .607l.007.06c.009.004.022.014.038.03a.34.34 0 0 0 .082.065.24.24 0 0 0 .118.027.335.335 0 0 0 .131-.021.177.177 0 0 0 .108-.17V.29h.084c.02 0 .034.003.04.011.008.008.011.02.011.04v.437h.092v-.48C.711.274.704.254.69.24.675.228.652.22.62.22H.39v.375a.151.151 0 0 1-.026.092C.343.713.303.727.245.727a.21.21 0 0 1-.14-.05A1.302 1.302 0 0 0 .076.651L.22.63.212.585A.067.067 0 0 1 .167.569C.153.557.146.54.146.516V.402a.103.103 0 0 0 .027.003c.028 0 .051-.009.07-.027A.092.092 0 0 0 .27.31.092.092 0 0 0 .245.245a.094.094 0 0 0-.063-.03.104.104 0 0 0-.1.033.11.11 0 0 0-.03.08v.18M.215.31a.04.04 0 0 1-.013.03.04.04 0 0 1-.03.012.041.041 0 0 1-.03-.012.041.041 0 0 1-.012-.03C.13.298.135.288.143.28a.041.041 0 0 1 .03-.013C.202.267.216.28.216.31z"/></symbol><use xlink:href="#M" transform="matrix(48 0 0 -48 1125.855 639.378)"/><use xlink:href="#N" transform="matrix(48 0 0 -48 1154.15 639.772)"/><use xlink:href="#O" transform="matrix(48 0 0 -48 1176.685 639.378)"/><use xlink:href="#P" transform="matrix(48 0 0 -48 1202.295 639.378)"/><use xlink:href="#O" transform="matrix(48 0 0 -48 1229.783 639.378)"/><use xlink:href="#N" transform="matrix(48 0 0 -48 1254.474 639.772)"/><use xlink:href="#Q" transform="matrix(48 0 0 -48 1280.197 639.79)"/><use xlink:href="#R" transform="matrix(48 0 0 -48 1295.234 639.378)"/><use xlink:href="#O" transform="matrix(48 0 0 -48 1320.714 639.378)"/><use xlink:href="#R" transform="matrix(48 0 0 -48 1348.087 639.378)"/><use xlink:href="#S" transform="matrix(48 0 0 -48 1374.992 639.66)"/><use xlink:href="#O" transform="matrix(48 0 0 -48 1401.522 639.378)"/><use xlink:href="#T" transform="matrix(48 0 0 -48 1426.926 649.934)"/><g data-name="Span"><symbol id="U"><path d="M.48 0 .348.405.216 0H.129v.375A.4.4 0 0 0 .096.373C.069.373.046.382.028.4A.092.092 0 0 0 0 .468c0 .02.007.04.02.06.015.02.032.032.052.035a.331.331 0 0 0 .033.003A.109.109 0 0 0 .19.532.13.13 0 0 0 .215.45V.26L.212.2l.115.359h.046l.114-.36-.002.062v.298H.57V0H.48M.055.468c0-.012.004-.022.012-.03A.039.039 0 0 1 .096.425a.04.04 0 0 1 .029.013.04.04 0 0 1 .013.03.042.042 0 0 1-.013.03.038.038 0 0 1-.03.013.037.037 0 0 1-.029-.013.043.043 0 0 1-.011-.03m.524.167A1.045 1.045 0 0 1 .34.66C.266.66.193.653.12.64c0 .051.028.098.083.14A.216.216 0 0 0 .34.82.189.189 0 0 0 .389.812v.043h.073V.793a.14.14 0 0 0 .04-.034v.097h.067V.65L.58.635M.332.773A.125.125 0 0 1 .264.757.16.16 0 0 1 .216.7l.135.003C.39.704.434.7.48.691L.466.71a.166.166 0 0 1-.134.062m.165.213H.483c-.024 0-.042.007-.054.023a.059.059 0 0 0-.011.037c0 .032.015.053.046.063a.086.086 0 0 0 .025.003c.025 0 .044-.01.057-.028a.088.088 0 0 0 .017-.05.085.085 0 0 0-.003-.022A.082.082 0 0 0 .534.97a.129.129 0 0 1 .106.124h.071c0-.048-.023-.09-.071-.125A.308.308 0 0 0 .449.913v.032C.459.945.47.95.483.96c.01.01.014.018.014.027m-.014.091c-.02 0-.03-.01-.03-.03.004-.02.014-.03.034-.03.018 0 .027.01.027.031 0 .02-.01.029-.03.029z"/></symbol><use xlink:href="#U" transform="matrix(48 0 0 -48 1465.568 639.378)"/></g><symbol id="V"><path d="M.125.383A.205.205 0 0 0 .096.381C.07.38.047.39.028.409A.09.09 0 0 0 0 .476c0 .02.007.041.02.06.015.02.033.032.053.035a.356.356 0 0 0 .034.003A.107.107 0 0 0 .19.54.119.119 0 0 0 .22.459V.122A.15.15 0 0 0 .276.18a.31.31 0 0 0 .105.038c.026.007.04.017.04.032v.318h.094V.238a.036.036 0 0 0-.02-.034.206.206 0 0 0-.03-.012A.096.096 0 0 0 .51.165.09.09 0 0 0 .537.104a.104.104 0 0 0-.025-.07A.1.1 0 0 0 .445 0C.409 0 .38.011.362.033A.107.107 0 0 0 .338.09c0 .034.005.053.014.057C.326.147.298.13.268.097a.25.25 0 0 1-.05-.089H.126v.375m-.07.093c0-.011.004-.02.012-.03a.04.04 0 0 1 .03-.012c.011 0 .021.004.03.012a.04.04 0 0 1 .013.03.041.041 0 0 1-.013.03.042.042 0 0 1-.03.013.04.04 0 0 1-.03-.013.043.043 0 0 1-.012-.03M.439.14C.409.14.394.125.394.095.394.067.41.054.437.054.45.054.46.057.469.065a.04.04 0 0 1 .013.03C.48.125.467.14.439.14z"/></symbol><symbol id="W"><path d="M.379.078a.06.06 0 0 0-.053.025.066.066 0 0 0-.01.038c0 .026.009.045.027.056A.077.077 0 0 0 .386.21.069.069 0 0 0 .43.194C.447.181.455.161.455.134V.077a.073.073 0 0 0-.02-.052.056.056 0 0 0-.047-.023H.306L.266.05.219 0 .172.057A.097.097 0 0 0 .15.03.092.092 0 0 0 .087.008c-.03 0-.054.01-.072.032A.071.071 0 0 0 0 .087C0 .118.013.139.038.15A.127.127 0 0 0 .09.163a.095.095 0 0 0 .063-.02.064.064 0 0 1 .006.024.154.154 0 0 1 .002.022h.065A.17.17 0 0 0 .204.11L.23.081.27.118.335.05h.019c.01 0 .016.002.02.006A.02.02 0 0 1 .378.07v.008m.096.264A.136.136 0 0 0 .47.308.174.174 0 0 0 .454.276.085.085 0 0 0 .398.245L.362.24H.354a.118.118 0 0 0-.07.02C.261.276.25.294.25.315L.24.403a.058.058 0 0 0-.027-.01.1.1 0 0 0-.074.018C.12.425.107.441.104.46a.098.098 0 0 0 .014.086c.012.018.027.03.045.036a.158.158 0 0 0 .044.007.11.11 0 0 0 .064-.017.106.106 0 0 0 .034-.037.111.111 0 0 0 .016-.042L.33.327C.337.31.346.303.36.303c.017 0 .027.008.029.024l.006.228C.394.581.366.6.309.612a.681.681 0 0 1-.254.01c0 .049.01.09.03.122.03.046.077.07.143.07A.347.347 0 0 0 .31.798.354.354 0 0 1 .39.785c.032 0 .053.01.065.028L.52.778A.075.075 0 0 0 .496.746.084.084 0 0 0 .443.721.29.29 0 0 0 .418.719a.278.278 0 0 0-.08.016.29.29 0 0 1-.09.017C.217.752.193.744.177.73A.09.09 0 0 1 .154.691a.894.894 0 0 0 .228-.03.931.931 0 0 0 .049-.022.158.158 0 0 0 .043-.03C.484.598.488.585.487.567L.475.342M.154.48C.159.458.174.447.196.447A.042.042 0 0 1 .24.49a.041.041 0 0 1-.016.033.046.046 0 0 1-.03.01.039.039 0 0 1-.03-.016.046.046 0 0 1-.01-.036M.057.086c0-.019.01-.028.028-.028a.04.04 0 0 1 .033.017c.006.008.01.016.01.022 0 .005-.006.01-.016.014a.062.062 0 0 1-.023.006C.068.117.057.107.057.086m.299.056c0-.02.009-.03.027-.03.02 0 .031.01.031.03 0 .018-.01.027-.03.027C.364.17.355.16.355.142z"/></symbol><use xlink:href="#V" transform="matrix(48 0 0 -48 1497.836 639.772)"/><use xlink:href="#W" transform="matrix(48 0 0 -48 1525.565 651.378)"/><use xlink:href="#O" transform="matrix(48 0 0 -48 1552.475 639.378)"/><use xlink:href="#V" transform="matrix(48 0 0 -48 1577.387 639.772)"/></g><clipPath id="X"><path transform="matrix(1 0 0 -1 0 1080)" d="M407.321 323.05h928.422v98.992H407.321z"/></clipPath><g clip-path="url(#X)"><use xlink:href="#v" transform="matrix(48 0 0 -48 423.259 726.856)"/><use xlink:href="#v" transform="matrix(48 0 0 -48 435.979 726.856)"/><use xlink:href="#B" transform="matrix(48 0 0 -48 450.859 727.288)"/><use xlink:href="#v" transform="matrix(48 0 0 -48 475.963 726.856)"/><use xlink:href="#K" transform="matrix(48 0 0 -48 490.603 717.448)"/><use xlink:href="#v" transform="matrix(48 0 0 -48 511.915 726.856)"/><symbol id="Y"><path d="M.186.535A.12.12 0 0 0 .219.45V.07h.192c.013 0 .024.005.033.015C.45.09.453.102.453.118v.66h.094v-.67a.124.124 0 0 0-.02-.075C.511.011.483 0 .445 0H.077v.07h.05v.305A.212.212 0 0 0 .098.373C.071.373.048.382.028.4A.09.09 0 0 0 0 .468c0 .02.007.04.02.06a.08.08 0 0 0 .054.035.343.343 0 0 0 .033.003.1.1 0 0 0 .079-.031M.056.468c0-.012.004-.022.012-.03a.04.04 0 0 1 .03-.013.04.04 0 0 1 .03.013.04.04 0 0 1 .012.03.041.041 0 0 1-.012.03.04.04 0 0 1-.03.013.04.04 0 0 1-.03-.013.042.042 0 0 1-.012-.03z"/></symbol><symbol id="Z"><path d="M.304.427c.007.02.01.039.01.054l.08-.015a.202.202 0 0 0-.09-.138.236.236 0 0 0-.133-.03C.095.298.042.319.014.363A.08.08 0 0 0 0 .408c0 .024.009.045.026.065A.124.124 0 0 0 .084.5C.114.5.138.491.156.475A.094.094 0 0 0 .18.409C.18.382.167.362.14.35A.123.123 0 0 1 .175.344c.017 0 .034.003.05.008a.116.116 0 0 1 .079.075m0-.298c.007.02.01.038.01.053l.08-.013A.202.202 0 0 0 .304.03.234.234 0 0 0 .171 0C.094 0 .041.021.014.064A.083.083 0 0 0 0 .11c0 .025.009.047.026.063A.082.082 0 0 0 .084.2h.011a.082.082 0 0 0 .06-.024A.087.087 0 0 0 .18.111C.18.085.167.065.14.05A.125.125 0 0 1 .173.046c.068 0 .111.027.13.083M.049.414c0-.012.004-.022.011-.03A.04.04 0 0 1 .09.371C.1.371.11.375.119.383a.04.04 0 0 1 .013.03.037.037 0 0 1-.013.03.044.044 0 0 1-.03.012.04.04 0 0 1-.03-.013.039.039 0 0 1-.011-.028m0-.3A.04.04 0 0 1 .06.087.04.04 0 0 1 .089.074c.029 0 .043.014.043.04a.04.04 0 0 1-.012.03.043.043 0 0 1-.031.013.04.04 0 0 1-.03-.013.042.042 0 0 1-.011-.03z"/></symbol><use xlink:href="#Y" transform="matrix(48 0 0 -48 525.835 726.856)"/><use xlink:href="#N" transform="matrix(48 0 0 -48 556.717 727.25)"/><use xlink:href="#Z" transform="matrix(48 0 0 -48 580.223 725.318)"/><g data-name="Span"><symbol id="aa"><path d="M.43.51A.134.134 0 0 0 .457.466.203.203 0 0 0 .47.39V.006H.38v.051a.39.39 0 0 1-.047.168c-.04.08-.084.12-.13.12C.17.346.15.33.139.296A.206.206 0 0 1 .13.235L.134.187A.103.103 0 0 0 .17.195c.027 0 .05-.01.069-.029A.094.094 0 0 0 .267.097a.1.1 0 0 0-.02-.06C.231.017.213.005.194.003A.334.334 0 0 0 .162 0a.117.117 0 0 0-.086.037C.05.062.037.112.037.185c0 .08.013.136.039.169a.132.132 0 0 0 .11.055A.192.192 0 0 0 .27.388.238.238 0 0 0 .364.285.799.799 0 0 0 .38.258v.117c0 .04-.008.071-.022.092-.02.03-.061.046-.121.046A.238.238 0 0 1 .11.484.13.13 0 0 1 .05.421L0 .46l.034.041a.237.237 0 0 0 .123.064.37.37 0 0 0 .081.009.333.333 0 0 0 .13-.022.1.1 0 0 1 .027.026C.405.591.41.607.41.626l.1-.025C.508.57.49.545.457.524A.152.152 0 0 0 .43.51M.212.097A.042.042 0 0 1 .2.127.04.04 0 0 1 .17.14.038.038 0 0 1 .14.127.042.042 0 0 1 .13.097c0-.011.004-.021.012-.03A.039.039 0 0 1 .17.055.04.04 0 0 1 .2.067a.041.041 0 0 1 .012.03M.48.652l-.054.01C.375.672.314.677.244.677.175.677.102.671.024.657l.015.051c.035.086.103.129.205.129C.335.837.404.8.448.729A.213.213 0 0 0 .481.652M.234.79C.186.79.152.773.133.737L.125.718a.852.852 0 0 0 .256-.01l-.014.02A.164.164 0 0 1 .234.79z"/></symbol><use xlink:href="#aa" transform="matrix(48 0 0 -48 602.185 727.137)"/></g><symbol id="ab"><path d="M.124.375a.513.513 0 0 0-.03-.002A.09.09 0 0 0 .027.4.092.092 0 0 0 0 .468c0 .02.007.04.02.06C.034.548.05.56.07.563a.345.345 0 0 0 .033.003.106.106 0 0 0 .084-.034A.12.12 0 0 0 .216.45V.322L.206.24.22.286l.025.067A.666.666 0 0 0 .333.52a.2.2 0 0 0 .031.034c.01.007.024.01.041.01A.12.12 0 0 0 .5.525.142.142 0 0 0 .534.426V0H.442v.436C.442.466.43.48.402.48.386.48.364.45.335.391a1.176 1.176 0 0 1-.11-.334A.514.514 0 0 1 .216 0H.124v.375M.052.468c0-.011.005-.021.013-.03a.04.04 0 0 1 .03-.013c.01 0 .021.005.03.013a.04.04 0 0 1 .013.03.041.041 0 0 1-.013.03.042.042 0 0 1-.03.013.04.04 0 0 1-.03-.013.043.043 0 0 1-.013-.03z"/></symbol><use xlink:href="#ab" transform="matrix(48 0 0 -48 629.56 726.856)"/><g data-name="Span"><symbol id="ac"><path d="M.26.358a.663.663 0 0 1-.187.017H.015a.198.198 0 0 0 .032.12c.029.046.076.068.142.068A.338.338 0 0 0 .271.55.349.349 0 0 1 .35.535c.032 0 .053.01.065.028L.48.528A.082.082 0 0 0 .458.496.094.094 0 0 0 .404.471.276.276 0 0 0 .38.469a.293.293 0 0 0-.083.016.303.303 0 0 1-.089.017C.174.502.15.495.136.48A.14.14 0 0 1 .109.436.78.78 0 0 0 .348.395C.414.374.447.345.447.308V.104a.1.1 0 0 0-.02-.058A.106.106 0 0 0 .38.007.11.11 0 0 0 .34 0H.058v.336h.092V.071h.133C.311.07.33.075.338.082c.011.01.017.026.017.049v.164c0 .029-.032.05-.094.063m.196.288-.053.01C.35.667.29.672.22.672.15.671.078.665 0 .652l.015.05C.05.788.118.831.22.831.31.83.38.795.425.723A.213.213 0 0 0 .457.646M.21.784C.162.784.129.767.109.731L.101.713l.126.003a.852.852 0 0 0 .13-.014L.343.723A.164.164 0 0 1 .21.784z"/></symbol><use xlink:href="#ac" transform="matrix(48 0 0 -48 660.085 726.856)"/></g><symbol id="ad"><path d="M.218.116a.115.115 0 0 0-.029-.08.102.102 0 0 0-.101-.034A.093.093 0 0 0 0 .098a.097.097 0 0 0 .098.096c.01 0 .02-.001.027-.003v.106A.09.09 0 0 0 .14.352c.01.014.023.022.037.024.004 0 .007.003.009.006L.073.396l.006.06c.01.004.024.015.04.032a.347.347 0 0 0 .083.063c.03.017.07.026.116.026.056 0 .1-.007.132-.021A.176.176 0 0 0 .537.477a.195.195 0 0 0 .02-.091V.008H.463v.374a.145.145 0 0 1-.027.092C.415.5.375.515.318.515A.212.212 0 0 1 .213.49.304.304 0 0 1 .15.44L.293.418.286.373A.064.064 0 0 1 .243.358.069.069 0 0 1 .218.303V.116m-.12-.06c.012 0 .022.003.03.012a.043.043 0 0 1-.001.06.038.038 0 0 1-.029.013.041.041 0 0 1-.03-.013.04.04 0 0 1-.012-.03C.056.069.07.055.098.055z"/></symbol><symbol id="ae"><path d="M.48 0 .348.405.216 0H.129v.375A.4.4 0 0 0 .096.373C.069.373.046.382.028.4A.092.092 0 0 0 0 .468c0 .02.007.04.02.06.015.02.032.032.052.035a.331.331 0 0 0 .033.003A.109.109 0 0 0 .19.532.13.13 0 0 0 .215.45V.26L.212.2l.115.359h.046l.114-.36-.002.062v.298H.57V0H.48M.055.468c0-.012.004-.022.012-.03A.039.039 0 0 1 .096.425a.04.04 0 0 1 .029.013.04.04 0 0 1 .013.03.042.042 0 0 1-.013.03.038.038 0 0 1-.03.013.037.037 0 0 1-.029-.013.043.043 0 0 1-.011-.03z"/></symbol><symbol id="af"><path d="M.476.559V.107a.123.123 0 0 0-.02-.072A.123.123 0 0 0 .363 0H.081v.07h.057v.109c0 .028.017.062.051.103a.344.344 0 0 1 .056.086c.006.017.01.036.01.056a.088.088 0 0 1-.02.058.066.066 0 0 1-.055.027H.167C.135.509.117.501.11.486c.029 0 .05-.01.062-.03a.113.113 0 0 0 .02-.06A.098.098 0 0 0 .18.349.069.069 0 0 0 .143.314a.137.137 0 0 0-.046-.01.1.1 0 0 0-.06.021.078.078 0 0 0-.033.052.148.148 0 0 0 .047.148c.03.027.072.04.128.04A.165.165 0 0 0 .285.532.133.133 0 0 0 .34.421a.248.248 0 0 0-.06-.153.736.736 0 0 1-.033-.045A.101.101 0 0 1 .23.17v-.1h.113c.01 0 .02.005.031.016.005.008.007.02.007.035v.438h.095M.059.395C.06.384.063.374.07.365A.037.037 0 0 1 .098.355c.027 0 .041.013.041.04C.14.423.125.437.098.437A.036.036 0 0 1 .071.423.041.041 0 0 1 .059.395z"/></symbol><symbol id="ag"><path d="M.403.006A.146.146 0 0 0 .359 0H.05v.285c0 .022.003.039.008.05A.13.13 0 0 0 .082.37c.01.01.02.018.034.023A.123.123 0 0 0 .16.4C.195.4.223.39.242.368A.096.096 0 0 0 .267.302c0-.027-.01-.05-.028-.068A.094.094 0 0 0 .17.206.208.208 0 0 1 .143.21V.07h.175a.06.06 0 0 1 .048.02C.374.1.379.12.379.152v.216a.16.16 0 0 1-.022.092C.335.49.295.507.236.507a.238.238 0 0 1-.128-.03C.074.456.055.435.052.415L0 .455c.016.032.046.06.09.082A.32.32 0 0 0 .237.57C.353.569.426.534.457.464a.2.2 0 0 0 .015-.08V.1a.098.098 0 0 0-.07-.094M.17.346A.04.04 0 0 1 .14.333.044.044 0 0 1 .128.302c0-.011.004-.02.012-.029A.043.043 0 0 1 .17.261C.182.26.192.265.2.273a.038.038 0 0 1 .012.029A.044.044 0 0 1 .2.333a.04.04 0 0 1-.03.013z"/></symbol><symbol id="ah"><path d="M.283.375A.54.54 0 0 0 .255.373.098.098 0 0 0 .185.4a.09.09 0 0 0-.028.068c0 .02.007.04.022.06C.193.548.21.56.23.563a.355.355 0 0 0 .033.003A.104.104 0 0 0 .347.53a.119.119 0 0 0 .028-.08V0H.256a.812.812 0 0 1-.08.127.825.825 0 0 1-.108.122L.066.251A.32.32 0 0 1 0 .302l.026.041C.04.343.076.316.138.262.161.242.183.22.207.197A.878.878 0 0 0 .259.132L.283.1v.275M.212.468a.04.04 0 0 1 .013-.03.043.043 0 0 1 .03-.013c.011 0 .021.005.03.013a.04.04 0 0 1 .012.03.043.043 0 0 1-.012.03.039.039 0 0 1-.03.013.043.043 0 0 1-.03-.013.042.042 0 0 1-.013-.03z"/></symbol><symbol id="ai"><path d="M.163 0H.052a.231.231 0 0 0 .001.023c0 .032-.004.07-.011.115L.005.293A.3.3 0 0 0 0 .353c0 .068.024.122.073.162a.276.276 0 0 0 .18.054C.335.569.396.552.438.518a.176.176 0 0 0 .06-.144V0H.404v.38A.121.121 0 0 1 .37.47C.344.496.305.508.252.508a.16.16 0 0 1-.11-.039C.112.443.098.405.098.354.098.33.1.311.103.296L.113.25A.814.814 0 0 0 .12.185a.746.746 0 0 0 .029.134c.007.03.017.053.03.07.014.021.037.032.067.032C.298.42.332.403.348.366A.105.105 0 0 0 .334.258.104.104 0 0 0 .255.225a.089.089 0 0 0-.05.016.597.597 0 0 1-.037-.182L.163 0m.094.365C.228.365.214.35.214.322a.04.04 0 0 1 .013-.03.042.042 0 0 1 .059.001.04.04 0 0 1 .012.03.04.04 0 0 1-.012.03.04.04 0 0 1-.03.012z"/></symbol><use xlink:href="#ad" transform="matrix(48 0 0 -48 686.578 727.25)"/><use xlink:href="#O" transform="matrix(48 0 0 -48 717.48 726.856)"/><use xlink:href="#ae" transform="matrix(48 0 0 -48 742.411 726.856)"/><use xlink:href="#af" transform="matrix(48 0 0 -48 774.568 726.856)"/><use xlink:href="#ag" transform="matrix(48 0 0 -48 802.76 726.856)"/><use xlink:href="#ah" transform="matrix(48 0 0 -48 829.554 726.856)"/><use xlink:href="#Q" transform="matrix(48 0 0 -48 855.332 727.268)"/><use xlink:href="#ab" transform="matrix(48 0 0 -48 868.02 726.856)"/><use xlink:href="#ai" transform="matrix(48 0 0 -48 900.028 726.856)"/><g data-name="Span"><symbol id="aj"><path d="M.125.383A.205.205 0 0 0 .096.381C.07.38.047.39.028.409A.09.09 0 0 0 0 .476c0 .02.007.041.02.06.015.02.033.032.053.035a.356.356 0 0 0 .034.003A.107.107 0 0 0 .19.54.119.119 0 0 0 .22.459V.122A.15.15 0 0 0 .276.18a.31.31 0 0 0 .105.038c.026.007.04.017.04.032v.318h.094V.238a.036.036 0 0 0-.02-.034.206.206 0 0 0-.03-.012A.096.096 0 0 0 .51.165.09.09 0 0 0 .537.104a.104.104 0 0 0-.025-.07A.1.1 0 0 0 .445 0C.409 0 .38.011.362.033A.107.107 0 0 0 .338.09c0 .034.005.053.014.057C.326.147.298.13.268.097a.25.25 0 0 1-.05-.089H.126v.375m-.07.093c0-.011.004-.02.012-.03a.04.04 0 0 1 .03-.012c.011 0 .021.004.03.012a.04.04 0 0 1 .013.03.041.041 0 0 1-.013.03.042.042 0 0 1-.03.013.04.04 0 0 1-.03-.013.043.043 0 0 1-.012-.03M.439.14C.409.14.394.125.394.095.394.067.41.054.437.054.45.054.46.057.469.065a.04.04 0 0 1 .013.03C.48.125.467.14.439.14m.093.514L.48.665C.426.675.365.68.295.68.227.68.153.673.075.66L.09.71c.035.086.104.13.205.13C.387.84.455.802.5.73A.213.213 0 0 0 .532.656M.285.793C.238.793.204.775.185.739L.176.721l.125.003a.852.852 0 0 0 .13-.013L.42.73a.164.164 0 0 1-.134.062z"/></symbol><use xlink:href="#aj" transform="matrix(48 0 0 -48 928.828 727.25)"/></g><use xlink:href="#ai" transform="matrix(48 0 0 -48 960.422 726.856)"/><symbol id="ak"><path d="M.092.567V.191A.101.101 0 0 0 .12.194.095.095 0 0 0 .216.098.093.093 0 0 0 .13.003a.103.103 0 0 0-.1.033.112.112 0 0 0-.029.08v.451h.092m.259 0V.191a.127.127 0 0 0 .03.003C.406.194.43.184.447.166A.092.092 0 0 0 .476.098.093.093 0 0 0 .452.033a.092.092 0 0 0-.063-.03.1.1 0 0 0-.1.03.118.118 0 0 0-.031.083v.451H.35M.42.098a.042.042 0 0 1-.011.03.038.038 0 0 1-.03.013.045.045 0 0 1-.03-.012.04.04 0 0 1-.014-.03.04.04 0 0 1 .013-.031A.044.044 0 0 1 .38.055c.012 0 .022.005.03.013a.043.043 0 0 1 .011.03m-.257 0a.04.04 0 0 1-.013.03.044.044 0 0 1-.031.013.04.04 0 0 1-.03-.012.041.041 0 0 1-.013-.03C.077.086.081.076.09.067A.041.041 0 0 1 .12.055c.013 0 .023.005.032.013a.04.04 0 0 1 .013.03z"/></symbol><use xlink:href="#ak" transform="matrix(48 0 0 -48 1004.548 727.268)"/><use xlink:href="#S" transform="matrix(48 0 0 -48 1030.63 727.137)"/><use xlink:href="#Z" transform="matrix(48 0 0 -48 1058.14 725.318)"/><symbol id="al"><path d="M.496.35V.107A.119.119 0 0 0 .475.035.115.115 0 0 0 .385 0H.081v.07h.057v.109c0 .027.017.061.05.101a.33.33 0 0 1 .057.088.15.15 0 0 1 .01.056.085.085 0 0 1-.023.06.074.074 0 0 1-.057.025H.168C.135.509.116.501.111.486.139.486.16.474.177.449A.098.098 0 0 0 .195.395a.088.088 0 0 0-.016-.05.076.076 0 0 0-.04-.032.123.123 0 0 0-.041-.009c-.02 0-.04.008-.06.023a.082.082 0 0 0-.034.052.145.145 0 0 0 .047.147c.03.026.072.04.128.04.07 0 .118-.028.145-.082A.138.138 0 0 0 .338.422a.26.26 0 0 0-.062-.16A.531.531 0 0 1 .245.22.1.1 0 0 1 .232.17v-.1h.131c.011 0 .022.005.032.016C.4.093.404.106.404.12v.228A.104.104 0 0 1 .4.38a.068.068 0 0 1-.012.04.043.043 0 0 1-.04.023l-.012.04a.205.205 0 0 1 .067.024C.408.51.413.515.42.522c.018.018.026.04.026.067h.108A.345.345 0 0 0 .547.545a.108.108 0 0 0-.03-.048.118.118 0 0 0-.045-.025.156.156 0 0 0-.023-.007L.425.461C.433.46.443.456.455.446a.065.065 0 0 0 .022-.02.074.074 0 0 0 .016-.038.096.096 0 0 0 .002-.022V.35M.062.395a.04.04 0 0 1 .01-.03.037.037 0 0 1 .03-.011c.01 0 .02.004.028.012a.04.04 0 0 1 0 .057A.038.038 0 0 1 .1.436.037.037 0 0 1 .072.423.04.04 0 0 1 .06.395z"/></symbol><use xlink:href="#al" transform="matrix(48 0 0 -48 1091.162 726.856)"/><use xlink:href="#aj" transform="matrix(48 0 0 -48 1119.569 727.25)" data-name="Span"/><symbol id="am"><path d="M.404 0v.38a.12.12 0 0 1-.036.09C.343.496.304.508.251.508A.156.156 0 0 1 .143.47.148.148 0 0 1 .096.354C.096.33.098.304.104.28L.119.212A.59.59 0 0 0 .136.088a1.552 1.552 0 0 0 .098.146.113.113 0 0 0-.063.03C.157.278.151.299.151.327c0 .013.002.026.006.036.017.042.049.062.097.062.037 0 .064-.013.08-.038a.128.128 0 0 0 .02-.068C.354.302.344.276.321.24A3.158 3.158 0 0 1 .162 0H.05a.231.231 0 0 0 .001.023.765.765 0 0 1-.01.115L.005.298A.286.286 0 0 0 0 .36c0 .066.025.118.074.156A.285.285 0 0 0 .252.57C.335.569.396.552.437.518c.04-.033.06-.081.06-.144V0H.403M.208.324a.04.04 0 0 1 .013-.03A.044.044 0 0 1 .252.28c.012 0 .022.004.03.013a.04.04 0 0 1 .013.03.04.04 0 0 1-.012.03.042.042 0 0 1-.031.013.043.043 0 0 1-.03-.013.04.04 0 0 1-.014-.03z"/></symbol><use xlink:href="#am" transform="matrix(48 0 0 -48 1150.994 726.856)"/><use xlink:href="#af" transform="matrix(48 0 0 -48 1179.495 726.856)"/><use xlink:href="#ag" transform="matrix(48 0 0 -48 1207.688 726.856)"/><use xlink:href="#ah" transform="matrix(48 0 0 -48 1234.48 726.856)"/><g data-name="Span"><symbol id="an"><path d="M.51 0 .38.405.246 0H.16v.375A.293.293 0 0 0 .126.373C.1.373.077.382.058.4A.092.092 0 0 0 .03.468c0 .02.007.04.02.06.015.02.032.032.053.035a.331.331 0 0 0 .033.003A.109.109 0 0 0 .22.532.13.13 0 0 0 .245.45V.26L.242.2l.115.359h.046l.114-.36-.002.062v.516h.086V0H.51M.085.468c0-.012.004-.022.012-.03a.039.039 0 0 1 .03-.013.04.04 0 0 1 .028.013.04.04 0 0 1 .013.03.042.042 0 0 1-.012.03.038.038 0 0 1-.03.013.037.037 0 0 1-.03-.013.043.043 0 0 1-.01-.03m.371.196-.053.01C.35.684.29.69.22.69.15.69.078.683 0 .67l.015.05C.05.807.118.85.22.85.31.848.38.811.425.74A.213.213 0 0 0 .457.664M.21.802C.162.802.129.784.109.749L.101.73c.048.002.09.004.126.004A.852.852 0 0 0 .357.72L.343.74A.164.164 0 0 1 .21.803z"/></symbol><use xlink:href="#an" transform="matrix(48 0 0 -48 1256.2 726.856)"/></g><use xlink:href="#V" transform="matrix(48 0 0 -48 1290.137 727.25)"/></g><clipPath id="ao"><path transform="matrix(1 0 0 -1 0 1080)" d="M407.299 235.461h472.408v99.125H407.3z"/></clipPath><g clip-path="url(#ao)"><symbol id="ap"><path d="M.237.264c.055 0 .094.021.116.062a.266.266 0 0 1 .03.133c0 .048-.01.092-.03.13a.11.11 0 0 1-.046.043.14.14 0 0 1-.07.016C.183.647.146.627.123.588A.242.242 0 0 1 .09.46C.09.409.1.364.122.326.144.285.182.264.237.264M0 .45c0 .181.08.273.237.275C.315.725.374.7.414.65.454.6.474.536.474.457a.31.31 0 0 0-.058-.19C.377.216.318.188.236.187a.202.202 0 0 0-.081.018.139.139 0 0 0-.063.056H.09V0H0v.45z"/></symbol><use xlink:href="#ap" transform="matrix(48 0 0 -48 452.683 823.732)"/><use xlink:href="#v" transform="matrix(48 0 0 -48 478.019 814.333)"/><use xlink:href="#K" transform="matrix(48 0 0 -48 492.659 804.925)"/><use xlink:href="#v" transform="matrix(48 0 0 -48 513.971 814.333)"/><symbol id="aq"><path d="M.424.116A.119.119 0 0 0 .391.032a.1.1 0 0 0-.097-.03.097.097 0 0 0-.064.03.092.092 0 0 0-.025.066c0 .027.01.05.029.068.019.019.042.028.07.028.01 0 .02-.001.028-.003v.186C.332.421.326.452.314.47.294.5.259.515.209.515A.164.164 0 0 1 .09.474a.147.147 0 0 1-.04-.065L0 .442a.216.216 0 0 0 .066.094c.033.027.081.041.146.041A.242.242 0 0 0 .368.53C.405.5.424.454.424.393V.116m-.12-.06c.027 0 .041.013.041.042a.04.04 0 0 1-.012.03.04.04 0 0 1-.03.013.042.042 0 0 1-.03-.013.04.04 0 0 1-.013-.03c0-.012.004-.022.012-.03A.043.043 0 0 1 .303.055z"/></symbol><symbol id="ar"><path d="M.419.567H.51V.114C.51.073.504.046.49.033A.075.075 0 0 0 .427.004c-.01 0-.021.007-.032.022a7.203 7.203 0 0 1-.038.057.269.269 0 0 1-.043.052.179.179 0 0 1-.097.049v-.1C.218.049.206.025.181.013A.139.139 0 0 0 .118 0a.123.123 0 0 0-.036.004.106.106 0 0 0-.07.063.133.133 0 0 0-.011.056C0 .179.02.218.06.239c.024.013.045.02.064.02v.125L.11.382a.12.12 0 0 0-.014 0A.094.094 0 0 0 0 .475c0 .021.007.041.02.06.016.021.033.033.053.035a.345.345 0 0 0 .033.003A.107.107 0 0 0 .189.54.118.118 0 0 0 .218.46V.25A.207.207 0 0 0 .322.21L.368.17a.524.524 0 0 1 .04-.036c.007.002.01.01.01.026v.408M.055.477c0-.012.004-.022.012-.03a.04.04 0 0 1 .03-.013c.011 0 .022.004.03.012.01.009.014.019.014.03a.04.04 0 0 1-.013.031.043.043 0 0 1-.031.013.04.04 0 0 1-.03-.014.042.042 0 0 1-.012-.03m.015-.34V.123c0-.017.002-.03.006-.039C.082.071.09.064.1.064c.016 0 .024.009.024.025v.1a.023.023 0 0 1-.01.001A.043.043 0 0 1 .09.18C.076.166.07.15.07.137z"/></symbol><symbol id="as"><path d="M.411.354C.385.354.35.318.301.247A.517.517 0 0 1 .224 0H.127v.375A.212.212 0 0 0 .098.373C.071.373.048.382.028.4A.09.09 0 0 0 0 .468c0 .02.007.04.02.06a.08.08 0 0 0 .054.035.343.343 0 0 0 .033.003.1.1 0 0 0 .079-.031A.12.12 0 0 0 .219.45V.237c0 .013.017.04.05.08a.417.417 0 0 0 .07.072c.015.01.028.016.04.016A.062.062 0 0 0 .35.447a.23.23 0 0 0-.003.02V.47c0 .028.01.051.031.07.02.018.045.028.074.028.03 0 .054-.01.072-.03A.1.1 0 0 0 .553.467.094.094 0 0 0 .536.413.067.067 0 0 0 .49.38C.501.378.511.37.52.358A.06.06 0 0 0 .532.322V0H.437v.322A.033.033 0 0 1 .43.343C.424.35.42.353.411.353M.056.469c0-.012.004-.022.012-.03a.04.04 0 0 1 .03-.013.04.04 0 0 1 .03.013.04.04 0 0 1 .012.03.041.041 0 0 1-.012.03.04.04 0 0 1-.03.013.04.04 0 0 1-.03-.013.042.042 0 0 1-.012-.03M.407.47A.044.044 0 0 1 .452.425c.012 0 .022.005.03.013a.043.043 0 0 1 0 .062.043.043 0 0 1-.03.013A.043.043 0 0 1 .42.5.04.04 0 0 1 .407.47z"/></symbol><use xlink:href="#ai" transform="matrix(48 0 0 -48 529.597 814.333)"/><use xlink:href="#aq" transform="matrix(48 0 0 -48 558.1 814.727)"/><use xlink:href="#O" transform="matrix(48 0 0 -48 582.322 814.333)"/><use xlink:href="#ar" transform="matrix(48 0 0 -48 608.06 814.746)"/><use xlink:href="#as" transform="matrix(48 0 0 -48 637.667 814.333)"/><use xlink:href="#V" transform="matrix(48 0 0 -48 667.829 814.727)"/><use xlink:href="#O" transform="matrix(48 0 0 -48 696.946 814.333)"/><use xlink:href="#ak" transform="matrix(48 0 0 -48 724.446 814.746)"/><g data-name="Span"><symbol id="at"><path d="M.125.383A.205.205 0 0 0 .096.381C.07.38.047.39.028.409A.09.09 0 0 0 0 .476c0 .02.007.041.02.06.015.02.033.032.053.035a.356.356 0 0 0 .034.003A.107.107 0 0 0 .19.54.119.119 0 0 0 .22.459V.122A.15.15 0 0 0 .276.18a.31.31 0 0 0 .105.038c.026.007.04.017.04.032v.318h.094V.238a.036.036 0 0 0-.02-.034.206.206 0 0 0-.03-.012A.096.096 0 0 0 .51.165.09.09 0 0 0 .537.104a.104.104 0 0 0-.025-.07A.1.1 0 0 0 .445 0C.409 0 .38.011.362.033A.107.107 0 0 0 .338.09c0 .034.005.053.014.057C.326.147.298.13.268.097a.25.25 0 0 1-.05-.089H.126v.375m-.07.093c0-.011.004-.02.012-.03a.04.04 0 0 1 .03-.012c.011 0 .021.004.03.012a.04.04 0 0 1 .013.03.041.041 0 0 1-.013.03.042.042 0 0 1-.03.013.04.04 0 0 1-.03-.013.043.043 0 0 1-.012-.03M.439.14C.409.14.394.125.394.095.394.067.41.054.437.054.45.054.46.057.469.065a.04.04 0 0 1 .013.03C.48.125.467.14.439.14m-.01.723h.084V.7H.429v.163z"/></symbol><use xlink:href="#at" transform="matrix(48 0 0 -48 749.703 814.727)"/></g><use xlink:href="#V" transform="matrix(48 0 0 -48 779.441 814.727)"/><g data-name="Span"><symbol id="au"><path d="M1.042.008H.948v.37C.948.42.943.448.934.463.912.498.876.515.827.515A.164.164 0 0 1 .708.474.148.148 0 0 1 .67.409L.617.442a.224.224 0 0 0 .067.094c.033.027.081.041.145.041A.242.242 0 0 0 .986.53c.037-.03.056-.076.056-.137V.008M.466.813A.093.093 0 0 0 .56.717.095.095 0 0 0 .534.65.088.088 0 0 0 .466.622C.44.622.416.63.397.649A.092.092 0 0 0 .37.718a.096.096 0 0 0 .097.096M.422.717c0-.03.015-.043.044-.043.012 0 .022.004.03.013a.042.042 0 0 1 .012.03.042.042 0 0 1-.012.03.039.039 0 0 1-.03.013.044.044 0 0 1-.044-.043M.125.383A.205.205 0 0 0 .096.381C.07.38.047.39.028.409A.09.09 0 0 0 0 .476c0 .02.007.041.02.06.015.02.033.032.053.035a.356.356 0 0 0 .034.003A.107.107 0 0 0 .19.54.119.119 0 0 0 .22.459V.122A.15.15 0 0 0 .276.18a.31.31 0 0 0 .105.038c.026.007.04.017.04.032v.318h.094V.238a.036.036 0 0 0-.02-.034.206.206 0 0 0-.03-.012A.096.096 0 0 0 .51.165.09.09 0 0 0 .537.104a.104.104 0 0 0-.025-.07A.1.1 0 0 0 .445 0C.409 0 .38.011.362.033A.107.107 0 0 0 .338.09c0 .034.005.053.014.057C.326.147.298.13.268.097a.25.25 0 0 1-.05-.089H.126v.375m-.07.093c0-.011.004-.02.012-.03a.04.04 0 0 1 .03-.012c.011 0 .021.004.03.012a.04.04 0 0 1 .013.03.041.041 0 0 1-.013.03.042.042 0 0 1-.03.013.04.04 0 0 1-.03-.013.043.043 0 0 1-.012-.03M.439.14C.409.14.394.125.394.095.394.067.41.054.437.054.45.054.46.057.469.065a.04.04 0 0 1 .013.03C.48.125.467.14.439.14m.003.822H.428C.404.963.386.97.374.986a.059.059 0 0 0-.011.037c0 .032.016.053.047.063a.086.086 0 0 0 .024.003c.026 0 .045-.01.057-.028a.088.088 0 0 0 .017-.05A.085.085 0 0 0 .505.99.082.082 0 0 0 .48.946a.129.129 0 0 1 .106.124h.07c0-.047-.023-.089-.07-.124A.308.308 0 0 0 .393.89v.033c.01 0 .022.005.035.014.009.01.013.018.013.027m-.013.09c-.02 0-.03-.01-.03-.03.003-.019.014-.029.033-.029.018 0 .027.01.027.031 0 .02-.01.029-.03.029z"/></symbol><use xlink:href="#au" transform="matrix(48 0 0 -48 809.16 814.727)"/></g></g><clipPath id="av"><path transform="matrix(1 0 0 -1 0 1080)" d="M407.321 148.006h642.822v98.991H407.321z"/></clipPath><g clip-path="url(#av)"><symbol id="aw"><path d="M.334 0c.16 0 .274.081.299.246H.552C.534.13.453.071.336.071.182.071.09.181.09.363v.008c0 .18.099.295.247.295C.459.666.522.61.54.501h.086C.611.656.485.735.336.735.142.735 0 .582 0 .37V.362C0 .142.127 0 .334 0z"/></symbol><use xlink:href="#v" transform="matrix(48 0 0 -48 423.259 901.9)"/><use xlink:href="#v" transform="matrix(48 0 0 -48 435.979 901.9)"/><use xlink:href="#aw" transform="matrix(48 0 0 -48 451.339 902.332)"/><symbol id="ax"><path d="M.236 0a.22.22 0 0 1 .179.099v-.09h.083v.773H.415V.448a.187.187 0 0 1-.171.093C.1.541 0 .428 0 .268V.26C0 .097.099 0 .236 0m.009.069C.157.069.086.132.086.264v.008c0 .127.062.2.166.2.102 0 .166-.063.166-.197V.267C.418.133.342.069.245.069z"/></symbol><use xlink:href="#ax" transform="matrix(32 0 0 -32 485.179 905.708)"/><use xlink:href="#v" transform="matrix(48 0 0 -48 503.803 901.9)"/><use xlink:href="#K" transform="matrix(48 0 0 -48 518.443 892.492)"/><use xlink:href="#v" transform="matrix(48 0 0 -48 539.755 901.9)"/><g data-name="Span"><symbol id="ay"><path d="M.43.51A.134.134 0 0 0 .457.466.203.203 0 0 0 .47.39V.006H.38v.051a.39.39 0 0 1-.047.168c-.04.08-.084.12-.13.12C.17.346.15.33.139.296A.206.206 0 0 1 .13.235L.134.187A.103.103 0 0 0 .17.195c.027 0 .05-.01.069-.029A.094.094 0 0 0 .267.097a.1.1 0 0 0-.02-.06C.231.017.213.005.194.003A.334.334 0 0 0 .162 0a.117.117 0 0 0-.086.037C.05.062.037.112.037.185c0 .08.013.136.039.169a.132.132 0 0 0 .11.055A.192.192 0 0 0 .27.388.238.238 0 0 0 .364.285.799.799 0 0 0 .38.258v.117c0 .04-.008.071-.022.092-.02.03-.061.046-.121.046A.238.238 0 0 1 .11.484.13.13 0 0 1 .05.421L0 .46l.034.041a.237.237 0 0 0 .123.064.37.37 0 0 0 .081.009.333.333 0 0 0 .13-.022.1.1 0 0 1 .027.026C.405.591.41.607.41.626l.1-.025C.508.57.49.545.457.524A.152.152 0 0 0 .43.51M.212.097A.042.042 0 0 1 .2.127.04.04 0 0 1 .17.14.038.038 0 0 1 .14.127.042.042 0 0 1 .13.097c0-.011.004-.021.012-.03A.039.039 0 0 1 .17.055.04.04 0 0 1 .2.067a.041.041 0 0 1 .012.03M.55.761a.131.131 0 0 1 .054.11h.093C.697.821.672.775.623.734A.265.265 0 0 0 .45.668a.308.308 0 0 0-.131.021c-.04.018-.06.048-.06.09 0 .026.009.049.027.067.02.018.044.027.07.027a.102.102 0 0 0 .07-.022c.02-.018.03-.04.03-.068a.08.08 0 0 0-.022-.06H.44C.482.722.52.734.55.76M.314.78c0-.012.004-.023.013-.032a.04.04 0 0 1 .03-.014c.012 0 .022.005.031.014.01.009.014.02.014.032a.041.041 0 0 1-.014.03.044.044 0 0 1-.031.014.04.04 0 0 1-.03-.013A.045.045 0 0 1 .314.78z"/></symbol><use xlink:href="#ay" transform="matrix(48 0 0 -48 554.894 902.182)"/></g><use xlink:href="#ar" transform="matrix(48 0 0 -48 582.962 902.313)"/><use xlink:href="#Y" transform="matrix(48 0 0 -48 612.57 901.9)"/><use xlink:href="#N" transform="matrix(48 0 0 -48 643.467 902.294)"/><use xlink:href="#Z" transform="matrix(48 0 0 -48 666.987 900.363)"/><use xlink:href="#aa" transform="matrix(48 0 0 -48 688.918 902.182)" data-name="Span"/><use xlink:href="#ab" transform="matrix(48 0 0 -48 716.293 901.9)"/><g data-name="Span"><symbol id="az"><path d="M.26.358a.663.663 0 0 1-.187.017H.015a.198.198 0 0 0 .032.12c.029.046.076.068.142.068A.338.338 0 0 0 .271.55.349.349 0 0 1 .35.535c.032 0 .053.01.065.028L.48.528A.082.082 0 0 0 .458.496.094.094 0 0 0 .404.471.276.276 0 0 0 .38.469a.293.293 0 0 0-.083.016.303.303 0 0 1-.089.017C.174.502.15.495.136.48A.14.14 0 0 1 .109.436.78.78 0 0 0 .348.395C.414.374.447.345.447.308V.104a.1.1 0 0 0-.02-.058A.106.106 0 0 0 .38.007.11.11 0 0 0 .34 0H.058v.336h.092V.071h.133C.311.07.33.075.338.082c.011.01.017.026.017.049v.164c0 .029-.032.05-.094.063m.196.288-.053.01C.35.667.29.672.22.672.15.671.078.665 0 .652l.015.05C.05.788.118.831.22.831.31.83.38.795.425.723A.213.213 0 0 0 .457.646M.21.784C.162.784.129.767.109.731L.101.713l.126.003a.852.852 0 0 0 .13-.014L.343.723A.164.164 0 0 1 .21.784m.231.21A.062.062 0 0 0 .473.94.072.072 0 0 0 .451.886.078.078 0 0 0 .396.865a.09.09 0 0 0-.059.02.068.068 0 0 0-.026.055v.007c0 .023.01.041.033.057.016.01.035.019.056.024l.053.012c.02.006.035.014.047.026a.099.099 0 0 1 .026.066l.073-.018a.122.122 0 0 0-.007-.042.122.122 0 0 0-.044-.045.258.258 0 0 0-.082-.028.182.182 0 0 0-.025-.004m-.05-.02C.368.974.357.962.357.94V.937c0-.023.011-.035.034-.035.024 0 .036.012.036.037C.427.962.415.974.39.974z"/></symbol><use xlink:href="#az" transform="matrix(48 0 0 -48 746.818 901.9)"/></g><use xlink:href="#ak" transform="matrix(48 0 0 -48 775.525 902.313)"/><use xlink:href="#N" transform="matrix(48 0 0 -48 800.576 902.294)"/><use xlink:href="#ah" transform="matrix(48 0 0 -48 823.412 901.9)"/><use xlink:href="#Q" transform="matrix(48 0 0 -48 849.171 902.313)"/><g data-name="Span"><symbol id="aA"><path d="M.43.51A.134.134 0 0 0 .457.466.203.203 0 0 0 .47.39V.006H.38v.051a.39.39 0 0 1-.047.168c-.04.08-.084.12-.13.12C.17.346.15.33.139.296A.206.206 0 0 1 .13.235L.134.187A.103.103 0 0 0 .17.195c.027 0 .05-.01.069-.029A.094.094 0 0 0 .267.097a.1.1 0 0 0-.02-.06C.231.017.213.005.194.003A.334.334 0 0 0 .162 0a.117.117 0 0 0-.086.037C.05.062.037.112.037.185c0 .08.013.136.039.169a.132.132 0 0 0 .11.055A.192.192 0 0 0 .27.388.238.238 0 0 0 .364.285.799.799 0 0 0 .38.258v.117c0 .04-.008.071-.022.092-.02.03-.061.046-.121.046A.238.238 0 0 1 .11.484.13.13 0 0 1 .05.421L0 .46l.034.041a.237.237 0 0 0 .123.064.37.37 0 0 0 .081.009.333.333 0 0 0 .13-.022.1.1 0 0 1 .027.026C.405.591.41.607.41.626l.1-.025C.508.57.49.545.457.524A.152.152 0 0 0 .43.51M.212.097A.042.042 0 0 1 .2.127.04.04 0 0 1 .17.14.038.038 0 0 1 .14.127.042.042 0 0 1 .13.097c0-.011.004-.021.012-.03A.039.039 0 0 1 .17.055.04.04 0 0 1 .2.067a.041.041 0 0 1 .012.03m.262.555L.42.662A1.227 1.227 0 0 1 .017.657a.209.209 0 0 0 .081.141.215.215 0 0 0 .136.039A.21.21 0 0 0 .362.8L.378.787v.085h.092V.664L.474.652M.229.79a.125.125 0 0 1-.07-.016A.11.11 0 0 1 .12.718C.17.721.21.722.247.722c.04 0 .083-.005.13-.014l-.015.02A.166.166 0 0 1 .23.79z"/></symbol><use xlink:href="#aA" transform="matrix(48 0 0 -48 863.125 902.182)"/></g><symbol id="aB"><path d="M.329.07C.34.07.35.077.359.086c.006.008.009.02.009.033v.44h.094V.105A.114.114 0 0 0 .44.033C.423.01.394 0 .354 0h-.35v.07h.038v.095a.14.14 0 0 0 .022.083.098.098 0 0 0 .065.043.13.13 0 0 0-.093.034A.121.121 0 0 0 0 .416C0 .464.018.502.054.53a.198.198 0 0 0 .124.038c.033 0 .06-.009.08-.025A.094.094 0 0 0 .292.466C.291.431.28.405.254.39A.104.104 0 0 0 .197.373C.151.373.123.39.111.423a.092.092 0 0 0-.004.055C.099.477.091.47.085.457a.071.071 0 0 1-.008-.03C.077.37.109.338.174.33A.437.437 0 0 1 .237.326h.041V.262H.235C.205.262.182.255.167.242a.094.094 0 0 1-.03-.073V.07H.33M.153.466a.04.04 0 0 1 .013-.03.043.043 0 0 1 .06 0 .04.04 0 0 1 .013.03C.24.495.225.51.196.51a.042.042 0 0 1-.03-.013.04.04 0 0 1-.013-.03z"/></symbol><use xlink:href="#aB" transform="matrix(48 0 0 -48 892.787 901.9)"/><use xlink:href="#am" transform="matrix(48 0 0 -48 921.398 901.9)"/><use xlink:href="#ab" transform="matrix(48 0 0 -48 950.106 901.9)"/><use xlink:href="#O" transform="matrix(48 0 0 -48 979.658 901.9)"/><use xlink:href="#V" transform="matrix(48 0 0 -48 1004.56 902.294)"/></g><clipPath id="aC"><path transform="matrix(1 0 0 -1 0 1080)" d="M407.321 60.484h529.02v98.99h-529.02z"/></clipPath><g clip-path="url(#aC)"><symbol id="aD"><path d="M0 0h.082l.069.206h.295L.516 0h.086L.36.715H.246L0 0m.299.643L.423.275H.175l.124.368z"/></symbol><use xlink:href="#v" transform="matrix(48 0 0 -48 423.259 989.423)"/><use xlink:href="#v" transform="matrix(48 0 0 -48 435.979 989.423)"/><use xlink:href="#aD" transform="matrix(48 0 0 -48 450.427 989.423)"/><use xlink:href="#v" transform="matrix(48 0 0 -48 481.05 989.423)"/><use xlink:href="#K" transform="matrix(48 0 0 -48 495.69 980.015)"/><use xlink:href="#v" transform="matrix(48 0 0 -48 517.003 989.423)"/><use xlink:href="#U" transform="matrix(48 0 0 -48 530.773 989.423)" data-name="Span"/><use xlink:href="#V" transform="matrix(48 0 0 -48 563.042 989.816)"/><g data-name="Span"><symbol id="aE"><path d="M.124.375a.513.513 0 0 0-.03-.002A.09.09 0 0 0 .027.4.092.092 0 0 0 0 .468c0 .02.007.04.02.06C.034.548.05.56.07.563a.345.345 0 0 0 .033.003.106.106 0 0 0 .084-.034A.12.12 0 0 0 .216.45V.322L.206.24.22.286l.025.067A.666.666 0 0 0 .333.52a.2.2 0 0 0 .031.034c.01.007.024.01.041.01A.12.12 0 0 0 .5.525.142.142 0 0 0 .534.426V0H.442v.436C.442.466.43.48.402.48.386.48.364.45.335.391a1.176 1.176 0 0 1-.11-.334A.514.514 0 0 1 .216 0H.124v.375M.052.468c0-.011.005-.021.013-.03a.04.04 0 0 1 .03-.013c.01 0 .021.005.03.013a.04.04 0 0 1 .013.03.041.041 0 0 1-.013.03.042.042 0 0 1-.03.013.04.04 0 0 1-.03-.013.043.043 0 0 1-.013-.03m.482.178L.48.656A1.227 1.227 0 0 1 .077.652.209.209 0 0 0 .16.794.215.215 0 0 0 .295.83.21.21 0 0 0 .423.795L.438.78v.085H.53V.658L.534.646M.29.784A.125.125 0 0 1 .22.768.11.11 0 0 1 .18.713l.127.003c.04 0 .084-.005.13-.014L.424.723a.166.166 0 0 1-.134.061m.157.328H.53V.949H.446v.163z"/></symbol><use xlink:href="#aE" transform="matrix(48 0 0 -48 592.873 989.423)"/></g><use xlink:href="#as" transform="matrix(48 0 0 -48 623.21 989.423)"/><g data-name="Span"><symbol id="aF"><path d="M.125.383A.205.205 0 0 0 .096.381C.07.38.047.39.028.409A.09.09 0 0 0 0 .476c0 .02.007.041.02.06.015.02.033.032.053.035a.356.356 0 0 0 .034.003A.107.107 0 0 0 .19.54.119.119 0 0 0 .22.459V.122A.15.15 0 0 0 .276.18a.31.31 0 0 0 .105.038c.026.007.04.017.04.032v.318h.094V.238a.036.036 0 0 0-.02-.034.206.206 0 0 0-.03-.012A.096.096 0 0 0 .51.165.09.09 0 0 0 .537.104a.104.104 0 0 0-.025-.07A.1.1 0 0 0 .445 0C.409 0 .38.011.362.033A.107.107 0 0 0 .338.09c0 .034.005.053.014.057C.326.147.298.13.268.097a.25.25 0 0 1-.05-.089H.126v.375m-.07.093c0-.011.004-.02.012-.03a.04.04 0 0 1 .03-.012c.011 0 .021.004.03.012a.04.04 0 0 1 .013.03.041.041 0 0 1-.013.03.042.042 0 0 1-.03.013.04.04 0 0 1-.03-.013.043.043 0 0 1-.012-.03M.439.14C.409.14.394.125.394.095.394.067.41.054.437.054.45.054.46.057.469.065a.04.04 0 0 1 .013.03C.48.125.467.14.439.14M.375.755A.101.101 0 0 0 .357.754c-.03 0-.052.01-.067.029A.074.074 0 0 0 .276.83c0 .04.02.065.059.077a.1.1 0 0 0 .03.005.08.08 0 0 0 .071-.036.108.108 0 0 0 .021-.062.105.105 0 0 0-.003-.028.104.104 0 0 0-.032-.052.16.16 0 0 1 .132.155h.089c0-.06-.03-.112-.09-.156a.385.385 0 0 0-.238-.07v.04C.33.704.343.71.358.722.37.732.375.743.375.755M.358.868C.334.868.321.855.321.83.325.805.34.793.362.793c.023 0 .034.013.034.039 0 .024-.012.036-.038.036z"/></symbol><use xlink:href="#aF" transform="matrix(48 0 0 -48 653.379 989.816)"/></g><use xlink:href="#O" transform="matrix(48 0 0 -48 682.498 989.423)"/><g data-name="Span"><symbol id="aG"><path d="M.404 0v.38c0 .04-.011.07-.032.09l-.02.013a.015.015 0 0 1-.009.003.206.206 0 0 1-.036-.018.13.13 0 0 0-.059-.016.11.11 0 0 0-.052.016.206.206 0 0 1-.031.016C.16.484.152.481.142.474A.071.071 0 0 1 .123.458C.105.435.096.401.096.354.096.33.098.304.104.28L.119.212A.59.59 0 0 0 .136.088c.01.02.027.044.049.07L.234.22A.066.066 0 0 0 .18.238a.094.094 0 0 0-.03.071c0 .035.014.062.044.081C.21.401.23.407.252.407h.007L.3.4C.312.397.323.387.334.37a.126.126 0 0 0 .02-.068C.354.282.342.256.318.22A4.31 4.31 0 0 0 .225.098L.195.055A.4.4 0 0 1 .162 0H.05a.231.231 0 0 0 .001.023.765.765 0 0 1-.01.115L.005.298A.286.286 0 0 0 0 .36c0 .03.006.06.019.09a.176.176 0 0 0 .054.073C.107.548.14.563.17.568.176.568.189.56.208.543.228.526.243.518.255.518c.013 0 .03.008.05.025.02.016.033.025.038.025A.121.121 0 0 0 .395.554.151.151 0 0 0 .44.52.225.225 0 0 0 .483.45.219.219 0 0 0 .496.374V0H.404M.208.308a.04.04 0 0 1 .013-.03.043.043 0 0 1 .031-.013c.012 0 .022.004.03.012a.04.04 0 0 1 .013.03C.295.337.281.35.252.35a.044.044 0 0 1-.03-.012.04.04 0 0 1-.014-.03m.369.447a.131.131 0 0 1 .054.11h.093C.724.815.699.77.649.728A.265.265 0 0 0 .477.662a.308.308 0 0 0-.132.022C.305.702.285.73.285.773c0 .026.01.049.028.068.02.018.043.027.07.027A.102.102 0 0 0 .452.845c.02-.018.03-.04.03-.068A.08.08 0 0 0 .46.717h.007c.042 0 .078.012.11.038M.34.774C.34.762.345.752.353.742A.04.04 0 0 1 .383.73c.012 0 .023.004.032.013.009.009.014.02.014.032a.041.041 0 0 1-.015.03.044.044 0 0 1-.03.014.04.04 0 0 1-.03-.013A.045.045 0 0 1 .34.774z"/></symbol><use xlink:href="#aG" transform="matrix(48 0 0 -48 709.104 989.423)"/></g><use xlink:href="#am" transform="matrix(48 0 0 -48 739.329 989.423)"/><g data-name="Span"><symbol id="aH"><path d="M.185.379a.679.679 0 0 1-.184.009.054.054 0 0 0-.001.01c0 .035.011.07.034.106C.063.549.11.57.176.57A.293.293 0 0 0 .252.557.298.298 0 0 1 .325.543c.03 0 .051.01.063.028L.456.536a.084.084 0 0 0-.023-.03.093.093 0 0 0-.055-.027.264.264 0 0 0-.024-.002c-.02 0-.049.006-.086.018A.283.283 0 0 1 .193.51.107.107 0 0 1 .119.486.1.1 0 0 1 .09.444c.03 0 .066-.003.107-.01A.457.457 0 0 0 .315.403c.03-.014.05-.03.06-.05A.097.097 0 0 0 .39.305v-.19c0-.032-.01-.06-.032-.083A.1.1 0 0 0 .28 0a.107.107 0 0 0-.084.033.092.092 0 0 0-.024.065.093.093 0 0 0 .096.096A.087.087 0 0 0 .295.19v.106c0 .017-.004.03-.013.042C.27.356.237.369.185.379M.268.055a.04.04 0 0 1 .03.013.042.042 0 0 1 .012.03.041.041 0 0 1-.012.03.04.04 0 0 1-.03.013.043.043 0 1 1 0-.086M.3.848h.084V.686H.3v.162z"/></symbol><use xlink:href="#aH" transform="matrix(48 0 0 -48 767.679 989.816)"/></g><use xlink:href="#O" transform="matrix(48 0 0 -48 790.235 989.423)"/><use xlink:href="#ah" transform="matrix(48 0 0 -48 814.819 989.423)"/><use xlink:href="#P" transform="matrix(48 0 0 -48 838.727 989.423)"/><use xlink:href="#O" transform="matrix(48 0 0 -48 866.215 989.423)"/><use xlink:href="#aB" transform="matrix(48 0 0 -48 893.536 989.423)"/></g><g data-name="P"><clipPath id="aI"><path transform="matrix(1 0 0 -1 0 1080)" d="M0 0h1920v1080H0z"/></clipPath><g clip-path="url(#aI)"><symbol id="aJ"><path d="M.221.382A.04.04 0 0 1 .196.42.037.037 0 0 1 .18.423.033.033 0 0 1 .166.42.046.046 0 0 1 .154.41.05.05 0 0 1 .145.398a.039.039 0 0 1 0-.03.044.044 0 0 1 .009-.013.05.05 0 0 1 .012-.01.04.04 0 0 1 .044.009.04.04 0 0 1 .011.029m.23.385a.15.15 0 0 0 .015-.03.211.211 0 0 0 .015-.078V.281H.364v.063a.354.354 0 0 1-.043.152C.286.566.25.602.211.602.19.602.174.59.166.564A.112.112 0 0 1 .161.541.327.327 0 0 1 .16.511V.5a.1.1 0 0 1 0-.013.175.175 0 0 0 .02.002C.212.49.237.48.258.458a.103.103 0 0 0 .025-.11.136.136 0 0 0-.016-.03.09.09 0 0 0-.06-.04.348.348 0 0 0-.032-.003.124.124 0 0 0-.092.04c-.027.027-.04.077-.04.15 0 .039.003.072.01.1.006.028.016.051.028.068a.141.141 0 0 0 .116.058.198.198 0 0 0 .085-.02A.219.219 0 0 0 .364.59v.055A.201.201 0 0 1 .36.69a.09.09 0 0 1-.013.032C.33.748.296.761.244.761A.208.208 0 0 1 .132.736.132.132 0 0 1 .076.664L0 .724l.043.052A.214.214 0 0 0 .128.83a.357.357 0 0 0 .118.02.428.428 0 0 0 .12-.019c.007.005.012.01.016.016.007.01.01.028.01.055L.517.87A.108.108 0 0 0 .461.773L.451.767M.25.185C.23.185.217.175.212.157c0-.029.014-.043.039-.043.023 0 .035.012.035.035 0 .012-.002.02-.008.027C.273.182.264.185.251.185M.245 0v.066a.1.1 0 0 0-.068.029.062.062 0 0 0-.016.023.087.087 0 0 0-.006.032c0 .023.009.043.025.06a.094.094 0 0 0 .072.028C.3.238.332.219.345.182A.223.223 0 0 0 .352.127V.08h.034v.148h.107V0H.245z"/></symbol><use xlink:href="#aJ" transform="matrix(60 0 0 -60 466.856 166.848)"/></g><symbol id="aK"><path d="M.21.306C.21.3.213.295.216.29a.056.056 0 0 1 .01-.013.05.05 0 0 1 .014-.009.04.04 0 0 1 .03 0C.276.27.28.273.284.277A.037.037 0 0 1 .292.29C.294.295.295.3.295.306c0 .027-.014.04-.041.04a.045.045 0 0 1-.04-.025.033.033 0 0 1-.003-.015M.38 0v.373a.133.133 0 0 1-.006.044.08.08 0 0 1-.019.031L.352.452.34.459A.78.78 0 0 0 .28.431.11.11 0 0 0 .25.427a.116.116 0 0 0-.057.018.205.205 0 0 0-.023.013.067.067 0 0 1-.027-.02C.128.42.12.39.12.35A.371.371 0 0 1 .128.283L.142.218A1.373 1.373 0 0 0 .155.145a1.877 1.877 0 0 1 .023.03l.03.036A.067.067 0 0 0 .19.218a.102.102 0 0 0-.048.09.1.1 0 0 0 .048.088C.209.408.23.414.253.414h.009L.3.41C.317.404.33.392.343.372A.134.134 0 0 0 .365.3C.365.28.352.25.327.214A1.804 1.804 0 0 0 .254.12.986.986 0 0 1 .24.099L.21.059A.51.51 0 0 1 .177 0h-.13v.013A.09.09 0 0 1 .049.02v.005a.055.055 0 0 1 0 .01.553.553 0 0 1-.009.107V.14a3.285 3.285 0 0 0-.033.154A.266.266 0 0 0 0 .354c0 .03.006.06.02.09a.19.19 0 0 0 .055.077.292.292 0 0 0 .05.03.162.162 0 0 0 .048.015C.183.568.2.559.222.54.237.526.248.52.255.52c.01 0 .022.006.038.02C.316.556.33.565.34.565a.128.128 0 0 0 .08-.03.248.248 0 0 0 .066-.09A.218.218 0 0 0 .499.37V0H.382z"/></symbol><symbol id="aL"><path d="M.269.066a.038.038 0 0 1 .028.012.045.045 0 0 1 .009.013.04.04 0 0 1 0 .032.045.045 0 0 1-.009.013.037.037 0 0 1-.013.01.034.034 0 0 1-.015.003.04.04 0 0 1-.017-.004A.04.04 0 0 1 .23.123a.044.044 0 0 1 0-.032.046.046 0 0 1 .01-.013A.05.05 0 0 1 .251.07.045.045 0 0 1 .269.066M.187.359a.514.514 0 0 1-.156.007.122.122 0 0 1-.025-.01A.062.062 0 0 0 0 .378a.197.197 0 0 0 .034.121c.03.048.08.071.147.071A.605.605 0 0 0 .296.546.149.149 0 0 1 .322.543c.023 0 .041.01.054.032L.464.529a.126.126 0 0 0-.03-.047.118.118 0 0 0-.029-.02.092.092 0 0 0-.031-.009A.578.578 0 0 1 .35.451C.33.451.3.457.264.468a.337.337 0 0 1-.067.014.087.087 0 0 1-.06-.019L.13.457A.061.061 0 0 1 .124.449.565.565 0 0 0 .204.44C.302.425.36.397.384.356A.11.11 0 0 0 .397.303V.124A.128.128 0 0 0 .363.036.11.11 0 0 0 .28 0a.114.114 0 0 0-.09.036.1.1 0 0 0-.026.071c0 .03.01.056.03.076.02.02.045.03.075.03H.28v.083c0 .006 0 .011-.002.017A.045.045 0 0 1 .27.326.069.069 0 0 1 .24.344.289.289 0 0 1 .187.36z"/></symbol><symbol id="aM"><path d="M.4.46A.043.043 0 0 1 .425.42a.046.046 0 0 1 .033 0 .04.04 0 0 1 .013.01.045.045 0 0 1 .013.029C.484.465.482.47.48.474a.044.044 0 0 1-.01.013.052.052 0 0 1-.013.009.036.036 0 0 1-.015.003.039.039 0 0 1-.015-.003.045.045 0 0 1-.014-.009.05.05 0 0 1-.01-.012A.034.034 0 0 1 .4.46M.068.457A.04.04 0 0 1 .071.44a.053.053 0 0 1 .01-.012A.045.045 0 0 1 .092.42a.04.04 0 0 1 .03 0 .04.04 0 0 1 .012.066.034.034 0 0 1-.012.009.036.036 0 0 1-.03 0 .038.038 0 0 1-.014-.01.044.044 0 0 1-.008-.012.046.046 0 0 1-.003-.016M.404.334C.394.334.38.326.366.311A.426.426 0 0 1 .264.135.63.63 0 0 1 .24 0H.12v.353a.04.04 0 0 0-.006 0H.107c-.03 0-.055.01-.075.03A.098.098 0 0 0 0 .456.113.113 0 0 0 .05.55c.01.006.021.01.033.012a.361.361 0 0 0 .033.002A.108.108 0 0 0 .202.53.127.127 0 0 0 .236.44V.298a3.057 3.057 0 0 0 .06.072C.31.381.32.39.327.395a.505.505 0 0 0 .017.01.07.07 0 0 0-.012.03.903.903 0 0 0-.003.021V.46a.102.102 0 0 0 .034.077.127.127 0 0 0 .08.03c.033 0 .06-.01.08-.031A.11.11 0 0 0 .51.372l.008-.01a.07.07 0 0 0 .01-.02A.065.065 0 0 0 .534.32V0h-.12v.32c0 .002 0 .006-.004.01C.407.333.405.334.404.334z"/></symbol><symbol id="aN"><path d="M.436 0H.318v.364C.318.403.313.43.304.443.287.467.258.48.216.48A.14.14 0 0 1 .114.444.15.15 0 0 1 .078.371L0 .42a.215.215 0 0 0 .069.103.23.23 0 0 0 .151.046A.24.24 0 0 0 .376.52c.04-.032.06-.08.06-.142V0z"/></symbol><symbol id="aO"><path d="M.258.36C.23.36.217.346.217.32.217.307.22.297.229.29A.041.041 0 0 1 .258.28c.005 0 .01 0 .015.003a.046.046 0 0 1 .022.022c.002.004.003.01.003.014a.04.04 0 0 1-.003.016.039.039 0 0 1-.037.025M.182 0H.05A.456.456 0 0 0 .05.036a.483.483 0 0 1-.016.13 1.19 1.19 0 0 1-.017.07 1.198 1.198 0 0 0-.015.078A.294.294 0 0 0 0 .349c0 .068.025.123.075.164a.276.276 0 0 0 .18.055C.334.568.395.55.437.516A.18.18 0 0 0 .501.369V0H.382v.373A.1.1 0 0 1 .354.45C.332.47.299.48.253.48A.138.138 0 0 1 .159.447C.134.426.122.393.122.35c0-.022.002-.039.005-.052L.129.284l.01.035a.505.505 0 0 0 .027.063c.005.01.012.017.02.024A.08.08 0 0 0 .212.42c.01.004.022.006.036.006A.154.154 0 0 0 .295.42.109.109 0 0 0 .333.4.092.092 0 0 0 .358.367a.102.102 0 0 0 .01-.045A.104.104 0 0 0 .34.25.111.111 0 0 0 .216.22.735.735 0 0 1 .188.07L.182 0z"/></symbol><symbol id="aP"><path d="M.305.065c.028 0 .042.014.042.042a.04.04 0 0 1-.004.017.036.036 0 0 1-.009.014.036.036 0 0 1-.013.008.04.04 0 0 1-.032 0A.046.046 0 0 1 .266.123a.04.04 0 0 1 0-.033.046.046 0 0 1 .009-.013.05.05 0 0 1 .013-.009.045.045 0 0 1 .017-.003m.13.06A.135.135 0 0 0 .398.035.11.11 0 0 0 .294.002a.104.104 0 0 0-.037.011.123.123 0 0 0-.032.023.112.112 0 0 0-.02.032.106.106 0 0 0-.008.04.1.1 0 0 0 .032.074c.021.02.046.03.076.03h.012v.16c0 .038-.005.064-.014.08C.286.474.257.487.216.486A.143.143 0 0 1 .114.453.174.174 0 0 1 .074.38L0 .427c.016.044.04.08.071.106.033.028.082.042.147.042A.243.243 0 0 0 .375.527c.04-.031.06-.079.06-.141V.124z"/></symbol><symbol id="aQ"><path d="M.066.465C.066.46.067.455.07.45A.05.05 0 0 1 .079.438.045.045 0 0 1 .09.43a.034.034 0 0 1 .029 0 .05.05 0 0 1 .013.008.043.043 0 0 1 .01.012.03.03 0 0 1 .004.015.037.037 0 0 1-.004.016.039.039 0 0 1-.022.021.044.044 0 0 1-.016.003.046.046 0 0 1-.027-.012A.046.046 0 0 1 .07.48.034.034 0 0 1 .066.465m.33.101h.117V.123C.513.08.505.051.489.035L.49.037A.084.084 0 0 0 .42.004c-.016 0-.03.01-.043.027L.341.085a.326.326 0 0 1-.038.047.212.212 0 0 1-.034.024.146.146 0 0 1-.033.015V.094C.236.055.222.03.193.014a.124.124 0 0 0-.03-.01.177.177 0 0 0-.075 0 .114.114 0 0 0-.075.068.144.144 0 0 0-.012.06C0 .16.006.184.017.204c.01.021.027.037.047.049a.213.213 0 0 0 .054.019v.088H.105a.106.106 0 0 0-.098.064.111.111 0 0 0 .014.107.088.088 0 0 0 .061.038.36.36 0 0 0 .033.003.116.116 0 0 0 .09-.037.125.125 0 0 0 .03-.087V.265a.244.244 0 0 0 .092-.04 10.94 10.94 0 0 1 .045-.04A.097.097 0 0 0 .397.16a12.716 12.716 0 0 1 0 .023v.384M.084.13c0-.02.003-.035.008-.043A.036.036 0 0 1 .101.075.015.015 0 0 1 .11.072c.008 0 .012.004.012.013v.111A.066.066 0 0 1 .108.191.107.107 0 0 1 .091.167.055.055 0 0 1 .084.143V.13z"/></symbol><symbol id="aR"><path d="M.117.566V.213h.011a.108.108 0 0 0 .075-.03.104.104 0 0 0 .03-.075A.102.102 0 0 0 .201.03.111.111 0 0 0 .162.008.135.135 0 0 0 .117 0a.109.109 0 0 0-.043.009.12.12 0 0 0-.063.065.129.129 0 0 0-.01.05v.442h.117M.172.108a.038.038 0 0 1-.004.016.038.038 0 0 1-.01.014.045.045 0 0 1-.03.012.039.039 0 0 1-.016-.004A.044.044 0 0 1 .09.124.044.044 0 0 1 .099.078a.04.04 0 0 1 .03-.012l.016.003c.005.002.01.006.014.01a.039.039 0 0 1 .013.03z"/></symbol><use xlink:href="#aK" transform="matrix(60 0 0 -60 503.372 149.996)"/><use xlink:href="#aL" transform="matrix(60 0 0 -60 538.786 150.465)"/><use xlink:href="#aM" transform="matrix(60 0 0 -60 567.963 149.996)"/><use xlink:href="#aN" transform="matrix(60 0 0 -60 604.623 149.996)"/><use xlink:href="#aO" transform="matrix(60 0 0 -60 638.235 149.996)"/><use xlink:href="#aP" transform="matrix(60 0 0 -60 673.663 150.465)"/><use xlink:href="#aN" transform="matrix(60 0 0 -60 704.037 149.996)"/><use xlink:href="#aQ" transform="matrix(60 0 0 -60 736.383 150.488)"/><use xlink:href="#aR" transform="matrix(60 0 0 -60 776.1 150.488)"/><g data-name="Span"><symbol id="aS"><path d="M.269.066a.038.038 0 0 1 .028.012.045.045 0 0 1 .009.013.04.04 0 0 1 0 .032.045.045 0 0 1-.009.013.037.037 0 0 1-.013.01.034.034 0 0 1-.015.003.04.04 0 0 1-.017-.004A.04.04 0 0 1 .23.123a.044.044 0 0 1 0-.032.046.046 0 0 1 .01-.013A.05.05 0 0 1 .251.07.045.045 0 0 1 .269.066M.187.359a.514.514 0 0 1-.156.007.122.122 0 0 1-.025-.01A.062.062 0 0 0 0 .378a.197.197 0 0 0 .034.121c.03.048.08.071.147.071A.605.605 0 0 0 .296.546.149.149 0 0 1 .322.543c.023 0 .041.01.054.032L.464.529a.126.126 0 0 0-.03-.047.118.118 0 0 0-.029-.02.092.092 0 0 0-.031-.009A.578.578 0 0 1 .35.451C.33.451.3.457.264.468a.337.337 0 0 1-.067.014.087.087 0 0 1-.06-.019L.13.457A.061.061 0 0 1 .124.449.565.565 0 0 0 .204.44C.302.425.36.397.384.356A.11.11 0 0 0 .397.303V.124A.128.128 0 0 0 .363.036.11.11 0 0 0 .28 0a.114.114 0 0 0-.09.036.1.1 0 0 0-.026.071c0 .03.01.056.03.076.02.02.045.03.075.03H.28v.083c0 .006 0 .011-.002.017A.045.045 0 0 1 .27.326.069.069 0 0 1 .24.344.289.289 0 0 1 .187.36M.33.73c.017 0 .027.003.03.01C.337.745.326.76.326.785a.05.05 0 0 0 .002.013c.003.012.01.02.018.026A.06.06 0 0 0 .38.834C.408.834.427.822.437.798A.087.087 0 0 0 .445.764.094.094 0 0 0 .424.701.108.108 0 0 0 .337.664.14.14 0 0 0 .27.682a4.268 4.268 0 0 0-.051.03.043.043 0 0 1-.016.003C.193.715.179.71.163.698A.145.145 0 0 1 .126.664a.13.13 0 0 0-.062.032C.042.718.03.752.03.797c0 .056.03.091.089.106.014.004.03.006.045.008a.468.468 0 0 0 .1.001h.033c.03 0 .052.01.067.029a.062.062 0 0 1 .01.02L.38.997.452.97A.105.105 0 0 0 .412.88C.384.86.342.847.287.847A1.537 1.537 0 0 0 .202.85C.149.85.123.83.123.786c0-.007 0-.013.002-.018A.124.124 0 0 1 .129.753a.078.078 0 0 0 .027.018l.026.01a.066.066 0 0 0 .02.004c.019 0 .042-.01.07-.03v.001C.295.74.315.73.328.73z"/></symbol><use xlink:href="#aS" transform="matrix(60 0 0 -60 791.888 150.465)"/></g><use xlink:href="#aP" transform="matrix(60 0 0 -60 820.2 150.465)"/><g data-name="Span"><symbol id="aT"><path d="M.064.457c0-.01.004-.019.013-.027A.037.037 0 0 1 .103.418.04.04 0 0 1 .132.43a.04.04 0 0 1 .01.012l.003.015A.037.037 0 0 1 .14.473a.039.039 0 0 1-.008.013.039.039 0 0 1-.013.009.04.04 0 0 1-.016.003.031.031 0 0 1-.015-.004.046.046 0 0 1-.012-.008.04.04 0 0 1-.012-.029M.117.353H.104a.1.1 0 0 0-.074.03.1.1 0 0 0-.03.074C0 .469.002.48.005.491.01.5.015.51.021.522A.1.1 0 0 0 .048.55C.058.556.07.56.08.562a.36.36 0 0 0 .033.002.115.115 0 0 0 .09-.037.128.128 0 0 0 .031-.086V.357a.83.83 0 0 0 .041.09.475.475 0 0 0 .043.068.18.18 0 0 0 .033.035.08.08 0 0 0 .047.014.129.129 0 0 0 .1-.043.15.15 0 0 0 .037-.103V0H.418v.427C.418.445.41.454.395.454.39.454.385.446.376.432A.904.904 0 0 1 .283.225 1.248 1.248 0 0 1 .234 0H.118v.353m.445.293L.484.661a.96.96 0 0 1-.172.013C.245.674.17.667.09.652c.009.07.038.125.085.163a.22.22 0 0 0 .138.04c.049 0 .089-.01.12-.03v.063h.117V.679L.563.646m-.26.156A.13.13 0 0 1 .223.78.09.09 0 0 1 .206.763.16.16 0 0 1 .19.74 10.839 10.839 0 0 0 .33.743a.686.686 0 0 0 .125-.01.185.185 0 0 1-.15.069m.135.335h.104V.95H.439v.188z"/></symbol><use xlink:href="#aT" transform="matrix(60 0 0 -60 851.7 149.996)"/></g><symbol id="aU"><path d="M.288.423c.003.01.006.02.007.03l.002.034.107-.02A.22.22 0 0 0 .311.314.235.235 0 0 0 .177.28C.099.281.045.304.016.35A.09.09 0 0 0 0 .402c0 .025.01.05.03.072.018.014.039.024.062.028A.12.12 0 0 0 .174.473.101.101 0 0 0 .2.402.072.072 0 0 0 .184.355c.013 0 .026.002.04.007a.1.1 0 0 1 .064.06m0-.28a.23.23 0 0 1 .01.063L.403.185A.225.225 0 0 0 .311.032.186.186 0 0 0 .254.008.33.33 0 0 0 .177 0C.097 0 .044.022.016.067A.09.09 0 0 0 0 .119C0 .148.01.172.03.19.038.2.048.206.058.21c.01.006.021.008.033.008h.013C.132.218.155.21.173.191A.097.097 0 0 0 .2.12.07.07 0 0 0 .184.073c.054 0 .088.024.104.068m-.23.265c0-.01.004-.02.012-.029A.036.036 0 0 1 .098.365C.11.365.12.37.128.377a.038.038 0 0 1 .013.03c0 .005 0 .01-.003.015a.038.038 0 0 1-.01.012.038.038 0 0 1-.014.009.045.045 0 0 1-.016.003A.038.038 0 0 1 .07.434.04.04 0 0 1 .059.406M.056.123A.04.04 0 0 1 .082.084.043.043 0 0 1 .098.081c.03 0 .045.014.045.042A.037.037 0 0 1 .14.139a.043.043 0 0 1-.024.023.044.044 0 0 1-.017.004.038.038 0 0 1-.029-.013.041.041 0 0 1-.013-.03z"/></symbol><symbol id="aV"><path d="M.221.107a.04.04 0 0 1-.025.038.037.037 0 0 1-.016.003.033.033 0 0 1-.014-.003.046.046 0 0 1-.012-.01.05.05 0 0 1-.009-.013.039.039 0 0 1 0-.031.044.044 0 0 1 .009-.013A.05.05 0 0 1 .166.07.04.04 0 0 1 .21.078.04.04 0 0 1 .22.107m.23.384a.15.15 0 0 0 .015-.03.211.211 0 0 0 .015-.077V.005H.364V.07A.354.354 0 0 1 .321.22C.286.29.25.327.211.327.19.327.174.314.166.288A.112.112 0 0 1 .161.267.327.327 0 0 1 .16.236V.225a.1.1 0 0 1 0-.013.175.175 0 0 0 .02.002c.031 0 .056-.01.077-.032A.103.103 0 0 0 .282.073.136.136 0 0 0 .266.042a.09.09 0 0 0-.06-.04A.348.348 0 0 0 .175 0a.124.124 0 0 0-.092.04C.055.065.042.115.042.19c0 .038.003.072.01.1.006.028.016.05.028.068a.141.141 0 0 0 .116.058.198.198 0 0 0 .085-.021.219.219 0 0 0 .083-.08V.37A.201.201 0 0 1 .36.416a.09.09 0 0 1-.013.032C.33.473.296.485.244.485A.208.208 0 0 1 .132.46.132.132 0 0 1 .076.388L0 .448l.043.053a.214.214 0 0 0 .085.053.357.357 0 0 0 .118.02.428.428 0 0 0 .12-.02C.374.56.379.566.383.572c.007.01.01.027.01.055L.517.595A.108.108 0 0 0 .461.498L.451.49z"/></symbol><symbol id="aW"><path d="M.413.108c0 .005 0 .01-.003.015a.038.038 0 0 1-.008.013.034.034 0 0 1-.012.009.034.034 0 0 1-.015.003A.04.04 0 0 1 .36.145.05.05 0 0 1 .346.136a.043.043 0 0 1-.01-.012.034.034 0 0 1-.003-.016.04.04 0 0 1 .003-.016.046.046 0 0 1 .009-.013.048.048 0 0 1 .03-.011c.006 0 .011 0 .016.003a.049.049 0 0 1 .012.01.042.042 0 0 1 .01.027m-.243 0c0 .006-.002.01-.004.015a.033.033 0 0 1-.009.013.035.035 0 0 1-.013.008.04.04 0 0 1-.031 0A.041.041 0 0 1 .1.136.045.045 0 0 1 .092.123a.042.042 0 0 1 0-.03A.045.045 0 0 1 .1.08.041.041 0 0 1 .113.071a.04.04 0 0 1 .031 0c.005.003.01.005.013.01a.038.038 0 0 1 .009.012C.168.098.17.103.17.108M.117.566V.213h.011c.03 0 .056-.01.076-.03.02-.02.03-.045.03-.075A.1.1 0 0 0 .187.02.131.131 0 0 0 .116 0a.105.105 0 0 0-.045.01.151.151 0 0 0-.04.03.12.12 0 0 0-.023.037A.135.135 0 0 0 0 .125v.441h.117m.244 0V.213h.014c.029 0 .054-.01.075-.03C.47.162.48.136.48.107a.104.104 0 0 0-.069-.1A.144.144 0 0 0 .363 0a.12.12 0 0 0-.048.009.115.115 0 0 0-.037.027.132.132 0 0 0-.034.089v.441h.117z"/></symbol><symbol id="aX"><path d="M.063.457C.063.45.064.445.067.439a.054.054 0 0 1 .01-.014.05.05 0 0 1 .014-.009.042.042 0 0 1 .017-.004.04.04 0 0 1 .017.004.05.05 0 0 1 .014.01.043.043 0 0 1 .013.031.045.045 0 0 1-.003.018.04.04 0 0 1-.01.014.041.041 0 0 1-.014.01.04.04 0 0 1-.035 0A.046.046 0 0 1 .077.49.048.048 0 0 1 .063.457M.202.53A.129.129 0 0 0 .237.44V.097h.166c.009 0 .016.003.02.01.004.002.006.01.006.02v.432h.118V.116A.131.131 0 0 0 .525.037C.507.014.477 0 .435 0H.074v.096H.12v.257H.108c-.03 0-.055.01-.076.03A.098.098 0 0 0 0 .456C0 .48.007.502.022.523.031.534.04.543.05.55c.01.006.021.01.033.012a.36.36 0 0 0 .033.002A.108.108 0 0 0 .202.53z"/></symbol><use xlink:href="#aR" transform="matrix(60 0 0 -60 892.294 150.488)"/><use xlink:href="#aM" transform="matrix(60 0 0 -60 908.581 149.996)"/><use xlink:href="#aQ" transform="matrix(60 0 0 -60 947.227 150.488)"/><use xlink:href="#aN" transform="matrix(60 0 0 -60 983.095 149.996)"/><use xlink:href="#aU" transform="matrix(60 0 0 -60 1014.85 147.7)"/><use xlink:href="#aV" transform="matrix(60 0 0 -60 1041.984 150.324)"/><use xlink:href="#aQ" transform="matrix(60 0 0 -60 1077.451 150.488)"/><use xlink:href="#aW" transform="matrix(60 0 0 -60 1117.397 150.488)"/><use xlink:href="#aX" transform="matrix(60 0 0 -60 1149.35 149.996)"/><use xlink:href="#aX" transform="matrix(60 0 0 -60 1188.446 149.996)"/><symbol id="aY"><path d="M0 0z"/></symbol><symbol id="aZ"><path d="M.308 0c.184 0 .288.107.288.238C.596.393.503.44.322.46.233.472.211.49.211.53c0 .036.028.061.083.061C.35.591.379.565.386.514h.19C.563.665.466.737.294.737.123.737.017.643.017.514.017.37.085.31.287.286.373.273.4.261.4.217.4.175.367.146.308.146.223.146.2.188.195.239H0C.006.084.108 0 .308 0z"/></symbol><symbol id="ba"><path d="M.098.573c.056 0 .099.039.099.092S.154.758.098.758C.042.758 0 .718 0 .665S.042.573.098.573M.009 0h.179v.523H.009V0z"/></symbol><symbol id="bb"><path d="M0 0h.179v.303c0 .057.032.088.08.088C.3.391.326.365.326.312V0h.177v.303c0 .057.032.088.08.088C.624.391.65.365.65.312V0h.179v.342c0 .131-.072.195-.171.195A.207.207 0 0 1 .485.45C.46.507.412.537.343.537A.183.183 0 0 1 .179.443v.08H0V0z"/></symbol><symbol id="bc"><path d="M0 0h.179v.252C.205.2.262.163.341.163c.123 0 .222.09.222.27v.008C.563.62.464.712.342.712A.185.185 0 0 1 .179.62v.078H0V0m.278.3C.213.3.174.345.174.434v.008c0 .088.039.135.104.135.063 0 .103-.044.103-.136V.433C.381.347.345.3.278.3z"/></symbol><symbol id="bd"><path d="M0 0h.178v.753H0V0z"/></symbol><use xlink:href="#aY" transform="matrix(60 0 0 -60 1226.372 149.996)"/><use xlink:href="#aZ" transform="matrix(60 0 0 -60 1239.572 150.716)"/><use xlink:href="#ba" transform="matrix(60 0 0 -60 1279.952 149.996)"/><use xlink:href="#bb" transform="matrix(60 0 0 -60 1297.892 149.996)"/><use xlink:href="#bc" transform="matrix(60 0 0 -60 1353.752 160.496)"/><use xlink:href="#bd" transform="matrix(60 0 0 -60 1392.632 149.996)"/><use xlink:href="#ba" transform="matrix(60 0 0 -60 1409.732 149.996)"/><g data-name="Span"><symbol id="be"><path d="M.066 0h.178v.401H.35v.122H.244v.046c0 .034.018.057.059.057C.323.626.337.624.35.62v.131a.3.3 0 0 1-.08.01C.147.761.066.699.066.569V.523H0V.401h.066V0z"/></symbol><use xlink:href="#be" transform="matrix(60 0 0 -60 1425.332 149.996)"/></g><symbol id="bf"><path d="M.284 0c.158 0 .249.067.265.185H.381C.374.15.349.123.29.123c-.064 0-.104.04-.109.109h.368v.047c0 .188-.123.27-.266.27C.125.549 0 .443 0 .275V.267C0 .096.12 0 .284 0M.183.333c.009.063.046.098.1.098.058 0 .089-.035.092-.098H.183z"/></symbol><symbol id="bg"><path d="M.22 0c.079 0 .137.043.163.097V.012h.179v.753H.383V.461C.353.514.304.549.222.549.098.549 0 .454 0 .276V.268C0 .087.099 0 .22 0m.063.137C.221.137.182.182.182.27v.008c0 .091.036.136.103.136.066 0 .103-.047.103-.135V.271C.388.182.348.137.283.137z"/></symbol><use xlink:href="#ba" transform="matrix(60 0 0 -60 1449.992 149.996)"/><use xlink:href="#bf" transform="matrix(60 0 0 -60 1466.252 150.716)"/><use xlink:href="#bg" transform="matrix(60 0 0 -60 1502.252 150.716)"/></g></g></svg>